M48
INCH
T01C.005906
T02C.007874
T03C.011811
T04C.040157
T05C.073
T06C.043307
T07C.062992
T08C.137795
;LEADER: 12 
;HEADER: 
;CODE  : ASCII 
;FILE  : pcie-nvme_rework2-1-6.drl for  ... layers TOP and BOTTOM
;DESIGN: pcie-nvme_rework2.brd
;T01 Holesize 1. = 5.905512 Tolerance = +0.000000/-0.000000 PLATED MILS Quantity = 174
;T02 Holesize 2. = 7.874016 Tolerance = +0.000000/-0.000000 PLATED MILS Quantity = 552
;T03 Holesize 3. = 11.811024 Tolerance = +0.000000/-0.000000 PLATED MILS Quantity = 220
;T04 Holesize 4. = 40.157480 Tolerance = +0.000000/-0.000000 PLATED MILS Quantity = 10
;T05 Holesize 5. = 73.000000 Tolerance = +0.000000/-0.000000 PLATED MILS Quantity = 6
;T06 Holesize 6. = 43.307087 Tolerance = +1.968504/-1.968504 NON_PLATED MILS Quantity = 7
;T07 Holesize 7. = 62.992126 Tolerance = +1.968504/-1.968504 NON_PLATED MILS Quantity = 7
;T08 Holesize 8. = 137.795276 Tolerance = +0.000000/-0.000000 NON_PLATED MILS Quantity = 21
%
G90
T01
X0400311Y0216717
X0393138Y0185492
X0409122Y0193051
X0396625Y0228168
X0409081Y0169698
X0408436Y0177572
X0404499Y0165761
X0396625Y0189383
X0389336Y0177572
X0385399Y0165761
X0377525Y0177572
X0377525Y0169698
X0377525Y0165761
X0365714Y0165761
X0365714Y0216357
X0365714Y0212420
X0377525Y0208483
X0365714Y0204546
X0381462Y0204546
X0385399Y0200609
X0377525Y0200609
X0389336Y0193320
X0365714Y0189383
X0385399Y0189383
X0377525Y0189383
X0365714Y0181509
X0365714Y0177572
X0365714Y0169698
X0420247Y0224231
X0408436Y0228168
X0408436Y0224231
X0408436Y0216357
X0400562Y0204546
X0396625Y0216357
R02Y-0007874
X0389336Y0228168
X0389336Y0204546
X0381462Y0208483
X0377525Y0224231
X0377525Y0216357
X0373588Y0228168
X0365714Y0224231
X0361777Y0228168
X0420247Y0220294
R04Y-0003937
X0408436Y0204546
X0420247Y0200609
X0400562Y0193320
X0420247Y0185446
X0408436Y0185446
X0420247Y0181509
X0420247Y0177572
X0420247Y0169698
X0424184Y0165761
X0385399Y0224231
X0400562Y0220294
X0365714Y0208483
X0404499Y0208483
X0377525Y0212420
X0408436Y0208483
X0377525Y0204546
X0408436Y0200609
X0381462Y0200609
X0404499Y0193320
X0377525Y0193320
X0408436Y0189383
X0408436Y0181509
X0400562Y0208483
X0396625Y0204546
X0385399Y0204546
X0400562Y0200609
X0389336Y0200609
X0396625Y0193320
X0385399Y0193320
X0400562Y0189383
X0389336Y0189383
X0377525Y0185446
X0365714Y0200609
X0420247Y0193320
X0365714Y0193320
X0389336Y0173635
X0408436Y0220294
X0377525Y0220294
X0408436Y0173635
X0377525Y0173635
X0365714Y0185446
X0396625Y0212420
X0408436Y0212420
X0389336Y0220294
X0389336Y0216357
X0377525Y0232105
X0365714Y0220294
X0389336Y0212420
X0373588Y0216357
X0373588Y0212420
X0389336Y0208483
X0373588Y0208483
X0373588Y0204546
X0373588Y0200609
X0373588Y0193320
X0412373Y0200609
R07Y0003937
X0416310Y0228168
R02Y-0003937
X0373588Y0189383
X0369651Y0189383
X0416310Y0216357
X0381462Y0216357
X0416310Y0212420
X0381462Y0220294
X0416310Y0208483
X0381462Y0181509
X0385399Y0177572
X0373588Y0181509
X0416310Y0204546
X0373588Y0185446
X0404499Y0228168
X0416310Y0200609
X0381462Y0193320
X0369651Y0193320
X0361777Y0185446
X0369651Y0200609
X0369651Y0181509
X0369651Y0204546
X0381462Y0185446
X0369651Y0208483
X0385399Y0185446
X0385399Y0181509
X0404499Y0216357
X0369651Y0212420
X0404499Y0212420
X0369651Y0185446
X0369651Y0216357
X0357840Y0185446
X0404499Y0224231
X0381462Y0177572
X0381462Y0189383
X0381462Y0224231
X0381462Y0212420
X0381462Y0232105
X0389336Y0224231
X0385399Y0208483
X0369651Y0220294
X0373588Y0220294
X0396625Y0185446
X0369651Y0224231
X0373588Y0224231
X0396625Y0181509
X0396625Y0220294
X0385399Y0216357
X0396625Y0224231
X0381462Y0228168
X0377525Y0228168
X0400562Y0224231
X0385399Y0220294
X0385399Y0212420
X0506305Y0133209
X0604730Y0132972
X0703156Y0132972
X0801581Y0133209
X0900006Y0133209
X0998431Y0139531
X1096854Y0137118
T02
X0483146Y0093185
X0557154Y0094394
X0774415Y0098309
X0856305Y0097848
X0675990Y0097978
X0757880Y0097585
X0581508Y0094126
X0659455Y0098195
X0350783Y0183070
X0238430Y0037977
X0350783Y0186228
X0235208Y0037977
X0775024Y0377898
X0705102Y0130559
X0803504Y0130862
X0576012Y0378091
X0508106Y0138197
X0606638Y0138197
X0250386Y0093689
X0257150Y0123429
X1095728Y0094193
X1088878Y0087941
X0999415Y0092959
X0990173Y0087933
X0900990Y0092478
X0892350Y0087933
X0802565Y0092742
X0793850Y0087933
X0704140Y0093207
X0695386Y0087697
X0603039Y0095807
X0596618Y0087697
X0505516Y0094327
X0498008Y0087933
X0196224Y0138953
X0196256Y0142453
X0196122Y0131807
X0196224Y0135760
X0085512Y0138835
X0074413Y0139240
X0070579Y0120736
X0060252Y0120906
X0070780Y0217807
X0060012Y0218346
X0085516Y0236327
X0074043Y0236697
X0174091Y0238110
X0170051Y0219472
X0184890Y0237803
X0159673Y0219606
X0453354Y0313713
X0261752Y0299480
X0872841Y0097888
X0954730Y0098246
X0975102Y0093925
X1048102Y0094260
X0994547Y0183677
X1073366Y0093689
X1147343Y0094933
X0900016Y0252575
X0193795Y0152496
X0192390Y0150154
X0417437Y0160602
X0702815Y0185831
X1159709Y0112217
X0571350Y0221961
X0402783Y0233303
X0407472Y0343969
X0361169Y0318150
X0412150Y0160870
X0368888Y0284713
X0420697Y0161398
X0373992Y0284795
X0376546Y0284796
X0248252Y0354276
X0209098Y0022157
X0361197Y0284579
X0356772Y0230594
X0371398Y0284756
X0514569Y0095289
X0520474Y0095289
X0379107Y0284756
X0612994Y0095052
X0624805Y0095052
X0714578Y0095052
X0723230Y0095052
X0809844Y0095289
X0821655Y0095683
X0911428Y0095289
X0923239Y0095289
X1009853Y0095289
X1021664Y0095289
X1108276Y0095296
X1120087Y0095296
X1116929Y0095296
X0506492Y0183272
X1105118Y0095296
X1018506Y0095289
X0505961Y0070546
X1006694Y0095289
X0502740Y0070546
X0345676Y0188181
X0920080Y0095289
X0569226Y0112219
X0547644Y0112219
X0342455Y0188181
X0994795Y0071487
X0373996Y0318205
X0908269Y0095289
X0376555Y0318055
X1096461Y0071202
X0368917Y0318165
X0824813Y0095683
X0702798Y0070213
X0604354Y0070390
X0379114Y0317992
X0813003Y0095289
X0801261Y0071011
X0971453Y0377665
X1098850Y0132531
X0902102Y0133016
X1000331Y0168067
X0726388Y0095052
X0711419Y0095052
X0699576Y0070213
X0627963Y0095052
X0896279Y0070773
X0899501Y0070773
X0248071Y0356740
X0616152Y0095052
X0998017Y0071487
X0523633Y0095289
X0601132Y0070390
X0517727Y0095289
X0189429Y0353413
X1093240Y0071202
X0798039Y0071011
X0218000Y0353476
X0376280Y0256075
X0408327Y0305673
X0189335Y0358409
X0413963Y0340089
X0219094Y0022457
X0408398Y0303114
X0408305Y0310789
X0247874Y0305776
X0428972Y0300520
X0764177Y0206016
X0341902Y0297827
X0421078Y0345587
X0421078Y0371692
X0414768Y0160795
X0371476Y0318059
X0217945Y0348445
X0374476Y0254220
X0422894Y0295406
X0408213Y0308250
X0397161Y0232713
X0420299Y0292882
X0426138Y0297965
X0060291Y0080039
X0253870Y0061131
X0261819Y0061127
X0257846Y0061123
X0496398Y0022740
X0488594Y0022941
X0480520Y0023480
X0472512Y0023213
X0464642Y0023213
X0456906Y0023146
X0449370Y0023280
X0441228Y0022941
X0433220Y0023413
X0425484Y0023146
X0417939Y0023069
X0409941Y0023213
X0401803Y0023346
X0394268Y0023280
X0386193Y0022941
X0366343Y0022874
X0358406Y0022740
X0349016Y0022933
X0342862Y0022941
X0334858Y0023146
X0326917Y0023012
X0319449Y0022941
X0309646Y0022933
X0295902Y0022945
X0287760Y0022874
X0280157Y0022874
X0272150Y0022606
X0264685Y0021902
X0252437Y0022606
X0244618Y0022020
X0232791Y0022000
X0205343Y0023547
X0191535Y0022933
X0504000Y0023012
X0374618Y0023346
X0305709Y0022933
X0179724Y0022933
X0077807Y0331142
X0077866Y0324705
X0086674Y0319547
X0086674Y0315575
X0086698Y0311579
X0030173Y0148996
X0030173Y0142697
X0045886Y0205138
X0060331Y0098937
X0060331Y0092638
X0060291Y0086339
X0129795Y0241898
X0145354Y0304201
X0114811Y0120866
X0114850Y0108268
X0114850Y0101969
X0114850Y0114567
X0164567Y0197677
R03Y-0006299
X0214189Y0219713
X0129795Y0248197
X0214189Y0213413
X0214228Y0207114
X0214240Y0200650
X0030252Y0240500
X0045866Y0302870
X0030252Y0246799
X0066484Y0196591
X0066484Y0190252
X0066484Y0183953
X0066484Y0177614
X0114626Y0217929
R02Y-0006299
X0114587Y0199031
X0166335Y0104846
X0159929Y0104846
X0148193Y0170327
X0195669Y0094295
X0202008Y0094295
X0208276Y0139906
X0214614Y0139906
X0262516Y0092731
X0258067Y0092728
X0253894Y0092728
X0266461Y0127513
X0266441Y0157224
X0258528Y0127505
X0262496Y0127505
X0253563Y0234002
X0258315Y0237694
X0262264Y0237686
X0252587Y0168859
X0252587Y0200310
X0262461Y0157216
X0258500Y0157216
X0253736Y0160928
X0253559Y0271034
X0258299Y0267334
X0262260Y0267338
X0253724Y0232199
X0258496Y0228499
X0262453Y0228503
X0249039Y0125614
X0275610Y0341296
X0236972Y0340762
X0186961Y0340030
X0240165Y0342447
X0190154Y0341707
X0272406Y0343665
X0245665Y0340654
X0347347Y0346047
X0347367Y0342024
X0347367Y0338024
X0347410Y0329988
X0347391Y0334024
X0347424Y0323591
X0347087Y0265165
X0347087Y0273142
X0347087Y0269142
X0347083Y0277126
X0347068Y0281122
X0398493Y0319331
X0400389Y0313772
X0400389Y0316173
X0452649Y0319020
X0450753Y0315854
X0450757Y0313469
X0400118Y0375207
X0395366Y0371403
X0165795Y0383020
X0262927Y0349165
X0131102Y0227276
X0188752Y0154472
X0031449Y0225835
X0031650Y0128130
X0131039Y0230626
X0142961Y0228689
X0098021Y0133885
X0197635Y0232928
X0035823Y0229169
X0043315Y0227350
X0098112Y0231578
X0183107Y0111030
X0403323Y0239925
X0418571Y0239835
X0409949Y0153941
X0405043Y0153929
X0407469Y0153933
X0420528Y0153917
X0414768Y0153917
X0190661Y0395354
X0239691Y0398854
X0388051Y0287752
X0388079Y0285618
X0350031Y0230594
X0412197Y0152449
X0350055Y0233413
X0421047Y0239811
X0397189Y0239976
X0417437Y0153953
X0423610Y0239850
X0426421Y0239850
X0429354Y0239854
X0447346Y0403154
X0409866Y0403154
X0213679Y0366104
X0353999Y0289846
X0409749Y0287747
X0441684Y0287747
X0406904Y0372254
X0424819Y0344035
X0556774Y0135470
X0560778Y0135482
X0553498Y0133128
X0551018Y0133128
X0659183Y0135506
X0655179Y0135513
X0652010Y0133206
X0649624Y0133210
X0535022Y0135562
X0538285Y0133135
X0540722Y0133135
X0633624Y0135417
X0636872Y0133009
X0639285Y0133009
X0581596Y0135175
X0478707Y0135364
X0482671Y0135364
X0485872Y0132990
X0488285Y0132990
X0577616Y0135175
X0584837Y0132777
X0587230Y0132797
X0472272Y0093001
X0472272Y0083884
X0570921Y0092489
X0570921Y0083372
X0757419Y0135691
X0753419Y0135698
X0750211Y0133293
X0747770Y0133313
X0855978Y0135482
X0851994Y0135513
X0848746Y0133139
X0846333Y0133147
X0732041Y0135743
X0735278Y0133328
X0737707Y0133339
X0830396Y0135810
X0836061Y0133485
X0833616Y0133485
X0676061Y0135529
X0680085Y0135529
X0777990Y0135687
X0781238Y0133277
X0783683Y0133277
X0683305Y0133155
X0685719Y0133120
X0774022Y0135679
X0669413Y0092457
X0669413Y0083341
X0770274Y0092603
X0770274Y0083487
X0954565Y0135490
X0950561Y0135517
X0947376Y0133147
X0944982Y0133135
X1052612Y0135592
X1048604Y0135569
X1045384Y0133198
X1042963Y0133218
X0928789Y0135739
X0932002Y0133339
X0934423Y0133296
X1027455Y0135617
X1030652Y0133186
X1033073Y0133162
X0971096Y0135419
X0975081Y0135431
X0978289Y0133257
X0980730Y0133210
X0872841Y0135710
X0876813Y0135694
X0879990Y0133297
X0882392Y0133289
X0868711Y0083514
X0868711Y0092631
X0966990Y0083565
X0966990Y0092682
X1151398Y0135651
X1147378Y0135675
X1144181Y0133324
X1141795Y0133336
X1125634Y0135960
X1128831Y0133371
X1131228Y0133387
X1069870Y0135415
X1073846Y0135407
X1077063Y0132994
X1079508Y0133017
X1065669Y0083557
X1065669Y0092674
X0565817Y0110469
X0664242Y0110283
X0762671Y0110394
X0861148Y0110425
X0959557Y0110500
X1057986Y0110535
X1156327Y0110535
X0556502Y0082389
X0554533Y0083524
R07X-0005906
X0487604Y0083524
X0485636Y0082389
X0483667Y0083524
X0654927Y0082153
X0652959Y0083287
R07X-0005906
X0586030Y0083287
X0584061Y0082153
X0582093Y0083287
X0646069Y0111982
X0710045Y0083287
X0753352Y0082153
X0751384Y0083287
R06X-0005906
X0684455Y0083287
X0682486Y0082153
X0680518Y0083287
X0744494Y0111982
X0851778Y0082389
X0849809Y0083524
R07X-0005906
X0782880Y0083524
X0780911Y0082389
X0778943Y0083524
X0842919Y0112219
X0950203Y0082389
X0948234Y0083524
R07X-0005906
X0881305Y0083524
X0879337Y0082389
X0877368Y0083524
X0941344Y0112219
X1048628Y0082389
X1046659Y0083524
R07X-0005906
X0979730Y0083524
X0977762Y0082389
X0975793Y0083524
X1039770Y0112219
X1147051Y0082397
X1145083Y0083531
R07X-0005906
X1078154Y0083531
X1076185Y0082397
X1074217Y0083531
X1138193Y0112226
X0515980Y0368433
X0615591Y0368323
X0714047Y0368823
X0812807Y0368441
X0910811Y0368370
X1011228Y0368642
X1109114Y0368480
X0667618Y0112090
X0474888Y0092989
X0474888Y0083872
X0573494Y0092489
X0573494Y0083372
X0766043Y0112113
X0864524Y0112157
X0671994Y0092469
X0671994Y0083353
X0767693Y0092611
X0767693Y0083494
X0962953Y0112192
X1061370Y0112267
X0866098Y0083522
X0866098Y0092639
X0964378Y0083589
X0964378Y0092706
X1062839Y0083546
X1063079Y0092690
X0557441Y0378091
X0756846Y0377898
X0953287Y0377665
T03
X1138295Y0134193
X1134358Y0134193
X1138295Y0130256
X1134358Y0130256
X1064150Y0132917
X1060213Y0132917
X1064150Y0128980
X1060213Y0128980
X1039724Y0134327
X1036193Y0134193
X1039657Y0130827
X1036260Y0130894
X0966724Y0133248
X0962787Y0133248
X0966724Y0129311
X0962787Y0129311
X0941429Y0134461
X0937492Y0134461
X0941429Y0130524
X0937492Y0130524
X0867823Y0133118
X0863886Y0133118
X0867823Y0129181
X0863886Y0129181
X0238476Y0357142
X0234539Y0357142
X0238476Y0353205
X0234539Y0353205
X0438823Y0321209
X0434886Y0321209
X0362055Y0343043
X0362055Y0339106
X0365894Y0343106
X0365894Y0339169
X0410260Y0363291
X0406323Y0363291
X0410260Y0359354
X0406323Y0359354
X0101161Y0188945
R02X-0003937
X0101161Y0185008
R02X-0003937
X0101161Y0181071
R02X-0003937
X0101161Y0177134
R02X-0003937
X0101161Y0173197
R02X-0003937
X0101161Y0169260
R02X-0003937
X0216969Y0114587
R02X-0003937
X0216969Y0110650
R02X-0003937
X0216969Y0106713
R02X-0003937
X0474465Y0133319
X0470528Y0133319
X0474465Y0129382
X0470528Y0129382
X0547839Y0134260
X0543902Y0134260
X0547839Y0130323
X0543902Y0130323
X0572256Y0133386
X0568319Y0133386
X0572256Y0129449
X0568319Y0129449
X0646335Y0134193
X0642398Y0134193
X0646335Y0130256
X0642398Y0130256
X0671567Y0133386
X0667630Y0133386
X0671567Y0129449
X0667630Y0129449
X0744768Y0134059
X0740831Y0134059
X0744768Y0130122
X0740831Y0130122
X0769327Y0133181
X0765390Y0133181
X0769327Y0129244
X0765390Y0129244
X0843063Y0133720
X0839126Y0133720
X0843063Y0129783
X0839126Y0129783
X0043839Y0129528
X0031465Y0131472
X0094787Y0092870
R02X-0003937
X0094787Y0088933
R02X-0003937
X0094787Y0084996
R02X-0003937
X0094787Y0081059
R02X-0003937
X0094787Y0077122
R02X-0003937
X0094787Y0073185
R02X-0003937
X0270433Y0144118
R03X-0003937
X0270433Y0140181
R03X-0003937
X0271543Y0079157
R04X-0003937
X0271543Y0075220
R04X-0003937
X0267138Y0110480
R03X-0003937
X0267138Y0106543
R03X-0003937
X0268453Y0213654
R04X-0003937
X0268453Y0209717
R04X-0003937
X0268453Y0205780
R04X-0003937
X0280429Y0357610
X0280429Y0353673
X0204335Y0348933
X0200398Y0348933
X0204335Y0344996
X0200398Y0344996
X0414016Y0323126
X0410079Y0323126
X0360492Y0274252
R02Y-0003937
X0211228Y0191382
R05X-0003937
X0211228Y0187445
R05X-0003937
X0211228Y0183508
R05X-0003937
X0211228Y0179571
R05X-0003937
X0211228Y0175634
R05X-0003937
X0264516Y0188118
R02X-0003937
X0264516Y0184181
R02X-0003937
X0264516Y0180244
R02X-0003937
X0273130Y0254591
R04X-0003937
X0273130Y0250654
R04X-0003937
X0215157Y0022653
X0183661Y0021859
T04
X0199890Y0397949
X0209890Y0397949
X0269642Y0394654
R02X-0010000
X0318339Y0397291
R04X0010000
T05
X0138669Y0371630
R02X-0016535
X0138669Y0388166
R02X-0016535
T06
X0559455Y0108898
X0657880Y0108661
X0756305Y0108661
X0854730Y0108898
R02X0098425
X1150004Y0108906
T07
X0480715Y0108701
X0579140Y0108465
X0677565Y0108465
X0775990Y0108701
R02X0098425
X1071264Y0108709
T08
X0520085Y0339016
X0520085Y0268150
X0520085Y0220906
X0618510Y0338780
X0618510Y0267913
X0618510Y0220669
X0716935Y0338780
X0716935Y0267913
X0716935Y0220669
X0815360Y0339016
X0815360Y0268150
X0815360Y0220906
X0913785Y0339016
X0913785Y0268150
X0913785Y0220906
X1012211Y0339016
X1012211Y0268150
X1012211Y0220906
X1110634Y0339024
X1110634Y0268157
X1110634Y0220913
M30
