G04 ================== begin FILE IDENTIFICATION RECORD ==================*
G04 Layout Name:  pcie-nvme_rework2.brd*
G04 Film Name:    ART03L*
G04 File Format:  Gerber RS274X*
G04 File Origin:  Cadence Allegro 25.1-S010*
G04 Origin Date:  Tue May 12 01:05:28 2026*
G04 *
G04 Layer:  VIA CLASS/ART03*
G04 Layer:  PIN/ART03*
G04 Layer:  ETCH/ART03*
G04 *
G04 Offset:    (0.0000 0.0000)*
G04 Mirror:    No*
G04 Mode:      Positive*
G04 Rotation:  0*
G04 FullContactRelief:  No*
G04 UndefLineWidth:     0.1000*
G04 ================== end FILE IDENTIFICATION RECORD ====================*
%FSLAX25Y25*MOMM*%
%IR0*IPPOS*OFA0.00000B0.00000*MIA0B0*SFA1.00000B1.00000*%
%ADD11C,.6*%
%ADD13C,.7*%
%ADD15C,.35*%
%ADD10C,.45*%
%ADD16C,5.5*%
%ADD14C,1.37*%
%ADD12C,2.3622*%
%ADD17C,.12*%
%ADD18C,.15*%
%ADD19C,.127*%
%ADD20C,.1372*%
G75*
%LPD*%
G75*
G54D10*
X803900Y3254500D03*
X766400Y3624500D03*
Y3784500D03*
X798800Y5736200D03*
X768400Y6108700D03*
Y6268700D03*
X909900Y5820900D03*
X1100200Y5774700D03*
X1165500Y5210500D03*
X1165000Y7692900D03*
X1531400Y2033000D03*
Y2193000D03*
X1532400Y2353000D03*
Y2513000D03*
X1530400Y3071000D03*
X1524300Y5546000D03*
X1688700Y4511400D03*
Y4672400D03*
Y4832400D03*
Y4993400D03*
X1792700Y3066700D03*
X1797800Y5532300D03*
X1890100Y3536700D03*
X1880700Y6012100D03*
X1977800Y8247500D03*
X1976300Y8411000D03*
X2172000Y3526400D03*
X2172100Y6002700D03*
X2202120Y7914100D03*
X2201520Y8015600D03*
Y8116500D03*
X2489740Y3400680D03*
X2492040Y5882080D03*
X2917200Y2590000D03*
Y2750000D03*
Y2910000D03*
X2916200Y3070000D03*
X2910500Y5055400D03*
X2911500Y5215400D03*
Y5375400D03*
Y5535400D03*
X3330000Y5772800D03*
X3328400Y5857900D03*
X3296800Y6144200D03*
Y6304200D03*
X3631200Y5808700D03*
X3692000Y7726700D03*
X3764100Y4326300D03*
X4062200Y2663100D03*
X4055700Y5578000D03*
X4180000Y4541000D03*
Y4701000D03*
Y4861000D03*
Y5021000D03*
X4211200Y9728700D03*
X4224900Y2663100D03*
X4319300Y5574600D03*
X4421900Y6048000D03*
X4564990Y582500D03*
X4650920Y2820160D03*
X4696200Y6040200D03*
X4794310Y3923600D03*
X4748800Y8636760D03*
X4811500Y8976700D03*
X4809100Y9103600D03*
X4864990Y582510D03*
X4886700Y3813900D03*
X4829900Y8679360D03*
X4842800Y10042000D03*
X4922400Y3873400D03*
X4970000Y2395100D03*
X4981500Y3347900D03*
X4984100Y3448300D03*
Y3529400D03*
X4984900Y3618300D03*
X5019940Y5916380D03*
X5131000Y2395100D03*
X5215700Y598100D03*
X5311100Y562800D03*
X5290200Y3553600D03*
X5451200D03*
X5441700Y5096500D03*
X5441400Y5260700D03*
X5440400Y5420700D03*
Y5580700D03*
X5427450Y9299050D03*
X5535800Y8850500D03*
X5537200Y8978300D03*
X5564990Y570400D03*
X5912900Y558800D03*
X5974290Y964610D03*
X6056120D03*
X6019100Y8655360D03*
X6100200Y8698160D03*
X6088160Y10130880D03*
X6213300Y559300D03*
X6296000Y7766700D03*
X6239900Y8652620D03*
X6359800Y2379700D03*
X6325600Y3190600D03*
X6305600Y8998600D03*
X6301000Y9061200D03*
X6411900Y574200D03*
X6444900Y4087560D03*
X6415700Y4289020D03*
Y5087880D03*
X6444600Y5897860D03*
X6440500Y5943640D03*
X6440400Y6884260D03*
X6448300Y1552720D03*
X6448900Y2355280D03*
X6549300Y1552520D03*
X6554900Y2355280D03*
X6531600Y3135100D03*
X6566600Y3238620D03*
X6565900Y3993280D03*
X6565800Y5803880D03*
X6561200Y6037420D03*
X6560800Y6790280D03*
X6650200Y1552620D03*
X6667900Y2355380D03*
X6667400Y3238620D03*
X6666500Y3993280D03*
X6666300Y5803980D03*
X6661500Y6037220D03*
X6661400Y6790380D03*
X6648500Y7606800D03*
X6723000Y556300D03*
X6678350Y8868780D03*
X6768100Y3238820D03*
X6767600Y3993480D03*
X6912600Y574200D03*
X6919100Y8729080D03*
X7000500Y8668920D03*
X7116000Y581000D03*
X7309100D03*
X7515900Y582800D03*
X7765010Y582500D03*
X7865010Y582510D03*
X8114000Y582700D03*
X8303700Y584500D03*
X8505400Y587900D03*
X8708700Y582700D03*
X8698350Y4779800D03*
X8684300Y7564800D03*
X8780180Y4779800D03*
X8816020Y6735200D03*
Y6836200D03*
Y6937800D03*
X8815920Y7039000D03*
X8815520Y7140500D03*
X8865010Y582510D03*
X8891400Y5928700D03*
X8890800Y5857100D03*
X8824560Y8219200D03*
X8824220Y8381700D03*
X8823720Y8484200D03*
X8823120Y8585800D03*
Y8687400D03*
X8822620Y8789600D03*
X8909900Y4649970D03*
Y4730200D03*
X8991580Y7362080D03*
X9103500Y577600D03*
X9062000Y5857100D03*
X9174400Y7228300D03*
X9173700Y8081000D03*
X9305100Y581000D03*
X9369750Y7231700D03*
X9370500Y8081400D03*
X9433500Y7232800D03*
X9435500Y8078700D03*
X9515300Y593000D03*
X9511700Y6457200D03*
X9557500Y6504300D03*
X9499400Y7233800D03*
X9499500Y8082400D03*
X9629310Y7232810D03*
X9564280Y7233820D03*
X9629500Y8077000D03*
X9564500Y8078600D03*
X9809300Y582700D03*
X9857200Y7254700D03*
X9856500Y7308900D03*
X10014400Y591300D03*
X10042300Y9433640D03*
X10087900Y5910900D03*
X10088600Y6095400D03*
X10121720Y8111000D03*
X10205800Y593000D03*
X10169880Y7969800D03*
Y8030800D03*
X10163000Y9530260D03*
X10288100Y3909800D03*
X10230700Y5925900D03*
X10244400Y6094100D03*
X10349700Y3909900D03*
X10373300Y7699100D03*
X10371500Y7764100D03*
X10368600Y7829550D03*
X10370950Y7894050D03*
X10349800Y8736800D03*
X10335350Y9455250D03*
X10412500Y589600D03*
X10412700Y3910100D03*
X10407630Y7308770D03*
X10410600Y10240100D03*
X10469800Y3872200D03*
X10468600Y4086100D03*
X10514650Y8638250D03*
X10535100Y3909500D03*
Y4084200D03*
X10615650Y585950D03*
X10602900Y3910400D03*
Y4079300D03*
X10631700Y6091800D03*
X10681400Y3909500D03*
X10685700Y4099500D03*
X10694600Y6091200D03*
X10675600Y7439200D03*
X10741500Y7503300D03*
X10695390Y8777910D03*
Y9440970D03*
X10807300Y587900D03*
X10759700Y6092200D03*
X10790400Y8738500D03*
X10831100Y6092200D03*
X10823900Y7568300D03*
X10905600Y6092300D03*
X10895900Y7633200D03*
X11003800Y594700D03*
X11207200Y582700D03*
X11218770Y7308770D03*
X11414000Y591300D03*
X11362600Y10240100D03*
X11449220Y7962100D03*
X11449120Y8022700D03*
X11515200Y7968300D03*
X11497280Y8103100D03*
X11605400Y587900D03*
X11801900Y589600D03*
X12001800D03*
X11995700Y2130660D03*
Y2362220D03*
X12062150Y2130360D03*
Y2361920D03*
X12205200Y596400D03*
X12159150Y3438240D03*
X12285150Y2121500D03*
X12271900Y2366900D03*
X12259850Y3438240D03*
X12335150Y2092690D03*
X12341150Y3377940D03*
X12410300Y582700D03*
X12385150Y2121500D03*
X12402450Y3377940D03*
X12608500Y577600D03*
X12649400Y2233500D03*
X12801600Y584500D03*
X12769590Y1791870D03*
X12851420D03*
X12840100Y2395900D03*
X12864900Y4655100D03*
X12905900Y3510200D03*
X13035150Y2121500D03*
X13070040Y2420330D03*
X13105900Y9358200D03*
X13185150Y2121500D03*
X13150270Y2420330D03*
X13220040D03*
X13335150Y2121500D03*
X13300270Y2420330D03*
X13485150Y2121500D03*
X13635150D03*
X13589550Y3443280D03*
X13672450Y3381620D03*
X13785150Y2121500D03*
X13734350Y3381620D03*
X13910150Y2850350D03*
X13935150Y2121500D03*
X13995850Y3381440D03*
X14058850D03*
X14085150Y2121500D03*
X14135150Y2092690D03*
X14151700Y2397600D03*
X14142050Y3440940D03*
X14159000Y9603500D03*
X14243750Y3441240D03*
X14371750Y2805900D03*
X14501400Y2117660D03*
Y2349220D03*
X14458350Y2850350D03*
X14512300Y5637800D03*
X14566750Y2117660D03*
Y2349220D03*
X14671450Y3433440D03*
X14630700Y9603500D03*
X14785150Y2115500D03*
X14770300Y2390800D03*
X14772550Y3433440D03*
X14835150Y2086690D03*
X14885150Y2115500D03*
X14854850Y3372540D03*
X14915650Y3373040D03*
X15154100Y2227500D03*
X15268750Y1787900D03*
X15317200Y2433500D03*
X15350580Y1787900D03*
X15408600Y3510200D03*
X15535150Y2115500D03*
X15570040Y2414330D03*
X15636000Y9355400D03*
X15685150Y2115500D03*
X15650270Y2414330D03*
X15835150Y2115500D03*
X15870040Y2414330D03*
X15985150Y2115500D03*
X15950270Y2414330D03*
X16135150Y2115500D03*
X16094050Y3439580D03*
X16176550Y3378420D03*
X16285150Y2115500D03*
X16237850Y3378420D03*
X16435150Y2115500D03*
X16410150Y2844350D03*
X16500450Y3383540D03*
X16585150Y2115500D03*
X16561050Y3383440D03*
X16635150Y2086690D03*
X16641550Y3442040D03*
X16750150Y2494150D03*
X16743250Y3441840D03*
X16871750Y2801200D03*
X16957500Y2847080D03*
X17003100Y2116860D03*
Y2348420D03*
X17068650Y2117160D03*
Y2348720D03*
X17170150Y2488650D03*
X17171950Y3442440D03*
X17285150Y2115500D03*
X17335150Y2086690D03*
X17274150Y3442440D03*
X17385150Y2115500D03*
X17355950Y3382140D03*
X17417250Y3381240D03*
X17662800Y2227500D03*
X17769240Y1783420D03*
X17851070D03*
X17851500Y4720100D03*
X17885150Y2367450D03*
X17909600Y3316200D03*
X18035150Y2115500D03*
X18070040Y2414330D03*
X18150270D03*
X18136800Y9368100D03*
X18185150Y2115500D03*
X18335150D03*
X18370030Y2414330D03*
X18450260D03*
X18485150Y2115500D03*
X18593850Y3447880D03*
X18635150Y2115500D03*
X18676050Y3386520D03*
X18737750Y3386820D03*
X18785150Y2115500D03*
X18935150D03*
X18910150Y2844350D03*
X18993350Y3386140D03*
X19085150Y2115500D03*
X19055350Y3385640D03*
X19135150Y2086690D03*
X19136850Y3446740D03*
X19250150Y2478650D03*
X19238450Y3446540D03*
X19223900Y9598600D03*
X19371850Y2804000D03*
X19410100Y5232800D03*
X19457500Y2847680D03*
X19499400Y2120760D03*
X19564950Y2120560D03*
X19499400Y2352320D03*
X19564950Y2352120D03*
X19670150Y2497050D03*
X19660150Y3446240D03*
X19685600Y9598600D03*
X19785150Y2121500D03*
X19760950Y3446440D03*
X19835150Y2092690D03*
X19843450Y3385240D03*
X19885150Y2121500D03*
X19905550Y3385240D03*
X20163800Y2233500D03*
X20270190Y1803690D03*
X20352020D03*
X20385150Y2355650D03*
X20409000Y3323900D03*
X20535150Y2121500D03*
X20570040Y2420330D03*
X20650270D03*
X20645300Y9358400D03*
X20685150Y2121500D03*
X20835150D03*
X20870030Y2430340D03*
X20950260D03*
X20985150Y2121500D03*
X21092050Y3449580D03*
X21135150Y2121500D03*
X21173850Y3390520D03*
X21235950D03*
X21285150Y2121500D03*
X21410150Y2850350D03*
X21435150Y2121500D03*
X21496850Y3381940D03*
X21558150Y3381740D03*
X21585150Y2121500D03*
X21635150Y2092690D03*
X21640650Y3442040D03*
X21750150Y2485350D03*
X21741850Y3441240D03*
X21873150Y2804800D03*
X21998900Y2121460D03*
Y2353020D03*
X21958900Y2848780D03*
X22065250Y2121260D03*
Y2352820D03*
X22170150Y2486350D03*
Y3447040D03*
X22285150Y2121500D03*
X22271050Y3446640D03*
X22335150Y2092690D03*
X22385150Y2121500D03*
X22351750Y3385740D03*
X22412750Y3385540D03*
X22665700Y2233500D03*
X22765490Y1797630D03*
X22847320D03*
X22885150Y2348950D03*
X22860400Y6415400D03*
X22913400Y3378600D03*
X23035150Y2121500D03*
X23070040Y2420330D03*
X23185150Y2121500D03*
X23150270Y2420330D03*
X23134600Y9356600D03*
X23335150Y2121500D03*
X23370030Y2420330D03*
X23485150Y2121500D03*
X23450260Y2420330D03*
X23635150Y2121500D03*
X23591250Y3447780D03*
X23672850Y3386820D03*
X23785150Y2121500D03*
X23734350Y3385720D03*
X23935150Y2121500D03*
X23910150Y2850350D03*
X24002550Y3381640D03*
X24085150Y2121500D03*
X24063350Y3381940D03*
X24135150Y2092690D03*
X24144250Y3442140D03*
X24213500Y9592700D03*
X24250150Y2495450D03*
X24245950Y3441440D03*
X24372750Y2806700D03*
X24459000Y2849680D03*
X24495200Y2123160D03*
Y2354720D03*
X24561550Y2122560D03*
Y2354120D03*
X24665850Y3439640D03*
X24674900Y9592700D03*
X24785150Y2121500D03*
X24767600Y2385700D03*
X24767050Y3439940D03*
X24835150Y2092690D03*
X24885150Y2121500D03*
X24848550Y3384740D03*
X24910550Y3383540D03*
X25150400Y2233500D03*
X25267790Y1815770D03*
X25261500Y4665400D03*
X25349620Y1815770D03*
X25385150Y2361150D03*
X25408400Y4268900D03*
X25535150Y2121500D03*
X25570040Y2420330D03*
X25685150Y2121500D03*
X25650270Y2420330D03*
X25685200Y9363500D03*
X25835150Y2121500D03*
X25870040Y2420330D03*
X25985150Y2121500D03*
X25950270Y2420330D03*
X26135150Y2121500D03*
X26097350Y3444680D03*
X26178550Y3382920D03*
X26240050Y3382320D03*
X26285150Y2121500D03*
X26435150D03*
X26410150Y2850350D03*
X26491250Y3383740D03*
X26585150Y2121500D03*
X26552750Y3383240D03*
X26635150Y2092690D03*
X26621800Y2394200D03*
X26634550Y3443440D03*
X26736350Y3444040D03*
X26872850Y2807600D03*
X26958800Y2851580D03*
X26996100Y2122060D03*
X27002200Y2354320D03*
X27068000Y2122360D03*
Y2353920D03*
X27174700Y3439540D03*
X27263500Y2379700D03*
X27275700Y3439340D03*
X27285100Y2121700D03*
X27335100Y2092890D03*
X27385100Y2121700D03*
X27357400Y3378040D03*
X27419500Y3378640D03*
X27657500Y2233700D03*
X27768290Y1808520D03*
X27850120D03*
X27831500Y2392500D03*
X27910800Y3366300D03*
X28035100Y2121700D03*
X28069990Y2420530D03*
X28150220D03*
X28185100Y2121700D03*
X28171500Y9359400D03*
X28335100Y2121700D03*
X28369990Y2420530D03*
X28450220D03*
X28485100Y2121700D03*
X28591100Y3453380D03*
X28635100Y2121700D03*
X28672300Y3387620D03*
X28733200Y3388020D03*
X28785100Y2121700D03*
X28935100D03*
X28910100Y2850550D03*
X29001600Y3386740D03*
X29085100Y2121700D03*
X29062200Y3386440D03*
X29135100Y2092890D03*
X29142500Y2411300D03*
X29143400Y3446140D03*
X29245500Y3445540D03*
X29370700Y2807600D03*
X29456600Y2850300D03*
G54D20*
G01X8600800Y4641700D02*
Y3100000D01*
X6685500Y1184700D01*
X6112250D01*
X6001240Y1073690D01*
Y1042700D01*
G01X8628740Y4641700D02*
Y3088420D01*
X6697080Y1156760D01*
X6123830D01*
X6029180Y1062110D01*
Y1042700D01*
G54D11*
X799200Y3339400D03*
X1113500Y3290000D03*
X2207600Y1858900D03*
Y1958900D03*
Y2058900D03*
Y2158900D03*
Y2258900D03*
Y2358900D03*
X2307600Y1858900D03*
Y1958900D03*
Y2058900D03*
Y2158900D03*
Y2258900D03*
Y2358900D03*
X2369500Y4299200D03*
Y4399200D03*
Y4499200D03*
Y4599200D03*
Y4699200D03*
Y4799200D03*
X2407600Y1858900D03*
Y1958900D03*
Y2058900D03*
Y2158900D03*
Y2258900D03*
Y2358900D03*
X2469500Y4299200D03*
Y4399200D03*
Y4499200D03*
Y4599200D03*
Y4699200D03*
Y4799200D03*
X2569500Y4299200D03*
Y4399200D03*
Y4499200D03*
Y4599200D03*
Y4699200D03*
Y4799200D03*
X4865200Y4461100D03*
Y4561100D03*
Y4661100D03*
Y4761100D03*
Y4861100D03*
X4965200Y4461100D03*
Y4561100D03*
Y4661100D03*
Y4761100D03*
Y4861100D03*
X5065200Y4461100D03*
Y4561100D03*
Y4661100D03*
Y4761100D03*
Y4861100D03*
X5090100Y8762900D03*
Y8862900D03*
X5165200Y4461100D03*
Y4561100D03*
Y4661100D03*
Y4761100D03*
Y4861100D03*
X5190100Y8762900D03*
Y8862900D03*
X5265200Y4461100D03*
Y4561100D03*
Y4661100D03*
Y4761100D03*
Y4861100D03*
X5311000Y2710500D03*
Y2810500D03*
Y2910500D03*
X5411000Y2710500D03*
Y2810500D03*
Y2910500D03*
X5365200Y4461100D03*
Y4561100D03*
Y4661100D03*
Y4761100D03*
Y4861100D03*
X5464990Y575390D03*
X5511000Y2710500D03*
Y2810500D03*
Y2910500D03*
X5957300Y8971400D03*
Y9071400D03*
X6057300Y8971400D03*
Y9071400D03*
X6418700Y5226800D03*
Y5326800D03*
Y5426800D03*
X6497200Y1910600D03*
Y2010600D03*
X6485300Y2706200D03*
Y2806200D03*
X6518700Y4578200D03*
Y4678200D03*
Y4778200D03*
Y5226800D03*
Y5326800D03*
Y5426800D03*
X6597200Y1910600D03*
Y2010600D03*
X6585300Y2706200D03*
Y2806200D03*
X6569000Y3560600D03*
Y3660600D03*
X6537500Y6366600D03*
Y6466600D03*
X6669000Y3560600D03*
Y3660600D03*
X6618700Y4578200D03*
Y4678200D03*
Y4778200D03*
Y5226800D03*
Y5326800D03*
Y5426800D03*
X6637500Y6366600D03*
Y6466600D03*
X6697200Y1910600D03*
Y2010600D03*
X6685300Y2706200D03*
Y2806200D03*
X6718700Y4578200D03*
Y4678200D03*
Y4778200D03*
Y5226800D03*
Y5326800D03*
Y5426800D03*
X6737500Y6366600D03*
Y6466600D03*
X6797200Y1910600D03*
Y2010600D03*
X6785300Y2706200D03*
Y2806200D03*
X6769000Y3560600D03*
Y3660600D03*
X6818700Y5226800D03*
Y5326800D03*
Y5426800D03*
X6897200Y1910600D03*
Y2010600D03*
X6869000Y3560600D03*
Y3660600D03*
X6837500Y6366600D03*
Y6466600D03*
X6937500Y6366600D03*
Y6466600D03*
X7122900Y8983300D03*
Y9083300D03*
X9156500Y6766000D03*
Y6866000D03*
Y6966000D03*
X9196200Y8613300D03*
Y8713300D03*
X9293700Y8614900D03*
Y8714900D03*
X10320600Y9127600D03*
Y9227600D03*
X10416000Y8207400D03*
X10420600Y9127600D03*
Y9227600D03*
X10516000Y8207400D03*
X11046100Y8158700D03*
X11146100D03*
X11951400Y3286300D03*
Y3386300D03*
X12051400Y3286300D03*
Y3386300D03*
X13815100Y3310200D03*
Y3410200D03*
X13915100Y3310200D03*
Y3410200D03*
X14435300Y3288000D03*
Y3388000D03*
X14535300Y3288000D03*
Y3388000D03*
X16316900Y3308500D03*
Y3408500D03*
X16416900Y3308500D03*
Y3408500D03*
X16957800Y3288000D03*
Y3388000D03*
X17057800Y3288000D03*
Y3388000D03*
X18817100Y3305100D03*
Y3405100D03*
X18917100Y3305100D03*
Y3405100D03*
X19440900Y3282800D03*
Y3382800D03*
X19540900Y3282800D03*
Y3382800D03*
X21313800Y3296500D03*
Y3396500D03*
X21413800Y3296500D03*
Y3396500D03*
X21942700Y3281200D03*
Y3381200D03*
X22042700Y3281200D03*
Y3381200D03*
X23812300Y3315300D03*
Y3415300D03*
X23912300Y3315300D03*
Y3415300D03*
X24454800Y3284500D03*
Y3384500D03*
X24554800Y3284500D03*
Y3384500D03*
X26321000Y3324700D03*
X26319300Y3408500D03*
X26407300Y3323000D03*
X26409000Y3411900D03*
X26929400Y3276100D03*
Y3376100D03*
X27029400Y3276100D03*
Y3376100D03*
X28812700Y3308500D03*
Y3408500D03*
X28912700Y3308500D03*
Y3408500D03*
G54D12*
X2682200Y9439410D03*
Y9859410D03*
X3102200Y9439410D03*
Y9859410D03*
X3522200Y9439410D03*
Y9859410D03*
G54D13*
X4664990Y555210D03*
G54D14*
X5077200Y10107900D03*
X5331200D03*
X6340900Y10024200D03*
X6594900D03*
X6848900D03*
X8085800Y10091200D03*
X8339800D03*
X8593800D03*
X8847800D03*
X9101800D03*
G54D15*
X9089130Y4710320D03*
X9189130D03*
Y5795460D03*
X9289130Y4210320D03*
Y4310320D03*
Y4510320D03*
Y4610320D03*
Y4710320D03*
Y4810320D03*
Y4910320D03*
Y5095460D03*
Y5195460D03*
Y5295460D03*
Y5395460D03*
Y5495460D03*
Y5595460D03*
Y5695460D03*
X9389130Y4610320D03*
Y4710320D03*
Y4810320D03*
Y4910320D03*
Y5095460D03*
Y5195460D03*
Y5295460D03*
Y5395460D03*
Y5495460D03*
Y5595460D03*
Y5695460D03*
X9489130Y4610320D03*
Y4710320D03*
Y4810320D03*
Y4910320D03*
Y5095460D03*
Y5195460D03*
Y5295460D03*
Y5395460D03*
Y5495460D03*
Y5595460D03*
Y5695460D03*
Y5795460D03*
X9589130Y4210320D03*
Y4310320D03*
Y4410320D03*
Y4510320D03*
Y4710320D03*
Y4810320D03*
Y4910320D03*
Y5095460D03*
Y5195460D03*
Y5295460D03*
Y5395460D03*
Y5495460D03*
Y5595460D03*
Y5695460D03*
Y5795460D03*
Y5895460D03*
X9689130Y4510320D03*
Y4610320D03*
Y4710320D03*
Y4810320D03*
Y4910320D03*
Y5095460D03*
Y5195460D03*
Y5295460D03*
Y5395460D03*
Y5495460D03*
Y5595460D03*
Y5695460D03*
Y5795460D03*
Y5895460D03*
X9789130Y4210320D03*
Y4510320D03*
Y4610320D03*
Y4710320D03*
Y4810320D03*
Y4910320D03*
Y5095460D03*
Y5195460D03*
Y5295460D03*
Y5395460D03*
Y5495460D03*
Y5595460D03*
Y5695460D03*
X9889130Y4410320D03*
Y4510320D03*
Y4810320D03*
Y4910320D03*
Y5095460D03*
Y5195460D03*
Y5295460D03*
Y5395460D03*
Y5495460D03*
Y5595460D03*
Y5695460D03*
Y5795460D03*
X9985700Y4711500D03*
X10074270Y4610320D03*
Y4710320D03*
Y4810320D03*
Y4910320D03*
Y5095460D03*
Y5195460D03*
Y5295460D03*
Y5395460D03*
Y5495460D03*
Y5595460D03*
Y5695460D03*
Y5795460D03*
X10174270Y4810320D03*
Y4910320D03*
Y5095460D03*
Y5195460D03*
Y5295460D03*
X10167900Y5504600D03*
X10174270Y5595460D03*
Y5695460D03*
X10274270Y4210320D03*
Y4910320D03*
Y5295460D03*
Y5395460D03*
Y5495460D03*
Y5695460D03*
Y5795460D03*
X10390660Y4310320D03*
X10374270Y4410320D03*
Y4510320D03*
Y4610320D03*
Y4710320D03*
Y4810320D03*
X10391700Y4903500D03*
X10374270Y5095460D03*
Y5195460D03*
Y5295460D03*
Y5395460D03*
Y5495460D03*
Y5595460D03*
Y5695460D03*
Y5795460D03*
X10474270Y5095460D03*
Y5195460D03*
Y5295460D03*
Y5395460D03*
Y5495460D03*
Y5595460D03*
Y5695460D03*
Y5795460D03*
X10574270Y5095460D03*
Y5195460D03*
Y5295460D03*
Y5395460D03*
Y5495460D03*
Y5595460D03*
Y5695460D03*
Y5795460D03*
X10674270Y4310320D03*
Y4510320D03*
Y4610320D03*
Y4710320D03*
Y4910320D03*
Y5095460D03*
Y5195460D03*
Y5295460D03*
Y5395460D03*
Y5495460D03*
Y5595460D03*
Y5695460D03*
X10774270Y4210320D03*
X12860150Y3383500D03*
X15360150Y3377500D03*
X17860150D03*
X20360150Y3383500D03*
X22860150D03*
X25360150Y3544100D03*
X27860100Y3482800D03*
G54D16*
X13210150Y5611000D03*
Y6811000D03*
Y8611000D03*
X15710150Y5605000D03*
Y6805000D03*
Y8605000D03*
X18210150Y5605000D03*
Y6805000D03*
Y8605000D03*
X20710150Y5611000D03*
Y6811000D03*
Y8611000D03*
X23210150Y5611000D03*
Y6811000D03*
Y8611000D03*
X25710150Y5611000D03*
Y6811000D03*
Y8611000D03*
X28210100Y5611200D03*
Y6811200D03*
Y8611200D03*
G54D17*
G01X8909900Y4730200D02*
X8882890Y4703190D01*
X8624150D01*
X8601660Y4680700D01*
Y4645560D01*
X8600800Y4644700D01*
Y4641700D01*
G01X6001240Y1042700D02*
Y1039700D01*
X6002100Y1038840D01*
Y992420D01*
X5974290Y964610D01*
G01X8909900Y4649970D02*
X8882900Y4676970D01*
X8635020D01*
X8627880Y4669830D01*
Y4645560D01*
X8628740Y4644700D01*
Y4641700D01*
G01X6029180Y1042700D02*
Y1039700D01*
X6028320Y1038840D01*
Y992410D01*
X6056120Y964610D01*
G01X9689130Y5595460D02*
X9652240Y5558570D01*
X9635260D01*
X9635810Y5559120D01*
X9154830D01*
X8726150Y5130440D01*
Y4807600D01*
X8698350Y4779800D01*
G01X9689130Y5495460D02*
X9652240Y5532350D01*
X9571950D01*
X9572500Y5532900D01*
X9165700D01*
X8752370Y5119570D01*
Y4807610D01*
X8780180Y4779800D01*
G01X9223480Y4070400D02*
Y4073400D01*
X9224980Y4074900D01*
Y4694970D01*
X9225330Y4695320D01*
Y4739520D01*
X9259930Y4774120D01*
X9377130D01*
X9389130Y4786120D01*
Y4810320D01*
G01X9252700Y4070400D02*
Y4073400D01*
X9251200Y4074900D01*
Y4684100D01*
X9251550Y4684450D01*
Y4728650D01*
X9270800Y4747900D01*
X9415710D01*
X9478130Y4810320D01*
X9489130D01*
G01X9325300Y4047390D02*
Y4048890D01*
X9326800Y4050390D01*
Y4084360D01*
X9326710Y4084450D01*
Y4636190D01*
X9389130Y4698610D01*
Y4710320D01*
G01X9354520Y4047390D02*
Y4050390D01*
X9353020Y4051890D01*
Y4095230D01*
X9352930Y4095320D01*
Y4625320D01*
X9390540Y4662930D01*
X9441740D01*
X9489130Y4710320D01*
G01X9389130Y4610320D02*
X9426020Y4573430D01*
Y4070100D01*
X9424520Y4068600D01*
Y4065600D01*
G01X9489130Y4610320D02*
X9452240Y4573430D01*
Y4070100D01*
X9453740Y4068600D01*
Y4065600D01*
G01X20352020Y1803690D02*
X20324220Y1775890D01*
Y1736400D01*
X20325720Y1734900D01*
Y1733380D01*
X20324240Y1731900D01*
X20324230Y1720410D01*
X20318240Y1714420D01*
Y1712310D01*
X20317160Y1711230D01*
G01X9523830Y4069270D02*
Y4072270D01*
X9525330Y4073770D01*
Y4838650D01*
X9560110Y4873430D01*
X9652240D01*
X9689130Y4910320D01*
G01X20270190Y1803690D02*
X20298000Y1775880D01*
Y1736400D01*
X20296500Y1734900D01*
Y1731900D01*
G01X9553050Y4069270D02*
Y4072270D01*
X9551550Y4073770D01*
Y4827780D01*
X9570980Y4847210D01*
X9652240D01*
X9689130Y4810320D01*
G01X9625210Y4075000D02*
Y4078000D01*
X9626710Y4079500D01*
Y4636190D01*
X9689130Y4698610D01*
Y4710320D01*
G01X9654430Y4075000D02*
Y4078000D01*
X9652930Y4079500D01*
Y4625320D01*
X9690540Y4662930D01*
X9741740D01*
X9789130Y4710320D01*
G01X9720400Y4071200D02*
Y4479050D01*
X9689130Y4510320D01*
G01X9749620Y4071200D02*
Y4470810D01*
X9789130Y4510320D01*
G01X9822000Y4072100D02*
Y4075100D01*
X9823500Y4076600D01*
Y4193490D01*
X9825330Y4195320D01*
Y4525320D01*
X9787720Y4562930D01*
X9736520D01*
X9689130Y4610320D01*
G01X9851220Y4072100D02*
Y4073600D01*
X9849720Y4075100D01*
Y4182620D01*
X9851550Y4184450D01*
Y4536190D01*
X9789130Y4598610D01*
Y4610320D01*
G54D18*
G01X5564990Y570400D02*
Y2461590D01*
X5668500Y2565100D01*
Y7548300D01*
X5929600Y7809400D01*
X6313690D01*
X6333790Y7789300D01*
X9665700D01*
X10514650Y8638250D01*
G01X6301000Y9061200D02*
Y9378100D01*
X6594900Y9672000D01*
Y10024200D01*
G01X9370500Y8081400D02*
Y9009200D01*
X8613900Y9765800D01*
X8411200D01*
X8085800Y10091200D01*
G01X8339800D02*
X9435500Y8995500D01*
Y8078700D01*
G01X9499500Y8082400D02*
Y8991700D01*
X8593800Y9897400D01*
Y10091200D01*
G01X8684300Y7564800D02*
Y6668900D01*
X9355500Y5997700D01*
X9561700D01*
X9652580Y5906820D01*
G01X8847800Y10091200D02*
Y9691800D01*
X9564500Y8975100D01*
Y8078600D01*
G01X9062000Y5857100D02*
X9092200Y5826900D01*
Y5792390D01*
X9289130Y5595460D01*
G01X9629500Y8077000D02*
Y8962100D01*
X9101800Y9489800D01*
Y10091200D01*
G01X12795900Y1865870D02*
Y2304960D01*
X12681560Y2419300D01*
X10793760D01*
X9223480Y3989580D01*
Y4070400D01*
G01X10349800Y8736800D02*
X9606400Y7993400D01*
X9261300D01*
X9173700Y8081000D01*
G01X12825120Y1865870D02*
Y2317070D01*
X12693670Y2448520D01*
X10805870D01*
X9252700Y4001690D01*
Y4070400D01*
G01X10602900Y4079300D02*
Y4235010D01*
X10489890Y4348020D01*
X10458650D01*
X10411970Y4394700D01*
Y4425940D01*
X10389890Y4448020D01*
X10338080D01*
X10136900Y4649200D01*
X10042100D01*
X10026700Y4664600D01*
X9981530D01*
X9972330Y4673800D01*
X9970080D01*
X9948000Y4695880D01*
Y4698130D01*
X9826830Y4819300D01*
Y4825940D01*
X9780150Y4872620D01*
X9773510D01*
X9726830Y4919280D01*
Y4925940D01*
X9704750Y4948020D01*
X9698070D01*
X9588310Y5057760D01*
X9573510D01*
X9551430Y5079840D01*
Y5094640D01*
X9488300Y5157760D01*
X9473510D01*
X9451430Y5179840D01*
Y5194630D01*
X9388290Y5257760D01*
X9326830D01*
X9289130Y5295460D01*
G01X15295060Y1861900D02*
Y2306700D01*
X15124360Y2477400D01*
X10824180D01*
X9325300Y3976280D01*
Y4047390D01*
G01X15324280Y1861900D02*
Y2318810D01*
X15136470Y2506620D01*
X10836290D01*
X9354520Y3988390D01*
Y4047390D01*
G01X9424520Y4065600D02*
Y3964280D01*
X10852400Y2536400D01*
X16732010D01*
X16732460Y2536850D01*
X16767840D01*
X16768290Y2536400D01*
X17638860D01*
X17795550Y2379710D01*
Y1858170D01*
G01X9453740Y4065600D02*
Y3976390D01*
X10864510Y2565620D01*
X16719900D01*
X16720350Y2566070D01*
X16779950D01*
X16780400Y2565620D01*
X17650970D01*
X17824770Y2391820D01*
Y1858170D01*
G01X20317160Y1711230D02*
X20293610Y1687680D01*
X18115920D01*
X17945500Y1858100D01*
Y2406770D01*
X17754790Y2597480D01*
X10881290D01*
X9523830Y3954940D01*
Y4069270D01*
G01X20296500Y1731900D02*
X20281500Y1716900D01*
X18128030D01*
X17974720Y1870210D01*
Y2418880D01*
X17766900Y2626700D01*
X10893400D01*
X9553050Y3967050D01*
Y4069270D01*
G01X22791800Y1871630D02*
Y2663970D01*
X22540790Y2914980D01*
X10711120D01*
X9625210Y4000890D01*
Y4075000D01*
G01X22821020Y1871630D02*
Y2676080D01*
X22552900Y2944200D01*
X10723230D01*
X9654430Y4013000D01*
Y4075000D01*
G01X27794600Y1898170D02*
Y1949260D01*
X27760180Y1983680D01*
X27075880D01*
X26814600Y1722400D01*
X24721360D01*
X23466980Y2976780D01*
X10732520D01*
X9720400Y3988900D01*
Y4071200D01*
G01X27823820Y1898170D02*
Y1961370D01*
X27772290Y2012900D01*
X27063770D01*
X26802490Y1751620D01*
X24733470D01*
X23479090Y3006000D01*
X10744630D01*
X9749620Y4001010D01*
Y4071200D01*
G01X25294100Y1892170D02*
Y2743680D01*
X25003680Y3034100D01*
X10759100D01*
X9822000Y3971200D01*
Y4072100D01*
G01X10373300Y7699100D02*
X10161000Y7486800D01*
Y6823580D01*
X9797980Y6460560D01*
Y6458180D01*
X9785300Y6445500D01*
Y5951500D01*
G01X10371500Y7764100D02*
X10118300Y7510900D01*
Y6820800D01*
X9755600Y6458100D01*
Y5947700D01*
G01X10368600Y7829550D02*
X10075500Y7536450D01*
Y6821400D01*
X9725680Y6471580D01*
Y5949600D01*
G01X10370950Y7894050D02*
X10031100Y7554200D01*
Y6816500D01*
X9689130Y6474530D01*
Y5895460D01*
G01X25323320Y1892170D02*
Y2755790D01*
X25015790Y3063320D01*
X10771210D01*
X9851220Y3983310D01*
Y4072100D01*
G01X10039100Y5945900D02*
Y6540000D01*
X10895900Y7396800D01*
Y7633200D01*
G01X10823900Y7568300D02*
Y7366200D01*
X9927900Y6470200D01*
Y5951500D01*
G01X10741500Y7503300D02*
Y7322980D01*
X9900200Y6481680D01*
Y6470800D01*
X9858300Y6428900D01*
Y5952010D01*
G01X10675600Y7439200D02*
Y7299000D01*
X9825680Y6449080D01*
Y5946800D01*
G01X10230700Y5925900D02*
X10212500Y5907700D01*
Y5659200D01*
X10197500Y5644200D01*
X10169690D01*
X10115100Y5589610D01*
Y5454630D01*
X10274270Y5295460D01*
G01X10174270Y5695460D02*
X10136570D01*
X10111970Y5720060D01*
Y5811080D01*
X10087900Y5835150D01*
Y5910900D01*
G01X27860100Y3482800D02*
X27550800Y3173500D01*
X15433400D01*
X13941500Y4665400D01*
X13264690D01*
X12334630Y5595460D01*
X10727590D01*
X10689890Y5557760D01*
X10211970D01*
X10174270Y5595460D01*
G01X10374270Y5395460D02*
X10420800Y5348930D01*
Y4953900D01*
X10630600Y4744100D01*
Y4154600D01*
X10685700Y4099500D01*
G01X12864900Y4655100D02*
Y3529590D01*
X12863200Y3527890D01*
Y3492510D01*
X12864900Y3490810D01*
Y3425950D01*
X12860150Y3421200D01*
Y3383500D01*
G01X13910150Y2850350D02*
X14458350D01*
G01X14512300Y5637800D02*
Y4225350D01*
X15360150Y3377500D01*
G01X14630700Y9603500D02*
Y4288100D01*
X15408600Y3510200D01*
G01X16410150Y2844350D02*
X16954770D01*
X16957500Y2847080D01*
G01X17851500Y4720100D02*
Y3423850D01*
X17860150Y3415200D01*
Y3377500D01*
G01X17909600Y3316200D02*
X18018100Y3207700D01*
X20250100D01*
X20366300Y3323900D01*
X20409000D01*
G01X18910150Y2844350D02*
X18952850D01*
X18956180Y2847680D01*
X19457500D01*
G01X19410100Y5232800D02*
Y4333550D01*
X20360150Y3383500D01*
G01X19410100Y5236200D02*
Y5232800D01*
G01X20409000Y3323900D02*
Y3871500D01*
X19685600Y4594900D01*
Y9598600D01*
G01X21410150Y2850350D02*
X21914630D01*
X21916200Y2848780D01*
X21958900D01*
G01X22860400Y6415400D02*
Y3421450D01*
X22860150Y3421200D01*
Y3383500D01*
G01X22913400Y3378600D02*
X23066400Y3225600D01*
X25178600D01*
X25408400Y3455400D01*
Y4268900D01*
G01X23910150Y2850350D02*
X24415630D01*
X24416300Y2849680D01*
X24459000D01*
G01X25408400Y4268900D02*
X25329800Y4347500D01*
Y8937800D01*
X24674900Y9592700D01*
G01X25261500Y4665400D02*
Y3642750D01*
X25360150Y3544100D01*
G01X25408400Y4268900D02*
X27281400D01*
X27910800Y3639500D01*
Y3366300D01*
G01X26958800Y2851580D02*
X26926680D01*
X26925450Y2850350D01*
X26410150D01*
G01X29456600Y2850300D02*
X29414150D01*
X29413900Y2850550D01*
X28910100D01*
G54D19*
G01X9652580Y5906820D02*
Y5680310D01*
X9700880Y5632010D01*
X9704280D01*
X9725680Y5610610D01*
Y5480310D01*
X9704280Y5458910D01*
X9700880D01*
X9652580Y5410610D01*
Y5080310D01*
X9786020Y4946870D01*
X9804280D01*
X9809150Y4942000D01*
X9820690D01*
X9852580Y4910110D01*
Y4895170D01*
X9873980Y4873770D01*
X9888920D01*
X9915820Y4846870D01*
X9937720D01*
X10074270Y4710320D01*
G01X12769590Y1791870D02*
X12797050Y1819330D01*
Y1861550D01*
X12795900Y1862700D01*
Y1865870D01*
G01X12851420Y1791870D02*
X12823970Y1819320D01*
Y1861550D01*
X12825120Y1862700D01*
Y1865870D01*
G01X15268750Y1787900D02*
X15296210Y1815360D01*
Y1857580D01*
X15295060Y1858730D01*
Y1861900D01*
G01X15350580Y1787900D02*
X15323130Y1815350D01*
Y1857580D01*
X15324280Y1858730D01*
Y1861900D01*
G01X17795550Y1858170D02*
Y1855000D01*
X17796700Y1853850D01*
Y1810880D01*
X17769240Y1783420D01*
G01X17824770Y1858170D02*
Y1855000D01*
X17823620Y1853850D01*
Y1810870D01*
X17851070Y1783420D01*
G01X22765490Y1797630D02*
X22792950Y1825090D01*
Y1867310D01*
X22791800Y1868460D01*
Y1871630D01*
G01X22847320Y1797630D02*
X22819870Y1825080D01*
Y1867310D01*
X22821020Y1868460D01*
Y1871630D01*
G01X27768290Y1808520D02*
X27795750Y1835980D01*
Y1893850D01*
X27794600Y1895000D01*
Y1898170D01*
G01X27850120Y1808520D02*
X27822670Y1835970D01*
Y1893850D01*
X27823820Y1895000D01*
Y1898170D01*
G01X25267790Y1815770D02*
X25295250Y1843230D01*
Y1887850D01*
X25294100Y1889000D01*
Y1892170D01*
G01X9785300Y5951500D02*
Y5743330D01*
X9752580Y5710610D01*
Y5458910D01*
X9689130Y5395460D01*
G01X9755600Y5947700D02*
Y5761930D01*
X9689130Y5695460D01*
G01X9725680Y5949600D02*
Y5832010D01*
X9689130Y5795460D01*
G01X25349620Y1815770D02*
X25322170Y1843220D01*
Y1887850D01*
X25323320Y1889000D01*
Y1892170D01*
G01X9789130Y5295460D02*
Y5332020D01*
X9852580Y5395470D01*
Y5410610D01*
X9873980Y5432010D01*
X9897400D01*
X10032700Y5567310D01*
Y5939500D01*
X10039100Y5945900D01*
G01X9927900Y5951500D02*
Y5581000D01*
X9883200Y5536300D01*
X9876100D01*
X9825680Y5485880D01*
Y5432010D01*
X9789130Y5395460D01*
G01X9858300Y5952010D02*
X9852580Y5946290D01*
Y5611480D01*
X9825680Y5584580D01*
Y5532010D01*
X9789130Y5495460D01*
G01X9825680Y5946800D02*
Y5632010D01*
X9789130Y5595460D01*
M02*
