G04 ================== begin FILE IDENTIFICATION RECORD ==================*
G04 Layout Name:  pcie-nvme_rework2.brd*
G04 Film Name:    BOTTOML*
G04 File Format:  Gerber RS274X*
G04 File Origin:  Cadence Allegro 25.1-S010*
G04 Origin Date:  Tue May 12 01:05:28 2026*
G04 *
G04 Layer:  VIA CLASS/BOTTOM*
G04 Layer:  PIN/BOTTOM*
G04 Layer:  ETCH/BOTTOM*
G04 *
G04 Offset:    (0.0000 0.0000)*
G04 Mirror:    No*
G04 Mode:      Positive*
G04 Rotation:  0*
G04 FullContactRelief:  No*
G04 UndefLineWidth:     0.1000*
G04 ================== end FILE IDENTIFICATION RECORD ====================*
%FSLAX25Y25*MOMM*%
%IR0*IPPOS*OFA0.00000B0.00000*MIA0B0*SFA1.00000B1.00000*%
%ADD14R,.7X3.2*%
%ADD15R,.7X4.2*%
%ADD12C,.6*%
%ADD16C,.7*%
%ADD20C,.35*%
%ADD11C,.45*%
%ADD19R,.5588X.5588*%
%ADD25C,1.2*%
%ADD22R,.4X.35*%
%ADD21R,.35X.4*%
%ADD23C,1.7*%
%ADD24C,5.5*%
%ADD18C,1.37*%
%ADD13C,2.3622*%
%ADD10C,1.1049*%
%ADD17R,1.37X1.37*%
%ADD26C,.3*%
%ADD27C,.15*%
%ADD28C,.127*%
%ADD29C,.1524*%
%ADD30C,.1372*%
%ADD31C,.2029*%
G75*
%LPD*%
G75*
G54D10*
X508000Y533400D03*
Y9072400D03*
X30692000Y1358400D03*
Y9897400D03*
G54D11*
X803900Y3254500D03*
X766400Y3624500D03*
Y3784500D03*
X798800Y5736200D03*
X768400Y6108700D03*
Y6268700D03*
X909900Y5820900D03*
X1100200Y5774700D03*
X1165500Y5210500D03*
X1165000Y7692900D03*
X1531400Y2033000D03*
Y2193000D03*
X1532400Y2353000D03*
Y2513000D03*
X1530400Y3071000D03*
X1524300Y5546000D03*
X1688700Y4511400D03*
Y4672400D03*
Y4832400D03*
Y4993400D03*
X1792700Y3066700D03*
X1797800Y5532300D03*
X1890100Y3536700D03*
X1880700Y6012100D03*
X1977800Y8247500D03*
X1976300Y8411000D03*
X2172000Y3526400D03*
X2172100Y6002700D03*
X2202120Y7914100D03*
X2201520Y8015600D03*
Y8116500D03*
X2489740Y3400680D03*
X2492040Y5882080D03*
X2917200Y2590000D03*
Y2750000D03*
Y2910000D03*
X2916200Y3070000D03*
X2910500Y5055400D03*
X2911500Y5215400D03*
Y5375400D03*
Y5535400D03*
X3330000Y5772800D03*
X3328400Y5857900D03*
X3296800Y6144200D03*
Y6304200D03*
X3631200Y5808700D03*
X3692000Y7726700D03*
X3764100Y4326300D03*
X4062200Y2663100D03*
X4055700Y5578000D03*
X4180000Y4541000D03*
Y4701000D03*
Y4861000D03*
Y5021000D03*
X4211200Y9728700D03*
X4224900Y2663100D03*
X4319300Y5574600D03*
X4421900Y6048000D03*
X4564990Y582500D03*
X4650920Y2820160D03*
X4696200Y6040200D03*
X4794310Y3923600D03*
X4748800Y8636760D03*
X4811500Y8976700D03*
X4809100Y9103600D03*
X4864990Y582510D03*
X4886700Y3813900D03*
X4829900Y8679360D03*
X4842800Y10042000D03*
X4922400Y3873400D03*
X4970000Y2395100D03*
X4981500Y3347900D03*
X4984100Y3448300D03*
Y3529400D03*
X4984900Y3618300D03*
X5019940Y5916380D03*
X5131000Y2395100D03*
X5215700Y598100D03*
X5311100Y562800D03*
X5290200Y3553600D03*
X5451200D03*
X5441700Y5096500D03*
X5441400Y5260700D03*
X5440400Y5420700D03*
Y5580700D03*
X5427450Y9299050D03*
X5535800Y8850500D03*
X5537200Y8978300D03*
X5564990Y570400D03*
X5912900Y558800D03*
X5974290Y964610D03*
X6056120D03*
X6019100Y8655360D03*
X6100200Y8698160D03*
X6088160Y10130880D03*
X6213300Y559300D03*
X6296000Y7766700D03*
X6239900Y8652620D03*
X6359800Y2379700D03*
X6325600Y3190600D03*
X6305600Y8998600D03*
X6301000Y9061200D03*
X6411900Y574200D03*
X6444900Y4087560D03*
X6415700Y4289020D03*
Y5087880D03*
X6444600Y5897860D03*
X6440500Y5943640D03*
X6440400Y6884260D03*
X6448300Y1552720D03*
X6448900Y2355280D03*
X6549300Y1552520D03*
X6554900Y2355280D03*
X6531600Y3135100D03*
X6566600Y3238620D03*
X6565900Y3993280D03*
X6565800Y5803880D03*
X6561200Y6037420D03*
X6560800Y6790280D03*
X6650200Y1552620D03*
X6667900Y2355380D03*
X6667400Y3238620D03*
X6666500Y3993280D03*
X6666300Y5803980D03*
X6661500Y6037220D03*
X6661400Y6790380D03*
X6648500Y7606800D03*
X6723000Y556300D03*
X6678350Y8868780D03*
X6768100Y3238820D03*
X6767600Y3993480D03*
X6912600Y574200D03*
X6919100Y8729080D03*
X7000500Y8668920D03*
X7116000Y581000D03*
X7309100D03*
X7515900Y582800D03*
X7765010Y582500D03*
X7865010Y582510D03*
X8114000Y582700D03*
X8303700Y584500D03*
X8505400Y587900D03*
X8708700Y582700D03*
X8698350Y4779800D03*
X8684300Y7564800D03*
X8780180Y4779800D03*
X8816020Y6735200D03*
Y6836200D03*
Y6937800D03*
X8815920Y7039000D03*
X8815520Y7140500D03*
X8865010Y582510D03*
X8891400Y5928700D03*
X8890800Y5857100D03*
X8824560Y8219200D03*
X8824220Y8381700D03*
X8823720Y8484200D03*
X8823120Y8585800D03*
Y8687400D03*
X8822620Y8789600D03*
X8909900Y4649970D03*
Y4730200D03*
X8991580Y7362080D03*
X9103500Y577600D03*
X9062000Y5857100D03*
X9174400Y7228300D03*
X9173700Y8081000D03*
X9305100Y581000D03*
X9369750Y7231700D03*
X9370500Y8081400D03*
X9433500Y7232800D03*
X9435500Y8078700D03*
X9515300Y593000D03*
X9511700Y6457200D03*
X9557500Y6504300D03*
X9499400Y7233800D03*
X9499500Y8082400D03*
X9629310Y7232810D03*
X9564280Y7233820D03*
X9629500Y8077000D03*
X9564500Y8078600D03*
X9809300Y582700D03*
X9857200Y7254700D03*
X9856500Y7308900D03*
X10014400Y591300D03*
X10042300Y9433640D03*
X10087900Y5910900D03*
X10088600Y6095400D03*
X10121720Y8111000D03*
X10205800Y593000D03*
X10169880Y7969800D03*
Y8030800D03*
X10163000Y9530260D03*
X10288100Y3909800D03*
X10230700Y5925900D03*
X10244400Y6094100D03*
X10349700Y3909900D03*
X10373300Y7699100D03*
X10371500Y7764100D03*
X10368600Y7829550D03*
X10370950Y7894050D03*
X10349800Y8736800D03*
X10335350Y9455250D03*
X10412500Y589600D03*
X10412700Y3910100D03*
X10407630Y7308770D03*
X10410600Y10240100D03*
X10469800Y3872200D03*
X10468600Y4086100D03*
X10514650Y8638250D03*
X10535100Y3909500D03*
Y4084200D03*
X10615650Y585950D03*
X10602900Y3910400D03*
Y4079300D03*
X10631700Y6091800D03*
X10681400Y3909500D03*
X10685700Y4099500D03*
X10694600Y6091200D03*
X10675600Y7439200D03*
X10741500Y7503300D03*
X10695390Y8777910D03*
Y9440970D03*
X10807300Y587900D03*
X10759700Y6092200D03*
X10790400Y8738500D03*
X10831100Y6092200D03*
X10823900Y7568300D03*
X10905600Y6092300D03*
X10895900Y7633200D03*
X11003800Y594700D03*
X11207200Y582700D03*
X11218770Y7308770D03*
X11414000Y591300D03*
X11362600Y10240100D03*
X11449220Y7962100D03*
X11449120Y8022700D03*
X11515200Y7968300D03*
X11497280Y8103100D03*
X11605400Y587900D03*
X11801900Y589600D03*
X12001800D03*
X11995700Y2130660D03*
Y2362220D03*
X12062150Y2130360D03*
Y2361920D03*
X12205200Y596400D03*
X12159150Y3438240D03*
X12285150Y2121500D03*
X12271900Y2366900D03*
X12259850Y3438240D03*
X12335150Y2092690D03*
X12341150Y3377940D03*
X12410300Y582700D03*
X12385150Y2121500D03*
X12402450Y3377940D03*
X12608500Y577600D03*
X12649400Y2233500D03*
X12801600Y584500D03*
X12769590Y1791870D03*
X12851420D03*
X12840100Y2395900D03*
X12864900Y4655100D03*
X12905900Y3510200D03*
X13035150Y2121500D03*
X13070040Y2420330D03*
X13105900Y9358200D03*
X13185150Y2121500D03*
X13150270Y2420330D03*
X13220040D03*
X13335150Y2121500D03*
X13300270Y2420330D03*
X13485150Y2121500D03*
X13635150D03*
X13589550Y3443280D03*
X13672450Y3381620D03*
X13785150Y2121500D03*
X13734350Y3381620D03*
X13910150Y2850350D03*
X13935150Y2121500D03*
X13995850Y3381440D03*
X14058850D03*
X14085150Y2121500D03*
X14135150Y2092690D03*
X14151700Y2397600D03*
X14142050Y3440940D03*
X14159000Y9603500D03*
X14243750Y3441240D03*
X14371750Y2805900D03*
X14501400Y2117660D03*
Y2349220D03*
X14458350Y2850350D03*
X14512300Y5637800D03*
X14566750Y2117660D03*
Y2349220D03*
X14671450Y3433440D03*
X14630700Y9603500D03*
X14785150Y2115500D03*
X14770300Y2390800D03*
X14772550Y3433440D03*
X14835150Y2086690D03*
X14885150Y2115500D03*
X14854850Y3372540D03*
X14915650Y3373040D03*
X15154100Y2227500D03*
X15268750Y1787900D03*
X15317200Y2433500D03*
X15350580Y1787900D03*
X15408600Y3510200D03*
X15535150Y2115500D03*
X15570040Y2414330D03*
X15636000Y9355400D03*
X15685150Y2115500D03*
X15650270Y2414330D03*
X15835150Y2115500D03*
X15870040Y2414330D03*
X15985150Y2115500D03*
X15950270Y2414330D03*
X16135150Y2115500D03*
X16094050Y3439580D03*
X16176550Y3378420D03*
X16285150Y2115500D03*
X16237850Y3378420D03*
X16435150Y2115500D03*
X16410150Y2844350D03*
X16500450Y3383540D03*
X16585150Y2115500D03*
X16561050Y3383440D03*
X16635150Y2086690D03*
X16641550Y3442040D03*
X16750150Y2494150D03*
X16743250Y3441840D03*
X16871750Y2801200D03*
X16957500Y2847080D03*
X17003100Y2116860D03*
Y2348420D03*
X17068650Y2117160D03*
Y2348720D03*
X17170150Y2488650D03*
X17171950Y3442440D03*
X17285150Y2115500D03*
X17335150Y2086690D03*
X17274150Y3442440D03*
X17385150Y2115500D03*
X17355950Y3382140D03*
X17417250Y3381240D03*
X17662800Y2227500D03*
X17769240Y1783420D03*
X17851070D03*
X17851500Y4720100D03*
X17885150Y2367450D03*
X17909600Y3316200D03*
X18035150Y2115500D03*
X18070040Y2414330D03*
X18150270D03*
X18136800Y9368100D03*
X18185150Y2115500D03*
X18335150D03*
X18370030Y2414330D03*
X18450260D03*
X18485150Y2115500D03*
X18593850Y3447880D03*
X18635150Y2115500D03*
X18676050Y3386520D03*
X18737750Y3386820D03*
X18785150Y2115500D03*
X18935150D03*
X18910150Y2844350D03*
X18993350Y3386140D03*
X19085150Y2115500D03*
X19055350Y3385640D03*
X19135150Y2086690D03*
X19136850Y3446740D03*
X19250150Y2478650D03*
X19238450Y3446540D03*
X19223900Y9598600D03*
X19371850Y2804000D03*
X19410100Y5232800D03*
X19457500Y2847680D03*
X19499400Y2120760D03*
X19564950Y2120560D03*
X19499400Y2352320D03*
X19564950Y2352120D03*
X19670150Y2497050D03*
X19660150Y3446240D03*
X19685600Y9598600D03*
X19785150Y2121500D03*
X19760950Y3446440D03*
X19835150Y2092690D03*
X19843450Y3385240D03*
X19885150Y2121500D03*
X19905550Y3385240D03*
X20163800Y2233500D03*
X20270190Y1803690D03*
X20352020D03*
X20385150Y2355650D03*
X20409000Y3323900D03*
X20535150Y2121500D03*
X20570040Y2420330D03*
X20650270D03*
X20645300Y9358400D03*
X20685150Y2121500D03*
X20835150D03*
X20870030Y2430340D03*
X20950260D03*
X20985150Y2121500D03*
X21092050Y3449580D03*
X21135150Y2121500D03*
X21173850Y3390520D03*
X21235950D03*
X21285150Y2121500D03*
X21410150Y2850350D03*
X21435150Y2121500D03*
X21496850Y3381940D03*
X21558150Y3381740D03*
X21585150Y2121500D03*
X21635150Y2092690D03*
X21640650Y3442040D03*
X21750150Y2485350D03*
X21741850Y3441240D03*
X21873150Y2804800D03*
X21998900Y2121460D03*
Y2353020D03*
X21958900Y2848780D03*
X22065250Y2121260D03*
Y2352820D03*
X22170150Y2486350D03*
Y3447040D03*
X22285150Y2121500D03*
X22271050Y3446640D03*
X22335150Y2092690D03*
X22385150Y2121500D03*
X22351750Y3385740D03*
X22412750Y3385540D03*
X22665700Y2233500D03*
X22765490Y1797630D03*
X22847320D03*
X22885150Y2348950D03*
X22860400Y6415400D03*
X22913400Y3378600D03*
X23035150Y2121500D03*
X23070040Y2420330D03*
X23185150Y2121500D03*
X23150270Y2420330D03*
X23134600Y9356600D03*
X23335150Y2121500D03*
X23370030Y2420330D03*
X23485150Y2121500D03*
X23450260Y2420330D03*
X23635150Y2121500D03*
X23591250Y3447780D03*
X23672850Y3386820D03*
X23785150Y2121500D03*
X23734350Y3385720D03*
X23935150Y2121500D03*
X23910150Y2850350D03*
X24002550Y3381640D03*
X24085150Y2121500D03*
X24063350Y3381940D03*
X24135150Y2092690D03*
X24144250Y3442140D03*
X24213500Y9592700D03*
X24250150Y2495450D03*
X24245950Y3441440D03*
X24372750Y2806700D03*
X24459000Y2849680D03*
X24495200Y2123160D03*
Y2354720D03*
X24561550Y2122560D03*
Y2354120D03*
X24665850Y3439640D03*
X24674900Y9592700D03*
X24785150Y2121500D03*
X24767600Y2385700D03*
X24767050Y3439940D03*
X24835150Y2092690D03*
X24885150Y2121500D03*
X24848550Y3384740D03*
X24910550Y3383540D03*
X25150400Y2233500D03*
X25267790Y1815770D03*
X25261500Y4665400D03*
X25349620Y1815770D03*
X25385150Y2361150D03*
X25408400Y4268900D03*
X25535150Y2121500D03*
X25570040Y2420330D03*
X25685150Y2121500D03*
X25650270Y2420330D03*
X25685200Y9363500D03*
X25835150Y2121500D03*
X25870040Y2420330D03*
X25985150Y2121500D03*
X25950270Y2420330D03*
X26135150Y2121500D03*
X26097350Y3444680D03*
X26178550Y3382920D03*
X26240050Y3382320D03*
X26285150Y2121500D03*
X26435150D03*
X26410150Y2850350D03*
X26491250Y3383740D03*
X26585150Y2121500D03*
X26552750Y3383240D03*
X26635150Y2092690D03*
X26621800Y2394200D03*
X26634550Y3443440D03*
X26736350Y3444040D03*
X26872850Y2807600D03*
X26958800Y2851580D03*
X26996100Y2122060D03*
X27002200Y2354320D03*
X27068000Y2122360D03*
Y2353920D03*
X27174700Y3439540D03*
X27263500Y2379700D03*
X27275700Y3439340D03*
X27285100Y2121700D03*
X27335100Y2092890D03*
X27385100Y2121700D03*
X27357400Y3378040D03*
X27419500Y3378640D03*
X27657500Y2233700D03*
X27768290Y1808520D03*
X27850120D03*
X27831500Y2392500D03*
X27910800Y3366300D03*
X28035100Y2121700D03*
X28069990Y2420530D03*
X28150220D03*
X28185100Y2121700D03*
X28171500Y9359400D03*
X28335100Y2121700D03*
X28369990Y2420530D03*
X28450220D03*
X28485100Y2121700D03*
X28591100Y3453380D03*
X28635100Y2121700D03*
X28672300Y3387620D03*
X28733200Y3388020D03*
X28785100Y2121700D03*
X28935100D03*
X28910100Y2850550D03*
X29001600Y3386740D03*
X29085100Y2121700D03*
X29062200Y3386440D03*
X29135100Y2092890D03*
X29142500Y2411300D03*
X29143400Y3446140D03*
X29245500Y3445540D03*
X29370700Y2807600D03*
X29456600Y2850300D03*
G54D20*
X9089130Y4710320D03*
X9189130D03*
Y5795460D03*
X9289130Y4210320D03*
Y4310320D03*
Y4510320D03*
Y4610320D03*
Y4710320D03*
Y4810320D03*
Y4910320D03*
Y5095460D03*
Y5195460D03*
Y5295460D03*
Y5395460D03*
Y5495460D03*
Y5595460D03*
Y5695460D03*
X9389130Y4610320D03*
Y4710320D03*
Y4810320D03*
Y4910320D03*
Y5095460D03*
Y5195460D03*
Y5295460D03*
Y5395460D03*
Y5495460D03*
Y5595460D03*
Y5695460D03*
X9489130Y4610320D03*
Y4710320D03*
Y4810320D03*
Y4910320D03*
Y5095460D03*
Y5195460D03*
Y5295460D03*
Y5395460D03*
Y5495460D03*
Y5595460D03*
Y5695460D03*
Y5795460D03*
X9589130Y4210320D03*
Y4310320D03*
Y4410320D03*
Y4510320D03*
Y4710320D03*
Y4810320D03*
Y4910320D03*
Y5095460D03*
Y5195460D03*
Y5295460D03*
Y5395460D03*
Y5495460D03*
Y5595460D03*
Y5695460D03*
Y5795460D03*
Y5895460D03*
X9689130Y4510320D03*
Y4610320D03*
Y4710320D03*
Y4810320D03*
Y4910320D03*
Y5095460D03*
Y5195460D03*
Y5295460D03*
Y5395460D03*
Y5495460D03*
Y5595460D03*
Y5695460D03*
Y5795460D03*
Y5895460D03*
X9789130Y4210320D03*
Y4510320D03*
Y4610320D03*
Y4710320D03*
Y4810320D03*
Y4910320D03*
Y5095460D03*
Y5195460D03*
Y5295460D03*
Y5395460D03*
Y5495460D03*
Y5595460D03*
Y5695460D03*
X9889130Y4410320D03*
Y4510320D03*
Y4810320D03*
Y4910320D03*
Y5095460D03*
Y5195460D03*
Y5295460D03*
Y5395460D03*
Y5495460D03*
Y5595460D03*
Y5695460D03*
Y5795460D03*
X9985700Y4711500D03*
X10074270Y4610320D03*
Y4710320D03*
Y4810320D03*
Y4910320D03*
Y5095460D03*
Y5195460D03*
Y5295460D03*
Y5395460D03*
Y5495460D03*
Y5595460D03*
Y5695460D03*
Y5795460D03*
X10174270Y4810320D03*
Y4910320D03*
Y5095460D03*
Y5195460D03*
Y5295460D03*
X10167900Y5504600D03*
X10174270Y5595460D03*
Y5695460D03*
X10274270Y4210320D03*
Y4910320D03*
Y5295460D03*
Y5395460D03*
Y5495460D03*
Y5695460D03*
Y5795460D03*
X10390660Y4310320D03*
X10374270Y4410320D03*
Y4510320D03*
Y4610320D03*
Y4710320D03*
Y4810320D03*
X10391700Y4903500D03*
X10374270Y5095460D03*
Y5195460D03*
Y5295460D03*
Y5395460D03*
Y5495460D03*
Y5595460D03*
Y5695460D03*
Y5795460D03*
X10474270Y5095460D03*
Y5195460D03*
Y5295460D03*
Y5395460D03*
Y5495460D03*
Y5595460D03*
Y5695460D03*
Y5795460D03*
X10574270Y5095460D03*
Y5195460D03*
Y5295460D03*
Y5395460D03*
Y5495460D03*
Y5595460D03*
Y5695460D03*
Y5795460D03*
X10674270Y4310320D03*
Y4510320D03*
Y4610320D03*
Y4710320D03*
Y4910320D03*
Y5095460D03*
Y5195460D03*
Y5295460D03*
Y5395460D03*
Y5495460D03*
Y5595460D03*
Y5695460D03*
X10774270Y4210320D03*
X12860150Y3383500D03*
X15360150Y3377500D03*
X17860150D03*
X20360150Y3383500D03*
X22860150D03*
X25360150Y3544100D03*
X27860100Y3482800D03*
G54D30*
G01X6279700Y682120D02*
X6302400Y659420D01*
Y645970D01*
X6303070Y645300D01*
Y122780D01*
X6265010Y84720D01*
Y-99990D01*
G01X6349900Y682020D02*
X6327200Y659320D01*
Y646070D01*
X6326950Y645820D01*
Y122780D01*
X6365010Y84720D01*
Y-99990D01*
G01X9489130Y5695460D02*
X9455810D01*
X9390810Y5760460D01*
X9206550D01*
X9204490Y5758400D01*
X8157370D01*
X7793040Y5394070D01*
Y2409640D01*
X6301010Y917610D01*
Y899280D01*
X6300970Y879860D01*
X6303010Y877830D01*
X6302980Y866140D01*
Y866000D01*
X6302910Y821710D01*
X6279700Y798510D01*
Y788800D01*
G01X9389130Y5695460D02*
X9394060Y5700390D01*
Y5717690D01*
X9379230Y5732520D01*
X9218130D01*
X9216070Y5730460D01*
X8168950D01*
X7820980Y5382490D01*
Y2398060D01*
X6328960Y906040D01*
X6328910Y879820D01*
X6326900Y877810D01*
X6326860Y866090D01*
Y865980D01*
X6326800Y821540D01*
X6349900Y798410D01*
Y788700D01*
G01X6780300Y666420D02*
Y656710D01*
X6803450Y633530D01*
X6803390Y588950D01*
X6803070Y588630D01*
Y122780D01*
X6765010Y84720D01*
Y-99990D01*
G01X9489130Y5595460D02*
X9448600Y5635990D01*
X9382380D01*
X9359970Y5658400D01*
X9252180D01*
X9224480Y5686100D01*
X8161960D01*
X7847400Y5371540D01*
Y2382300D01*
X6801660Y1336560D01*
Y883630D01*
X6801620Y864210D01*
X6803660Y862180D01*
X6803630Y850490D01*
Y850350D01*
X6803560Y806060D01*
X6780300Y782810D01*
Y773100D01*
G01X6850600Y666320D02*
Y656610D01*
X6827340Y633360D01*
X6827270Y588910D01*
Y579040D01*
X6826950Y578730D01*
Y122780D01*
X6865010Y84720D01*
Y-99990D01*
G01X9389130Y5595460D02*
X9350070Y5634520D01*
X9242280D01*
X9218640Y5658160D01*
X8173540D01*
X7875340Y5359960D01*
Y2370720D01*
X6829600Y1324980D01*
Y883600D01*
X6829560Y864170D01*
X6827550Y862160D01*
X6827510Y850440D01*
Y850330D01*
X6827450Y805890D01*
X6850600Y782710D01*
Y773000D01*
G01X13150270Y2420330D02*
X13122100Y2448500D01*
Y2479610D01*
X13124130Y2481640D01*
Y2801530D01*
X12977620Y2948040D01*
X8543680D01*
X8312440Y3179280D01*
Y5358620D01*
X8506100Y5552280D01*
X8631280D01*
X8633310Y5554310D01*
X8858900D01*
X8882510Y5530700D01*
X8892220D01*
G01X13070040Y2420330D02*
X13098220Y2448510D01*
Y2479610D01*
X13096190Y2481640D01*
Y2789950D01*
X12966040Y2920100D01*
X8532100D01*
X8284500Y3167700D01*
Y5370200D01*
X8494520Y5580220D01*
X8631280D01*
X8633310Y5578190D01*
X8858900D01*
X8882510Y5601800D01*
X8892220D01*
G01X13220040Y2420330D02*
X13248220Y2448510D01*
Y2479610D01*
X13246190Y2481640D01*
Y2789950D01*
X13060540Y2975600D01*
X8557500D01*
X8341000Y3192100D01*
Y5251940D01*
X8525030Y5435970D01*
X8802820D01*
X8857870Y5435150D01*
X8882410Y5459500D01*
X8892120D01*
G01X13300270Y2420330D02*
X13272100Y2448500D01*
Y2479610D01*
X13274130Y2481640D01*
Y2801530D01*
X13072120Y3003540D01*
X8569080D01*
X8368940Y3203680D01*
Y5240360D01*
X8540670Y5412090D01*
X8802630D01*
X8856130Y5411290D01*
X8881310Y5385900D01*
X8891020D01*
G01X15570040Y2414330D02*
X15598220Y2442510D01*
Y2473610D01*
X15596190Y2475640D01*
Y2840250D01*
X15404340Y3032100D01*
X8579500D01*
X8398100Y3213500D01*
Y5081880D01*
X8606900Y5290680D01*
X8803080D01*
X8817010Y5290650D01*
X8819050D01*
X8857340Y5290540D01*
X8857610D01*
X8881210Y5314100D01*
X8890920D01*
G01X15650270Y2414330D02*
X15622100Y2442500D01*
Y2473610D01*
X15624130Y2475640D01*
Y2851830D01*
X15415920Y3060040D01*
X8591080D01*
X8426040Y3225080D01*
Y5076040D01*
X8616800Y5266800D01*
X8803050D01*
X8857280Y5266650D01*
X8881010Y5242900D01*
X8890720D01*
G01X15870040Y2414330D02*
X15898220Y2442510D01*
Y2473610D01*
X15896190Y2475640D01*
Y2840250D01*
X15649040Y3087400D01*
X8606100D01*
X8454900Y3238600D01*
Y4996650D01*
X8606190Y5147940D01*
X8857250D01*
X8880910Y5171600D01*
X8890620D01*
G01X15950270Y2414330D02*
X15922100Y2442500D01*
Y2473610D01*
X15924130Y2475640D01*
Y2851830D01*
X15660620Y3115340D01*
X8617680D01*
X8482840Y3250180D01*
Y4985070D01*
X8621830Y5124060D01*
X8857250D01*
X8880910Y5100400D01*
X8890620D01*
G01X18070040Y2414330D02*
X18098220Y2442510D01*
Y2473610D01*
X18096190Y2475640D01*
Y2495050D01*
X17448040Y3143200D01*
X8630900D01*
X8509500Y3264600D01*
Y4898700D01*
X8616560Y5005760D01*
X8813240D01*
X8857510Y5005880D01*
X8881010Y5029400D01*
X8890720D01*
G01X8890920Y4887200D02*
X8881210D01*
X8857690Y4863740D01*
X8857300D01*
X8812990Y4863920D01*
X8627620D01*
X8568630Y4804930D01*
Y4775620D01*
X8566600Y4773590D01*
Y3293500D01*
X8657900Y3202200D01*
X17689030D01*
X18396180Y2495050D01*
Y2475640D01*
X18398210Y2473610D01*
Y2442510D01*
X18370030Y2414330D01*
G01X18150270D02*
X18122100Y2442500D01*
Y2473610D01*
X18124130Y2475640D01*
Y2506630D01*
X17459620Y3171140D01*
X8642480D01*
X8537440Y3276180D01*
Y4887120D01*
X8632200Y4981880D01*
X8813310D01*
X8857570Y4982000D01*
X8857670D01*
X8881210Y4958500D01*
X8890920D01*
G01X8890620Y4816100D02*
X8880910D01*
X8857200Y4839850D01*
X8812880Y4840040D01*
X8637520D01*
X8592510Y4795030D01*
Y4775620D01*
X8594540Y4773590D01*
Y3305080D01*
X8669480Y3230140D01*
X17700610D01*
X18424120Y2506630D01*
Y2475640D01*
X18422090Y2473610D01*
Y2442500D01*
X18450260Y2414330D01*
G01X9389130Y4910320D02*
Y4932560D01*
X9368130Y4953560D01*
X9174280D01*
X9060160Y4839440D01*
X9030870Y4839560D01*
X9030530D01*
X9007010Y4816100D01*
X8997300D01*
G01X9489130Y4910320D02*
X9450890D01*
X9379710Y4981500D01*
X9162700D01*
X9048630Y4867430D01*
X9030980Y4867500D01*
X9026980D01*
X9007310Y4887200D01*
X8997600D01*
G01X9489130Y5095460D02*
X9468650D01*
X9381610Y5008420D01*
X9101450D01*
X9075260Y4982230D01*
X9030890Y4982100D01*
X9007310Y4958500D01*
X8997600D01*
G01X9389130Y5095460D02*
X9393800Y5090790D01*
Y5054390D01*
X9371710Y5032300D01*
X9091550D01*
X9065340Y5006090D01*
X9030830Y5005990D01*
X9030560D01*
X9007110Y5029400D01*
X8997400D01*
G01X8997300Y5100400D02*
X9007010D01*
X9030670Y5124060D01*
X9085070D01*
X9195530Y5234520D01*
X9350070D01*
X9389130Y5195460D01*
G01X8997300Y5171600D02*
X9007010D01*
X9030670Y5147940D01*
X9075170D01*
X9185630Y5258400D01*
X9359970D01*
X9382380Y5235990D01*
X9448600D01*
X9489130Y5195460D01*
G01X9389130Y5295460D02*
X9352070Y5332520D01*
X9151490D01*
X9085440Y5266470D01*
X9030720D01*
X9030710Y5266460D01*
X9007110Y5242900D01*
X8997400D01*
G01X9489130Y5295460D02*
X9428190Y5356400D01*
X9141590D01*
X9075540Y5290350D01*
X9031040D01*
X9007310Y5314100D01*
X8997600D01*
G01X9389130Y5395460D02*
X9350070Y5434520D01*
X9108320D01*
X9099160Y5425350D01*
X9099120Y5425310D01*
Y5423240D01*
X9085450Y5409570D01*
X9077130D01*
X9031950Y5410250D01*
X9007410Y5385900D01*
X8997700D01*
G01X9389130Y5495460D02*
X9350070Y5534520D01*
X9263870D01*
X9244080Y5554310D01*
X9032220D01*
X9008610Y5530700D01*
X8998900D01*
G01X9489130Y5395460D02*
X9425200Y5459390D01*
X9405480D01*
X9404490Y5458400D01*
X9098420D01*
X9077530Y5437510D01*
X9075440Y5437540D01*
X9075380Y5433490D01*
X9035460Y5434090D01*
X9033690Y5434110D01*
X9008510Y5459500D01*
X8998800D01*
G01X9489130Y5495460D02*
X9426190Y5558400D01*
X9273770D01*
X9253980Y5578190D01*
X9032220D01*
X9008610Y5601800D01*
X8998900D01*
G01X10474270Y5095460D02*
X10512330Y5057400D01*
Y5028090D01*
X10526310Y5014110D01*
X10635410D01*
X10770880Y4878640D01*
X10886500D01*
X10930920Y4878700D01*
X10931060D01*
X10954290Y4855500D01*
X10964000D01*
G01X10474270Y5195460D02*
X10535210Y5134520D01*
X10695600D01*
X10810310Y5019810D01*
X10931080D01*
X10954390Y4996500D01*
X10964100D01*
G01X10474270Y5295460D02*
X10535210Y5356400D01*
X10699530D01*
X10735210Y5320720D01*
Y5288190D01*
X10838710Y5184690D01*
X10931080D01*
X10954390Y5208000D01*
X10964100D01*
G01X10474270Y5395460D02*
X10535210Y5456400D01*
X10699530D01*
X10735210Y5420720D01*
Y5395490D01*
X10805070Y5325630D01*
X10886460D01*
X10930890Y5325700D01*
X10954290Y5349100D01*
X10964000D01*
G01X10474270Y5495460D02*
X10535210Y5556400D01*
X10699530D01*
X10735210Y5520720D01*
Y5498190D01*
X10766280Y5467120D01*
X10886770D01*
X10931080Y5466930D01*
X10931470D01*
X10954690Y5490100D01*
X10964400D01*
G01X10474270Y5595460D02*
X10535210Y5656400D01*
X10699530D01*
X10748640Y5607290D01*
X10931080D01*
X10954390Y5630600D01*
X10964100D01*
G01X10474270Y5695460D02*
X10535210Y5756400D01*
X10699530D01*
X10707490Y5748440D01*
X10930930D01*
X10954390Y5771900D01*
X10964100D01*
G01X10474270Y5795460D02*
X10521550D01*
X10564890Y5838800D01*
X10821000D01*
X10872290Y5890090D01*
X10930780D01*
X10954390Y5913700D01*
X10964100D01*
G01X10574270Y5095460D02*
X10536210Y5057400D01*
Y5037990D01*
X10645310D01*
X10780780Y4902520D01*
X10886460D01*
X10930890Y4902590D01*
X10954190Y4925900D01*
X10963900D01*
G01X10574270Y5195460D02*
X10611330Y5158400D01*
X10705500D01*
X10820210Y5043690D01*
X10931080D01*
X10954390Y5067000D01*
X10964100D01*
G01X10574270Y5295460D02*
X10611330Y5332520D01*
X10689630D01*
X10711330Y5310820D01*
Y5278290D01*
X10828810Y5160810D01*
X10931080D01*
X10954390Y5137500D01*
X10964100D01*
G01X10574270Y5395460D02*
X10611330Y5432520D01*
X10689630D01*
X10711330Y5410820D01*
Y5385590D01*
X10795170Y5301750D01*
X10886500D01*
X10930920Y5301810D01*
X10931060D01*
X10954390Y5278500D01*
X10964100D01*
G01X10574270Y5495460D02*
X10611330Y5532520D01*
X10689630D01*
X10711330Y5510820D01*
Y5488290D01*
X10756380Y5443240D01*
X10886660D01*
X10930980Y5443050D01*
X10954390Y5419600D01*
X10964100D01*
G01X10574270Y5595460D02*
X10611330Y5632520D01*
X10689630D01*
X10738740Y5583410D01*
X10931080D01*
X10954390Y5560100D01*
X10964100D01*
G01X10574270Y5695460D02*
X10611330Y5732520D01*
X10689630D01*
X10697590Y5724560D01*
X10930930D01*
X10954390Y5701100D01*
X10964100D01*
G01X10574270Y5795460D02*
X10593730Y5814920D01*
X10830900D01*
X10882190Y5866210D01*
X10930780D01*
X10954390Y5842600D01*
X10964100D01*
G01X20570040Y2420330D02*
X20598220Y2448510D01*
Y2479610D01*
X20596190Y2481640D01*
Y3331650D01*
X20188140Y3739700D01*
X12711930D01*
X11626800Y4824830D01*
Y4827710D01*
X11575630Y4878880D01*
X11148120D01*
X11103730Y4878810D01*
X11103690D01*
X11080390Y4855500D01*
X11070680D01*
G01X20650270Y2420330D02*
X20622100Y2448500D01*
Y2479610D01*
X20624130Y2481640D01*
Y3343230D01*
X20199720Y3767640D01*
X12723510D01*
X11646560Y4844590D01*
X11643700D01*
X11585530Y4902760D01*
X11148100D01*
X11110040Y4902700D01*
X11103520D01*
X11080290Y4925900D01*
X11070580D01*
G01X20870030Y2430340D02*
X20898210Y2458520D01*
Y2489620D01*
X20896180Y2491650D01*
Y3341660D01*
X20440740Y3797100D01*
X12732730D01*
X11657100Y4872730D01*
Y4875610D01*
X11512900Y5019810D01*
X11103800D01*
X11080490Y4996500D01*
X11070780D01*
G01X20950260Y2430340D02*
X20922090Y2458510D01*
Y2489620D01*
X20924120Y2491650D01*
Y3353240D01*
X20452320Y3825040D01*
X12744310D01*
X11676860Y4892490D01*
X11674000D01*
X11522800Y5043690D01*
X11103800D01*
X11080490Y5067000D01*
X11070780D01*
G01X23070040Y2420330D02*
X23098220Y2448510D01*
Y2479610D01*
X23096190Y2481640D01*
Y3560550D01*
X22802140Y3854600D01*
X12753930D01*
X11553850Y5054680D01*
Y5057560D01*
X11450600Y5160810D01*
X11103800D01*
X11080490Y5137500D01*
X11070780D01*
G01X23150270Y2420330D02*
X23122100Y2448500D01*
Y2479610D01*
X23124130Y2481640D01*
Y3572130D01*
X22813720Y3882540D01*
X12765510D01*
X11573610Y5074440D01*
X11570750D01*
X11460500Y5184690D01*
X11103800D01*
X11080490Y5208000D01*
X11070780D01*
G01X23370030Y2420330D02*
X23398210Y2448510D01*
Y2479610D01*
X23396180Y2481640D01*
Y3560550D01*
X23043830Y3912900D01*
X12773130D01*
X11587400Y5098630D01*
Y5101510D01*
X11386940Y5301970D01*
X11148320D01*
X11110230Y5301910D01*
X11103900D01*
X11080490Y5278500D01*
X11070780D01*
G01X23450260Y2420330D02*
X23422090Y2448500D01*
Y2479610D01*
X23424120Y2481640D01*
Y3572130D01*
X23055410Y3940840D01*
X12784710D01*
X11607160Y5118390D01*
X11604300D01*
X11396840Y5325850D01*
X11148300D01*
X11110210Y5325790D01*
X11103720D01*
X11080390Y5349100D01*
X11070680D01*
G01X25570040Y2420330D02*
X25598220Y2448510D01*
Y2490290D01*
X25596190Y2492320D01*
Y3543930D01*
X25172420Y3967700D01*
X12798930D01*
X11619200Y5147430D01*
Y5150310D01*
X11326930Y5442580D01*
X11148410D01*
X11104100Y5442770D01*
X11103710D01*
X11080490Y5419600D01*
X11070780D01*
G01X25650270Y2420330D02*
X25622100Y2448500D01*
Y2490290D01*
X25624130Y2492320D01*
Y3555510D01*
X25184000Y3995640D01*
X12810510D01*
X11638960Y5167190D01*
X11636100D01*
X11336830Y5466460D01*
X11148470D01*
X11104200Y5466650D01*
X11080790Y5490100D01*
X11071080D01*
G01X25870040Y2420330D02*
X25898220Y2448510D01*
Y2479610D01*
X25896190Y2481640D01*
Y3533250D01*
X25407340Y4022100D01*
X12824030D01*
X11446200Y5399930D01*
Y5402810D01*
X11265600Y5583410D01*
X11103800D01*
X11080490Y5560100D01*
X11070780D01*
G01X25950270Y2420330D02*
X25922100Y2448500D01*
Y2479610D01*
X25924130Y2481640D01*
Y3544830D01*
X25418920Y4050040D01*
X12835610D01*
X11465960Y5419690D01*
X11463100D01*
X11275500Y5607290D01*
X11103800D01*
X11080490Y5630600D01*
X11070780D01*
G01X28069990Y2420530D02*
X28098170Y2448710D01*
Y2479810D01*
X28096140Y2481840D01*
Y3622250D01*
X27641490Y4076900D01*
X12854820D01*
X11350150Y5581570D01*
X11351590Y5583010D01*
X11210040Y5724560D01*
X11103950D01*
X11080490Y5701100D01*
X11070780D01*
G01X28150220Y2420530D02*
X28122050Y2448700D01*
Y2479810D01*
X28124080Y2481840D01*
Y3633830D01*
X27653070Y4104840D01*
X12866400D01*
X11350670Y5620570D01*
X11347810D01*
X11219940Y5748440D01*
X11103950D01*
X11080490Y5771900D01*
X11070780D01*
G01X28369990Y2420530D02*
X28398170Y2448710D01*
Y2479810D01*
X28396140Y2481840D01*
Y3622250D01*
X27885890Y4132500D01*
X12879430D01*
X11327640Y5684290D01*
Y5687170D01*
X11155590Y5859220D01*
X11149850D01*
X11142860Y5866210D01*
X11104100D01*
X11080490Y5842600D01*
X11070780D01*
G01X28450220Y2420530D02*
X28422050Y2448700D01*
Y2479810D01*
X28424080Y2481840D01*
Y3633830D01*
X27897470Y4160440D01*
X12891010D01*
X11347400Y5704050D01*
X11344540D01*
X11158500Y5890090D01*
X11104100D01*
X11080490Y5913700D01*
X11070780D01*
G54D21*
X9519000Y5752600D03*
X9584000D03*
G54D12*
X799200Y3339400D03*
X1113500Y3290000D03*
X2207600Y1858900D03*
Y1958900D03*
Y2058900D03*
Y2158900D03*
Y2258900D03*
Y2358900D03*
X2307600Y1858900D03*
Y1958900D03*
Y2058900D03*
Y2158900D03*
Y2258900D03*
Y2358900D03*
X2369500Y4299200D03*
Y4399200D03*
Y4499200D03*
Y4599200D03*
Y4699200D03*
Y4799200D03*
X2407600Y1858900D03*
Y1958900D03*
Y2058900D03*
Y2158900D03*
Y2258900D03*
Y2358900D03*
X2469500Y4299200D03*
Y4399200D03*
Y4499200D03*
Y4599200D03*
Y4699200D03*
Y4799200D03*
X2569500Y4299200D03*
Y4399200D03*
Y4499200D03*
Y4599200D03*
Y4699200D03*
Y4799200D03*
X4865200Y4461100D03*
Y4561100D03*
Y4661100D03*
Y4761100D03*
Y4861100D03*
X4965200Y4461100D03*
Y4561100D03*
Y4661100D03*
Y4761100D03*
Y4861100D03*
X5065200Y4461100D03*
Y4561100D03*
Y4661100D03*
Y4761100D03*
Y4861100D03*
X5090100Y8762900D03*
Y8862900D03*
X5165200Y4461100D03*
Y4561100D03*
Y4661100D03*
Y4761100D03*
Y4861100D03*
X5190100Y8762900D03*
Y8862900D03*
X5265200Y4461100D03*
Y4561100D03*
Y4661100D03*
Y4761100D03*
Y4861100D03*
X5311000Y2710500D03*
Y2810500D03*
Y2910500D03*
X5411000Y2710500D03*
Y2810500D03*
Y2910500D03*
X5365200Y4461100D03*
Y4561100D03*
Y4661100D03*
Y4761100D03*
Y4861100D03*
X5464990Y575390D03*
X5511000Y2710500D03*
Y2810500D03*
Y2910500D03*
X5957300Y8971400D03*
Y9071400D03*
X6057300Y8971400D03*
Y9071400D03*
X6418700Y5226800D03*
Y5326800D03*
Y5426800D03*
X6497200Y1910600D03*
Y2010600D03*
X6485300Y2706200D03*
Y2806200D03*
X6518700Y4578200D03*
Y4678200D03*
Y4778200D03*
Y5226800D03*
Y5326800D03*
Y5426800D03*
X6597200Y1910600D03*
Y2010600D03*
X6585300Y2706200D03*
Y2806200D03*
X6569000Y3560600D03*
Y3660600D03*
X6537500Y6366600D03*
Y6466600D03*
X6669000Y3560600D03*
Y3660600D03*
X6618700Y4578200D03*
Y4678200D03*
Y4778200D03*
Y5226800D03*
Y5326800D03*
Y5426800D03*
X6637500Y6366600D03*
Y6466600D03*
X6697200Y1910600D03*
Y2010600D03*
X6685300Y2706200D03*
Y2806200D03*
X6718700Y4578200D03*
Y4678200D03*
Y4778200D03*
Y5226800D03*
Y5326800D03*
Y5426800D03*
X6737500Y6366600D03*
Y6466600D03*
X6797200Y1910600D03*
Y2010600D03*
X6785300Y2706200D03*
Y2806200D03*
X6769000Y3560600D03*
Y3660600D03*
X6818700Y5226800D03*
Y5326800D03*
Y5426800D03*
X6897200Y1910600D03*
Y2010600D03*
X6869000Y3560600D03*
Y3660600D03*
X6837500Y6366600D03*
Y6466600D03*
X6937500Y6366600D03*
Y6466600D03*
X7122900Y8983300D03*
Y9083300D03*
X9156500Y6766000D03*
Y6866000D03*
Y6966000D03*
X9196200Y8613300D03*
Y8713300D03*
X9293700Y8614900D03*
Y8714900D03*
X10320600Y9127600D03*
Y9227600D03*
X10416000Y8207400D03*
X10420600Y9127600D03*
Y9227600D03*
X10516000Y8207400D03*
X11046100Y8158700D03*
X11146100D03*
X11951400Y3286300D03*
Y3386300D03*
X12051400Y3286300D03*
Y3386300D03*
X13815100Y3310200D03*
Y3410200D03*
X13915100Y3310200D03*
Y3410200D03*
X14435300Y3288000D03*
Y3388000D03*
X14535300Y3288000D03*
Y3388000D03*
X16316900Y3308500D03*
Y3408500D03*
X16416900Y3308500D03*
Y3408500D03*
X16957800Y3288000D03*
Y3388000D03*
X17057800Y3288000D03*
Y3388000D03*
X18817100Y3305100D03*
Y3405100D03*
X18917100Y3305100D03*
Y3405100D03*
X19440900Y3282800D03*
Y3382800D03*
X19540900Y3282800D03*
Y3382800D03*
X21313800Y3296500D03*
Y3396500D03*
X21413800Y3296500D03*
Y3396500D03*
X21942700Y3281200D03*
Y3381200D03*
X22042700Y3281200D03*
Y3381200D03*
X23812300Y3315300D03*
Y3415300D03*
X23912300Y3315300D03*
Y3415300D03*
X24454800Y3284500D03*
Y3384500D03*
X24554800Y3284500D03*
Y3384500D03*
X26321000Y3324700D03*
X26319300Y3408500D03*
X26407300Y3323000D03*
X26409000Y3411900D03*
X26929400Y3276100D03*
Y3376100D03*
X27029400Y3276100D03*
Y3376100D03*
X28812700Y3308500D03*
Y3408500D03*
X28912700Y3308500D03*
Y3408500D03*
G54D31*
G01X627410Y533400D02*
G03I-119410J0D01*
G01Y9072400D02*
G03I-119410J0D01*
G01X30811410Y1358400D02*
G03I-119410J0D01*
G01Y9897400D02*
G03I-119410J0D01*
G54D13*
X2682200Y9439410D03*
Y9859410D03*
X3102200Y9439410D03*
Y9859410D03*
X3522200Y9439410D03*
Y9859410D03*
G54D22*
X10033400Y5469900D03*
Y5534900D03*
X10114900Y5678600D03*
Y5743600D03*
G54D23*
X12210150Y2761000D03*
X14710150Y2755000D03*
X17210150D03*
X19710150Y2761000D03*
X22210150D03*
X24710150D03*
X27210100Y2761200D03*
G54D14*
X4564990Y-50000D03*
G54D24*
X13210150Y5611000D03*
Y6811000D03*
Y8611000D03*
X15710150Y5605000D03*
Y6805000D03*
Y8605000D03*
X18210150Y5605000D03*
Y6805000D03*
Y8605000D03*
X20710150Y5611000D03*
Y6811000D03*
Y8611000D03*
X23210150Y5611000D03*
Y6811000D03*
Y8611000D03*
X25710150Y5611000D03*
Y6811000D03*
Y8611000D03*
X28210100Y5611200D03*
Y6811200D03*
Y8611200D03*
G54D15*
X4664990Y-99990D03*
X4764990D03*
X4864990D03*
X4964990D03*
X5064990D03*
X5164990D03*
X5264990D03*
X5364990D03*
X5464990D03*
X5564990D03*
X5865010D03*
X5965010D03*
X6065010D03*
X6165010D03*
X6265010D03*
X6365010D03*
X6465010D03*
X6565010D03*
X6665010D03*
X6765010D03*
X6865010D03*
X6965010D03*
X7065010D03*
X7165010D03*
X7265010D03*
X7365010D03*
X7465010D03*
X7565010D03*
X7665010D03*
X7765010D03*
X7865010D03*
X7965010D03*
X8065010D03*
X8165010D03*
X8265010D03*
X8365010D03*
X8465010D03*
X8565010D03*
X8665010D03*
X8765010D03*
X8865010D03*
X8965010D03*
X9065010D03*
X9165010D03*
X9265010D03*
X9365010D03*
X9465010D03*
X9565000D03*
X9665000D03*
X9765000D03*
X9865000D03*
X9965000D03*
X10065000D03*
X10165000D03*
X10265000D03*
X10365000D03*
X10465000D03*
X10565000D03*
X10665000D03*
X10765000D03*
X10865000D03*
X10965000D03*
X11065000D03*
X11165000D03*
X11265000D03*
X11365000D03*
X11465000D03*
X11565000D03*
X11665000D03*
X11765000D03*
X11865000D03*
X11965000D03*
X12065000D03*
X12165000D03*
X12265000D03*
X12365000D03*
X12465000D03*
X12565000D03*
X12665000D03*
X12765000D03*
X12865000D03*
G54D25*
X14210150Y2766000D03*
X16710150Y2760000D03*
X19210150D03*
X21710150Y2766000D03*
X24210150D03*
X26710150D03*
X29210100Y2766200D03*
G54D16*
X4664990Y555210D03*
G54D26*
G01X4564990Y-50000D02*
Y582500D01*
G01X4664990Y-99990D02*
Y555210D01*
G01D02*
X4764990Y455210D01*
Y-99990D01*
G01X4864990D02*
Y582510D01*
G01X5364990Y508910D02*
X5311100Y562800D01*
G01X5364990Y-99990D02*
Y508910D01*
G01X5464990Y-99990D02*
Y408910D01*
X5364990Y508910D01*
G01X5865010Y-99990D02*
Y510910D01*
X5912900Y558800D01*
G01X6165010Y-99990D02*
Y502400D01*
G01D02*
X6177800Y515190D01*
Y523800D01*
X6213300Y559300D01*
G01X6465010Y-99990D02*
Y521090D01*
X6411900Y574200D01*
G01X6665010Y-99990D02*
Y507600D01*
G01D02*
X6674300D01*
X6723000Y556300D01*
G01X6965010Y-99990D02*
Y521790D01*
X6912600Y574200D01*
G01X7065010Y-99990D02*
Y516700D01*
G01D02*
X7080500Y532190D01*
Y545500D01*
X7116000Y581000D01*
G01X7365010Y-99990D02*
Y525090D01*
X7309100Y581000D01*
G01X7465010Y-99990D02*
Y513300D01*
G01D02*
X7480400Y528690D01*
Y547300D01*
X7515900Y582800D01*
G01X7765010Y-99990D02*
Y582500D01*
G01X8065010Y-99990D02*
Y533710D01*
X8114000Y582700D01*
G01X8365010Y516100D02*
Y523190D01*
X8303700Y584500D01*
G01X8365010Y-99990D02*
Y516100D01*
G01X8465010Y-99990D02*
Y547510D01*
X8505400Y587900D01*
G01X8765010Y517800D02*
X8744200Y538610D01*
Y547200D01*
X8708700Y582700D01*
G01X8765010Y-99990D02*
Y517800D01*
G01X8865010Y-99990D02*
Y582510D01*
G01X9165010Y-99990D02*
Y524600D01*
G01D02*
X9147510Y542100D01*
X9139000D01*
X9103500Y577600D01*
G01X9229800Y4856600D02*
X9235410D01*
X9289130Y4910320D01*
G01X9231400Y5146500D02*
X9238090D01*
X9289130Y5095460D01*
G01X9265010Y-99990D02*
Y540910D01*
X9305100Y581000D01*
G01X9336480Y4856600D02*
X9335410D01*
X9289130Y4810320D01*
G01X9338080Y5146500D02*
Y5146510D01*
X9289130Y5195460D01*
G01X9565000Y-99990D02*
Y543300D01*
X9515300Y593000D01*
G01X9519000Y5752600D02*
Y5765590D01*
X9489130Y5795460D01*
G01X9589130Y4410320D02*
X9590220D01*
X9632500Y4452600D01*
G01X9630500Y4551690D02*
X9589130Y4510320D01*
G01Y4710320D02*
Y4711330D01*
X9630500Y4752700D01*
G01X9633100Y4851720D02*
X9630530D01*
X9589130Y4810320D01*
G01X9633100Y4958400D02*
Y4954290D01*
X9589130Y4910320D01*
G01X9630500Y5046420D02*
Y5054090D01*
X9589130Y5095460D01*
G01X9630500Y5153100D02*
Y5154090D01*
X9589130Y5195460D01*
G01X9633100Y5249520D02*
Y5251490D01*
X9589130Y5295460D01*
G01X9633100Y5356200D02*
X9628390D01*
X9589130Y5395460D01*
G01X9632600Y5550300D02*
Y5551990D01*
X9589130Y5595460D01*
G01X9632600Y5656980D02*
X9627610D01*
X9589130Y5695460D01*
G01X9630500Y4646020D02*
Y4551690D01*
G01X9632500Y4559280D02*
Y4553690D01*
X9630500Y4551690D01*
G01X9689130Y5095460D02*
Y5085970D01*
X9725400Y5049700D01*
G01X9765000Y-99990D02*
Y538400D01*
X9809300Y582700D01*
G01X9831200Y4845520D02*
X9824330D01*
X9789130Y4810320D01*
G01X9831200Y4952200D02*
X9831010D01*
X9789130Y4910320D01*
G01X9832080Y5049700D02*
Y5052510D01*
X9789130Y5095460D01*
G01X9830700Y5153800D02*
Y5153890D01*
X9789130Y5195460D01*
G01X9889130Y4410320D02*
X9890820D01*
X9932800Y4452300D01*
G01Y4558980D02*
Y4553990D01*
X9889130Y4510320D01*
G01Y4810320D02*
X9890820D01*
X9932500Y4852000D01*
G01X9932800Y4945120D02*
X9923930D01*
X9889130Y4910320D01*
G01X9932800Y5051800D02*
X9932790D01*
X9889130Y5095460D01*
G01X9937380Y5153800D02*
X9930790D01*
X9889130Y5195460D01*
G01X9932500Y4745320D02*
X9951880D01*
X9985700Y4711500D01*
G01X10065000Y521200D02*
X10049900Y536300D01*
Y555800D01*
X10014400Y591300D01*
G01X10031700Y4844920D02*
X10039670D01*
X10074270Y4810320D01*
G01X10031700Y4951600D02*
X10032990D01*
X10074270Y4910320D01*
G01X10032000Y5045320D02*
Y5053190D01*
X10074270Y5095460D01*
G01X10032000Y5152000D02*
Y5153190D01*
X10074270Y5195460D01*
G01X10033400Y5469900D02*
X10048710D01*
X10074270Y5495460D01*
G01X10065000Y-99990D02*
Y521200D01*
G01X10131900Y4745320D02*
Y4752690D01*
X10074270Y4810320D01*
G01X10131900Y4852000D02*
X10132590D01*
X10174270Y4810320D01*
G01X10135020Y4959200D02*
Y4949570D01*
X10174270Y4910320D01*
G01Y5095460D02*
Y5094470D01*
X10132800Y5053000D01*
G01X10131900Y5151620D02*
Y5153090D01*
X10174270Y5195460D01*
G01X10131900Y5258300D02*
X10137110D01*
X10174270Y5295460D01*
G01X10129800Y5352700D02*
X10074270Y5297170D01*
Y5295460D01*
G01Y5795460D02*
Y5784230D01*
X10114900Y5743600D01*
G01X10165000Y-99990D02*
Y552200D01*
X10205800Y593000D01*
G01X10231400Y5551400D02*
X10214700D01*
X10167900Y5504600D01*
G01X10274270Y4910320D02*
Y4926630D01*
X10241700Y4959200D01*
G01X10239480Y5053000D02*
Y5058200D01*
X10330800Y5149520D01*
G01X10333400Y4345520D02*
X10355460D01*
X10390660Y4310320D01*
G01X10374270Y4410320D02*
Y4411330D01*
X10333400Y4452200D01*
G01X10374270Y4510320D02*
X10366900D01*
X10332700Y4544520D01*
G01Y4651200D02*
X10333390D01*
X10374270Y4610320D01*
G01Y4710320D02*
X10368800D01*
X10333400Y4745720D01*
G01Y4852400D02*
Y4851190D01*
X10374270Y4810320D01*
G01X10391700Y4903500D02*
X10349780Y4945420D01*
X10332700D01*
G01Y5052100D02*
Y5053890D01*
X10374270Y5095460D01*
G01X10330800Y5149520D02*
Y5151990D01*
X10374270Y5195460D01*
G01X10330800Y5256200D02*
X10335010D01*
X10374270Y5295460D01*
G01X10331300Y5458500D02*
X10337310D01*
X10374270Y5495460D01*
G01X10330800Y5549800D02*
Y5551990D01*
X10374270Y5595460D01*
G01X10330800Y5656480D02*
X10335290D01*
X10374270Y5695460D01*
G01X10334000Y5748800D02*
Y5755190D01*
X10374270Y5795460D01*
G01X10465000Y521200D02*
X10448000Y538200D01*
Y554100D01*
X10412500Y589600D01*
G01X10465000Y-99990D02*
Y521200D01*
G01X10565000Y-99990D02*
Y535300D01*
X10615650Y585950D01*
G01X10674270Y4710320D02*
Y4719250D01*
X10637600Y4755920D01*
G01Y4862600D02*
Y4873650D01*
X10674270Y4910320D01*
G01X10865000Y528100D02*
Y530200D01*
X10807300Y587900D01*
G01X10865000Y-99990D02*
Y528100D01*
G01X10965000Y-99990D02*
Y555900D01*
X11003800Y594700D01*
G01X11265000Y519500D02*
Y524900D01*
X11207200Y582700D01*
G01X11265000Y-99990D02*
Y519500D01*
G01X11365000Y-99990D02*
Y542300D01*
X11414000Y591300D01*
G01X11665000Y524600D02*
Y528300D01*
X11605400Y587900D01*
G01X11665000Y-99990D02*
Y524600D01*
G01X11765000Y-99990D02*
Y552700D01*
X11801900Y589600D01*
G01X12065000Y526400D02*
X12001800Y589600D01*
G01X12065000Y-99990D02*
Y526400D01*
G01X12165000Y-99990D02*
Y556200D01*
X12205200Y596400D01*
G01X12465000Y516100D02*
X12445800Y535300D01*
Y547200D01*
X12410300Y582700D01*
G01X12465000Y-99990D02*
Y516100D01*
G01X12565000Y-99990D02*
Y534100D01*
X12608500Y577600D01*
G01X12865000Y519500D02*
Y521100D01*
X12801600Y584500D01*
G01X12865000Y-99990D02*
Y519500D01*
G54D17*
X5077200Y10107900D03*
X6848900Y10024200D03*
X8085800Y10091200D03*
G54D27*
G01X9370500Y8081400D02*
X9251000Y7961900D01*
X5204000D01*
X4485500Y7243400D01*
Y1464750D01*
X4964990Y985260D01*
Y-99990D01*
G01X5064990D02*
Y951370D01*
X4524700Y1491660D01*
Y7239400D01*
X5217000Y7931700D01*
X9529340D01*
X9564500Y7966860D01*
Y8078600D01*
G01X9499500Y8082400D02*
X9590500Y8173400D01*
X9707800D01*
X9722800Y8158400D01*
Y8085980D01*
X9532220Y7895400D01*
X5222100D01*
X4560800Y7234100D01*
Y1526500D01*
X5164990Y922310D01*
Y-99990D01*
G01X5264990D02*
Y890010D01*
X4596300Y1558700D01*
Y7226300D01*
X5229200Y7859200D01*
X9535200D01*
X9756800Y8080800D01*
Y8186800D01*
X9741800Y8201800D01*
X9558600D01*
X9481900Y8125100D01*
X9481810D01*
X9465700Y8108990D01*
Y8108900D01*
X9435500Y8078700D01*
G01X5564990Y-99990D02*
Y570400D01*
G01X5535800Y8850500D02*
X6153300Y8233000D01*
X7860100D01*
X8560700Y8933600D01*
X9508900D01*
X9792400Y8650100D01*
Y8018400D01*
X9221700Y7447700D01*
Y6747200D01*
X9511700Y6457200D01*
G01X5537200Y8978300D02*
X6252400Y8263100D01*
X7846000D01*
X8547600Y8964700D01*
X9521100D01*
X9835200Y8650600D01*
Y8016000D01*
X9250900Y7431700D01*
Y6810900D01*
X9557500Y6504300D01*
G01X6296000Y7766700D02*
X6631110D01*
X6733200Y7664610D01*
Y7329500D01*
X7531200Y6531500D01*
X9289000D01*
X9817700Y6002800D01*
Y5951300D01*
G01X6848900Y10024200D02*
X6618400Y9793700D01*
Y9075200D01*
X6541800Y8998600D01*
X6305600D01*
G01X6648500Y7606800D02*
Y7375010D01*
X7519710Y6503800D01*
X7751500D01*
X7757900Y6497400D01*
X9232560D01*
X9789130Y5940830D01*
G01X10468600Y4086100D02*
X10397600D01*
X10397400Y4086300D01*
X9516300D01*
X9351430Y4251170D01*
Y4648020D01*
X9289130Y4710320D01*
G01X9369750Y7231700D02*
Y7189000D01*
X9367700Y7186950D01*
Y6871500D01*
X9926830Y6312370D01*
Y5811080D01*
G01X9889130Y5395460D02*
Y5433160D01*
X9852580Y5469710D01*
Y5486010D01*
G01X9984150Y5690990D02*
Y6329580D01*
X9980200Y6333530D01*
Y6335150D01*
X9499400Y6815950D01*
Y7233800D01*
G01X9584000Y5752600D02*
Y5790330D01*
X9589130Y5795460D01*
G01X10005600Y6349400D02*
X9564280Y6790720D01*
Y7233820D01*
G01X9629310Y7232810D02*
Y6767190D01*
X10033300Y6363200D01*
Y6355530D01*
G01X10033400Y5534900D02*
Y5554590D01*
X10074270Y5595460D01*
G01X10535100Y4084200D02*
X10460400Y4158900D01*
X10409610D01*
X10074270Y4494240D01*
Y4610320D01*
G01Y5695460D02*
X10098040D01*
X10114900Y5678600D01*
G01X10274270Y5395460D02*
Y5390490D01*
X10236480Y5352700D01*
G01X10274270Y5495460D02*
X10261580D01*
X10224620Y5458500D01*
G01X10274270Y5695460D02*
X10268780D01*
X10231400Y5658080D01*
G01X10274270Y5795460D02*
X10273980D01*
X10227320Y5748800D01*
G01X10695390Y9440970D02*
Y8777910D01*
G01X15408600Y3510200D02*
X12905900D01*
G54D18*
X5331200Y10107900D03*
X6340900Y10024200D03*
X6594900D03*
X8339800Y10091200D03*
X8593800D03*
X8847800D03*
X9101800D03*
G54D28*
G01X9817700Y5951300D02*
Y5766890D01*
X9889130Y5695460D01*
G01X9789130Y5940830D02*
Y5695460D01*
G01X9926830Y5811080D02*
X9925680Y5809930D01*
Y5680310D01*
X9904280Y5658910D01*
X9882320D01*
X9880820Y5657410D01*
X9863450D01*
X9827180Y5621140D01*
Y5603770D01*
X9825700Y5602290D01*
Y5305190D01*
X9875190Y5255700D01*
X9971070D01*
X10074270Y5358900D01*
Y5395460D01*
G01X9852580Y5486010D02*
Y5610610D01*
X9873980Y5632010D01*
X9891350D01*
X9892850Y5633510D01*
X9914810D01*
X9917200Y5635900D01*
X9921890D01*
X9956550Y5670560D01*
Y6319630D01*
X9953650Y6322530D01*
Y6324150D01*
X9433500Y6844300D01*
Y7232800D01*
G01X9889130Y5595460D02*
X9948970D01*
X9981950Y5628440D01*
Y5688790D01*
X9984150Y5690990D01*
G01X9889130Y5495460D02*
X10008500Y5614830D01*
Y5649030D01*
X10009550Y5650080D01*
Y5678840D01*
X10010700Y5679990D01*
Y6340580D01*
X10006750Y6344530D01*
Y6346150D01*
X10005600Y6347300D01*
Y6349400D01*
G01X10033300Y6355530D02*
X10036100Y6352730D01*
Y5669460D01*
X10035800Y5669160D01*
Y5602010D01*
X9925680Y5491890D01*
Y5380310D01*
X9889130Y5343760D01*
Y5295460D01*
G54D19*
X5975000Y680900D03*
Y787580D03*
X6055400Y680900D03*
Y787580D03*
X6279700Y682120D03*
Y788800D03*
X6349900Y682020D03*
Y788700D03*
X6780300Y666420D03*
Y773100D03*
X6850600Y666320D03*
Y773000D03*
X8888300Y4484600D03*
Y4564900D03*
X8890620Y4816100D03*
X8890920Y4887200D03*
X8890720Y5029400D03*
X8890920Y4958500D03*
X8890620Y5100400D03*
Y5171600D03*
X8890720Y5242900D03*
X8890920Y5314100D03*
X8891020Y5385900D03*
X8892120Y5459500D03*
X8892220Y5530700D03*
Y5601800D03*
X8994980Y4484600D03*
Y4564900D03*
X8997300Y4816100D03*
X8997600Y4887200D03*
X8997400Y5029400D03*
X8997600Y4958500D03*
X8997300Y5100400D03*
Y5171600D03*
X8997400Y5242900D03*
X8997600Y5314100D03*
X8997700Y5385900D03*
X8998800Y5459500D03*
X8998900Y5530700D03*
Y5601800D03*
X9229800Y4856600D03*
X9231400Y5146500D03*
X9336480Y4856600D03*
X9338080Y5146500D03*
X9632500Y4452600D03*
Y4559280D03*
X9630500Y4646020D03*
Y4752700D03*
X9633100Y4851720D03*
Y4958400D03*
X9630500Y5046420D03*
Y5153100D03*
X9633100Y5249520D03*
Y5356200D03*
X9632600Y5550300D03*
Y5656980D03*
X9725400Y5049700D03*
X9831200Y4845520D03*
Y4952200D03*
X9832080Y5049700D03*
X9830700Y5153800D03*
X9932800Y4452300D03*
Y4558980D03*
X9932500Y4745320D03*
Y4852000D03*
X9932800Y4945120D03*
Y5051800D03*
X9937380Y5153800D03*
X10031700Y4844920D03*
Y4951600D03*
X10032000Y5045320D03*
Y5152000D03*
X10131900Y4745320D03*
Y4852000D03*
X10135020Y4959200D03*
X10132800Y5053000D03*
X10131900Y5151620D03*
Y5258300D03*
X10129800Y5352700D03*
X10241700Y4959200D03*
X10239480Y5053000D03*
X10236480Y5352700D03*
X10224620Y5458500D03*
X10231400Y5551400D03*
Y5658080D03*
X10227320Y5748800D03*
X10333400Y4345520D03*
Y4452200D03*
X10332700Y4544520D03*
Y4651200D03*
X10333400Y4745720D03*
Y4852400D03*
X10332700Y4945420D03*
Y5052100D03*
X10330800Y5149520D03*
Y5256200D03*
X10331300Y5458500D03*
X10330800Y5549800D03*
Y5656480D03*
X10334000Y5748800D03*
X10637600Y4755920D03*
Y4862600D03*
X10964000Y4855500D03*
X10963900Y4925900D03*
X10964100Y4996500D03*
Y5067000D03*
Y5137500D03*
Y5208000D03*
Y5278500D03*
X10964000Y5349100D03*
X10964100Y5419600D03*
X10964400Y5490100D03*
X10964100Y5560100D03*
Y5630600D03*
Y5701100D03*
Y5771900D03*
Y5842600D03*
Y5913700D03*
X11070680Y4855500D03*
X11070580Y4925900D03*
X11070780Y4996500D03*
Y5067000D03*
Y5137500D03*
Y5208000D03*
Y5278500D03*
X11070680Y5349100D03*
X11070780Y5419600D03*
X11071080Y5490100D03*
X11070780Y5560100D03*
Y5630600D03*
Y5701100D03*
Y5771900D03*
Y5842600D03*
Y5913700D03*
G54D29*
G01X5965010Y-99990D02*
Y85790D01*
X6000280Y121060D01*
Y598120D01*
X6000470Y598310D01*
Y644650D01*
X5975000Y670120D01*
Y680900D01*
G01Y787580D02*
Y798360D01*
X6000480Y823840D01*
Y949370D01*
X5985240Y964610D01*
X5974290D01*
G01X6065010Y-99990D02*
Y85790D01*
X6029740Y121060D01*
Y585910D01*
X6029930Y586100D01*
Y644650D01*
X6055400Y670120D01*
Y680900D01*
G01X6056120Y964610D02*
X6045180D01*
X6029940Y949370D01*
Y823820D01*
X6055400Y798360D01*
Y787580D01*
G01X8698350Y4779800D02*
Y4738900D01*
X8724530Y4712720D01*
Y4551700D01*
X8766210Y4510020D01*
X8852100D01*
X8877520Y4484600D01*
X8888300D01*
G01X8780180Y4779800D02*
Y4738900D01*
X8753990Y4712710D01*
Y4563910D01*
X8778420Y4539480D01*
X8852100D01*
X8877520Y4564900D01*
X8888300D01*
G01X8994980Y4484600D02*
X9005760D01*
X9031180Y4510020D01*
X9089730D01*
X9153860Y4574150D01*
Y4675050D01*
X9189130Y4710320D01*
G01X8994980Y4564900D02*
X9005760D01*
X9031180Y4539480D01*
X9077520D01*
X9124400Y4586360D01*
Y4675050D01*
X9089130Y4710320D01*
M02*
