G04 ================== begin FILE IDENTIFICATION RECORD ==================*
G04 Layout Name:  pcie-nvme_rework2.brd*
G04 Film Name:    ART04L*
G04 File Format:  Gerber RS274X*
G04 File Origin:  Cadence Allegro 25.1-S010*
G04 Origin Date:  Tue May 12 01:05:28 2026*
G04 *
G04 Layer:  VIA CLASS/ART04*
G04 Layer:  PIN/ART04*
G04 Layer:  ETCH/ART04*
G04 *
G04 Offset:    (0.0000 0.0000)*
G04 Mirror:    No*
G04 Mode:      Positive*
G04 Rotation:  0*
G04 FullContactRelief:  No*
G04 UndefLineWidth:     0.1000*
G04 ================== end FILE IDENTIFICATION RECORD ====================*
%FSLAX25Y25*MOMM*%
%IR0*IPPOS*OFA0.00000B0.00000*MIA0B0*SFA1.00000B1.00000*%
%ADD11C,.6*%
%ADD13C,.7*%
%ADD15C,.35*%
%ADD10C,.45*%
%ADD16C,5.5*%
%ADD14C,1.37*%
%ADD12C,2.3622*%
%ADD18C,.6044*%
%ADD17C,.7044*%
%ADD19C,.8544*%
%ADD20C,5.7544*%
G75*
%LPD*%
G75*
G36*
G01X10421500Y10340200D02*
X29274400D01*
X30899900Y8714700D01*
Y4201200D01*
X29534500Y2835800D01*
X29501770D01*
G02X29491660Y2846930I3J10159D01*
G03X29491820Y2850300I-35061J3353D01*
G03X29421380I-35220J0D01*
G03X29421540Y2846930I35221J-17D01*
G02X29411430Y2835800I-10113J-971D01*
G01X29391800D01*
G03X29349600I-21100J-28200D01*
G01X29238940D01*
G03X29210100Y2841540I-28844J-69599D01*
G03X29181260Y2835800I4J-75339D01*
G01X28955250D01*
G02X28945140Y2846990I-3J10160D01*
G03X28945320Y2850550I-35040J3556D01*
G03X28874880I-35220J0D01*
G03X28875060Y2846990I35220J-4D01*
G02X28864950Y2835800I-10107J-1030D01*
G01X27277200D01*
G03X27143000I-67100J-74589D01*
G01X27003830D01*
G02X26993750Y2847220I1J10159D01*
G03X26994020Y2851580I-34950J4353D01*
G03X26923580I-35220J0D01*
G03X26923850Y2847220I35220J-7D01*
G02X26913770Y2835800I-10081J-1261D01*
G01X26893950D01*
G03X26851750I-21100J-28200D01*
G01X26738510D01*
G03X26710150Y2841340I-28356J-69801D01*
G03X26681790Y2835800I-4J-75341D01*
G01X26455320D01*
G02X26445200Y2846940I-6J10161D01*
G03X26445370Y2850350I-35048J3456D01*
G03X26374930I-35220J0D01*
G03X26375100Y2846940I35218J46D01*
G02X26364980Y2835800I-10114J-979D01*
G01X24777030D01*
G03X24643270I-66880J-74797D01*
G01X24504230D01*
G02X24494100Y2846790I-4J10160D01*
G03X24494220Y2849680I-35099J2905D01*
G03X24423780I-35220J0D01*
G03X24423900Y2846790I35219J15D01*
G02X24413770Y2835800I-10126J-830D01*
G01X24392590D01*
G03X24352910I-19840J-29099D01*
G01X24238510D01*
G03X24210150Y2841340I-28356J-69801D01*
G03X24181790Y2835800I-4J-75341D01*
G01X23955320D01*
G02X23945200Y2846940I-6J10161D01*
G03X23945370Y2850350I-35048J3456D01*
G03X23874930I-35220J0D01*
G03X23875100Y2846940I35218J46D01*
G02X23864980Y2835800I-10114J-979D01*
G01X22277030D01*
G03X22143270I-66880J-74797D01*
G01X22004190D01*
G02X21994050Y2846590I1J10160D01*
G03X21994120Y2848780I-35149J2220D01*
G03X21983800Y2873690I-35223J0D01*
G01Y3464600D01*
X21985000Y3465800D01*
X21767090D01*
G03X21716610I-25240J-24551D01*
G01X21666650D01*
G03X21614650I-26000J-23764D01*
G01X21123310D01*
G03X21060790I-31260J-16215D01*
G01X19790370D01*
G03X19731530I-29420J-19357D01*
G01X19689440D01*
G03X19630860I-29290J-19562D01*
G01X19267940D01*
G03X19208960I-29490J-19265D01*
G01X19166470D01*
G03X19107230I-29620J-19066D01*
G01X18624170D01*
G03X18563530I-30320J-17919D01*
G01X17300510D01*
G03X17247790I-26360J-23364D01*
G01X17198310D01*
G03X17145590I-26360J-23364D01*
G01X16769060D01*
G03X16717440I-25810J-23951D01*
G01X16667550D01*
G03X16615550I-26000J-23764D01*
G01X16117570D01*
G03X16070530I-23520J-26233D01*
G01X15438380D01*
G02X15431710Y3483630I-3J10162D01*
G03X15443820Y3510200I-23107J26576D01*
G03X15373380I-35220J0D01*
G03X15385490Y3483630I35217J6D01*
G02X15378820Y3465800I-6667J-7668D01*
G01X14786490D01*
X14785580Y3466160D01*
G03X14759520I-13030J-32706D01*
G01X14758610Y3465800D01*
X14685390D01*
X14684480Y3466160D01*
G03X14658420I-13030J-32706D01*
G01X14657510Y3465800D01*
X14268990D01*
G03X14218510I-25240J-24551D01*
G01X14167000D01*
G03X14117100I-24950J-24864D01*
G01X13616630D01*
G03X13562470I-27080J-22521D01*
G01X12935680D01*
G02X12929010Y3483630I-3J10162D01*
G03X12941120Y3510200I-23107J26576D01*
G03X12870680I-35220J0D01*
G03X12882790Y3483630I35217J6D01*
G02X12876120Y3465800I-6667J-7668D01*
G01X12281780D01*
G03X12237920I-21930J-27562D01*
G01X12181080D01*
G03X12137220I-21930J-27562D01*
G01X9988620D01*
G02X9981430Y3483140I-3J10159D01*
G01X10243620Y3745330D01*
Y4052800D01*
X10457100D01*
X10457860Y4052560D01*
G03X10468600Y4050880I10748J33539D01*
G03X10479340Y4052560I-8J35219D01*
G01X10480100Y4052800D01*
X10519110D01*
X10520130Y4052320D01*
G03X10550070I14970J31878D01*
G01X10551090Y4052800D01*
X10579700D01*
G03X10626100I23200J26502D01*
G01X10931800D01*
Y5952900D01*
X10253320D01*
G03X10208080I-22620J-27013D01*
G01X9031600D01*
Y5874930D01*
X9030990Y5873800D01*
G03Y5840400I31017J-16700D01*
G01X9031600Y5839270D01*
Y4957290D01*
X9022380Y4948070D01*
Y4848870D01*
X8931520Y4758010D01*
G03X8909900Y4765420I-21612J-27813D01*
G03X8874680Y4730200I0J-35220D01*
G03X8882090Y4708580I35223J-8D01*
G01X8435610Y4262100D01*
X6457870D01*
G02X6448430Y4276010I2J10159D01*
G03X6450920Y4289020I-32743J13010D01*
G03X6380480I-35220J0D01*
G03X6382970Y4276010I35233J0D01*
G02X6373530Y4262100I-9442J-3751D01*
G01X1838800D01*
X1801100Y4299800D01*
Y5073500D01*
X1796700D01*
X1364000Y5506200D01*
X792900D01*
X563900Y5735200D01*
Y6299100D01*
X2158730Y7893930D01*
G02X2174020Y7892870I7184J-7185D01*
G03X2202120Y7878880I28100J21226D01*
G03X2237340Y7914100I0J35220D01*
G03X2223350Y7942200I-35216J0D01*
G02X2222290Y7957490I6125J8106D01*
G01X3559600Y9294800D01*
X5392260D01*
X5393190Y9290900D01*
G03X5461710I34260J8145D01*
G01X5462640Y9294800D01*
X9376100D01*
X10421500Y10340200D01*
G37*
G36*
G01X4532100Y621780D02*
Y632600D01*
X4814100Y632300D01*
X4814600Y-230100D01*
X4793500Y-251200D01*
X4554300D01*
X4532100Y-229000D01*
Y543220D01*
G02X4547350Y552020I10161J5D01*
G03X4564990Y547280I17647J30478D01*
G03Y617720I0J35220D01*
G03X4547350Y612980I7J-35218D01*
G02X4532100Y621780I-5089J8795D01*
G37*
G36*
G01X5131000Y2430320D02*
X5130990D01*
G03X5116400Y2427160I-8J-35223D01*
G01X5115400Y2426700D01*
X4985600D01*
X4984600Y2427160D01*
G03X4970010Y2430320I-14582J-32063D01*
G01X4969990D01*
G03X4955400Y2427160I-8J-35223D01*
G01X4954400Y2426700D01*
X4798700D01*
X4596600Y2628800D01*
Y4052400D01*
X5598500D01*
Y2560000D01*
X5465200Y2426700D01*
X5146600D01*
X5145600Y2427160D01*
G03X5131010Y2430320I-14582J-32063D01*
G01X5131000D01*
G37*
G36*
G01X5254450Y631760D02*
X5517300Y633520D01*
Y607320D01*
G02X5499040Y601190I-10160J2D01*
G03X5464990Y618110I-34050J-25801D01*
G03Y532670I0J-42720D01*
G03X5499040Y549590I0J42721D01*
G02X5517300Y543460I8100J-6132D01*
G01Y-137600D01*
X5513100Y-141800D01*
X5219100D01*
X5220080Y562920D01*
X5223960Y563860D01*
G03X5250920Y598100I-8263J34240D01*
G03X5245830Y616340I-35226J0D01*
G02X5254450Y631760I8691J5261D01*
G37*
G36*
G01X9819350Y4810320D02*
G03X9789130Y4840540I-30220J0D01*
G03X9766750Y4830620I5J-30218D01*
G02X9752040Y4830260I-7526J6827D01*
G01X9733800Y4848500D01*
Y5359200D01*
X9737200Y5362600D01*
X10230900D01*
Y3750600D01*
X8111900Y1631600D01*
X6186700D01*
X6058200Y1760100D01*
Y2276300D01*
X8052400D01*
X9831500Y4055400D01*
Y4750800D01*
X9809070Y4773230D01*
G02X9809430Y4787940I7187J7184D01*
G03X9819350Y4810320I-20298J22385D01*
G37*
G36*
G01X9696320Y4848500D02*
X9715810D01*
X9759350Y4804960D01*
X9759680Y4803540D01*
G03X9782350Y4780870I29450J6780D01*
G01X9783770Y4780540D01*
X9818780Y4745530D01*
Y4735670D01*
G02X9810160Y4732020I-5080J-6D01*
G03X9789130Y4740540I-21030J-21694D01*
G03Y4680100I0J-30220D01*
G03X9803720Y4683850I9J30222D01*
G02X9818780Y4674960I4902J-8897D01*
G01Y4645680D01*
G02X9803720Y4636790I-10158J7D01*
G03X9789130Y4640540I-14581J-26472D01*
G03Y4580100I0J-30220D01*
G03X9803720Y4583850I9J30222D01*
G02X9818780Y4574960I4902J-8897D01*
G01Y4545680D01*
G02X9803720Y4536790I-10158J7D01*
G03X9789130Y4540540I-14581J-26472D01*
G03Y4480100I0J-30220D01*
G03X9803720Y4483850I9J30222D01*
G02X9818780Y4474960I4902J-8897D01*
G01Y4245680D01*
G02X9803720Y4236790I-10158J7D01*
G03X9789130Y4240540I-14581J-26472D01*
G03Y4180100I0J-30220D01*
G03X9803720Y4183850I9J30222D01*
G02X9818780Y4174960I4902J-8897D01*
G01Y4060670D01*
X8197910Y2439800D01*
X6206600D01*
X6077100Y2569300D01*
Y3060000D01*
X6098700Y3081600D01*
X7958900D01*
X8926900Y4049600D01*
X8928400D01*
X9467760Y4588960D01*
G03X9489130Y4580100I21376J21357D01*
G03X9519350Y4610320I0J30220D01*
G03X9510490Y4631690I-30217J-6D01*
G01X9532300Y4653500D01*
Y4839000D01*
X9541800Y4848500D01*
X9560050D01*
G02X9567370Y4831290I5J-10160D01*
G03X9558910Y4810320I21759J-20970D01*
G03X9619350I30220J0D01*
G03X9610890Y4831290I-30219J0D01*
G02X9618210Y4848500I7315J7050D01*
G01X9660050D01*
G02X9667370Y4831290I5J-10160D01*
G03X9658910Y4810320I21759J-20970D01*
G03X9719350I30220J0D01*
G03X9699630Y4838660I-30224J0D01*
G01X9696320Y4839890D01*
Y4848500D01*
G37*
G36*
G01X10304580Y5499800D02*
X10343960D01*
X10344060Y5494830D01*
G03X10374270Y5465240I30210J626D01*
G03X10393280Y5471970I0J30213D01*
G02X10406850Y5471250I6385J-7903D01*
G01X10450060Y5428040D01*
G02X10450780Y5414470I-7183J-7185D01*
G03X10444050Y5395460I23483J-19010D01*
G03X10471230Y5365390I30224J0D01*
G01X10475800Y5364930D01*
Y5325990D01*
X10471230Y5325530D01*
G03Y5265390I3044J-30070D01*
G01X10475800Y5264930D01*
Y5225990D01*
X10471230Y5225530D01*
G03Y5165390I3044J-30070D01*
G01X10475800Y5164930D01*
Y5125990D01*
X10471230Y5125530D01*
G03Y5065390I3044J-30070D01*
G01X10475800Y5064930D01*
Y4507600D01*
X10467600Y4499400D01*
X10414640D01*
G02X10404480Y4509490I0J10161D01*
G03X10404490Y4510320I-30211J779D01*
G03X10344050I-30220J0D01*
G03X10344060Y4509490I30221J-51D01*
G02X10333900Y4499400I-10160J71D01*
G01X10243620D01*
Y5260670D01*
G02X10258940Y5269420I10161J-3D01*
G03X10274270Y5265240I15335J26039D01*
G03Y5325680I0J30220D01*
G03X10258940Y5321500I5J-30219D01*
G02X10243620Y5330250I-5159J8753D01*
G01Y5360670D01*
G02X10258940Y5369420I10161J-3D01*
G03X10274270Y5365240I15335J26039D01*
G03X10244050Y5395460I0J30220D01*
G03X10244990Y5387990I30219J9D01*
G02X10235150Y5375320I-9846J-2510D01*
G01X10113390D01*
G02X10103550Y5387990I6J10160D01*
G03X10104490Y5395460I-29279J7479D01*
G03X10044050I-30220J0D01*
G03X10044990Y5387990I30219J9D01*
G02X10035150Y5375320I-9846J-2510D01*
G01X9928250D01*
G02X9918410Y5387990I6J10160D01*
G03X9919350Y5395460I-29279J7479D01*
G03X9858910I-30220J0D01*
G03X9859850Y5387990I30219J9D01*
G02X9850010Y5375320I-9846J-2510D01*
G01X9828250D01*
G02X9818410Y5387990I6J10160D01*
G03X9819350Y5395460I-29279J7479D01*
G03X9758910I-30220J0D01*
G03X9759850Y5387990I30219J9D01*
G02X9750010Y5375320I-9846J-2510D01*
G01X9731930D01*
X9721080Y5364470D01*
Y5329450D01*
G02X9705440Y5320900I-10160J5D01*
G03X9689130Y5325680I-16310J-25436D01*
G03Y5265240I0J-30220D01*
G03X9705440Y5270020I0J30216D01*
G02X9721080Y5261470I5480J-8555D01*
G01Y5229450D01*
G02X9705440Y5220900I-10160J5D01*
G03X9689130Y5225680I-16310J-25436D01*
G03Y5165240I0J-30220D01*
G03X9705440Y5170020I0J30216D01*
G02X9721080Y5161470I5480J-8555D01*
G01Y4944310D01*
G02X9705440Y4935760I-10160J5D01*
G03X9689130Y4940540I-16310J-25436D01*
G03Y4880100I0J-30220D01*
G03X9705440Y4884880I0J30216D01*
G02X9721080Y4876330I5480J-8555D01*
G01Y4861220D01*
X9536530D01*
X9519530Y4844220D01*
G02X9504320Y4836450I-10108J1014D01*
G03X9489150Y4840540I-15182J-26132D01*
G01X9489130D01*
G03Y4780100I0J-30220D01*
G01X9489150D01*
G03X9504320Y4784190I-12J30222D01*
G02X9519580Y4775410I5102J-8784D01*
G01Y4745230D01*
G02X9504320Y4736450I-10158J4D01*
G03X9489150Y4740540I-15182J-26132D01*
G01X9489130D01*
G03Y4680100I0J-30220D01*
G01X9489150D01*
G03X9504320Y4684190I-12J30222D01*
G02X9519580Y4675410I5102J-8784D01*
G01Y4658770D01*
X9499620Y4638810D01*
X9496800Y4639550D01*
G03X9489130Y4640540I-7670J-29217D01*
G03X9458910Y4610320I0J-30220D01*
G03X9459900Y4602650I30207J0D01*
G01X9460640Y4599830D01*
X8923130Y4062320D01*
X8921630D01*
X8106610Y3247300D01*
X6802470D01*
X6801270Y3250670D01*
G03X6734930I-33170J-11855D01*
G01X6733730Y3247300D01*
X6701720D01*
X6700500Y3250650D01*
G03X6634300I-33100J-12027D01*
G01X6633080Y3247300D01*
X6600920D01*
X6599700Y3250650D01*
G03X6533500I-33100J-12027D01*
G01X6532280Y3247300D01*
X6222000D01*
X6077100Y3392200D01*
Y3953600D01*
X6108200Y3984700D01*
X6531550D01*
X6532760Y3981340D01*
G03X6599040I33140J11948D01*
G01X6600250Y3984700D01*
X6632150D01*
X6633360Y3981340D01*
G03X6699640I33140J11948D01*
G01X6700850Y3984700D01*
X6733310D01*
X6734530Y3981370D01*
G03X6800670I33070J12106D01*
G01X6801890Y3984700D01*
X8176200D01*
X8891470Y4699970D01*
X8894710Y4698420D01*
G03X8904780Y4695350I15191J31778D01*
G01X8906580Y4695080D01*
X8911120Y4690080D01*
X8906580Y4685090D01*
X8904780Y4684820D01*
G03X8874680Y4649970I5125J-34850D01*
G03X8945120I35220J0D01*
G03X8926370Y4681100I-35217J0D01*
G02Y4699070I4746J8985D01*
G03X8945120Y4730200I-16467J31130D01*
G01Y4730220D01*
G03X8941680Y4745390I-35222J-12D01*
G01X8940130Y4748630D01*
X9035100Y4843600D01*
Y4942800D01*
X9263650Y5171350D01*
G02X9270400Y5171750I3599J-3587D01*
G03X9289130Y5165240I18736J23708D01*
G03X9319350Y5195460I0J30220D01*
G03X9312840Y5214190I-30218J-6D01*
G01X9310040Y5217740D01*
X9366850Y5274550D01*
X9370400Y5271750D01*
G03X9389130Y5265240I18736J23708D01*
G03X9419350Y5295460I0J30220D01*
G03X9412840Y5314190I-30218J-6D01*
G02X9413230Y5320930I3987J3151D01*
G01X9463650Y5371350D01*
G02X9470400Y5371750I3599J-3587D01*
G03X9489130Y5365240I18736J23708D01*
G03X9519350Y5395460I0J30220D01*
G03X9512840Y5414190I-30218J-6D01*
G02X9513230Y5420930I3987J3151D01*
G01X9563650Y5471350D01*
G02X9570400Y5471750I3599J-3587D01*
G03X9589130Y5465240I18736J23708D01*
G03X9619340Y5494830I0J30216D01*
G01X9619440Y5499800D01*
X9658820D01*
X9658920Y5494830D01*
G03X9719340I30210J626D01*
G01X9719440Y5499800D01*
X9758820D01*
X9758920Y5494830D01*
G03X9819340I30210J626D01*
G01X9819440Y5499800D01*
X9858820D01*
X9858920Y5494830D01*
G03X9919340I30210J626D01*
G01X9919440Y5499800D01*
X10043960D01*
X10044060Y5494830D01*
G03X10104480I30210J626D01*
G01X10104580Y5499800D01*
X10137820D01*
X10138890Y5496140D01*
G03X10196910I29010J8458D01*
G01X10197980Y5499800D01*
X10243960D01*
X10244060Y5494830D01*
G03X10304480I30210J626D01*
G01X10304580Y5499800D01*
G37*
G36*
G01X12107490Y2118200D02*
G02X12097340Y2128810I-2J10158D01*
G03X12097370Y2130360I-35192J1456D01*
G03X12062150Y2165580I-35220J0D01*
G03X12036470Y2154470I0J-35234D01*
G02X12021590Y2154530I-7412J6949D01*
G03X11995700Y2165880I-25896J-23867D01*
G03X11960480Y2130660I0J-35220D01*
G03X11961160Y2123770I35220J-3D01*
G01Y2118200D01*
X11953050D01*
X11944550Y2126700D01*
Y2566000D01*
X11976950Y2598400D01*
X14393450D01*
Y2162600D01*
X14349050Y2118200D01*
X14159430D01*
G03X14135150Y2127910I-24280J-25501D01*
G03X14129320Y2127420I24J-35218D01*
G02X14118120Y2133870I-1686J10022D01*
G03X14085150Y2156720I-32970J-12361D01*
G03X14049960Y2123050I0J-35224D01*
G01X14049750Y2118200D01*
X13970550D01*
X13970340Y2123050D01*
G03X13899960I-35190J-1555D01*
G01X13899750Y2118200D01*
X13820550D01*
X13820340Y2123050D01*
G03X13749960I-35190J-1555D01*
G01X13749750Y2118200D01*
X13670550D01*
X13670340Y2123050D01*
G03X13599960I-35190J-1555D01*
G01X13599750Y2118200D01*
X13520550D01*
X13520340Y2123050D01*
G03X13449960I-35190J-1555D01*
G01X13449750Y2118200D01*
X13370550D01*
X13370340Y2123050D01*
G03X13299960I-35190J-1555D01*
G01X13299750Y2118200D01*
X13220550D01*
X13220340Y2123050D01*
G03X13149960I-35190J-1555D01*
G01X13149750Y2118200D01*
X13070550D01*
X13070340Y2123050D01*
G03X12999960I-35190J-1555D01*
G01X12999750Y2118200D01*
X12420550D01*
X12420340Y2123050D01*
G03X12385150Y2156720I-35190J-1554D01*
G03X12352180Y2133870I0J-35211D01*
G02X12340980Y2127420I-9514J3572D01*
G03X12335150Y2127910I-5854J-34728D01*
G03X12329320Y2127420I24J-35218D01*
G02X12318120Y2133870I-1686J10022D01*
G03X12285150Y2156720I-32970J-12361D01*
G03X12249960Y2123050I0J-35224D01*
G01X12249750Y2118200D01*
X12107490D01*
G37*
G36*
G01X14611680Y2101100D02*
G02X14601620Y2112690I-2J10159D01*
G03X14601970Y2117630I-34871J4953D01*
G01Y2117660D01*
G03X14566750Y2152880I-35220J0D01*
G03X14541390Y2142100I0J-35220D01*
G02X14526760I-7315J7051D01*
G03X14501400Y2152880I-25360J-24440D01*
G03X14466180Y2117660I0J-35220D01*
G03X14467640Y2107630I35219J5D01*
G01X14467850Y2106920D01*
Y2101100D01*
X14458350D01*
X14449850Y2109600D01*
Y2548900D01*
X14482250Y2581300D01*
X16898750D01*
Y2145500D01*
X16854350Y2101100D01*
X16667430D01*
X16665980Y2103720D01*
G03X16635150Y2121910I-30830J-17032D01*
G03X16629320Y2121420I24J-35218D01*
G02X16618120Y2127870I-1686J10022D01*
G03X16585150Y2150720I-32970J-12361D01*
G03X16549930Y2115500I0J-35220D01*
G03X16550080Y2112210I35222J-43D01*
G02X16539970Y2101100I-10114J-952D01*
G01X16480330D01*
G02X16470220Y2112210I4J10158D01*
G03X16470370Y2115500I-35072J3247D01*
G03X16399930I-35220J0D01*
G03X16400080Y2112210I35222J-43D01*
G02X16389970Y2101100I-10114J-952D01*
G01X16330330D01*
G02X16320220Y2112210I4J10158D01*
G03X16320370Y2115500I-35072J3247D01*
G03X16249930I-35220J0D01*
G03X16250080Y2112210I35222J-43D01*
G02X16239970Y2101100I-10114J-952D01*
G01X16180330D01*
G02X16170220Y2112210I4J10158D01*
G03X16170370Y2115500I-35072J3247D01*
G03X16099930I-35220J0D01*
G03X16100080Y2112210I35222J-43D01*
G02X16089970Y2101100I-10114J-952D01*
G01X16030330D01*
G02X16020220Y2112210I4J10158D01*
G03X16020370Y2115500I-35072J3247D01*
G03X15949930I-35220J0D01*
G03X15950080Y2112210I35222J-43D01*
G02X15939970Y2101100I-10114J-952D01*
G01X15880330D01*
G02X15870220Y2112210I4J10158D01*
G03X15870370Y2115500I-35072J3247D01*
G03X15799930I-35220J0D01*
G03X15800080Y2112210I35222J-43D01*
G02X15789970Y2101100I-10114J-952D01*
G01X15730330D01*
G02X15720220Y2112210I4J10158D01*
G03X15720370Y2115500I-35072J3247D01*
G03X15649930I-35220J0D01*
G03X15650080Y2112210I35222J-43D01*
G02X15639970Y2101100I-10114J-952D01*
G01X15580330D01*
G02X15570220Y2112210I4J10158D01*
G03X15570370Y2115500I-35072J3247D01*
G03X15499930I-35220J0D01*
G03X15500080Y2112210I35222J-43D01*
G02X15489970Y2101100I-10114J-952D01*
G01X14930330D01*
G02X14920220Y2112210I4J10158D01*
G03X14920370Y2115500I-35072J3247D01*
G03X14885150Y2150720I-35220J0D01*
G03X14852180Y2127870I0J-35211D01*
G02X14840980Y2121420I-9514J3572D01*
G03X14835150Y2121910I-5855J-34730D01*
G03X14829070Y2121380I7J-35219D01*
G02X14818120Y2127870I-1435J10062D01*
G03X14785150Y2150720I-32970J-12361D01*
G03X14749930Y2115500I0J-35220D01*
G03X14750080Y2112210I35222J-43D01*
G02X14739970Y2101100I-10114J-952D01*
G01X14611680D01*
G37*
G36*
G01X16984150Y2581300D02*
X19400650D01*
Y2145500D01*
X19356250Y2101100D01*
X19167430D01*
X19165980Y2103720D01*
G03X19135150Y2121910I-30830J-17032D01*
G03X19129320Y2121420I24J-35218D01*
G02X19118120Y2127870I-1686J10022D01*
G03X19085150Y2150720I-32970J-12361D01*
G03X19049930Y2115500I0J-35220D01*
G03X19050080Y2112210I35222J-43D01*
G02X19039970Y2101100I-10114J-952D01*
G01X18980330D01*
G02X18970220Y2112210I4J10158D01*
G03X18970370Y2115500I-35072J3247D01*
G03X18899930I-35220J0D01*
G03X18900080Y2112210I35222J-43D01*
G02X18889970Y2101100I-10114J-952D01*
G01X18830330D01*
G02X18820220Y2112210I4J10158D01*
G03X18820370Y2115500I-35072J3247D01*
G03X18749930I-35220J0D01*
G03X18750080Y2112210I35222J-43D01*
G02X18739970Y2101100I-10114J-952D01*
G01X18680330D01*
G02X18670220Y2112210I4J10158D01*
G03X18670370Y2115500I-35072J3247D01*
G03X18599930I-35220J0D01*
G03X18600080Y2112210I35222J-43D01*
G02X18589970Y2101100I-10114J-952D01*
G01X18530330D01*
G02X18520220Y2112210I4J10158D01*
G03X18520370Y2115500I-35072J3247D01*
G03X18449930I-35220J0D01*
G03X18450080Y2112210I35222J-43D01*
G02X18439970Y2101100I-10114J-952D01*
G01X18380330D01*
G02X18370220Y2112210I4J10158D01*
G03X18370370Y2115500I-35072J3247D01*
G03X18299930I-35220J0D01*
G03X18300080Y2112210I35222J-43D01*
G02X18289970Y2101100I-10114J-952D01*
G01X18230330D01*
G02X18220220Y2112210I4J10158D01*
G03X18220370Y2115500I-35072J3247D01*
G03X18149930I-35220J0D01*
G03X18150080Y2112210I35222J-43D01*
G02X18139970Y2101100I-10114J-952D01*
G01X18080330D01*
G02X18070220Y2112210I4J10158D01*
G03X18070370Y2115500I-35072J3247D01*
G03X17999930I-35220J0D01*
G03X18000080Y2112210I35222J-43D01*
G02X17989970Y2101100I-10114J-952D01*
G01X17430330D01*
G02X17420220Y2112210I4J10158D01*
G03X17420370Y2115500I-35072J3247D01*
G03X17385150Y2150720I-35220J0D01*
G03X17352180Y2127870I0J-35211D01*
G02X17340980Y2121420I-9514J3572D01*
G03X17335150Y2121910I-5855J-34730D01*
G03X17329070Y2121380I7J-35219D01*
G02X17318120Y2127870I-1435J10062D01*
G03X17285150Y2150720I-32970J-12361D01*
G03X17249930Y2115500I0J-35220D01*
G03X17250080Y2112210I35222J-43D01*
G02X17239970Y2101100I-10114J-952D01*
G01X17113640D01*
G02X17103570Y2112580I4J10160D01*
G03X17103870Y2117160I-34920J4587D01*
G03X17068650Y2152380I-35220J0D01*
G03X17043100Y2141400I0J-35217D01*
G02X17028760Y2141010I-7366J6996D01*
G03X17003100Y2152100I-25660J-24141D01*
G03X16967860Y2116860I0J-35240D01*
G03X16969090Y2107640I35238J9D01*
G01X16969180Y2107310D01*
X16969240Y2106860D01*
G02X16964210Y2101100I-5036J-679D01*
G01X16960250D01*
X16951750Y2109600D01*
Y2548900D01*
X16984150Y2581300D01*
G37*
G36*
G01X21329360Y2101100D02*
G02X21319460Y2113550I-1J10160D01*
G03X21320370Y2121500I-34310J7954D01*
G03X21249930I-35220J0D01*
G03X21250840Y2113550I35220J4D01*
G02X21240940Y2101100I-9899J-2290D01*
G01X21179360D01*
G02X21169460Y2113550I-1J10160D01*
G03X21170370Y2121500I-34310J7954D01*
G03X21099930I-35220J0D01*
G03X21100840Y2113550I35220J4D01*
G02X21090940Y2101100I-9899J-2290D01*
G01X21029360D01*
G02X21019460Y2113550I-1J10160D01*
G03X21020370Y2121500I-34310J7954D01*
G03X20949930I-35220J0D01*
G03X20950840Y2113550I35220J4D01*
G02X20940940Y2101100I-9899J-2290D01*
G01X20879360D01*
G02X20869460Y2113550I-1J10160D01*
G03X20870370Y2121500I-34310J7954D01*
G03X20799930I-35220J0D01*
G03X20800840Y2113550I35220J4D01*
G02X20790940Y2101100I-9899J-2290D01*
G01X20729360D01*
G02X20719460Y2113550I-1J10160D01*
G03X20720370Y2121500I-34310J7954D01*
G03X20649930I-35220J0D01*
G03X20650840Y2113550I35220J4D01*
G02X20640940Y2101100I-9899J-2290D01*
G01X20579360D01*
G02X20569460Y2113550I-1J10160D01*
G03X20570370Y2121500I-34310J7954D01*
G03X20499930I-35220J0D01*
G03X20500840Y2113550I35220J4D01*
G02X20490940Y2101100I-9899J-2290D01*
G01X19929360D01*
G02X19919460Y2113550I-1J10160D01*
G03X19920370Y2121500I-34310J7954D01*
G03X19885150Y2156720I-35220J0D01*
G03X19852180Y2133870I0J-35211D01*
G02X19840980Y2127420I-9514J3572D01*
G03X19835150Y2127910I-5855J-34731D01*
G03X19829070Y2127380I7J-35219D01*
G02X19818120Y2133870I-1435J10062D01*
G03X19785150Y2156720I-32970J-12361D01*
G03X19749930Y2121500I0J-35220D01*
G03X19750870Y2113430I35219J13D01*
G02X19740950Y2101100I-9927J-2169D01*
G01X19609360D01*
G02X19599420Y2113340I5J10160D01*
G03X19600170Y2120560I-34469J7230D01*
G03X19564950Y2155780I-35220J0D01*
G03X19539590Y2145000I0J-35220D01*
G02X19525330Y2144620I-7323J7045D01*
G03X19499400Y2156000I-25930J-23852D01*
G03X19464160Y2120760I0J-35240D01*
G01Y2120750D01*
G03X19466540Y2108020I35253J3D01*
G01X19466890Y2107130D01*
Y2101100D01*
X19455350D01*
X19446850Y2109600D01*
Y2548900D01*
X19479250Y2581300D01*
X21895750D01*
Y2145500D01*
X21851350Y2101100D01*
X21669540D01*
X21668340Y2104480D01*
G03X21635150Y2127910I-33190J-11793D01*
G03X21629320Y2127420I24J-35218D01*
G02X21618120Y2133870I-1686J10022D01*
G03X21585150Y2156720I-32970J-12361D01*
G03X21549930Y2121500I0J-35220D01*
G03X21550870Y2113430I35219J13D01*
G02X21540950Y2101100I-9927J-2169D01*
G01X21479360D01*
G02X21469460Y2113550I-1J10160D01*
G03X21470370Y2121500I-34310J7954D01*
G03X21399930I-35220J0D01*
G03X21400840Y2113550I35220J4D01*
G02X21390940Y2101100I-9899J-2290D01*
G01X21329360D01*
G37*
G36*
G01X24129320Y2127420D02*
G02X24118120Y2133870I-1686J10022D01*
G03X24085150Y2156720I-32970J-12361D01*
G03X24049930Y2121500I0J-35220D01*
G01Y2121470D01*
G03X24051570Y2110860I35223J13D01*
G02X24041870Y2097700I-9704J-3002D01*
G01X23978430D01*
G02X23968740Y2110910I1J10160D01*
G03X23970370Y2121500I-33586J10590D01*
G03X23899930I-35220J0D01*
G03X23901560Y2110910I35216J0D01*
G02X23891870Y2097700I-9691J-3050D01*
G01X23828430D01*
G02X23818740Y2110910I1J10160D01*
G03X23820370Y2121500I-33586J10590D01*
G03X23749930I-35220J0D01*
G03X23751560Y2110910I35216J0D01*
G02X23741870Y2097700I-9691J-3050D01*
G01X23678430D01*
G02X23668740Y2110910I1J10160D01*
G03X23670370Y2121500I-33586J10590D01*
G03X23599930I-35220J0D01*
G03X23601560Y2110910I35216J0D01*
G02X23591870Y2097700I-9691J-3050D01*
G01X23528430D01*
G02X23518740Y2110910I1J10160D01*
G03X23520370Y2121500I-33586J10590D01*
G03X23449930I-35220J0D01*
G03X23451560Y2110910I35216J0D01*
G02X23441870Y2097700I-9691J-3050D01*
G01X23378430D01*
G02X23368740Y2110910I1J10160D01*
G03X23370370Y2121500I-33586J10590D01*
G03X23299930I-35220J0D01*
G03X23301560Y2110910I35216J0D01*
G02X23291870Y2097700I-9691J-3050D01*
G01X23228430D01*
G02X23218740Y2110910I1J10160D01*
G03X23220370Y2121500I-33586J10590D01*
G03X23149930I-35220J0D01*
G03X23151560Y2110910I35216J0D01*
G02X23141870Y2097700I-9691J-3050D01*
G01X23078430D01*
G02X23068740Y2110910I1J10160D01*
G03X23070370Y2121500I-33586J10590D01*
G03X22999930I-35220J0D01*
G03X23001560Y2110910I35216J0D01*
G02X22991870Y2097700I-9691J-3050D01*
G01X22428430D01*
G02X22418740Y2110910I1J10160D01*
G03X22420370Y2121500I-33586J10590D01*
G03X22385150Y2156720I-35220J0D01*
G03X22352180Y2133870I0J-35211D01*
G02X22340980Y2127420I-9514J3572D01*
G03X22335150Y2127910I-5855J-34731D01*
G03X22329070Y2127380I7J-35219D01*
G02X22318120Y2133870I-1435J10062D01*
G03X22285150Y2156720I-32970J-12361D01*
G03X22249930Y2121500I0J-35220D01*
G01Y2121470D01*
G03X22251570Y2110860I35223J13D01*
G02X22241870Y2097700I-9704J-3002D01*
G01X22108600D01*
G02X22098900Y2110860I6J10160D01*
G03X22100470Y2121260I-33661J10400D01*
G03X22065250Y2156480I-35220J0D01*
G03X22039570Y2145370I0J-35234D01*
G02X22024720Y2145410I-7406J6954D01*
G03X21998900Y2156680I-25820J-23942D01*
G03X21963680Y2121460I0J-35220D01*
G01Y2121440D01*
G03X21967690Y2105130I35222J12D01*
G01X21968270Y2104030D01*
Y2097700D01*
X21953750D01*
X21945250Y2106200D01*
Y2545500D01*
X21977650Y2577900D01*
X24394150D01*
Y2142100D01*
X24349750Y2097700D01*
X24170240D01*
X24169250Y2101510D01*
G03X24135150Y2127910I-34100J-8823D01*
G03X24129320Y2127420I24J-35218D01*
G37*
G36*
G01X26629320D02*
G02X26618120Y2133870I-1686J10022D01*
G03X26585150Y2156720I-32970J-12361D01*
G03X26549930Y2121500I0J-35220D01*
G01Y2121490D01*
G03X26550320Y2116270I35220J7D01*
G02X26540280Y2104600I-10047J-1510D01*
G01X26480020D01*
G02X26469980Y2116270I7J10160D01*
G03X26470370Y2121490I-34830J5227D01*
G01Y2121500D01*
G03X26399930I-35220J0D01*
G01Y2121490D01*
G03X26400320Y2116270I35220J7D01*
G02X26390280Y2104600I-10047J-1510D01*
G01X26330020D01*
G02X26319980Y2116270I7J10160D01*
G03X26320370Y2121490I-34830J5227D01*
G01Y2121500D01*
G03X26249930I-35220J0D01*
G01Y2121490D01*
G03X26250320Y2116270I35220J7D01*
G02X26240280Y2104600I-10047J-1510D01*
G01X26180020D01*
G02X26169980Y2116270I7J10160D01*
G03X26170370Y2121490I-34830J5227D01*
G01Y2121500D01*
G03X26099930I-35220J0D01*
G01Y2121490D01*
G03X26100320Y2116270I35220J7D01*
G02X26090280Y2104600I-10047J-1510D01*
G01X26030020D01*
G02X26019980Y2116270I7J10160D01*
G03X26020370Y2121490I-34830J5227D01*
G01Y2121500D01*
G03X25949930I-35220J0D01*
G01Y2121490D01*
G03X25950320Y2116270I35220J7D01*
G02X25940280Y2104600I-10047J-1510D01*
G01X25880020D01*
G02X25869980Y2116270I7J10160D01*
G03X25870370Y2121490I-34830J5227D01*
G01Y2121500D01*
G03X25799930I-35220J0D01*
G01Y2121490D01*
G03X25800320Y2116270I35220J7D01*
G02X25790280Y2104600I-10047J-1510D01*
G01X25730020D01*
G02X25719980Y2116270I7J10160D01*
G03X25720370Y2121490I-34830J5227D01*
G01Y2121500D01*
G03X25649930I-35220J0D01*
G01Y2121490D01*
G03X25650320Y2116270I35220J7D01*
G02X25640280Y2104600I-10047J-1510D01*
G01X25580020D01*
G02X25569980Y2116270I7J10160D01*
G03X25570370Y2121490I-34830J5227D01*
G01Y2121500D01*
G03X25499930I-35220J0D01*
G01Y2121490D01*
G03X25500320Y2116270I35220J7D01*
G02X25490280Y2104600I-10047J-1510D01*
G01X24930020D01*
G02X24919980Y2116270I7J10160D01*
G03X24920370Y2121490I-34830J5227D01*
G01Y2121500D01*
G03X24885150Y2156720I-35220J0D01*
G03X24852180Y2133870I0J-35211D01*
G02X24840980Y2127420I-9515J3572D01*
G03X24835150Y2127910I-5855J-34734D01*
G03X24829070Y2127380I7J-35219D01*
G02X24818120Y2133870I-1435J10062D01*
G03X24785150Y2156720I-32970J-12361D01*
G03X24749930Y2121500I0J-35220D01*
G01Y2121490D01*
G03X24750320Y2116270I35220J7D01*
G02X24740280Y2104600I-10047J-1510D01*
G01X24606250D01*
G02X24596250Y2116510I6J10159D01*
G03X24596770Y2122520I-34702J6030D01*
G01Y2122560D01*
G03X24561550Y2157780I-35220J0D01*
G03X24536020Y2146820I0J-35215D01*
G02X24521170Y2146960I-7360J7002D01*
G03X24495210Y2158380I-25963J-23803D01*
G01X24495200D01*
G03X24459980Y2123160I0J-35220D01*
G03X24460820Y2115520I35218J6D01*
G01X24461610Y2111990D01*
X24453350Y2106900D01*
X24447150Y2113100D01*
Y2552400D01*
X24479550Y2584800D01*
X26896050D01*
Y2149000D01*
X26851650Y2104600D01*
X26668460D01*
X26667090Y2107540D01*
G03X26635150Y2127910I-31940J-14856D01*
G03X26629320Y2127420I24J-35218D01*
G37*
G36*
G01X26982300Y2583900D02*
X29398800D01*
Y2148100D01*
X29354400Y2103700D01*
X29168790D01*
X29167470Y2106780D01*
G03X29135100Y2128110I-32370J-13897D01*
G03X29129270Y2127620I24J-35218D01*
G02X29118070Y2134070I-1686J10022D01*
G03X29085100Y2156920I-32970J-12361D01*
G03X29049880Y2121700I0J-35220D01*
G03X29050410Y2115610I35220J-3D01*
G02X29040400Y2103700I-10008J-1750D01*
G01X28979800D01*
G02X28969790Y2115610I-2J10160D01*
G03X28970320Y2121700I-34690J6087D01*
G03X28899880I-35220J0D01*
G03X28900410Y2115610I35220J-3D01*
G02X28890400Y2103700I-10008J-1750D01*
G01X28829800D01*
G02X28819790Y2115610I-2J10160D01*
G03X28820320Y2121700I-34690J6087D01*
G03X28749880I-35220J0D01*
G03X28750410Y2115610I35220J-3D01*
G02X28740400Y2103700I-10008J-1750D01*
G01X28679800D01*
G02X28669790Y2115610I-2J10160D01*
G03X28670320Y2121700I-34690J6087D01*
G03X28599880I-35220J0D01*
G03X28600410Y2115610I35220J-3D01*
G02X28590400Y2103700I-10008J-1750D01*
G01X28529800D01*
G02X28519790Y2115610I-2J10160D01*
G03X28520320Y2121700I-34690J6087D01*
G03X28449880I-35220J0D01*
G03X28450410Y2115610I35220J-3D01*
G02X28440400Y2103700I-10008J-1750D01*
G01X28379800D01*
G02X28369790Y2115610I-2J10160D01*
G03X28370320Y2121700I-34690J6087D01*
G03X28299880I-35220J0D01*
G03X28300410Y2115610I35220J-3D01*
G02X28290400Y2103700I-10008J-1750D01*
G01X28229800D01*
G02X28219790Y2115610I-2J10160D01*
G03X28220320Y2121700I-34690J6087D01*
G03X28149880I-35220J0D01*
G03X28150410Y2115610I35220J-3D01*
G02X28140400Y2103700I-10008J-1750D01*
G01X28079800D01*
G02X28069790Y2115610I-2J10160D01*
G03X28070320Y2121700I-34690J6087D01*
G03X27999880I-35220J0D01*
G03X28000410Y2115610I35220J-3D01*
G02X27990400Y2103700I-10008J-1750D01*
G01X27429800D01*
G02X27419790Y2115610I-2J10160D01*
G03X27420320Y2121700I-34690J6087D01*
G03X27385100Y2156920I-35220J0D01*
G03X27352130Y2134070I0J-35211D01*
G02X27340930Y2127620I-9514J3572D01*
G03X27335100Y2128110I-5854J-34728D01*
G03X27329270Y2127620I24J-35218D01*
G02X27318070Y2134070I-1686J10022D01*
G03X27285100Y2156920I-32970J-12361D01*
G03X27249880Y2121700I0J-35220D01*
G03X27250410Y2115610I35220J-3D01*
G02X27240400Y2103700I-10008J-1750D01*
G01X27112580D01*
G02X27102600Y2115760I-1J10158D01*
G03X27103220Y2122360I-34602J6580D01*
G03X27068000Y2157580I-35220J0D01*
G03X27040010Y2143740I0J-35223D01*
G02X27023910Y2143670I-8077J6163D01*
G03X26996100Y2157280I-27810J-21608D01*
G03X26960880Y2122060I0J-35220D01*
G03X26961930Y2113510I35222J-14D01*
G01X26962630Y2110720D01*
X26957010Y2105090D01*
X26949900Y2112200D01*
Y2551500D01*
X26982300Y2583900D01*
G37*
%LPC*%
G75*
G36*
G01X22884920Y3357870D02*
G03X22877840Y3359000I-4107J-2987D01*
G02X22860150Y3353280I-17690J24495D01*
G02Y3413720I0J30220D01*
G02X22882020Y3404360I0J-30230D01*
G03X22889190Y3404180I3675J3505D01*
G02X22913400Y3413820I24210J-25581D01*
G02Y3343380I0J-35220D01*
G02X22884920Y3357870I0J35234D01*
G37*
G36*
G01X27395650Y3352720D02*
G03X27381750Y3352590I-6881J-7472D01*
G02X27357400Y3342820I-24350J25459D01*
G02Y3413260I0J35220D01*
G02X27381250Y3403960I0J-35232D01*
G03X27395150Y3404090I6881J7472D01*
G02X27419500Y3413860I24350J-25459D01*
G02Y3343420I0J-35220D01*
G02X27395650Y3352720I0J35232D01*
G37*
G36*
G01X24039890Y3355680D02*
G03X24026270Y3355610I-6771J-7579D01*
G02X24002550Y3346420I-23720J26016D01*
G02Y3416860I0J35220D01*
G02X24026010Y3407900I-9J-35217D01*
G03X24039630Y3407970I6771J7579D01*
G02X24063350Y3417160I23720J-26016D01*
G02Y3346720I0J-35220D01*
G02X24039890Y3355680I9J35217D01*
G37*
G36*
G01X26215930Y3356650D02*
G03X26202160Y3356790I-6961J-7400D01*
G02X26178550Y3347700I-23610J26117D01*
G02Y3418140I0J35220D01*
G02X26202670Y3408590I5J-35222D01*
G03X26216440Y3408450I6961J7400D01*
G02X26240050Y3417540I23610J-26117D01*
G02Y3347100I0J-35220D01*
G02X26215930Y3356650I-5J35222D01*
G37*
G36*
G01X26528670Y3357530D02*
G03X26514910Y3357650I-6945J-7412D01*
G02X26491250Y3348520I-23660J26092D01*
G02Y3418960I0J35220D01*
G02X26515330Y3409450I7J-35223D01*
G03X26529090Y3409330I6945J7412D01*
G02X26552750Y3418460I23660J-26092D01*
G02Y3348020I0J-35220D01*
G02X26528670Y3357530I-7J35223D01*
G37*
G36*
G01X24885990Y3358290D02*
G03X24872110Y3358560I-7084J-7280D01*
G02X24848550Y3349520I-23560J26181D01*
G02Y3419960I0J35220D01*
G02X24873110Y3409990I5J-35222D01*
G03X24886990Y3409720I7084J7280D01*
G02X24910550Y3418760I23560J-26181D01*
G02Y3348320I0J-35220D01*
G02X24885990Y3358290I-5J35222D01*
G37*
G36*
G01X22388990Y3359540D02*
G03X22375340Y3359580I-6847J-7503D01*
G02X22351750Y3350520I-23583J26163D01*
G02Y3420960I0J35220D01*
G02X22375510Y3411740I0J-35225D01*
G03X22389160Y3411700I6847J7503D01*
G02X22412750Y3420760I23583J-26163D01*
G02Y3350320I0J-35220D01*
G02X22388990Y3359540I0J35225D01*
G37*
G36*
G01X29038550Y3360340D02*
G03X29024990Y3360410I-6819J-7531D01*
G02X29001600Y3351520I-23390J26325D01*
G02Y3421960I0J35220D01*
G02X29025250Y3412840I0J-35225D01*
G03X29038810Y3412770I6819J7531D01*
G02X29062200Y3421660I23390J-26325D01*
G02Y3351220I0J-35220D01*
G02X29038550Y3360340I0J35225D01*
G37*
G36*
G01X23710020Y3360250D02*
G03X23696250Y3360500I-7021J-7343D01*
G02X23672850Y3351600I-23400J26312D01*
G02Y3422040I0J35220D01*
G02X23697180Y3412290I0J-35231D01*
G03X23710950Y3412040I7021J7343D01*
G02X23734350Y3420940I23400J-26312D01*
G02Y3350500I0J-35220D01*
G02X23710020Y3360250I0J35231D01*
G37*
G36*
G01X28709740Y3361750D02*
G03X28696100Y3361660I-6770J-7575D01*
G02X28672300Y3352400I-23800J25955D01*
G02Y3422840I0J35220D01*
G02X28695760Y3413890I0J-35222D01*
G03X28709400Y3413980I6770J7575D01*
G02X28733200Y3423240I23800J-25955D01*
G02Y3352800I0J-35220D01*
G02X28709740Y3361750I0J35222D01*
G37*
G36*
G01X6469130Y5923130D02*
G02X6479820Y5897860I-24523J-25270D01*
G02X6409380I-35220J0D01*
G02X6415970Y5918370I35212J0D01*
G02X6405280Y5943640I24523J25270D01*
G02X6475720I35220J0D01*
G02X6469130Y5923130I-35212J0D01*
G37*
G36*
G01X9512050Y6492420D02*
G03X9522310Y6502960I106J10160D01*
G02X9522280Y6504300I35187J1458D01*
G02X9557500Y6469080I35220J0D01*
G01X9557150D01*
G03X9546890Y6458540I-106J-10160D01*
G02X9546920Y6457200I-35187J-1458D01*
G02X9511700Y6492420I-35220J0D01*
G01X9512050D01*
G37*
G36*
G01X9458710Y7257400D02*
G03X9473460Y7257620I7271J7096D01*
G02X9499400Y7269020I25940J-23812D01*
G02X9524570Y7258440I0J-35230D01*
G03X9539100I7265J7102D01*
G02X9564280Y7269040I25180J-24607D01*
G02X9589900Y7257990I0J-35226D01*
G03X9604460Y7257760I7392J6972D01*
G02X9629310Y7268030I24857J-24947D01*
G02Y7197590I0J-35220D01*
G02X9603690Y7208640I0J35226D01*
G03X9589130Y7208870I-7392J-6972D01*
G02X9564280Y7198600I-24857J24947D01*
G02X9539110Y7209180I0J35230D01*
G03X9524580I-7265J-7102D01*
G02X9499400Y7198580I-25180J24607D01*
G02X9474190Y7209200I0J35232D01*
G03X9459440Y7208980I-7271J-7096D01*
G02X9433500Y7197580I-25940J23812D01*
G02X9409190Y7207310I0J35234D01*
G03X9394920Y7207070I-7013J-7351D01*
G02X9369750Y7196480I-25170J24617D01*
G02Y7266920I0J35220D01*
G02X9394060Y7257190I0J-35234D01*
G03X9408330Y7257430I7013J7351D01*
G02X9433500Y7268020I25170J-24617D01*
G02X9458710Y7257400I0J-35232D01*
G37*
G36*
G01X9830830Y7278050D02*
G03X9830740Y7284880I-3804J3365D01*
G02X9821280Y7308900I25765J24020D01*
G02X9891720I35220J0D01*
G02X9882870Y7285550I-35229J0D01*
G03X9882960Y7278720I3804J-3365D01*
G02X9892420Y7254700I-25765J-24020D01*
G02X9821980I-35220J0D01*
G02X9830830Y7278050I35229J0D01*
G37*
G36*
G01X10344770Y7855480D02*
G03X10345290Y7869920I-6878J7477D01*
G02X10335730Y7894050I25673J24130D01*
G02X10406170I35220J0D01*
G02X10394780Y7868120I-35211J0D01*
G03X10394260Y7853680I6878J-7477D01*
G02X10403820Y7829550I-25673J-24130D01*
G02X10394080Y7805230I-35233J0D01*
G03X10394720Y7790580I7345J-7018D01*
G02X10406720Y7764100I-23216J-26480D01*
G02X10396760Y7739560I-35212J0D01*
G03X10397160Y7725000I7285J-7085D01*
G02X10408520Y7699100I-23858J-25905D01*
G02X10338080I-35220J0D01*
G02X10348040Y7723640I35212J0D01*
G03X10347640Y7738200I-7285J7085D01*
G02X10336280Y7764100I23858J25905D01*
G02X10346020Y7788420I35233J0D01*
G03X10345380Y7803070I-7345J7018D01*
G02X10333380Y7829550I23216J26480D01*
G02X10344770Y7855480I35211J0D01*
G37*
G36*
G01X11422960Y7985570D02*
G03X11422940Y7999140I-7572J6774D01*
G02X11413900Y8022700I26181J23560D01*
G02X11484340I35220J0D01*
G02X11475380Y7999230I-35219J0D01*
G03X11475400Y7985660I7572J-6774D01*
G02X11484440Y7962100I-26181J-23560D01*
G02X11414000I-35220J0D01*
G02X11422960Y7985570I35219J0D01*
G37*
G36*
G01X10143800Y7993470D02*
G03Y8007130I-7522J6830D01*
G02X10134660Y8030800I26079J23670D01*
G02X10205100I35220J0D01*
G02X10195960Y8007130I-35219J0D01*
G03Y7993470I7522J-6830D01*
G02X10205100Y7969800I-26079J-23670D01*
G02X10134660I-35220J0D01*
G02X10143800Y7993470I35219J0D01*
G37*
G36*
G01X9396740Y8104890D02*
G03X9411300Y8104280I7577J6773D01*
G02X9435500Y8113920I24208J-25577D01*
G02X9458900Y8105030I7J-35223D01*
G03X9473230Y8105850I6754J7590D01*
G02X9499500Y8117620I26277J-23447D01*
G02X9526160Y8105420I0J-35229D01*
G03X9540710Y8104570I7688J6641D01*
G02X9564500Y8113820I23790J-25968D01*
G02X9590330Y8102540I0J-35214D01*
G03X9604880Y8102190I7445J6912D01*
G02X9629500Y8112220I24620J-25202D01*
G02Y8041780I0J-35220D01*
G02X9603670Y8053060I0J35214D01*
G03X9589120Y8053410I-7445J-6912D01*
G02X9564500Y8043380I-24620J25202D01*
G02X9537840Y8055580I0J35229D01*
G03X9523290Y8056430I-7688J-6641D01*
G02X9499500Y8047180I-23790J25968D01*
G02X9476100Y8056070I-7J35223D01*
G03X9461770Y8055250I-6754J-7590D01*
G02X9435500Y8043480I-26277J23447D01*
G02X9409260Y8055210I0J35214D01*
G03X9394700Y8055820I-7577J-6773D01*
G02X9370500Y8046180I-24208J25577D01*
G02Y8116620I0J35220D01*
G02X9396740Y8104890I0J-35214D01*
G37*
G36*
G01X6278440Y9021030D02*
G03X6277410Y9035040I-7831J6467D01*
G02X6265780Y9061200I23593J26154D01*
G02X6336220I35220J0D01*
G02X6328160Y9038770I-35222J-6D01*
G03X6329190Y9024760I7831J-6467D01*
G02X6340820Y8998600I-23593J-26154D01*
G02X6270380I-35220J0D01*
G02X6278440Y9021030I35222J6D01*
G37*
G36*
G01X10633160Y3892380D02*
G02X10602900Y3875180I-30260J18018D01*
G02Y3945620I0J35220D01*
G02X10633570Y3927720I0J-35225D01*
G03X10651140Y3927520I8843J5001D01*
G02X10681400Y3944720I30260J-18018D01*
G02Y3874280I0J-35220D01*
G02X10650730Y3892180I0J35225D01*
G03X10633160Y3892380I-8843J-5001D01*
G37*
G36*
G01X8869530Y5901100D02*
G02X8856180Y5928700I21867J27606D01*
G02X8926620I35220J0D01*
G02X8912810Y5900730I-35229J0D01*
G03X8912670Y5884700I6174J-8070D01*
G02X8926020Y5857100I-21867J-27606D01*
G02X8855580I-35220J0D01*
G02X8869390Y5885070I35229J0D01*
G03X8869530Y5901100I-6174J8070D01*
G37*
G36*
G01X10803390Y6113940D02*
G02X10831100Y6127420I27710J-21741D01*
G02X10859980Y6112350I0J-35208D01*
G03X10876660Y6112380I8330J5818D01*
G02X10905600Y6127520I28940J-20089D01*
G02Y6057080I0J-35220D01*
G02X10876720Y6072150I0J35208D01*
G03X10860040Y6072120I-8330J-5818D01*
G02X10831100Y6056980I-28940J20089D01*
G02X10803390Y6070460I0J35221D01*
G03X10787410I-7990J-6275D01*
G02X10759700Y6056980I-27710J21741D01*
G02X10734810Y6067280I0J35223D01*
G03X10720240Y6067050I-7173J-7193D01*
G02X10694600Y6055980I-25640J24158D01*
G02Y6126420I0J35220D01*
G02X10719490Y6116120I0J-35223D01*
G03X10734060Y6116350I7173J7193D01*
G02X10759700Y6127420I25640J-24158D01*
G02X10787410Y6113940I0J-35221D01*
G03X10803390I7990J6275D01*
G37*
G36*
G01X13192970Y2442860D02*
G02X13220040Y2455550I27070J-22528D01*
G02X13251170Y2436800I0J-35217D01*
G03X13269140I8985J4746D01*
G02X13300270Y2455550I31130J-16467D01*
G02Y2385110I0J-35220D01*
G02X13269140Y2403860I0J35217D01*
G03X13251170I-8985J-4746D01*
G02X13220040Y2385110I-31130J16467D01*
G02X13192970Y2397800I0J35218D01*
G03X13177340I-7815J-6493D01*
G02X13150270Y2385110I-27070J22528D01*
G02X13119140Y2403860I0J35217D01*
G03X13101170I-8985J-4746D01*
G02X13070040Y2385110I-31130J16467D01*
G02Y2455550I0J35220D01*
G02X13101170Y2436800I0J-35217D01*
G03X13119140I8985J4746D01*
G02X13150270Y2455550I31130J-16467D01*
G02X13177340Y2442860I0J-35218D01*
G03X13192970I7815J6493D01*
G37*
G36*
G01X15601170Y2397860D02*
G02X15570040Y2379110I-31130J16467D01*
G02Y2449550I0J35220D01*
G02X15601170Y2430800I0J-35217D01*
G03X15619140I8985J4746D01*
G02X15650270Y2449550I31130J-16467D01*
G02Y2379110I0J-35220D01*
G02X15619140Y2397860I0J35217D01*
G03X15601170I-8985J-4746D01*
G37*
G36*
G01X15901170D02*
G02X15870040Y2379110I-31130J16467D01*
G02Y2449550I0J35220D01*
G02X15901170Y2430800I0J-35217D01*
G03X15919140I8985J4746D01*
G02X15950270Y2449550I31130J-16467D01*
G02Y2379110I0J-35220D01*
G02X15919140Y2397860I0J35217D01*
G03X15901170I-8985J-4746D01*
G37*
G36*
G01X18101170D02*
G02X18070040Y2379110I-31130J16467D01*
G02Y2449550I0J35220D01*
G02X18101170Y2430800I0J-35217D01*
G03X18119140I8985J4746D01*
G02X18150270Y2449550I31130J-16467D01*
G02Y2379110I0J-35220D01*
G02X18119140Y2397860I0J35217D01*
G03X18101170I-8985J-4746D01*
G37*
G36*
G01X18401160D02*
G02X18370030Y2379110I-31130J16467D01*
G02Y2449550I0J35220D01*
G02X18401160Y2430800I0J-35217D01*
G03X18419130I8985J4746D01*
G02X18450260Y2449550I31130J-16467D01*
G02Y2379110I0J-35220D01*
G02X18419130Y2397860I0J35217D01*
G03X18401160I-8985J-4746D01*
G37*
G36*
G01X20601170Y2403860D02*
G02X20570040Y2385110I-31130J16467D01*
G02Y2455550I0J35220D01*
G02X20601170Y2436800I0J-35217D01*
G03X20619140I8985J4746D01*
G02X20650270Y2455550I31130J-16467D01*
G02Y2385110I0J-35220D01*
G02X20619140Y2403860I0J35217D01*
G03X20601170I-8985J-4746D01*
G37*
G36*
G01X20901160Y2413870D02*
G02X20870030Y2395120I-31130J16467D01*
G02Y2465560I0J35220D01*
G02X20901160Y2446810I0J-35217D01*
G03X20919130I8985J4746D01*
G02X20950260Y2465560I31130J-16467D01*
G02Y2395120I0J-35220D01*
G02X20919130Y2413870I0J35217D01*
G03X20901160I-8985J-4746D01*
G37*
G36*
G01X23101170Y2403860D02*
G02X23070040Y2385110I-31130J16467D01*
G02Y2455550I0J35220D01*
G02X23101170Y2436800I0J-35217D01*
G03X23119140I8985J4746D01*
G02X23150270Y2455550I31130J-16467D01*
G02Y2385110I0J-35220D01*
G02X23119140Y2403860I0J35217D01*
G03X23101170I-8985J-4746D01*
G37*
G36*
G01X23401160D02*
G02X23370030Y2385110I-31130J16467D01*
G02Y2455550I0J35220D01*
G02X23401160Y2436800I0J-35217D01*
G03X23419130I8985J4746D01*
G02X23450260Y2455550I31130J-16467D01*
G02Y2385110I0J-35220D01*
G02X23419130Y2403860I0J35217D01*
G03X23401160I-8985J-4746D01*
G37*
G36*
G01X25601170D02*
G02X25570040Y2385110I-31130J16467D01*
G02Y2455550I0J35220D01*
G02X25601170Y2436800I0J-35217D01*
G03X25619140I8985J4746D01*
G02X25650270Y2455550I31130J-16467D01*
G02Y2385110I0J-35220D01*
G02X25619140Y2403860I0J35217D01*
G03X25601170I-8985J-4746D01*
G37*
G36*
G01X25901170D02*
G02X25870040Y2385110I-31130J16467D01*
G02Y2455550I0J35220D01*
G02X25901170Y2436800I0J-35217D01*
G03X25919140I8985J4746D01*
G02X25950270Y2455550I31130J-16467D01*
G02Y2385110I0J-35220D01*
G02X25919140Y2403860I0J35217D01*
G03X25901170I-8985J-4746D01*
G37*
G36*
G01X28101120Y2404060D02*
G02X28069990Y2385310I-31130J16467D01*
G02Y2455750I0J35220D01*
G02X28101120Y2437000I0J-35217D01*
G03X28119090I8985J4746D01*
G02X28150220Y2455750I31130J-16467D01*
G02Y2385310I0J-35220D01*
G02X28119090Y2404060I0J35217D01*
G03X28101120I-8985J-4746D01*
G37*
G36*
G01X28401120D02*
G02X28369990Y2385310I-31130J16467D01*
G02Y2455750I0J35220D01*
G02X28401120Y2437000I0J-35217D01*
G03X28419090I8985J4746D01*
G02X28450220Y2455750I31130J-16467D01*
G02Y2385310I0J-35220D01*
G02X28419090Y2404060I0J35217D01*
G03X28401120I-8985J-4746D01*
G37*
G54D18*
X25360150Y3544100D03*
X27860100Y3482800D03*
X10074270Y5295460D03*
X9889130D03*
X9789130D03*
X10174270Y5195460D03*
X9889130D03*
X10074270Y5095460D03*
X9789130D03*
X10174270Y4910320D03*
X9889130D03*
X10074270Y4810320D03*
Y4610320D03*
X9889130Y4510320D03*
Y4410320D03*
X9985700Y4711500D03*
X10074270Y4710320D03*
X9289130Y4210320D03*
X9589130D03*
X9289130Y4310320D03*
X9589130D03*
Y4410320D03*
Y4510320D03*
X9689130D03*
Y4610320D03*
Y4710320D03*
X10391700Y4903500D03*
X9289130Y4510320D03*
Y4610320D03*
X9389130D03*
X9089130Y4710320D03*
X9189130D03*
X9289130D03*
X9389130D03*
X10374270D03*
X9289130Y4810320D03*
X9389130D03*
X9289130Y4910320D03*
X9389130D03*
X9489130D03*
X9289130Y5095460D03*
X9389130D03*
X9489130D03*
X9589130D03*
X9389130Y5195460D03*
X9489130D03*
X10374270D03*
X9489130Y5295460D03*
X9589130D03*
X9689130Y5395460D03*
X10374270D03*
G54D17*
X27910800Y3366300D03*
X22170150Y3447040D03*
X22271050Y3446640D03*
X23591250Y3447780D03*
X24144250Y3442140D03*
X24245950Y3441440D03*
X24665850Y3439640D03*
X24767050Y3439940D03*
X26097350Y3444680D03*
X26634550Y3443440D03*
X26736350Y3444040D03*
X27174700Y3439540D03*
X27275700Y3439340D03*
X28591100Y3453380D03*
X29143400Y3446140D03*
X29245500Y3445540D03*
X10469800Y3872200D03*
X25408400Y4268900D03*
X3764100Y4326300D03*
X4180000Y4541000D03*
X12864900Y4655100D03*
X25261500Y4665400D03*
X4180000Y4701000D03*
X17851500Y4720100D03*
X8698350Y4779800D03*
X8780180D03*
X4180000Y4861000D03*
Y5021000D03*
X2910500Y5055400D03*
X5441700Y5096500D03*
X6415700Y5087880D03*
X2911500Y5215400D03*
X5441400Y5260700D03*
X19410100Y5232800D03*
X2911500Y5375400D03*
X5440400Y5420700D03*
X1524300Y5546000D03*
X1797800Y5532300D03*
X2911500Y5535400D03*
X4055700Y5578000D03*
X4319300Y5574600D03*
X5440400Y5580700D03*
X14512300Y5637800D03*
X798800Y5736200D03*
X3330000Y5772800D03*
X3631200Y5808700D03*
X6565800Y5803880D03*
X6666300Y5803980D03*
X2492040Y5882080D03*
X3328400Y5857900D03*
X5019940Y5916380D03*
X2172100Y6002700D03*
X1880700Y6012100D03*
X4421900Y6048000D03*
X4696200Y6040200D03*
X6561200Y6037420D03*
X6661500Y6037220D03*
X768400Y6108700D03*
X3296800Y6144200D03*
X10088600Y6095400D03*
X768400Y6268700D03*
X3296800Y6304200D03*
X22860400Y6415400D03*
X8816020Y6735200D03*
X6560800Y6790280D03*
X6661400Y6790380D03*
X6440400Y6884260D03*
X8816020Y6836200D03*
Y6937800D03*
X8815920Y7039000D03*
X8815520Y7140500D03*
X9174400Y7228300D03*
X10407630Y7308770D03*
X11218770D03*
X8991580Y7362080D03*
X10675600Y7439200D03*
X10741500Y7503300D03*
X6648500Y7606800D03*
X8684300Y7564800D03*
X10823900Y7568300D03*
X10895900Y7633200D03*
X3692000Y7726700D03*
X6296000Y7766700D03*
X9173700Y8081000D03*
X10121720Y8111000D03*
X11497280Y8103100D03*
X8824560Y8219200D03*
X8824220Y8381700D03*
X8823720Y8484200D03*
X8823120Y8585800D03*
X4748800Y8636760D03*
X6019100Y8655360D03*
X6239900Y8652620D03*
X7000500Y8668920D03*
X10514650Y8638250D03*
X4829900Y8679360D03*
X6100200Y8698160D03*
X6919100Y8729080D03*
X8823120Y8687400D03*
X10349800Y8736800D03*
X10790400Y8738500D03*
X8822620Y8789600D03*
X10695390Y8777910D03*
X5535800Y8850500D03*
X6678350Y8868780D03*
X4811500Y8976700D03*
X5537200Y8978300D03*
X4809100Y9103600D03*
X10042300Y9433640D03*
X10335350Y9455250D03*
X10695390Y9440970D03*
X10163000Y9530260D03*
X14159000Y9603500D03*
X14630700D03*
X19223900Y9598600D03*
X19685600D03*
X24213500Y9592700D03*
X24674900D03*
X10410600Y10240100D03*
X11362600D03*
X4984900Y3618300D03*
X5451200Y3553600D03*
X5290200D03*
X4984100Y3529400D03*
Y3448300D03*
X4981500Y3347900D03*
X4650920Y2820160D03*
X4794310Y3923600D03*
X12649400Y2233500D03*
X12840100Y2395900D03*
X15154100Y2227500D03*
X15317200Y2433500D03*
X17662800Y2227500D03*
X17885150Y2367450D03*
X20163800Y2233500D03*
X20385150Y2355650D03*
X22665700Y2233500D03*
X22885150Y2348950D03*
X25150400Y2233500D03*
X25385150Y2361150D03*
X27657500Y2233700D03*
X27831500Y2392500D03*
G54D19*
X4865200Y4461100D03*
X4965200D03*
X5065200D03*
X5165200D03*
X5265200D03*
X5365200D03*
X4865200Y4561100D03*
X4965200D03*
X5065200D03*
X5165200D03*
X5265200D03*
X5365200D03*
X6518700Y4578200D03*
X6618700D03*
X6718700D03*
X4865200Y4661100D03*
X4965200D03*
X5065200D03*
X5165200D03*
X5265200D03*
X5365200D03*
X6518700Y4678200D03*
X6618700D03*
X6718700D03*
X4865200Y4761100D03*
X4965200D03*
X5065200D03*
X5165200D03*
X5265200D03*
X5365200D03*
X6518700Y4778200D03*
X6618700D03*
X6718700D03*
X4865200Y4861100D03*
X4965200D03*
X5065200D03*
X5165200D03*
X5265200D03*
X5365200D03*
X6418700Y5226800D03*
X6518700D03*
X6618700D03*
X6718700D03*
X6818700D03*
X6418700Y5326800D03*
X6518700D03*
X6618700D03*
X6718700D03*
X6818700D03*
X6418700Y5426800D03*
X6518700D03*
X6618700D03*
X6718700D03*
X6818700D03*
X6537500Y6366600D03*
X6637500D03*
X6737500D03*
X6837500D03*
X6937500D03*
X6537500Y6466600D03*
X6637500D03*
X6737500D03*
X6837500D03*
X6937500D03*
X9156500Y6766000D03*
Y6866000D03*
Y6966000D03*
X10416000Y8207400D03*
X10516000D03*
X5090100Y8762900D03*
X5190100D03*
X5090100Y8862900D03*
X5190100D03*
X7122900Y8983300D03*
Y9083300D03*
G54D20*
X13210150Y5611000D03*
X15710150Y5605000D03*
X18210150D03*
X20710150Y5611000D03*
X23210150D03*
X25710150D03*
X28210100Y5611200D03*
X13210150Y6811000D03*
X15710150Y6805000D03*
X18210150D03*
X20710150Y6811000D03*
X23210150D03*
X25710150D03*
X28210100Y6811200D03*
X13210150Y8611000D03*
X15710150Y8605000D03*
X18210150D03*
X20710150Y8611000D03*
X23210150D03*
X25710150D03*
X28210100Y8611200D03*
%LPD*%
G75*
G54D10*
X803900Y3254500D03*
X766400Y3624500D03*
Y3784500D03*
X798800Y5736200D03*
X768400Y6108700D03*
Y6268700D03*
X909900Y5820900D03*
X1100200Y5774700D03*
X1165500Y5210500D03*
X1165000Y7692900D03*
X1531400Y2033000D03*
Y2193000D03*
X1532400Y2353000D03*
Y2513000D03*
X1530400Y3071000D03*
X1524300Y5546000D03*
X1688700Y4511400D03*
Y4672400D03*
Y4832400D03*
Y4993400D03*
X1792700Y3066700D03*
X1797800Y5532300D03*
X1890100Y3536700D03*
X1880700Y6012100D03*
X1977800Y8247500D03*
X1976300Y8411000D03*
X2172000Y3526400D03*
X2172100Y6002700D03*
X2202120Y7914100D03*
X2201520Y8015600D03*
Y8116500D03*
X2489740Y3400680D03*
X2492040Y5882080D03*
X2917200Y2590000D03*
Y2750000D03*
Y2910000D03*
X2916200Y3070000D03*
X2910500Y5055400D03*
X2911500Y5215400D03*
Y5375400D03*
Y5535400D03*
X3330000Y5772800D03*
X3328400Y5857900D03*
X3296800Y6144200D03*
Y6304200D03*
X3631200Y5808700D03*
X3692000Y7726700D03*
X3764100Y4326300D03*
X4062200Y2663100D03*
X4055700Y5578000D03*
X4180000Y4541000D03*
Y4701000D03*
Y4861000D03*
Y5021000D03*
X4211200Y9728700D03*
X4224900Y2663100D03*
X4319300Y5574600D03*
X4421900Y6048000D03*
X4564990Y582500D03*
X4650920Y2820160D03*
X4696200Y6040200D03*
X4794310Y3923600D03*
X4748800Y8636760D03*
X4811500Y8976700D03*
X4809100Y9103600D03*
X4864990Y582510D03*
X4886700Y3813900D03*
X4829900Y8679360D03*
X4842800Y10042000D03*
X4922400Y3873400D03*
X4970000Y2395100D03*
X4981500Y3347900D03*
X4984100Y3448300D03*
Y3529400D03*
X4984900Y3618300D03*
X5019940Y5916380D03*
X5131000Y2395100D03*
X5215700Y598100D03*
X5311100Y562800D03*
X5290200Y3553600D03*
X5451200D03*
X5441700Y5096500D03*
X5441400Y5260700D03*
X5440400Y5420700D03*
Y5580700D03*
X5427450Y9299050D03*
X5535800Y8850500D03*
X5537200Y8978300D03*
X5564990Y570400D03*
X5912900Y558800D03*
X5974290Y964610D03*
X6056120D03*
X6019100Y8655360D03*
X6100200Y8698160D03*
X6088160Y10130880D03*
X6213300Y559300D03*
X6296000Y7766700D03*
X6239900Y8652620D03*
X6359800Y2379700D03*
X6325600Y3190600D03*
X6305600Y8998600D03*
X6301000Y9061200D03*
X6411900Y574200D03*
X6444900Y4087560D03*
X6415700Y4289020D03*
Y5087880D03*
X6444600Y5897860D03*
X6440500Y5943640D03*
X6440400Y6884260D03*
X6448300Y1552720D03*
X6448900Y2355280D03*
X6549300Y1552520D03*
X6554900Y2355280D03*
X6531600Y3135100D03*
X6566600Y3238620D03*
X6565900Y3993280D03*
X6565800Y5803880D03*
X6561200Y6037420D03*
X6560800Y6790280D03*
X6650200Y1552620D03*
X6667900Y2355380D03*
X6667400Y3238620D03*
X6666500Y3993280D03*
X6666300Y5803980D03*
X6661500Y6037220D03*
X6661400Y6790380D03*
X6648500Y7606800D03*
X6723000Y556300D03*
X6678350Y8868780D03*
X6768100Y3238820D03*
X6767600Y3993480D03*
X6912600Y574200D03*
X6919100Y8729080D03*
X7000500Y8668920D03*
X7116000Y581000D03*
X7309100D03*
X7515900Y582800D03*
X7765010Y582500D03*
X7865010Y582510D03*
X8114000Y582700D03*
X8303700Y584500D03*
X8505400Y587900D03*
X8708700Y582700D03*
X8698350Y4779800D03*
X8684300Y7564800D03*
X8780180Y4779800D03*
X8816020Y6735200D03*
Y6836200D03*
Y6937800D03*
X8815920Y7039000D03*
X8815520Y7140500D03*
X8865010Y582510D03*
X8891400Y5928700D03*
X8890800Y5857100D03*
X8824560Y8219200D03*
X8824220Y8381700D03*
X8823720Y8484200D03*
X8823120Y8585800D03*
Y8687400D03*
X8822620Y8789600D03*
X8909900Y4649970D03*
Y4730200D03*
X8991580Y7362080D03*
X9103500Y577600D03*
X9062000Y5857100D03*
X9174400Y7228300D03*
X9173700Y8081000D03*
X9305100Y581000D03*
X9369750Y7231700D03*
X9370500Y8081400D03*
X9433500Y7232800D03*
X9435500Y8078700D03*
X9515300Y593000D03*
X9511700Y6457200D03*
X9557500Y6504300D03*
X9499400Y7233800D03*
X9499500Y8082400D03*
X9629310Y7232810D03*
X9564280Y7233820D03*
X9629500Y8077000D03*
X9564500Y8078600D03*
X9809300Y582700D03*
X9857200Y7254700D03*
X9856500Y7308900D03*
X10014400Y591300D03*
X10042300Y9433640D03*
X10087900Y5910900D03*
X10088600Y6095400D03*
X10121720Y8111000D03*
X10205800Y593000D03*
X10169880Y7969800D03*
Y8030800D03*
X10163000Y9530260D03*
X10288100Y3909800D03*
X10230700Y5925900D03*
X10244400Y6094100D03*
X10349700Y3909900D03*
X10373300Y7699100D03*
X10371500Y7764100D03*
X10368600Y7829550D03*
X10370950Y7894050D03*
X10349800Y8736800D03*
X10335350Y9455250D03*
X10412500Y589600D03*
X10412700Y3910100D03*
X10407630Y7308770D03*
X10410600Y10240100D03*
X10469800Y3872200D03*
X10468600Y4086100D03*
X10514650Y8638250D03*
X10535100Y3909500D03*
Y4084200D03*
X10615650Y585950D03*
X10602900Y3910400D03*
Y4079300D03*
X10631700Y6091800D03*
X10681400Y3909500D03*
X10685700Y4099500D03*
X10694600Y6091200D03*
X10675600Y7439200D03*
X10741500Y7503300D03*
X10695390Y8777910D03*
Y9440970D03*
X10807300Y587900D03*
X10759700Y6092200D03*
X10790400Y8738500D03*
X10831100Y6092200D03*
X10823900Y7568300D03*
X10905600Y6092300D03*
X10895900Y7633200D03*
X11003800Y594700D03*
X11207200Y582700D03*
X11218770Y7308770D03*
X11414000Y591300D03*
X11362600Y10240100D03*
X11449220Y7962100D03*
X11449120Y8022700D03*
X11515200Y7968300D03*
X11497280Y8103100D03*
X11605400Y587900D03*
X11801900Y589600D03*
X12001800D03*
X11995700Y2130660D03*
Y2362220D03*
X12062150Y2130360D03*
Y2361920D03*
X12205200Y596400D03*
X12159150Y3438240D03*
X12285150Y2121500D03*
X12271900Y2366900D03*
X12259850Y3438240D03*
X12335150Y2092690D03*
X12341150Y3377940D03*
X12410300Y582700D03*
X12385150Y2121500D03*
X12402450Y3377940D03*
X12608500Y577600D03*
X12649400Y2233500D03*
X12801600Y584500D03*
X12769590Y1791870D03*
X12851420D03*
X12840100Y2395900D03*
X12864900Y4655100D03*
X12905900Y3510200D03*
X13035150Y2121500D03*
X13070040Y2420330D03*
X13105900Y9358200D03*
X13185150Y2121500D03*
X13150270Y2420330D03*
X13220040D03*
X13335150Y2121500D03*
X13300270Y2420330D03*
X13485150Y2121500D03*
X13635150D03*
X13589550Y3443280D03*
X13672450Y3381620D03*
X13785150Y2121500D03*
X13734350Y3381620D03*
X13910150Y2850350D03*
X13935150Y2121500D03*
X13995850Y3381440D03*
X14058850D03*
X14085150Y2121500D03*
X14135150Y2092690D03*
X14151700Y2397600D03*
X14142050Y3440940D03*
X14159000Y9603500D03*
X14243750Y3441240D03*
X14371750Y2805900D03*
X14501400Y2117660D03*
Y2349220D03*
X14458350Y2850350D03*
X14512300Y5637800D03*
X14566750Y2117660D03*
Y2349220D03*
X14671450Y3433440D03*
X14630700Y9603500D03*
X14785150Y2115500D03*
X14770300Y2390800D03*
X14772550Y3433440D03*
X14835150Y2086690D03*
X14885150Y2115500D03*
X14854850Y3372540D03*
X14915650Y3373040D03*
X15154100Y2227500D03*
X15268750Y1787900D03*
X15317200Y2433500D03*
X15350580Y1787900D03*
X15408600Y3510200D03*
X15535150Y2115500D03*
X15570040Y2414330D03*
X15636000Y9355400D03*
X15685150Y2115500D03*
X15650270Y2414330D03*
X15835150Y2115500D03*
X15870040Y2414330D03*
X15985150Y2115500D03*
X15950270Y2414330D03*
X16135150Y2115500D03*
X16094050Y3439580D03*
X16176550Y3378420D03*
X16285150Y2115500D03*
X16237850Y3378420D03*
X16435150Y2115500D03*
X16410150Y2844350D03*
X16500450Y3383540D03*
X16585150Y2115500D03*
X16561050Y3383440D03*
X16635150Y2086690D03*
X16641550Y3442040D03*
X16750150Y2494150D03*
X16743250Y3441840D03*
X16871750Y2801200D03*
X16957500Y2847080D03*
X17003100Y2116860D03*
Y2348420D03*
X17068650Y2117160D03*
Y2348720D03*
X17170150Y2488650D03*
X17171950Y3442440D03*
X17285150Y2115500D03*
X17335150Y2086690D03*
X17274150Y3442440D03*
X17385150Y2115500D03*
X17355950Y3382140D03*
X17417250Y3381240D03*
X17662800Y2227500D03*
X17769240Y1783420D03*
X17851070D03*
X17851500Y4720100D03*
X17885150Y2367450D03*
X17909600Y3316200D03*
X18035150Y2115500D03*
X18070040Y2414330D03*
X18150270D03*
X18136800Y9368100D03*
X18185150Y2115500D03*
X18335150D03*
X18370030Y2414330D03*
X18450260D03*
X18485150Y2115500D03*
X18593850Y3447880D03*
X18635150Y2115500D03*
X18676050Y3386520D03*
X18737750Y3386820D03*
X18785150Y2115500D03*
X18935150D03*
X18910150Y2844350D03*
X18993350Y3386140D03*
X19085150Y2115500D03*
X19055350Y3385640D03*
X19135150Y2086690D03*
X19136850Y3446740D03*
X19250150Y2478650D03*
X19238450Y3446540D03*
X19223900Y9598600D03*
X19371850Y2804000D03*
X19410100Y5232800D03*
X19457500Y2847680D03*
X19499400Y2120760D03*
X19564950Y2120560D03*
X19499400Y2352320D03*
X19564950Y2352120D03*
X19670150Y2497050D03*
X19660150Y3446240D03*
X19685600Y9598600D03*
X19785150Y2121500D03*
X19760950Y3446440D03*
X19835150Y2092690D03*
X19843450Y3385240D03*
X19885150Y2121500D03*
X19905550Y3385240D03*
X20163800Y2233500D03*
X20270190Y1803690D03*
X20352020D03*
X20385150Y2355650D03*
X20409000Y3323900D03*
X20535150Y2121500D03*
X20570040Y2420330D03*
X20650270D03*
X20645300Y9358400D03*
X20685150Y2121500D03*
X20835150D03*
X20870030Y2430340D03*
X20950260D03*
X20985150Y2121500D03*
X21092050Y3449580D03*
X21135150Y2121500D03*
X21173850Y3390520D03*
X21235950D03*
X21285150Y2121500D03*
X21410150Y2850350D03*
X21435150Y2121500D03*
X21496850Y3381940D03*
X21558150Y3381740D03*
X21585150Y2121500D03*
X21635150Y2092690D03*
X21640650Y3442040D03*
X21750150Y2485350D03*
X21741850Y3441240D03*
X21873150Y2804800D03*
X21998900Y2121460D03*
Y2353020D03*
X21958900Y2848780D03*
X22065250Y2121260D03*
Y2352820D03*
X22170150Y2486350D03*
Y3447040D03*
X22285150Y2121500D03*
X22271050Y3446640D03*
X22335150Y2092690D03*
X22385150Y2121500D03*
X22351750Y3385740D03*
X22412750Y3385540D03*
X22665700Y2233500D03*
X22765490Y1797630D03*
X22847320D03*
X22885150Y2348950D03*
X22860400Y6415400D03*
X22913400Y3378600D03*
X23035150Y2121500D03*
X23070040Y2420330D03*
X23185150Y2121500D03*
X23150270Y2420330D03*
X23134600Y9356600D03*
X23335150Y2121500D03*
X23370030Y2420330D03*
X23485150Y2121500D03*
X23450260Y2420330D03*
X23635150Y2121500D03*
X23591250Y3447780D03*
X23672850Y3386820D03*
X23785150Y2121500D03*
X23734350Y3385720D03*
X23935150Y2121500D03*
X23910150Y2850350D03*
X24002550Y3381640D03*
X24085150Y2121500D03*
X24063350Y3381940D03*
X24135150Y2092690D03*
X24144250Y3442140D03*
X24213500Y9592700D03*
X24250150Y2495450D03*
X24245950Y3441440D03*
X24372750Y2806700D03*
X24459000Y2849680D03*
X24495200Y2123160D03*
Y2354720D03*
X24561550Y2122560D03*
Y2354120D03*
X24665850Y3439640D03*
X24674900Y9592700D03*
X24785150Y2121500D03*
X24767600Y2385700D03*
X24767050Y3439940D03*
X24835150Y2092690D03*
X24885150Y2121500D03*
X24848550Y3384740D03*
X24910550Y3383540D03*
X25150400Y2233500D03*
X25267790Y1815770D03*
X25261500Y4665400D03*
X25349620Y1815770D03*
X25385150Y2361150D03*
X25408400Y4268900D03*
X25535150Y2121500D03*
X25570040Y2420330D03*
X25685150Y2121500D03*
X25650270Y2420330D03*
X25685200Y9363500D03*
X25835150Y2121500D03*
X25870040Y2420330D03*
X25985150Y2121500D03*
X25950270Y2420330D03*
X26135150Y2121500D03*
X26097350Y3444680D03*
X26178550Y3382920D03*
X26240050Y3382320D03*
X26285150Y2121500D03*
X26435150D03*
X26410150Y2850350D03*
X26491250Y3383740D03*
X26585150Y2121500D03*
X26552750Y3383240D03*
X26635150Y2092690D03*
X26621800Y2394200D03*
X26634550Y3443440D03*
X26736350Y3444040D03*
X26872850Y2807600D03*
X26958800Y2851580D03*
X26996100Y2122060D03*
X27002200Y2354320D03*
X27068000Y2122360D03*
Y2353920D03*
X27174700Y3439540D03*
X27263500Y2379700D03*
X27275700Y3439340D03*
X27285100Y2121700D03*
X27335100Y2092890D03*
X27385100Y2121700D03*
X27357400Y3378040D03*
X27419500Y3378640D03*
X27657500Y2233700D03*
X27768290Y1808520D03*
X27850120D03*
X27831500Y2392500D03*
X27910800Y3366300D03*
X28035100Y2121700D03*
X28069990Y2420530D03*
X28150220D03*
X28185100Y2121700D03*
X28171500Y9359400D03*
X28335100Y2121700D03*
X28369990Y2420530D03*
X28450220D03*
X28485100Y2121700D03*
X28591100Y3453380D03*
X28635100Y2121700D03*
X28672300Y3387620D03*
X28733200Y3388020D03*
X28785100Y2121700D03*
X28935100D03*
X28910100Y2850550D03*
X29001600Y3386740D03*
X29085100Y2121700D03*
X29062200Y3386440D03*
X29135100Y2092890D03*
X29142500Y2411300D03*
X29143400Y3446140D03*
X29245500Y3445540D03*
X29370700Y2807600D03*
X29456600Y2850300D03*
G54D11*
X799200Y3339400D03*
X1113500Y3290000D03*
X2207600Y1858900D03*
Y1958900D03*
Y2058900D03*
Y2158900D03*
Y2258900D03*
Y2358900D03*
X2307600Y1858900D03*
Y1958900D03*
Y2058900D03*
Y2158900D03*
Y2258900D03*
Y2358900D03*
X2369500Y4299200D03*
Y4399200D03*
Y4499200D03*
Y4599200D03*
Y4699200D03*
Y4799200D03*
X2407600Y1858900D03*
Y1958900D03*
Y2058900D03*
Y2158900D03*
Y2258900D03*
Y2358900D03*
X2469500Y4299200D03*
Y4399200D03*
Y4499200D03*
Y4599200D03*
Y4699200D03*
Y4799200D03*
X2569500Y4299200D03*
Y4399200D03*
Y4499200D03*
Y4599200D03*
Y4699200D03*
Y4799200D03*
X4865200Y4461100D03*
Y4561100D03*
Y4661100D03*
Y4761100D03*
Y4861100D03*
X4965200Y4461100D03*
Y4561100D03*
Y4661100D03*
Y4761100D03*
Y4861100D03*
X5065200Y4461100D03*
Y4561100D03*
Y4661100D03*
Y4761100D03*
Y4861100D03*
X5090100Y8762900D03*
Y8862900D03*
X5165200Y4461100D03*
Y4561100D03*
Y4661100D03*
Y4761100D03*
Y4861100D03*
X5190100Y8762900D03*
Y8862900D03*
X5265200Y4461100D03*
Y4561100D03*
Y4661100D03*
Y4761100D03*
Y4861100D03*
X5311000Y2710500D03*
Y2810500D03*
Y2910500D03*
X5411000Y2710500D03*
Y2810500D03*
Y2910500D03*
X5365200Y4461100D03*
Y4561100D03*
Y4661100D03*
Y4761100D03*
Y4861100D03*
X5464990Y575390D03*
X5511000Y2710500D03*
Y2810500D03*
Y2910500D03*
X5957300Y8971400D03*
Y9071400D03*
X6057300Y8971400D03*
Y9071400D03*
X6418700Y5226800D03*
Y5326800D03*
Y5426800D03*
X6497200Y1910600D03*
Y2010600D03*
X6485300Y2706200D03*
Y2806200D03*
X6518700Y4578200D03*
Y4678200D03*
Y4778200D03*
Y5226800D03*
Y5326800D03*
Y5426800D03*
X6597200Y1910600D03*
Y2010600D03*
X6585300Y2706200D03*
Y2806200D03*
X6569000Y3560600D03*
Y3660600D03*
X6537500Y6366600D03*
Y6466600D03*
X6669000Y3560600D03*
Y3660600D03*
X6618700Y4578200D03*
Y4678200D03*
Y4778200D03*
Y5226800D03*
Y5326800D03*
Y5426800D03*
X6637500Y6366600D03*
Y6466600D03*
X6697200Y1910600D03*
Y2010600D03*
X6685300Y2706200D03*
Y2806200D03*
X6718700Y4578200D03*
Y4678200D03*
Y4778200D03*
Y5226800D03*
Y5326800D03*
Y5426800D03*
X6737500Y6366600D03*
Y6466600D03*
X6797200Y1910600D03*
Y2010600D03*
X6785300Y2706200D03*
Y2806200D03*
X6769000Y3560600D03*
Y3660600D03*
X6818700Y5226800D03*
Y5326800D03*
Y5426800D03*
X6897200Y1910600D03*
Y2010600D03*
X6869000Y3560600D03*
Y3660600D03*
X6837500Y6366600D03*
Y6466600D03*
X6937500Y6366600D03*
Y6466600D03*
X7122900Y8983300D03*
Y9083300D03*
X9156500Y6766000D03*
Y6866000D03*
Y6966000D03*
X9196200Y8613300D03*
Y8713300D03*
X9293700Y8614900D03*
Y8714900D03*
X10320600Y9127600D03*
Y9227600D03*
X10416000Y8207400D03*
X10420600Y9127600D03*
Y9227600D03*
X10516000Y8207400D03*
X11046100Y8158700D03*
X11146100D03*
X11951400Y3286300D03*
Y3386300D03*
X12051400Y3286300D03*
Y3386300D03*
X13815100Y3310200D03*
Y3410200D03*
X13915100Y3310200D03*
Y3410200D03*
X14435300Y3288000D03*
Y3388000D03*
X14535300Y3288000D03*
Y3388000D03*
X16316900Y3308500D03*
Y3408500D03*
X16416900Y3308500D03*
Y3408500D03*
X16957800Y3288000D03*
Y3388000D03*
X17057800Y3288000D03*
Y3388000D03*
X18817100Y3305100D03*
Y3405100D03*
X18917100Y3305100D03*
Y3405100D03*
X19440900Y3282800D03*
Y3382800D03*
X19540900Y3282800D03*
Y3382800D03*
X21313800Y3296500D03*
Y3396500D03*
X21413800Y3296500D03*
Y3396500D03*
X21942700Y3281200D03*
Y3381200D03*
X22042700Y3281200D03*
Y3381200D03*
X23812300Y3315300D03*
Y3415300D03*
X23912300Y3315300D03*
Y3415300D03*
X24454800Y3284500D03*
Y3384500D03*
X24554800Y3284500D03*
Y3384500D03*
X26321000Y3324700D03*
X26319300Y3408500D03*
X26407300Y3323000D03*
X26409000Y3411900D03*
X26929400Y3276100D03*
Y3376100D03*
X27029400Y3276100D03*
Y3376100D03*
X28812700Y3308500D03*
Y3408500D03*
X28912700Y3308500D03*
Y3408500D03*
G54D12*
X2682200Y9439410D03*
Y9859410D03*
X3102200Y9439410D03*
Y9859410D03*
X3522200Y9439410D03*
Y9859410D03*
G54D13*
X4664990Y555210D03*
G54D14*
X5077200Y10107900D03*
X5331200D03*
X6340900Y10024200D03*
X6594900D03*
X6848900D03*
X8085800Y10091200D03*
X8339800D03*
X8593800D03*
X8847800D03*
X9101800D03*
G54D15*
X9089130Y4710320D03*
X9189130D03*
Y5795460D03*
X9289130Y4210320D03*
Y4310320D03*
Y4510320D03*
Y4610320D03*
Y4710320D03*
Y4810320D03*
Y4910320D03*
Y5095460D03*
Y5195460D03*
Y5295460D03*
Y5395460D03*
Y5495460D03*
Y5595460D03*
Y5695460D03*
X9389130Y4610320D03*
Y4710320D03*
Y4810320D03*
Y4910320D03*
Y5095460D03*
Y5195460D03*
Y5295460D03*
Y5395460D03*
Y5495460D03*
Y5595460D03*
Y5695460D03*
X9489130Y4610320D03*
Y4710320D03*
Y4810320D03*
Y4910320D03*
Y5095460D03*
Y5195460D03*
Y5295460D03*
Y5395460D03*
Y5495460D03*
Y5595460D03*
Y5695460D03*
Y5795460D03*
X9589130Y4210320D03*
Y4310320D03*
Y4410320D03*
Y4510320D03*
Y4710320D03*
Y4810320D03*
Y4910320D03*
Y5095460D03*
Y5195460D03*
Y5295460D03*
Y5395460D03*
Y5495460D03*
Y5595460D03*
Y5695460D03*
Y5795460D03*
Y5895460D03*
X9689130Y4510320D03*
Y4610320D03*
Y4710320D03*
Y4810320D03*
Y4910320D03*
Y5095460D03*
Y5195460D03*
Y5295460D03*
Y5395460D03*
Y5495460D03*
Y5595460D03*
Y5695460D03*
Y5795460D03*
Y5895460D03*
X9789130Y4210320D03*
Y4510320D03*
Y4610320D03*
Y4710320D03*
Y4810320D03*
Y4910320D03*
Y5095460D03*
Y5195460D03*
Y5295460D03*
Y5395460D03*
Y5495460D03*
Y5595460D03*
Y5695460D03*
X9889130Y4410320D03*
Y4510320D03*
Y4810320D03*
Y4910320D03*
Y5095460D03*
Y5195460D03*
Y5295460D03*
Y5395460D03*
Y5495460D03*
Y5595460D03*
Y5695460D03*
Y5795460D03*
X9985700Y4711500D03*
X10074270Y4610320D03*
Y4710320D03*
Y4810320D03*
Y4910320D03*
Y5095460D03*
Y5195460D03*
Y5295460D03*
Y5395460D03*
Y5495460D03*
Y5595460D03*
Y5695460D03*
Y5795460D03*
X10174270Y4810320D03*
Y4910320D03*
Y5095460D03*
Y5195460D03*
Y5295460D03*
X10167900Y5504600D03*
X10174270Y5595460D03*
Y5695460D03*
X10274270Y4210320D03*
Y4910320D03*
Y5295460D03*
Y5395460D03*
Y5495460D03*
Y5695460D03*
Y5795460D03*
X10390660Y4310320D03*
X10374270Y4410320D03*
Y4510320D03*
Y4610320D03*
Y4710320D03*
Y4810320D03*
X10391700Y4903500D03*
X10374270Y5095460D03*
Y5195460D03*
Y5295460D03*
Y5395460D03*
Y5495460D03*
Y5595460D03*
Y5695460D03*
Y5795460D03*
X10474270Y5095460D03*
Y5195460D03*
Y5295460D03*
Y5395460D03*
Y5495460D03*
Y5595460D03*
Y5695460D03*
Y5795460D03*
X10574270Y5095460D03*
Y5195460D03*
Y5295460D03*
Y5395460D03*
Y5495460D03*
Y5595460D03*
Y5695460D03*
Y5795460D03*
X10674270Y4310320D03*
Y4510320D03*
Y4610320D03*
Y4710320D03*
Y4910320D03*
Y5095460D03*
Y5195460D03*
Y5295460D03*
Y5395460D03*
Y5495460D03*
Y5595460D03*
Y5695460D03*
X10774270Y4210320D03*
X12860150Y3383500D03*
X15360150Y3377500D03*
X17860150D03*
X20360150Y3383500D03*
X22860150D03*
X25360150Y3544100D03*
X27860100Y3482800D03*
G54D16*
X13210150Y5611000D03*
Y6811000D03*
Y8611000D03*
X15710150Y5605000D03*
Y6805000D03*
Y8605000D03*
X18210150Y5605000D03*
Y6805000D03*
Y8605000D03*
X20710150Y5611000D03*
Y6811000D03*
Y8611000D03*
X23210150Y5611000D03*
Y6811000D03*
Y8611000D03*
X25710150Y5611000D03*
Y6811000D03*
Y8611000D03*
X28210100Y5611200D03*
Y6811200D03*
Y8611200D03*
M02*
