G04 ================== begin FILE IDENTIFICATION RECORD ==================*
G04 Layout Name:  pcie-nvme_rework2.brd*
G04 Film Name:    BOARD*
G04 File Format:  Gerber RS274X*
G04 File Origin:  Cadence Allegro 25.1-S010*
G04 Origin Date:  Tue May 12 01:05:28 2026*
G04 *
G04 Layer:  BOARD GEOMETRY/DESIGN_OUTLINE*
G04 *
G04 Offset:    (0.0000 0.0000)*
G04 Mirror:    No*
G04 Mode:      Positive*
G04 Rotation:  0*
G04 FullContactRelief:  No*
G04 UndefLineWidth:     0.1000*
G04 ================== end FILE IDENTIFICATION RECORD ====================*
%FSLAX25Y25*MOMM*%
%IR0*IPPOS*OFA0.00000B0.00000*MIA0B0*SFA1.00000B1.00000*%
%ADD10C,.1*%
G75*
%LPD*%
G75*
G54D10*
G01X14160390Y825000D02*
X14147700D01*
X14142230D01*
G03X13966970Y649740I0J-175260D01*
G01Y520200D01*
G03X14142230Y344940I175260J0D01*
G01X14472940D01*
G02X14475480Y342400I0J-2540D01*
G01Y83930D01*
G02X14475130Y82650I-2536J6D01*
G01X14336490Y-154180D01*
G02X14334300Y-155440I-2194J1280D01*
G01X13205480D01*
Y312000D01*
G03X12931190Y314880I-137160J3D01*
G01X12931160Y289470D01*
Y-450000D01*
X8120000D01*
X7930000D01*
X5810000D01*
Y287870D01*
X5808550Y312350D01*
X5800880Y335650D01*
X5787540Y356220D01*
X5769360Y372700D01*
X5747590Y383980D01*
X5723660Y389340D01*
X5699150Y388430D01*
X5675710Y381260D01*
X5654850Y368360D01*
X5637990Y350530D01*
X5626230Y329020D01*
X5620360Y305220D01*
X5620000Y287870D01*
Y-450000D01*
X4499990D01*
Y629190D01*
X4498900Y663230D01*
X4491530Y696450D01*
X4478120Y727720D01*
X4459150Y755990D01*
X4435250Y780220D01*
X4407280Y799630D01*
X4376220Y813520D01*
X4343100Y821400D01*
X4309110Y823020D01*
X4275400Y818300D01*
X4243150Y807400D01*
X4213480Y790740D01*
X4187420Y768840D01*
X4165850Y742500D01*
X4149550Y712630D01*
X4139060Y680250D01*
X4134760Y646490D01*
X4134990Y629190D01*
Y10D01*
X3334990D01*
Y825000D01*
X1500000D01*
Y10D01*
X0D01*
Y10665000D01*
X31200000D01*
Y825140D01*
X14969990Y825000D01*
X14160390D01*
M02*
