G04 ================== begin FILE IDENTIFICATION RECORD ==================*
G04 Layout Name:  pcie-nvme_rework2.brd*
G04 Film Name:    GND02L*
G04 File Format:  Gerber RS274X*
G04 File Origin:  Cadence Allegro 25.1-S010*
G04 Origin Date:  Tue May 12 01:05:28 2026*
G04 *
G04 Layer:  VIA CLASS/GND02*
G04 Layer:  PIN/GND02*
G04 Layer:  ETCH/GND02*
G04 *
G04 Offset:    (0.0000 0.0000)*
G04 Mirror:    No*
G04 Mode:      Positive*
G04 Rotation:  0*
G04 FullContactRelief:  No*
G04 UndefLineWidth:     0.1000*
G04 ================== end FILE IDENTIFICATION RECORD ====================*
%FSLAX25Y25*MOMM*%
%IR0*IPPOS*OFA0.00000B0.00000*MIA0B0*SFA1.00000B1.00000*%
%ADD11C,.6*%
%ADD13C,.7*%
%ADD15C,.35*%
%ADD10C,.45*%
%ADD16C,5.5*%
%ADD14C,1.37*%
%ADD12C,2.3622*%
%ADD17C,.127*%
%ADD23C,.6044*%
%ADD19C,.7044*%
%ADD18C,.2544*%
%ADD20C,.8544*%
%ADD21C,2.0068*%
%ADD26C,1.6244*%
%ADD22C,1.5068*%
%ADD25C,2.6166*%
%ADD24C,5.7544*%
G75*
%LPD*%
G75*
G36*
G01X14010Y10654900D02*
X31186000D01*
Y839000D01*
X14050300D01*
X13948500Y712800D01*
X13952800Y417600D01*
X14065300Y329600D01*
X14461400Y330900D01*
Y87100D01*
X14327600Y-141400D01*
X13224000D01*
Y500300D01*
X13223700Y500000D01*
X4701330D01*
G02X4694950Y518070I-2J10160D01*
G03X4712710Y555210I-29954J37140D01*
G03X4617270I-47720J0D01*
G03X4635030Y518070I47714J0D01*
G02X4628650Y500000I-6378J-7910D01*
G01X4515000D01*
Y835800D01*
X4511800Y839000D01*
X4122600D01*
Y661900D01*
X4120600Y659900D01*
Y635200D01*
X4120900Y634900D01*
Y14000D01*
X3349000D01*
Y839000D01*
X1485990D01*
Y14010D01*
X14010D01*
Y10654900D01*
G37*
%LPC*%
G75*
G36*
G01X17043320Y2324240D02*
G03X17028650Y2324180I-7306J-7057D01*
G02X17003100Y2313200I-25550J24237D01*
G02Y2383640I0J35220D01*
G02X17028430Y2372900I7J-35223D01*
G03X17043100Y2372960I7306J7057D01*
G02X17068650Y2383940I25550J-24237D01*
G02Y2313500I0J-35220D01*
G02X17043320Y2324240I-7J35223D01*
G37*
G36*
G01X14541390Y2324780D02*
G03X14526760I-7315J-7051D01*
G02X14501400Y2314000I-25360J24440D01*
G02Y2384440I0J35220D01*
G02X14526760Y2373660I0J-35220D01*
G03X14541390I7315J7051D01*
G02X14566750Y2384440I25360J-24440D01*
G02Y2314000I0J-35220D01*
G02X14541390Y2324780I0J35220D01*
G37*
G36*
G01X19539440Y2327840D02*
G03X19524760Y2327880I-7359J-7006D01*
G02X19499400Y2317100I-25360J24440D01*
G02Y2387540I0J35220D01*
G02X19524910Y2376600I0J-35212D01*
G03X19539590Y2376560I7359J7006D01*
G02X19564950Y2387340I25360J-24440D01*
G02Y2316900I0J-35220D01*
G02X19539440Y2327840I0J35212D01*
G37*
G36*
G01X22039430Y2328870D02*
G03X22024580Y2328910I-7444J-6914D01*
G02X21998900Y2317800I-25680J24124D01*
G02Y2388240I0J35220D01*
G02X22024720Y2376970I0J-35212D01*
G03X22039570Y2376930I7444J6914D01*
G02X22065250Y2388040I25680J-24124D01*
G02Y2317600I0J-35220D01*
G02X22039430Y2328870I0J35212D01*
G37*
G36*
G01X27042320Y2329820D02*
G03X27027590Y2329910I-7408J-6954D01*
G02X27002200Y2319100I-25390J24412D01*
G02Y2389540I0J35220D01*
G02X27027880Y2378420I0J-35212D01*
G03X27042610Y2378330I7408J6954D01*
G02X27068000Y2389140I25390J-24412D01*
G02Y2318700I0J-35220D01*
G02X27042320Y2329820I0J35212D01*
G37*
G36*
G01X24535580Y2330320D02*
G03X24520730Y2330460I-7490J-6862D01*
G02X24495200Y2319500I-25530J24255D01*
G02Y2389940I0J35220D01*
G02X24521170Y2378520I7J-35223D01*
G03X24536020Y2378380I7490J6862D01*
G02X24561550Y2389340I25530J-24255D01*
G02Y2318900I0J-35220D01*
G02X24535580Y2330320I-7J35223D01*
G37*
G36*
G01X12036260Y2338050D02*
G03X12021380Y2338110I-7468J-6889D01*
G02X11995700Y2327000I-25680J24124D01*
G02Y2397440I0J35220D01*
G02X12021590Y2386090I-6J-35217D01*
G03X12036470Y2386030I7468J6889D01*
G02X12062150Y2397140I25680J-24124D01*
G02Y2326700I0J-35220D01*
G02X12036260Y2338050I6J35217D01*
G37*
G36*
G01X22884920Y3357870D02*
G03X22877840Y3359000I-4107J-2987D01*
G02X22860150Y3353280I-17690J24495D01*
G02Y3413720I0J30220D01*
G02X22882020Y3404360I0J-30230D01*
G03X22889190Y3404180I3675J3505D01*
G02X22913400Y3413820I24210J-25581D01*
G02Y3343380I0J-35220D01*
G02X22884920Y3357870I0J35234D01*
G37*
G36*
G01X4881090Y3848670D02*
G03X4889080Y3861990I-1622J10030D01*
G02X4887180Y3873400I33310J11410D01*
G02X4957620I35220J0D01*
G02X4928010Y3838630I-35220J0D01*
G03X4920020Y3825310I1622J-10030D01*
G02X4921920Y3813900I-33310J-11410D01*
G02X4851480I-35220J0D01*
G02X4881090Y3848670I35220J0D01*
G37*
G36*
G01X10508610Y4060990D02*
G03X10493720Y4061420I-7645J-6694D01*
G02X10468600Y4050880I-25126J24678D01*
G02Y4121320I0J35220D01*
G02X10495090Y4109310I0J-35219D01*
G03X10509980Y4108880I7645J6694D01*
G02X10535100Y4119420I25126J-24678D01*
G02X10563090Y4105570I0J-35208D01*
G03X10578270Y4104480I8072J6170D01*
G02X10602900Y4114520I24630J-25191D01*
G02Y4044080I0J-35220D01*
G02X10574910Y4057930I0J35208D01*
G03X10559730Y4059020I-8072J-6170D01*
G02X10535100Y4048980I-24630J25191D01*
G02X10508610Y4060990I0J35219D01*
G37*
G36*
G01X10669950Y6066050D02*
G03X10655870Y6066180I-7108J-7261D01*
G02X10631700Y6056580I-24170J25627D01*
G02Y6127020I0J35220D01*
G02X10656350Y6116950I-5J-35218D01*
G03X10670430Y6116820I7108J7261D01*
G02X10694600Y6126420I24170J-25627D01*
G02Y6055980I0J-35220D01*
G02X10669950Y6066050I5J35218D01*
G37*
G36*
G01X9512050Y6492420D02*
G03X9522310Y6502960I106J10160D01*
G02X9522280Y6504300I35187J1458D01*
G02X9557500Y6469080I35220J0D01*
G01X9557150D01*
G03X9546890Y6458540I-106J-10160D01*
G02X9546920Y6457200I-35187J-1458D01*
G02X9511700Y6492420I-35220J0D01*
G01X9512050D01*
G37*
G36*
G01X9458710Y7257400D02*
G03X9473460Y7257620I7271J7096D01*
G02X9499400Y7269020I25940J-23812D01*
G02X9524570Y7258440I0J-35230D01*
G03X9539100I7265J7102D01*
G02X9564280Y7269040I25180J-24607D01*
G02X9589900Y7257990I0J-35226D01*
G03X9604460Y7257760I7392J6972D01*
G02X9629310Y7268030I24857J-24947D01*
G02Y7197590I0J-35220D01*
G02X9603690Y7208640I0J35226D01*
G03X9589130Y7208870I-7392J-6972D01*
G02X9564280Y7198600I-24857J24947D01*
G02X9539110Y7209180I0J35230D01*
G03X9524580I-7265J-7102D01*
G02X9499400Y7198580I-25180J24607D01*
G02X9474190Y7209200I0J35232D01*
G03X9459440Y7208980I-7271J-7096D01*
G02X9433500Y7197580I-25940J23812D01*
G02X9409190Y7207310I0J35234D01*
G03X9394920Y7207070I-7013J-7351D01*
G02X9369750Y7196480I-25170J24617D01*
G02Y7266920I0J35220D01*
G02X9394060Y7257190I0J-35234D01*
G03X9408330Y7257430I7013J7351D01*
G02X9433500Y7268020I25170J-24617D01*
G02X9458710Y7257400I0J-35232D01*
G37*
G36*
G01X10344770Y7855480D02*
G03X10345290Y7869920I-6878J7477D01*
G02X10335730Y7894050I25673J24130D01*
G02X10406170I35220J0D01*
G02X10394780Y7868120I-35211J0D01*
G03X10394260Y7853680I6878J-7477D01*
G02X10403820Y7829550I-25673J-24130D01*
G02X10394080Y7805230I-35233J0D01*
G03X10394720Y7790580I7345J-7018D01*
G02X10406720Y7764100I-23216J-26480D01*
G02X10396760Y7739560I-35212J0D01*
G03X10397160Y7725000I7285J-7085D01*
G02X10408520Y7699100I-23858J-25905D01*
G02X10338080I-35220J0D01*
G02X10348040Y7723640I35212J0D01*
G03X10347640Y7738200I-7285J7085D01*
G02X10336280Y7764100I23858J25905D01*
G02X10346020Y7788420I35233J0D01*
G03X10345380Y7803070I-7345J7018D01*
G02X10333380Y7829550I23216J26480D01*
G02X10344770Y7855480I35211J0D01*
G37*
G36*
G01X9396740Y8104890D02*
G03X9411300Y8104280I7577J6773D01*
G02X9435500Y8113920I24208J-25577D01*
G02X9458900Y8105030I7J-35223D01*
G03X9473230Y8105850I6754J7590D01*
G02X9499500Y8117620I26277J-23447D01*
G02X9526160Y8105420I0J-35229D01*
G03X9540710Y8104570I7688J6641D01*
G02X9564500Y8113820I23790J-25968D01*
G02X9590330Y8102540I0J-35214D01*
G03X9604880Y8102190I7445J6912D01*
G02X9629500Y8112220I24620J-25202D01*
G02Y8041780I0J-35220D01*
G02X9603670Y8053060I0J35214D01*
G03X9589120Y8053410I-7445J-6912D01*
G02X9564500Y8043380I-24620J25202D01*
G02X9537840Y8055580I0J35229D01*
G03X9523290Y8056430I-7688J-6641D01*
G02X9499500Y8047180I-23790J25968D01*
G02X9476100Y8056070I-7J35223D01*
G03X9461770Y8055250I-6754J-7590D01*
G02X9435500Y8043480I-26277J23447D01*
G02X9409260Y8055210I0J35214D01*
G03X9394700Y8055820I-7577J-6773D01*
G02X9370500Y8046180I-24208J25577D01*
G02Y8116620I0J35220D01*
G02X9396740Y8104890I0J-35214D01*
G37*
G36*
G01X6278440Y9021030D02*
G03X6277410Y9035040I-7831J6467D01*
G02X6265780Y9061200I23593J26154D01*
G02X6336220I35220J0D01*
G02X6328160Y9038770I-35222J-6D01*
G03X6329190Y9024760I7831J-6467D01*
G02X6340820Y8998600I-23593J-26154D01*
G02X6270380I-35220J0D01*
G02X6278440Y9021030I35222J6D01*
G37*
G36*
G01X15601170Y2397860D02*
G02X15570040Y2379110I-31130J16467D01*
G02Y2449550I0J35220D01*
G02X15601170Y2430800I0J-35217D01*
G03X15619140I8985J4746D01*
G02X15650270Y2449550I31130J-16467D01*
G02Y2379110I0J-35220D01*
G02X15619140Y2397860I0J35217D01*
G03X15601170I-8985J-4746D01*
G37*
G36*
G01X15901170D02*
G02X15870040Y2379110I-31130J16467D01*
G02Y2449550I0J35220D01*
G02X15901170Y2430800I0J-35217D01*
G03X15919140I8985J4746D01*
G02X15950270Y2449550I31130J-16467D01*
G02Y2379110I0J-35220D01*
G02X15919140Y2397860I0J35217D01*
G03X15901170I-8985J-4746D01*
G37*
G36*
G01X18101170D02*
G02X18070040Y2379110I-31130J16467D01*
G02Y2449550I0J35220D01*
G02X18101170Y2430800I0J-35217D01*
G03X18119140I8985J4746D01*
G02X18150270Y2449550I31130J-16467D01*
G02Y2379110I0J-35220D01*
G02X18119140Y2397860I0J35217D01*
G03X18101170I-8985J-4746D01*
G37*
G36*
G01X18401160D02*
G02X18370030Y2379110I-31130J16467D01*
G02Y2449550I0J35220D01*
G02X18401160Y2430800I0J-35217D01*
G03X18419130I8985J4746D01*
G02X18450260Y2449550I31130J-16467D01*
G02Y2379110I0J-35220D01*
G02X18419130Y2397860I0J35217D01*
G03X18401160I-8985J-4746D01*
G37*
G36*
G01X13192970Y2442860D02*
G02X13220040Y2455550I27070J-22528D01*
G02X13251170Y2436800I0J-35217D01*
G03X13269140I8985J4746D01*
G02X13300270Y2455550I31130J-16467D01*
G02Y2385110I0J-35220D01*
G02X13269140Y2403860I0J35217D01*
G03X13251170I-8985J-4746D01*
G02X13220040Y2385110I-31130J16467D01*
G02X13192970Y2397800I0J35218D01*
G03X13177340I-7815J-6493D01*
G02X13150270Y2385110I-27070J22528D01*
G02X13119140Y2403860I0J35217D01*
G03X13101170I-8985J-4746D01*
G02X13070040Y2385110I-31130J16467D01*
G02Y2455550I0J35220D01*
G02X13101170Y2436800I0J-35217D01*
G03X13119140I8985J4746D01*
G02X13150270Y2455550I31130J-16467D01*
G02X13177340Y2442860I0J-35218D01*
G03X13192970I7815J6493D01*
G37*
G36*
G01X20601170Y2403860D02*
G02X20570040Y2385110I-31130J16467D01*
G02Y2455550I0J35220D01*
G02X20601170Y2436800I0J-35217D01*
G03X20619140I8985J4746D01*
G02X20650270Y2455550I31130J-16467D01*
G02Y2385110I0J-35220D01*
G02X20619140Y2403860I0J35217D01*
G03X20601170I-8985J-4746D01*
G37*
G36*
G01X23101170D02*
G02X23070040Y2385110I-31130J16467D01*
G02Y2455550I0J35220D01*
G02X23101170Y2436800I0J-35217D01*
G03X23119140I8985J4746D01*
G02X23150270Y2455550I31130J-16467D01*
G02Y2385110I0J-35220D01*
G02X23119140Y2403860I0J35217D01*
G03X23101170I-8985J-4746D01*
G37*
G36*
G01X23401160D02*
G02X23370030Y2385110I-31130J16467D01*
G02Y2455550I0J35220D01*
G02X23401160Y2436800I0J-35217D01*
G03X23419130I8985J4746D01*
G02X23450260Y2455550I31130J-16467D01*
G02Y2385110I0J-35220D01*
G02X23419130Y2403860I0J35217D01*
G03X23401160I-8985J-4746D01*
G37*
G36*
G01X25601170D02*
G02X25570040Y2385110I-31130J16467D01*
G02Y2455550I0J35220D01*
G02X25601170Y2436800I0J-35217D01*
G03X25619140I8985J4746D01*
G02X25650270Y2455550I31130J-16467D01*
G02Y2385110I0J-35220D01*
G02X25619140Y2403860I0J35217D01*
G03X25601170I-8985J-4746D01*
G37*
G36*
G01X25901170D02*
G02X25870040Y2385110I-31130J16467D01*
G02Y2455550I0J35220D01*
G02X25901170Y2436800I0J-35217D01*
G03X25919140I8985J4746D01*
G02X25950270Y2455550I31130J-16467D01*
G02Y2385110I0J-35220D01*
G02X25919140Y2403860I0J35217D01*
G03X25901170I-8985J-4746D01*
G37*
G36*
G01X28101120Y2404060D02*
G02X28069990Y2385310I-31130J16467D01*
G02Y2455750I0J35220D01*
G02X28101120Y2437000I0J-35217D01*
G03X28119090I8985J4746D01*
G02X28150220Y2455750I31130J-16467D01*
G02Y2385310I0J-35220D01*
G02X28119090Y2404060I0J35217D01*
G03X28101120I-8985J-4746D01*
G37*
G36*
G01X28401120D02*
G02X28369990Y2385310I-31130J16467D01*
G02Y2455750I0J35220D01*
G02X28401120Y2437000I0J-35217D01*
G03X28419090I8985J4746D01*
G02X28450220Y2455750I31130J-16467D01*
G02Y2385310I0J-35220D01*
G02X28419090Y2404060I0J35217D01*
G03X28401120I-8985J-4746D01*
G37*
G36*
G01X20901160Y2413870D02*
G02X20870030Y2395120I-31130J16467D01*
G02Y2465560I0J35220D01*
G02X20901160Y2446810I0J-35217D01*
G03X20919130I8985J4746D01*
G02X20950260Y2465560I31130J-16467D01*
G02Y2395120I0J-35220D01*
G02X20919130Y2413870I0J35217D01*
G03X20901160I-8985J-4746D01*
G37*
G36*
G01X26293940Y3374120D02*
G02X26276580Y3408500I25363J34380D01*
G02X26319300Y3451220I42720J0D01*
G02X26354680Y3432450I0J-42729D01*
G03X26371910Y3433100I8412J5693D01*
G02X26409000Y3454620I37090J-21203D01*
G02X26451720Y3411900I0J-42720D01*
G02X26431440Y3375550I-42717J0D01*
G03X26431110Y3358470I5336J-8646D01*
G02X26450020Y3323000I-23811J-35470D01*
G02X26407300Y3280280I-42720J0D01*
G02X26371950Y3299010I0J42724D01*
G03X26355370Y3299330I-8403J-5709D01*
G02X26321000Y3281980I-34370J25368D01*
G02X26278280Y3324700I0J42720D01*
G02X26294270Y3358020I42711J0D01*
G03X26293940Y3374120I-6361J7923D01*
G37*
G36*
G01X10374070Y3935330D02*
G03X10388170Y3935370I7029J7336D01*
G02X10412700Y3945320I24530J-25262D01*
G02X10447630Y3914630I0J-35223D01*
G03X10460410Y3906150I10072J1310D01*
G02X10469800Y3907420I9373J-33952D01*
G02X10485360Y3903800I7J-35222D01*
G03X10499980Y3912150I4490J9113D01*
G02X10535100Y3944720I35120J-2650D01*
G02Y3874280I0J-35220D01*
G02X10519540Y3877900I-7J35222D01*
G03X10504920Y3869550I-4490J-9113D01*
G02X10469800Y3836980I-35120J2650D01*
G02X10434870Y3867670I0J35223D01*
G03X10422090Y3876150I-10072J-1310D01*
G02X10412700Y3874880I-9373J33952D01*
G02X10388330Y3884670I0J35227D01*
G03X10374230Y3884630I-7029J-7336D01*
G02X10349700Y3874680I-24530J25262D01*
G02X10325840Y3884000I6J35218D01*
G03X10312050Y3883970I-6879J-7477D01*
G02X10288100Y3874580I-23944J25832D01*
G02Y3945020I0J35220D01*
G02X10311960Y3935700I-6J-35218D01*
G03X10325750Y3935730I6879J7477D01*
G02X10349700Y3945120I23944J-25832D01*
G02X10374070Y3935330I0J-35227D01*
G37*
G36*
G01X8893430Y4699070D02*
G02X8874680Y4730200I16467J31130D01*
G02X8945120I35220J0D01*
G02X8926370Y4699070I-35217J0D01*
G03Y4681100I4746J-8985D01*
G02X8945120Y4649970I-16467J-31130D01*
G02X8874680I-35220J0D01*
G02X8893430Y4681100I35217J0D01*
G03Y4699070I-4746J8985D01*
G37*
G36*
G01X8869530Y5901100D02*
G02X8856180Y5928700I21867J27606D01*
G02X8926620I35220J0D01*
G02X8912810Y5900730I-35229J0D01*
G03X8912670Y5884700I6174J-8070D01*
G02X8926020Y5857100I-21867J-27606D01*
G02X8855580I-35220J0D01*
G02X8869390Y5885070I35229J0D01*
G03X8869530Y5901100I-6174J8070D01*
G37*
G54D23*
X12860150Y3383500D03*
X15360150Y3377500D03*
X17860150D03*
X20360150Y3383500D03*
X25360150Y3544100D03*
X27860100Y3482800D03*
X9589130Y4410320D03*
X9889130D03*
X10374270D03*
X9689130Y4510320D03*
X9789130D03*
X9389130Y4610320D03*
X9489130D03*
X9689130D03*
X9789130D03*
X10074270D03*
X10374270D03*
X9089130Y4710320D03*
X9189130D03*
X9289130D03*
X9389130D03*
X9489130D03*
X9589130D03*
X9689130D03*
X9789130D03*
X10074270D03*
X9389130Y4810320D03*
X9489130D03*
X9689130D03*
X9889130D03*
X10174270D03*
X10374270D03*
X9289130Y4910320D03*
X9389130D03*
X9489130D03*
X9589130D03*
X9689130D03*
X9789130D03*
X10074270D03*
X10274270D03*
X10674270D03*
X9289130Y5095460D03*
X9389130D03*
X9489130D03*
X9689130D03*
X9889130D03*
X10174270D03*
X10374270D03*
X10474270D03*
X10574270D03*
X9389130Y5195460D03*
X9489130D03*
X9589130D03*
X9789130D03*
X10074270D03*
X10474270D03*
X10574270D03*
X9289130Y5295460D03*
X9389130D03*
X9489130D03*
X9789130D03*
X9889130D03*
X10174270D03*
X10274270D03*
X10374270D03*
X10474270D03*
X10574270D03*
X9389130Y5395460D03*
X9489130D03*
X9589130D03*
X9689130D03*
X9789130D03*
X9889130D03*
X10074270D03*
X10274270D03*
X10374270D03*
X10474270D03*
X10574270D03*
X9389130Y5495460D03*
X9489130D03*
X9689130D03*
X9789130D03*
X9889130D03*
X10274270D03*
X10474270D03*
X10574270D03*
X9289130Y5595460D03*
X9389130D03*
X9489130D03*
X9589130D03*
X9689130D03*
X9789130D03*
X9889130D03*
X10074270D03*
X10174270D03*
X10374270D03*
X10474270D03*
X10574270D03*
X9389130Y5695460D03*
X9489130D03*
X9689130D03*
X9789130D03*
X9889130D03*
X10074270D03*
X10174270D03*
X10274270D03*
X10474270D03*
X10574270D03*
X9589130Y5795460D03*
X9689130D03*
X10274270D03*
X10474270D03*
X10574270D03*
X9589130Y5895460D03*
X9689130D03*
G54D19*
X5311100Y562800D03*
X5564990Y570400D03*
X5974290Y964610D03*
X6056120D03*
X12769590Y1791870D03*
X12851420D03*
X15268750Y1787900D03*
X15350580D03*
X17769240Y1783420D03*
X17851070D03*
X20270190Y1803690D03*
X20352020D03*
X22765490Y1797630D03*
X22847320D03*
X25267790Y1815770D03*
X25349620D03*
X27768290Y1808520D03*
X27850120D03*
X12271900Y2366900D03*
X14151700Y2397600D03*
X14770300Y2390800D03*
X24767600Y2385700D03*
X26621800Y2394200D03*
X27263500Y2379700D03*
X29142500Y2411300D03*
X16750150Y2494150D03*
X17170150Y2488650D03*
X19250150Y2478650D03*
X19670150Y2497050D03*
X21750150Y2485350D03*
X22170150Y2486350D03*
X24250150Y2495450D03*
X13910150Y2850350D03*
X14458350D03*
X16410150Y2844350D03*
X16957500Y2847080D03*
X18910150Y2844350D03*
X19457500Y2847680D03*
X21410150Y2850350D03*
X21958900Y2848780D03*
X23910150Y2850350D03*
X24459000Y2849680D03*
X26410150Y2850350D03*
X26958800Y2851580D03*
X28910100Y2850550D03*
X29456600Y2850300D03*
X17909600Y3316200D03*
X20409000Y3323900D03*
X27910800Y3366300D03*
X12905900Y3510200D03*
X15408600D03*
X10685700Y4099500D03*
X25408400Y4268900D03*
X12864900Y4655100D03*
X25261500Y4665400D03*
X17851500Y4720100D03*
X8698350Y4779800D03*
X8780180D03*
X19410100Y5232800D03*
X14512300Y5637800D03*
X1100200Y5774700D03*
X909900Y5820900D03*
X3631200Y5808700D03*
X3328400Y5857900D03*
X9062000Y5857100D03*
X10087900Y5910900D03*
X10230700Y5925900D03*
X10088600Y6095400D03*
X10244400Y6094100D03*
X22860400Y6415400D03*
X9174400Y7228300D03*
X10675600Y7439200D03*
X10741500Y7503300D03*
X6648500Y7606800D03*
X8684300Y7564800D03*
X10823900Y7568300D03*
X10895900Y7633200D03*
X6296000Y7766700D03*
X11515200Y7968300D03*
X9173700Y8081000D03*
X10514650Y8638250D03*
X10349800Y8736800D03*
X10695390Y8777910D03*
X5535800Y8850500D03*
X4811500Y8976700D03*
X5537200Y8978300D03*
X4809100Y9103600D03*
X13105900Y9358200D03*
X15636000Y9355400D03*
X18136800Y9368100D03*
X20645300Y9358400D03*
X23134600Y9356600D03*
X25685200Y9363500D03*
X28171500Y9359400D03*
X10695390Y9440970D03*
X14630700Y9603500D03*
X19685600Y9598600D03*
X24674900Y9592700D03*
G54D18*
X508000Y533400D03*
X30692000Y1358400D03*
X508000Y9072400D03*
X30692000Y9897400D03*
G54D20*
X5464990Y575390D03*
X2207600Y1858900D03*
X2307600D03*
X2407600D03*
X6497200Y1910600D03*
X6597200D03*
X6697200D03*
X6797200D03*
X6897200D03*
X2207600Y1958900D03*
X2307600D03*
X2407600D03*
X2207600Y2058900D03*
X2307600D03*
X2407600D03*
X6497200Y2010600D03*
X6597200D03*
X6697200D03*
X6797200D03*
X6897200D03*
X2207600Y2158900D03*
X2307600D03*
X2407600D03*
X2207600Y2258900D03*
X2307600D03*
X2407600D03*
X2207600Y2358900D03*
X2307600D03*
X2407600D03*
X5311000Y2710500D03*
X5411000D03*
X5511000D03*
X6485300Y2706200D03*
X6585300D03*
X6685300D03*
X6785300D03*
X5311000Y2810500D03*
X5411000D03*
X5511000D03*
X6485300Y2806200D03*
X6585300D03*
X6685300D03*
X6785300D03*
X5311000Y2910500D03*
X5411000D03*
X5511000D03*
X799200Y3339400D03*
X1113500Y3290000D03*
X11951400Y3286300D03*
X12051400D03*
X13815100Y3310200D03*
X13915100D03*
X14435300Y3288000D03*
X14535300D03*
X16316900Y3308500D03*
X16416900D03*
X16957800Y3288000D03*
X17057800D03*
X18817100Y3305100D03*
X18917100D03*
X19440900Y3282800D03*
X19540900D03*
X21313800Y3296500D03*
X21413800D03*
X21942700Y3281200D03*
X22042700D03*
X23812300Y3315300D03*
X23912300D03*
X24454800Y3284500D03*
X24554800D03*
X26929400Y3276100D03*
X27029400D03*
X28812700Y3308500D03*
X28912700D03*
X11951400Y3386300D03*
X12051400D03*
X13815100Y3410200D03*
X13915100D03*
X14435300Y3388000D03*
X14535300D03*
X16316900Y3408500D03*
X16416900D03*
X16957800Y3388000D03*
X17057800D03*
X18817100Y3405100D03*
X18917100D03*
X19440900Y3382800D03*
X19540900D03*
X21313800Y3396500D03*
X21413800D03*
X21942700Y3381200D03*
X22042700D03*
X23812300Y3415300D03*
X23912300D03*
X24454800Y3384500D03*
X24554800D03*
X26929400Y3376100D03*
X27029400D03*
X28812700Y3408500D03*
X28912700D03*
X6569000Y3560600D03*
X6669000D03*
X6769000D03*
X6869000D03*
X6569000Y3660600D03*
X6669000D03*
X6769000D03*
X6869000D03*
X2369500Y4299200D03*
X2469500D03*
X2569500D03*
X2369500Y4399200D03*
X2469500D03*
X2569500D03*
X2369500Y4499200D03*
X2469500D03*
X2569500D03*
X4865200Y4461100D03*
X4965200D03*
X5065200D03*
X5165200D03*
X5265200D03*
X5365200D03*
X2369500Y4599200D03*
X2469500D03*
X2569500D03*
X4865200Y4561100D03*
X4965200D03*
X5065200D03*
X5165200D03*
X5265200D03*
X5365200D03*
X6518700Y4578200D03*
X6618700D03*
X6718700D03*
X4865200Y4661100D03*
X4965200D03*
X5065200D03*
X5165200D03*
X5265200D03*
X5365200D03*
X2369500Y4699200D03*
X2469500D03*
X2569500D03*
X6518700Y4678200D03*
X6618700D03*
X6718700D03*
X2369500Y4799200D03*
X2469500D03*
X2569500D03*
X4865200Y4761100D03*
X4965200D03*
X5065200D03*
X5165200D03*
X5265200D03*
X5365200D03*
X6518700Y4778200D03*
X6618700D03*
X6718700D03*
X4865200Y4861100D03*
X4965200D03*
X5065200D03*
X5165200D03*
X5265200D03*
X5365200D03*
X6418700Y5226800D03*
X6518700D03*
X6618700D03*
X6718700D03*
X6818700D03*
X6418700Y5326800D03*
X6518700D03*
X6618700D03*
X6718700D03*
X6818700D03*
X6418700Y5426800D03*
X6518700D03*
X6618700D03*
X6718700D03*
X6818700D03*
X6537500Y6366600D03*
X6637500D03*
X6737500D03*
X6837500D03*
X6937500D03*
X6537500Y6466600D03*
X6637500D03*
X6737500D03*
X6837500D03*
X6937500D03*
X9156500Y6766000D03*
Y6866000D03*
Y6966000D03*
X11046100Y8158700D03*
X11146100D03*
X10416000Y8207400D03*
X10516000D03*
X9196200Y8613300D03*
X9293700Y8614900D03*
X9196200Y8713300D03*
X9293700Y8714900D03*
X5090100Y8762900D03*
X5190100D03*
X5090100Y8862900D03*
X5190100D03*
X5957300Y8971400D03*
X6057300D03*
X7122900Y8983300D03*
X5957300Y9071400D03*
X6057300D03*
X7122900Y9083300D03*
X10320600Y9127600D03*
X10420600D03*
X10320600Y9227600D03*
X10420600D03*
G54D21*
X12210150Y2761000D03*
X14710150Y2755000D03*
X17210150D03*
X19710150Y2761000D03*
X22210150D03*
X24710150D03*
X27210100Y2761200D03*
G54D26*
X6340900Y10024200D03*
X6594900D03*
X6848900D03*
X5077200Y10107900D03*
X5331200D03*
X8085800Y10091200D03*
X8339800D03*
X8593800D03*
X8847800D03*
X9101800D03*
G54D22*
X14210150Y2766000D03*
X16710150Y2760000D03*
X19210150D03*
X21710150Y2766000D03*
X24210150D03*
X26710150D03*
X29210100Y2766200D03*
G54D25*
X2682200Y9439410D03*
X3102200D03*
X3522200D03*
X2682200Y9859410D03*
X3102200D03*
X3522200D03*
G54D24*
X13210150Y5611000D03*
X15710150Y5605000D03*
X18210150D03*
X20710150Y5611000D03*
X23210150D03*
X25710150D03*
X28210100Y5611200D03*
X13210150Y6811000D03*
X15710150Y6805000D03*
X18210150D03*
X20710150Y6811000D03*
X23210150D03*
X25710150D03*
X28210100Y6811200D03*
X13210150Y8611000D03*
X15710150Y8605000D03*
X18210150D03*
X20710150Y8611000D03*
X23210150D03*
X25710150D03*
X28210100Y8611200D03*
%LPD*%
G75*
G54D10*
X803900Y3254500D03*
X766400Y3624500D03*
Y3784500D03*
X798800Y5736200D03*
X768400Y6108700D03*
Y6268700D03*
X909900Y5820900D03*
X1100200Y5774700D03*
X1165500Y5210500D03*
X1165000Y7692900D03*
X1531400Y2033000D03*
Y2193000D03*
X1532400Y2353000D03*
Y2513000D03*
X1530400Y3071000D03*
X1524300Y5546000D03*
X1688700Y4511400D03*
Y4672400D03*
Y4832400D03*
Y4993400D03*
X1792700Y3066700D03*
X1797800Y5532300D03*
X1890100Y3536700D03*
X1880700Y6012100D03*
X1977800Y8247500D03*
X1976300Y8411000D03*
X2172000Y3526400D03*
X2172100Y6002700D03*
X2202120Y7914100D03*
X2201520Y8015600D03*
Y8116500D03*
X2489740Y3400680D03*
X2492040Y5882080D03*
X2917200Y2590000D03*
Y2750000D03*
Y2910000D03*
X2916200Y3070000D03*
X2910500Y5055400D03*
X2911500Y5215400D03*
Y5375400D03*
Y5535400D03*
X3330000Y5772800D03*
X3328400Y5857900D03*
X3296800Y6144200D03*
Y6304200D03*
X3631200Y5808700D03*
X3692000Y7726700D03*
X3764100Y4326300D03*
X4062200Y2663100D03*
X4055700Y5578000D03*
X4180000Y4541000D03*
Y4701000D03*
Y4861000D03*
Y5021000D03*
X4211200Y9728700D03*
X4224900Y2663100D03*
X4319300Y5574600D03*
X4421900Y6048000D03*
X4564990Y582500D03*
X4650920Y2820160D03*
X4696200Y6040200D03*
X4794310Y3923600D03*
X4748800Y8636760D03*
X4811500Y8976700D03*
X4809100Y9103600D03*
X4864990Y582510D03*
X4886700Y3813900D03*
X4829900Y8679360D03*
X4842800Y10042000D03*
X4922400Y3873400D03*
X4970000Y2395100D03*
X4981500Y3347900D03*
X4984100Y3448300D03*
Y3529400D03*
X4984900Y3618300D03*
X5019940Y5916380D03*
X5131000Y2395100D03*
X5215700Y598100D03*
X5311100Y562800D03*
X5290200Y3553600D03*
X5451200D03*
X5441700Y5096500D03*
X5441400Y5260700D03*
X5440400Y5420700D03*
Y5580700D03*
X5427450Y9299050D03*
X5535800Y8850500D03*
X5537200Y8978300D03*
X5564990Y570400D03*
X5912900Y558800D03*
X5974290Y964610D03*
X6056120D03*
X6019100Y8655360D03*
X6100200Y8698160D03*
X6088160Y10130880D03*
X6213300Y559300D03*
X6296000Y7766700D03*
X6239900Y8652620D03*
X6359800Y2379700D03*
X6325600Y3190600D03*
X6305600Y8998600D03*
X6301000Y9061200D03*
X6411900Y574200D03*
X6444900Y4087560D03*
X6415700Y4289020D03*
Y5087880D03*
X6444600Y5897860D03*
X6440500Y5943640D03*
X6440400Y6884260D03*
X6448300Y1552720D03*
X6448900Y2355280D03*
X6549300Y1552520D03*
X6554900Y2355280D03*
X6531600Y3135100D03*
X6566600Y3238620D03*
X6565900Y3993280D03*
X6565800Y5803880D03*
X6561200Y6037420D03*
X6560800Y6790280D03*
X6650200Y1552620D03*
X6667900Y2355380D03*
X6667400Y3238620D03*
X6666500Y3993280D03*
X6666300Y5803980D03*
X6661500Y6037220D03*
X6661400Y6790380D03*
X6648500Y7606800D03*
X6723000Y556300D03*
X6678350Y8868780D03*
X6768100Y3238820D03*
X6767600Y3993480D03*
X6912600Y574200D03*
X6919100Y8729080D03*
X7000500Y8668920D03*
X7116000Y581000D03*
X7309100D03*
X7515900Y582800D03*
X7765010Y582500D03*
X7865010Y582510D03*
X8114000Y582700D03*
X8303700Y584500D03*
X8505400Y587900D03*
X8708700Y582700D03*
X8698350Y4779800D03*
X8684300Y7564800D03*
X8780180Y4779800D03*
X8816020Y6735200D03*
Y6836200D03*
Y6937800D03*
X8815920Y7039000D03*
X8815520Y7140500D03*
X8865010Y582510D03*
X8891400Y5928700D03*
X8890800Y5857100D03*
X8824560Y8219200D03*
X8824220Y8381700D03*
X8823720Y8484200D03*
X8823120Y8585800D03*
Y8687400D03*
X8822620Y8789600D03*
X8909900Y4649970D03*
Y4730200D03*
X8991580Y7362080D03*
X9103500Y577600D03*
X9062000Y5857100D03*
X9174400Y7228300D03*
X9173700Y8081000D03*
X9305100Y581000D03*
X9369750Y7231700D03*
X9370500Y8081400D03*
X9433500Y7232800D03*
X9435500Y8078700D03*
X9515300Y593000D03*
X9511700Y6457200D03*
X9557500Y6504300D03*
X9499400Y7233800D03*
X9499500Y8082400D03*
X9629310Y7232810D03*
X9564280Y7233820D03*
X9629500Y8077000D03*
X9564500Y8078600D03*
X9809300Y582700D03*
X9857200Y7254700D03*
X9856500Y7308900D03*
X10014400Y591300D03*
X10042300Y9433640D03*
X10087900Y5910900D03*
X10088600Y6095400D03*
X10121720Y8111000D03*
X10205800Y593000D03*
X10169880Y7969800D03*
Y8030800D03*
X10163000Y9530260D03*
X10288100Y3909800D03*
X10230700Y5925900D03*
X10244400Y6094100D03*
X10349700Y3909900D03*
X10373300Y7699100D03*
X10371500Y7764100D03*
X10368600Y7829550D03*
X10370950Y7894050D03*
X10349800Y8736800D03*
X10335350Y9455250D03*
X10412500Y589600D03*
X10412700Y3910100D03*
X10407630Y7308770D03*
X10410600Y10240100D03*
X10469800Y3872200D03*
X10468600Y4086100D03*
X10514650Y8638250D03*
X10535100Y3909500D03*
Y4084200D03*
X10615650Y585950D03*
X10602900Y3910400D03*
Y4079300D03*
X10631700Y6091800D03*
X10681400Y3909500D03*
X10685700Y4099500D03*
X10694600Y6091200D03*
X10675600Y7439200D03*
X10741500Y7503300D03*
X10695390Y8777910D03*
Y9440970D03*
X10807300Y587900D03*
X10759700Y6092200D03*
X10790400Y8738500D03*
X10831100Y6092200D03*
X10823900Y7568300D03*
X10905600Y6092300D03*
X10895900Y7633200D03*
X11003800Y594700D03*
X11207200Y582700D03*
X11218770Y7308770D03*
X11414000Y591300D03*
X11362600Y10240100D03*
X11449220Y7962100D03*
X11449120Y8022700D03*
X11515200Y7968300D03*
X11497280Y8103100D03*
X11605400Y587900D03*
X11801900Y589600D03*
X12001800D03*
X11995700Y2130660D03*
Y2362220D03*
X12062150Y2130360D03*
Y2361920D03*
X12205200Y596400D03*
X12159150Y3438240D03*
X12285150Y2121500D03*
X12271900Y2366900D03*
X12259850Y3438240D03*
X12335150Y2092690D03*
X12341150Y3377940D03*
X12410300Y582700D03*
X12385150Y2121500D03*
X12402450Y3377940D03*
X12608500Y577600D03*
X12649400Y2233500D03*
X12801600Y584500D03*
X12769590Y1791870D03*
X12851420D03*
X12840100Y2395900D03*
X12864900Y4655100D03*
X12905900Y3510200D03*
X13035150Y2121500D03*
X13070040Y2420330D03*
X13105900Y9358200D03*
X13185150Y2121500D03*
X13150270Y2420330D03*
X13220040D03*
X13335150Y2121500D03*
X13300270Y2420330D03*
X13485150Y2121500D03*
X13635150D03*
X13589550Y3443280D03*
X13672450Y3381620D03*
X13785150Y2121500D03*
X13734350Y3381620D03*
X13910150Y2850350D03*
X13935150Y2121500D03*
X13995850Y3381440D03*
X14058850D03*
X14085150Y2121500D03*
X14135150Y2092690D03*
X14151700Y2397600D03*
X14142050Y3440940D03*
X14159000Y9603500D03*
X14243750Y3441240D03*
X14371750Y2805900D03*
X14501400Y2117660D03*
Y2349220D03*
X14458350Y2850350D03*
X14512300Y5637800D03*
X14566750Y2117660D03*
Y2349220D03*
X14671450Y3433440D03*
X14630700Y9603500D03*
X14785150Y2115500D03*
X14770300Y2390800D03*
X14772550Y3433440D03*
X14835150Y2086690D03*
X14885150Y2115500D03*
X14854850Y3372540D03*
X14915650Y3373040D03*
X15154100Y2227500D03*
X15268750Y1787900D03*
X15317200Y2433500D03*
X15350580Y1787900D03*
X15408600Y3510200D03*
X15535150Y2115500D03*
X15570040Y2414330D03*
X15636000Y9355400D03*
X15685150Y2115500D03*
X15650270Y2414330D03*
X15835150Y2115500D03*
X15870040Y2414330D03*
X15985150Y2115500D03*
X15950270Y2414330D03*
X16135150Y2115500D03*
X16094050Y3439580D03*
X16176550Y3378420D03*
X16285150Y2115500D03*
X16237850Y3378420D03*
X16435150Y2115500D03*
X16410150Y2844350D03*
X16500450Y3383540D03*
X16585150Y2115500D03*
X16561050Y3383440D03*
X16635150Y2086690D03*
X16641550Y3442040D03*
X16750150Y2494150D03*
X16743250Y3441840D03*
X16871750Y2801200D03*
X16957500Y2847080D03*
X17003100Y2116860D03*
Y2348420D03*
X17068650Y2117160D03*
Y2348720D03*
X17170150Y2488650D03*
X17171950Y3442440D03*
X17285150Y2115500D03*
X17335150Y2086690D03*
X17274150Y3442440D03*
X17385150Y2115500D03*
X17355950Y3382140D03*
X17417250Y3381240D03*
X17662800Y2227500D03*
X17769240Y1783420D03*
X17851070D03*
X17851500Y4720100D03*
X17885150Y2367450D03*
X17909600Y3316200D03*
X18035150Y2115500D03*
X18070040Y2414330D03*
X18150270D03*
X18136800Y9368100D03*
X18185150Y2115500D03*
X18335150D03*
X18370030Y2414330D03*
X18450260D03*
X18485150Y2115500D03*
X18593850Y3447880D03*
X18635150Y2115500D03*
X18676050Y3386520D03*
X18737750Y3386820D03*
X18785150Y2115500D03*
X18935150D03*
X18910150Y2844350D03*
X18993350Y3386140D03*
X19085150Y2115500D03*
X19055350Y3385640D03*
X19135150Y2086690D03*
X19136850Y3446740D03*
X19250150Y2478650D03*
X19238450Y3446540D03*
X19223900Y9598600D03*
X19371850Y2804000D03*
X19410100Y5232800D03*
X19457500Y2847680D03*
X19499400Y2120760D03*
X19564950Y2120560D03*
X19499400Y2352320D03*
X19564950Y2352120D03*
X19670150Y2497050D03*
X19660150Y3446240D03*
X19685600Y9598600D03*
X19785150Y2121500D03*
X19760950Y3446440D03*
X19835150Y2092690D03*
X19843450Y3385240D03*
X19885150Y2121500D03*
X19905550Y3385240D03*
X20163800Y2233500D03*
X20270190Y1803690D03*
X20352020D03*
X20385150Y2355650D03*
X20409000Y3323900D03*
X20535150Y2121500D03*
X20570040Y2420330D03*
X20650270D03*
X20645300Y9358400D03*
X20685150Y2121500D03*
X20835150D03*
X20870030Y2430340D03*
X20950260D03*
X20985150Y2121500D03*
X21092050Y3449580D03*
X21135150Y2121500D03*
X21173850Y3390520D03*
X21235950D03*
X21285150Y2121500D03*
X21410150Y2850350D03*
X21435150Y2121500D03*
X21496850Y3381940D03*
X21558150Y3381740D03*
X21585150Y2121500D03*
X21635150Y2092690D03*
X21640650Y3442040D03*
X21750150Y2485350D03*
X21741850Y3441240D03*
X21873150Y2804800D03*
X21998900Y2121460D03*
Y2353020D03*
X21958900Y2848780D03*
X22065250Y2121260D03*
Y2352820D03*
X22170150Y2486350D03*
Y3447040D03*
X22285150Y2121500D03*
X22271050Y3446640D03*
X22335150Y2092690D03*
X22385150Y2121500D03*
X22351750Y3385740D03*
X22412750Y3385540D03*
X22665700Y2233500D03*
X22765490Y1797630D03*
X22847320D03*
X22885150Y2348950D03*
X22860400Y6415400D03*
X22913400Y3378600D03*
X23035150Y2121500D03*
X23070040Y2420330D03*
X23185150Y2121500D03*
X23150270Y2420330D03*
X23134600Y9356600D03*
X23335150Y2121500D03*
X23370030Y2420330D03*
X23485150Y2121500D03*
X23450260Y2420330D03*
X23635150Y2121500D03*
X23591250Y3447780D03*
X23672850Y3386820D03*
X23785150Y2121500D03*
X23734350Y3385720D03*
X23935150Y2121500D03*
X23910150Y2850350D03*
X24002550Y3381640D03*
X24085150Y2121500D03*
X24063350Y3381940D03*
X24135150Y2092690D03*
X24144250Y3442140D03*
X24213500Y9592700D03*
X24250150Y2495450D03*
X24245950Y3441440D03*
X24372750Y2806700D03*
X24459000Y2849680D03*
X24495200Y2123160D03*
Y2354720D03*
X24561550Y2122560D03*
Y2354120D03*
X24665850Y3439640D03*
X24674900Y9592700D03*
X24785150Y2121500D03*
X24767600Y2385700D03*
X24767050Y3439940D03*
X24835150Y2092690D03*
X24885150Y2121500D03*
X24848550Y3384740D03*
X24910550Y3383540D03*
X25150400Y2233500D03*
X25267790Y1815770D03*
X25261500Y4665400D03*
X25349620Y1815770D03*
X25385150Y2361150D03*
X25408400Y4268900D03*
X25535150Y2121500D03*
X25570040Y2420330D03*
X25685150Y2121500D03*
X25650270Y2420330D03*
X25685200Y9363500D03*
X25835150Y2121500D03*
X25870040Y2420330D03*
X25985150Y2121500D03*
X25950270Y2420330D03*
X26135150Y2121500D03*
X26097350Y3444680D03*
X26178550Y3382920D03*
X26240050Y3382320D03*
X26285150Y2121500D03*
X26435150D03*
X26410150Y2850350D03*
X26491250Y3383740D03*
X26585150Y2121500D03*
X26552750Y3383240D03*
X26635150Y2092690D03*
X26621800Y2394200D03*
X26634550Y3443440D03*
X26736350Y3444040D03*
X26872850Y2807600D03*
X26958800Y2851580D03*
X26996100Y2122060D03*
X27002200Y2354320D03*
X27068000Y2122360D03*
Y2353920D03*
X27174700Y3439540D03*
X27263500Y2379700D03*
X27275700Y3439340D03*
X27285100Y2121700D03*
X27335100Y2092890D03*
X27385100Y2121700D03*
X27357400Y3378040D03*
X27419500Y3378640D03*
X27657500Y2233700D03*
X27768290Y1808520D03*
X27850120D03*
X27831500Y2392500D03*
X27910800Y3366300D03*
X28035100Y2121700D03*
X28069990Y2420530D03*
X28150220D03*
X28185100Y2121700D03*
X28171500Y9359400D03*
X28335100Y2121700D03*
X28369990Y2420530D03*
X28450220D03*
X28485100Y2121700D03*
X28591100Y3453380D03*
X28635100Y2121700D03*
X28672300Y3387620D03*
X28733200Y3388020D03*
X28785100Y2121700D03*
X28935100D03*
X28910100Y2850550D03*
X29001600Y3386740D03*
X29085100Y2121700D03*
X29062200Y3386440D03*
X29135100Y2092890D03*
X29142500Y2411300D03*
X29143400Y3446140D03*
X29245500Y3445540D03*
X29370700Y2807600D03*
X29456600Y2850300D03*
G54D11*
X799200Y3339400D03*
X1113500Y3290000D03*
X2207600Y1858900D03*
Y1958900D03*
Y2058900D03*
Y2158900D03*
Y2258900D03*
Y2358900D03*
X2307600Y1858900D03*
Y1958900D03*
Y2058900D03*
Y2158900D03*
Y2258900D03*
Y2358900D03*
X2369500Y4299200D03*
Y4399200D03*
Y4499200D03*
Y4599200D03*
Y4699200D03*
Y4799200D03*
X2407600Y1858900D03*
Y1958900D03*
Y2058900D03*
Y2158900D03*
Y2258900D03*
Y2358900D03*
X2469500Y4299200D03*
Y4399200D03*
Y4499200D03*
Y4599200D03*
Y4699200D03*
Y4799200D03*
X2569500Y4299200D03*
Y4399200D03*
Y4499200D03*
Y4599200D03*
Y4699200D03*
Y4799200D03*
X4865200Y4461100D03*
Y4561100D03*
Y4661100D03*
Y4761100D03*
Y4861100D03*
X4965200Y4461100D03*
Y4561100D03*
Y4661100D03*
Y4761100D03*
Y4861100D03*
X5065200Y4461100D03*
Y4561100D03*
Y4661100D03*
Y4761100D03*
Y4861100D03*
X5090100Y8762900D03*
Y8862900D03*
X5165200Y4461100D03*
Y4561100D03*
Y4661100D03*
Y4761100D03*
Y4861100D03*
X5190100Y8762900D03*
Y8862900D03*
X5265200Y4461100D03*
Y4561100D03*
Y4661100D03*
Y4761100D03*
Y4861100D03*
X5311000Y2710500D03*
Y2810500D03*
Y2910500D03*
X5411000Y2710500D03*
Y2810500D03*
Y2910500D03*
X5365200Y4461100D03*
Y4561100D03*
Y4661100D03*
Y4761100D03*
Y4861100D03*
X5464990Y575390D03*
X5511000Y2710500D03*
Y2810500D03*
Y2910500D03*
X5957300Y8971400D03*
Y9071400D03*
X6057300Y8971400D03*
Y9071400D03*
X6418700Y5226800D03*
Y5326800D03*
Y5426800D03*
X6497200Y1910600D03*
Y2010600D03*
X6485300Y2706200D03*
Y2806200D03*
X6518700Y4578200D03*
Y4678200D03*
Y4778200D03*
Y5226800D03*
Y5326800D03*
Y5426800D03*
X6597200Y1910600D03*
Y2010600D03*
X6585300Y2706200D03*
Y2806200D03*
X6569000Y3560600D03*
Y3660600D03*
X6537500Y6366600D03*
Y6466600D03*
X6669000Y3560600D03*
Y3660600D03*
X6618700Y4578200D03*
Y4678200D03*
Y4778200D03*
Y5226800D03*
Y5326800D03*
Y5426800D03*
X6637500Y6366600D03*
Y6466600D03*
X6697200Y1910600D03*
Y2010600D03*
X6685300Y2706200D03*
Y2806200D03*
X6718700Y4578200D03*
Y4678200D03*
Y4778200D03*
Y5226800D03*
Y5326800D03*
Y5426800D03*
X6737500Y6366600D03*
Y6466600D03*
X6797200Y1910600D03*
Y2010600D03*
X6785300Y2706200D03*
Y2806200D03*
X6769000Y3560600D03*
Y3660600D03*
X6818700Y5226800D03*
Y5326800D03*
Y5426800D03*
X6897200Y1910600D03*
Y2010600D03*
X6869000Y3560600D03*
Y3660600D03*
X6837500Y6366600D03*
Y6466600D03*
X6937500Y6366600D03*
Y6466600D03*
X7122900Y8983300D03*
Y9083300D03*
X9156500Y6766000D03*
Y6866000D03*
Y6966000D03*
X9196200Y8613300D03*
Y8713300D03*
X9293700Y8614900D03*
Y8714900D03*
X10320600Y9127600D03*
Y9227600D03*
X10416000Y8207400D03*
X10420600Y9127600D03*
Y9227600D03*
X10516000Y8207400D03*
X11046100Y8158700D03*
X11146100D03*
X11951400Y3286300D03*
Y3386300D03*
X12051400Y3286300D03*
Y3386300D03*
X13815100Y3310200D03*
Y3410200D03*
X13915100Y3310200D03*
Y3410200D03*
X14435300Y3288000D03*
Y3388000D03*
X14535300Y3288000D03*
Y3388000D03*
X16316900Y3308500D03*
Y3408500D03*
X16416900Y3308500D03*
Y3408500D03*
X16957800Y3288000D03*
Y3388000D03*
X17057800Y3288000D03*
Y3388000D03*
X18817100Y3305100D03*
Y3405100D03*
X18917100Y3305100D03*
Y3405100D03*
X19440900Y3282800D03*
Y3382800D03*
X19540900Y3282800D03*
Y3382800D03*
X21313800Y3296500D03*
Y3396500D03*
X21413800Y3296500D03*
Y3396500D03*
X21942700Y3281200D03*
Y3381200D03*
X22042700Y3281200D03*
Y3381200D03*
X23812300Y3315300D03*
Y3415300D03*
X23912300Y3315300D03*
Y3415300D03*
X24454800Y3284500D03*
Y3384500D03*
X24554800Y3284500D03*
Y3384500D03*
X26321000Y3324700D03*
X26319300Y3408500D03*
X26407300Y3323000D03*
X26409000Y3411900D03*
X26929400Y3276100D03*
Y3376100D03*
X27029400Y3276100D03*
Y3376100D03*
X28812700Y3308500D03*
Y3408500D03*
X28912700Y3308500D03*
Y3408500D03*
G54D12*
X2682200Y9439410D03*
Y9859410D03*
X3102200Y9439410D03*
Y9859410D03*
X3522200Y9439410D03*
Y9859410D03*
G54D13*
X4664990Y555210D03*
G54D14*
X5077200Y10107900D03*
X5331200D03*
X6340900Y10024200D03*
X6594900D03*
X6848900D03*
X8085800Y10091200D03*
X8339800D03*
X8593800D03*
X8847800D03*
X9101800D03*
G54D15*
X9089130Y4710320D03*
X9189130D03*
Y5795460D03*
X9289130Y4210320D03*
Y4310320D03*
Y4510320D03*
Y4610320D03*
Y4710320D03*
Y4810320D03*
Y4910320D03*
Y5095460D03*
Y5195460D03*
Y5295460D03*
Y5395460D03*
Y5495460D03*
Y5595460D03*
Y5695460D03*
X9389130Y4610320D03*
Y4710320D03*
Y4810320D03*
Y4910320D03*
Y5095460D03*
Y5195460D03*
Y5295460D03*
Y5395460D03*
Y5495460D03*
Y5595460D03*
Y5695460D03*
X9489130Y4610320D03*
Y4710320D03*
Y4810320D03*
Y4910320D03*
Y5095460D03*
Y5195460D03*
Y5295460D03*
Y5395460D03*
Y5495460D03*
Y5595460D03*
Y5695460D03*
Y5795460D03*
X9589130Y4210320D03*
Y4310320D03*
Y4410320D03*
Y4510320D03*
Y4710320D03*
Y4810320D03*
Y4910320D03*
Y5095460D03*
Y5195460D03*
Y5295460D03*
Y5395460D03*
Y5495460D03*
Y5595460D03*
Y5695460D03*
Y5795460D03*
Y5895460D03*
X9689130Y4510320D03*
Y4610320D03*
Y4710320D03*
Y4810320D03*
Y4910320D03*
Y5095460D03*
Y5195460D03*
Y5295460D03*
Y5395460D03*
Y5495460D03*
Y5595460D03*
Y5695460D03*
Y5795460D03*
Y5895460D03*
X9789130Y4210320D03*
Y4510320D03*
Y4610320D03*
Y4710320D03*
Y4810320D03*
Y4910320D03*
Y5095460D03*
Y5195460D03*
Y5295460D03*
Y5395460D03*
Y5495460D03*
Y5595460D03*
Y5695460D03*
X9889130Y4410320D03*
Y4510320D03*
Y4810320D03*
Y4910320D03*
Y5095460D03*
Y5195460D03*
Y5295460D03*
Y5395460D03*
Y5495460D03*
Y5595460D03*
Y5695460D03*
Y5795460D03*
X9985700Y4711500D03*
X10074270Y4610320D03*
Y4710320D03*
Y4810320D03*
Y4910320D03*
Y5095460D03*
Y5195460D03*
Y5295460D03*
Y5395460D03*
Y5495460D03*
Y5595460D03*
Y5695460D03*
Y5795460D03*
X10174270Y4810320D03*
Y4910320D03*
Y5095460D03*
Y5195460D03*
Y5295460D03*
X10167900Y5504600D03*
X10174270Y5595460D03*
Y5695460D03*
X10274270Y4210320D03*
Y4910320D03*
Y5295460D03*
Y5395460D03*
Y5495460D03*
Y5695460D03*
Y5795460D03*
X10390660Y4310320D03*
X10374270Y4410320D03*
Y4510320D03*
Y4610320D03*
Y4710320D03*
Y4810320D03*
X10391700Y4903500D03*
X10374270Y5095460D03*
Y5195460D03*
Y5295460D03*
Y5395460D03*
Y5495460D03*
Y5595460D03*
Y5695460D03*
Y5795460D03*
X10474270Y5095460D03*
Y5195460D03*
Y5295460D03*
Y5395460D03*
Y5495460D03*
Y5595460D03*
Y5695460D03*
Y5795460D03*
X10574270Y5095460D03*
Y5195460D03*
Y5295460D03*
Y5395460D03*
Y5495460D03*
Y5595460D03*
Y5695460D03*
Y5795460D03*
X10674270Y4310320D03*
Y4510320D03*
Y4610320D03*
Y4710320D03*
Y4910320D03*
Y5095460D03*
Y5195460D03*
Y5295460D03*
Y5395460D03*
Y5495460D03*
Y5595460D03*
Y5695460D03*
X10774270Y4210320D03*
X12860150Y3383500D03*
X15360150Y3377500D03*
X17860150D03*
X20360150Y3383500D03*
X22860150D03*
X25360150Y3544100D03*
X27860100Y3482800D03*
G54D16*
X13210150Y5611000D03*
Y6811000D03*
Y8611000D03*
X15710150Y5605000D03*
Y6805000D03*
Y8605000D03*
X18210150Y5605000D03*
Y6805000D03*
Y8605000D03*
X20710150Y5611000D03*
Y6811000D03*
Y8611000D03*
X23210150Y5611000D03*
Y6811000D03*
Y8611000D03*
X25710150Y5611000D03*
Y6811000D03*
Y8611000D03*
X28210100Y5611200D03*
Y6811200D03*
Y8611200D03*
G54D17*
G01X2546290Y9859410D02*
X2682200D01*
G01Y9723500D02*
Y9859410D01*
G01D02*
Y9995320D01*
G01Y9859410D02*
X2818110D01*
G01X2966290D02*
X3102200D01*
G01Y9723500D02*
Y9859410D01*
G01D02*
Y9995320D01*
G01Y9859410D02*
X3238110D01*
G01X3386290D02*
X3522200D01*
G01Y9723500D02*
Y9859410D01*
G01D02*
Y9995320D01*
G01Y9859410D02*
X3658110D01*
M02*
