G04 ================== begin FILE IDENTIFICATION RECORD ==================*
G04 Layout Name:  pcie-nvme_rework2.brd*
G04 Film Name:    PWR05L*
G04 File Format:  Gerber RS274X*
G04 File Origin:  Cadence Allegro 25.1-S010*
G04 Origin Date:  Tue May 12 01:05:28 2026*
G04 *
G04 Layer:  VIA CLASS/PWR05*
G04 Layer:  PIN/PWR05*
G04 Layer:  ETCH/PWR05*
G04 *
G04 Offset:    (0.0000 0.0000)*
G04 Mirror:    No*
G04 Mode:      Positive*
G04 Rotation:  0*
G04 FullContactRelief:  No*
G04 UndefLineWidth:     0.1000*
G04 ================== end FILE IDENTIFICATION RECORD ====================*
%FSLAX25Y25*MOMM*%
%IR0*IPPOS*OFA0.00000B0.00000*MIA0B0*SFA1.00000B1.00000*%
%ADD11C,.6*%
%ADD13C,.7*%
%ADD15C,.35*%
%ADD10C,.45*%
%ADD16C,5.5*%
%ADD14C,1.37*%
%ADD12C,2.3622*%
%ADD21C,.6044*%
%ADD17C,.7044*%
%ADD18C,.8544*%
%ADD19C,2.0068*%
%ADD20C,1.5068*%
G75*
%LPD*%
G75*
G36*
G01X455900Y3705900D02*
X2742400D01*
X3714800Y2733500D01*
X5259700D01*
G02X5269560Y2720870I4J-10160D01*
G03X5268280Y2710500I41439J-10379D01*
G03X5353720I42720J0D01*
G03X5352440Y2720870I-42719J-9D01*
G02X5362300Y2733500I9856J2470D01*
G01X5371770D01*
Y2727430D01*
X5371400Y2726520D01*
G03X5368280Y2710500I39599J-16026D01*
G03X5453720I42720J0D01*
G03X5452440Y2720870I-42719J-9D01*
G02X5462300Y2733500I9856J2470D01*
G01X5471770D01*
Y2727430D01*
X5471400Y2726520D01*
G03X5468280Y2710500I39599J-16026D01*
G03X5553720I42720J0D01*
G03X5552440Y2720870I-42719J-9D01*
G02X5562300Y2733500I9856J2470D01*
G01X6435280D01*
G02X6444890Y2720050I-3J-10160D01*
G03X6442580Y2706200I40409J-13857D01*
G03X6528020I42720J0D01*
G03X6525710Y2720050I-42719J-7D01*
G02X6535320Y2733500I9613J3290D01*
G01X6542980D01*
G02X6547480Y2726060I0J-5081D01*
G03X6542580Y2706200I37819J-19865D01*
G03X6628020I42720J0D01*
G03X6625710Y2720050I-42719J-7D01*
G02X6635320Y2733500I9613J3290D01*
G01X6642980D01*
G02X6647480Y2726060I0J-5081D01*
G03X6642580Y2706200I37819J-19865D01*
G03X6728020I42720J0D01*
G03X6725710Y2720050I-42719J-7D01*
G02X6735320Y2733500I9613J3290D01*
G01X6742980D01*
G02X6747480Y2726060I0J-5081D01*
G03X6742580Y2706200I37819J-19865D01*
G03X6828020I42720J0D01*
G03X6825710Y2720050I-42719J-7D01*
G02X6835320Y2733500I9613J3290D01*
G01X11193100D01*
X12037300Y3577700D01*
X21770100D01*
X21917560Y3430240D01*
G02X21916590Y3415010I-7180J-7189D01*
G03X21899980Y3381200I26105J-33810D01*
G03X21942700Y3338480I42720J0D01*
G03X21955250Y3340370I-16J42718D01*
G02X21968400Y3330660I2989J-9712D01*
G01Y3319240D01*
X21962170D01*
X21961130Y3319740D01*
G03X21942700Y3323920I-18430J-38540D01*
G03Y3238480I0J-42720D01*
G03X21955250Y3240370I-16J42718D01*
G02X21968400Y3230660I2989J-9712D01*
G01Y2894150D01*
G02X21958390Y2884000I-10158J7D01*
G03Y2813560I514J-35220D01*
G02X21968400Y2803410I-148J-10157D01*
G01Y2370680D01*
X21967810Y2369560D01*
G03X21963680Y2353020I31088J-16548D01*
G03X21967810Y2336480I35218J8D01*
G01X21968400Y2335360D01*
Y2139120D01*
X21967810Y2138000D01*
G03X21963680Y2121460I31088J-16548D01*
G03X21967810Y2104920I35218J8D01*
G01X21968400Y2103800D01*
Y1629500D01*
X21932200Y1593300D01*
X891400D01*
X426600Y2058100D01*
Y3676600D01*
X455900Y3705900D01*
G37*
G36*
G01X10740110Y9458800D02*
X11504400D01*
X11780600Y9182600D01*
Y4011900D01*
X10794400Y3025700D01*
X4276500D01*
X3088900Y4213300D01*
Y7022200D01*
X3177700Y7111000D01*
X4011700D01*
X4269000Y7368300D01*
Y9382600D01*
X4345200Y9458800D01*
X9999470D01*
G02X10009060Y9445280I2J-10160D01*
G03X10007080Y9433640I33240J-11643D01*
G03X10077520I35220J0D01*
G03X10075540Y9445280I-35220J-3D01*
G02X10085130Y9458800I9588J3360D01*
G01X10299970D01*
X10300160Y9453910D01*
G03X10370540I35190J1335D01*
G01X10370730Y9458800D01*
X10650670D01*
G02X10660680Y9446920I-4J-10161D01*
G03X10660170Y9440970I34708J-5972D01*
G03X10730610I35220J0D01*
G03X10730100Y9446920I-35218J-22D01*
G02X10740110Y9458800I10014J1719D01*
G37*
G36*
G01X5523000Y632900D02*
Y-137400D01*
X5413700D01*
X5408500Y-132200D01*
X5413600Y-127100D01*
Y632900D01*
X5523000D01*
G37*
%LPC*%
G75*
G36*
G01X14818120Y2127870D02*
G03X14829320Y2121420I9514J3572D01*
G02X14835150Y2121910I5854J-34728D01*
G02X14840980Y2121420I-24J-35218D01*
G03X14852180Y2127870I1686J10022D01*
G02X14885150Y2150720I32970J-12361D01*
G02Y2080280I0J-35220D01*
G02X14879320Y2080770I24J35218D01*
G03X14868120Y2074320I-1686J-10022D01*
G02X14802180I-32970J12361D01*
G03X14790980Y2080770I-9514J-3572D01*
G02X14785150Y2080280I-5854J34728D01*
G02Y2150720I0J35220D01*
G02X14818120Y2127870I0J-35211D01*
G37*
G36*
G01X16602180Y2074320D02*
G03X16590980Y2080770I-9514J-3572D01*
G02X16585150Y2080280I-5854J34728D01*
G02Y2150720I0J35220D01*
G02X16618120Y2127870I0J-35211D01*
G03X16629320Y2121420I9514J3572D01*
G02X16635150Y2121910I5854J-34728D01*
G02Y2051470I0J-35220D01*
G02X16602180Y2074320I0J35211D01*
G37*
G36*
G01X17318120Y2127870D02*
G03X17329320Y2121420I9514J3572D01*
G02X17335150Y2121910I5854J-34728D01*
G02X17340980Y2121420I-24J-35218D01*
G03X17352180Y2127870I1686J10022D01*
G02X17385150Y2150720I32970J-12361D01*
G02Y2080280I0J-35220D01*
G02X17379320Y2080770I24J35218D01*
G03X17368120Y2074320I-1686J-10022D01*
G02X17302180I-32970J12361D01*
G03X17290980Y2080770I-9514J-3572D01*
G02X17285150Y2080280I-5854J34728D01*
G02Y2150720I0J35220D01*
G02X17318120Y2127870I0J-35211D01*
G37*
G36*
G01X19102180Y2074320D02*
G03X19090980Y2080770I-9514J-3572D01*
G02X19085150Y2080280I-5854J34728D01*
G02Y2150720I0J35220D01*
G02X19118120Y2127870I0J-35211D01*
G03X19129320Y2121420I9514J3572D01*
G02X19135150Y2121910I5854J-34728D01*
G02Y2051470I0J-35220D01*
G02X19102180Y2074320I0J35211D01*
G37*
G36*
G01X17043320Y2092680D02*
G03X17028650Y2092620I-7306J-7057D01*
G02X17003100Y2081640I-25550J24237D01*
G02Y2152080I0J35220D01*
G02X17028430Y2141340I7J-35223D01*
G03X17043100Y2141400I7306J7057D01*
G02X17068650Y2152380I25550J-24237D01*
G02Y2081940I0J-35220D01*
G02X17043320Y2092680I-7J35223D01*
G37*
G36*
G01X14541390Y2093220D02*
G03X14526760I-7315J-7051D01*
G02X14501400Y2082440I-25360J24440D01*
G02Y2152880I0J35220D01*
G02X14526760Y2142100I0J-35220D01*
G03X14541390I7315J7051D01*
G02X14566750Y2152880I25360J-24440D01*
G02Y2082440I0J-35220D01*
G02X14541390Y2093220I0J35220D01*
G37*
G36*
G01X19539440Y2096280D02*
G03X19524760Y2096320I-7359J-7006D01*
G02X19499400Y2085540I-25360J24440D01*
G02Y2155980I0J35220D01*
G02X19524910Y2145040I0J-35212D01*
G03X19539590Y2145000I7359J7006D01*
G02X19564950Y2155780I25360J-24440D01*
G02Y2085340I0J-35220D01*
G02X19539440Y2096280I0J35212D01*
G37*
G36*
G01X12318120Y2133870D02*
G03X12329320Y2127420I9514J3572D01*
G02X12335150Y2127910I5854J-34728D01*
G02X12340980Y2127420I-24J-35218D01*
G03X12352180Y2133870I1686J10022D01*
G02X12385150Y2156720I32970J-12361D01*
G02Y2086280I0J-35220D01*
G02X12379320Y2086770I24J35218D01*
G03X12368120Y2080320I-1686J-10022D01*
G02X12302180I-32970J12361D01*
G03X12290980Y2086770I-9514J-3572D01*
G02X12285150Y2086280I-5854J34728D01*
G02Y2156720I0J35220D01*
G02X12318120Y2133870I0J-35211D01*
G37*
G36*
G01X14102180Y2080320D02*
G03X14090980Y2086770I-9514J-3572D01*
G02X14085150Y2086280I-5854J34728D01*
G02Y2156720I0J35220D01*
G02X14118120Y2133870I0J-35211D01*
G03X14129320Y2127420I9514J3572D01*
G02X14135150Y2127910I5854J-34728D01*
G02Y2057470I0J-35220D01*
G02X14102180Y2080320I0J35211D01*
G37*
G36*
G01X19818120Y2133870D02*
G03X19829320Y2127420I9514J3572D01*
G02X19835150Y2127910I5854J-34728D01*
G02X19840980Y2127420I-24J-35218D01*
G03X19852180Y2133870I1686J10022D01*
G02X19885150Y2156720I32970J-12361D01*
G02Y2086280I0J-35220D01*
G02X19879320Y2086770I24J35218D01*
G03X19868120Y2080320I-1686J-10022D01*
G02X19802180I-32970J12361D01*
G03X19790980Y2086770I-9514J-3572D01*
G02X19785150Y2086280I-5854J34728D01*
G02Y2156720I0J35220D01*
G02X19818120Y2133870I0J-35211D01*
G37*
G36*
G01X21602180Y2080320D02*
G03X21590980Y2086770I-9514J-3572D01*
G02X21585150Y2086280I-5854J34728D01*
G02Y2156720I0J35220D01*
G02X21618120Y2133870I0J-35211D01*
G03X21629320Y2127420I9514J3572D01*
G02X21635150Y2127910I5854J-34728D01*
G02Y2057470I0J-35220D01*
G02X21602180Y2080320I0J35211D01*
G37*
G36*
G01X12036260Y2106490D02*
G03X12021380Y2106550I-7468J-6889D01*
G02X11995700Y2095440I-25680J24124D01*
G02Y2165880I0J35220D01*
G02X12021590Y2154530I-6J-35217D01*
G03X12036470Y2154470I7468J6889D01*
G02X12062150Y2165580I25680J-24124D01*
G02Y2095140I0J-35220D01*
G02X12036260Y2106490I6J35217D01*
G37*
G36*
G01X17043320Y2324240D02*
G03X17028650Y2324180I-7306J-7057D01*
G02X17003100Y2313200I-25550J24237D01*
G02Y2383640I0J35220D01*
G02X17028430Y2372900I7J-35223D01*
G03X17043100Y2372960I7306J7057D01*
G02X17068650Y2383940I25550J-24237D01*
G02Y2313500I0J-35220D01*
G02X17043320Y2324240I-7J35223D01*
G37*
G36*
G01X14541390Y2324780D02*
G03X14526760I-7315J-7051D01*
G02X14501400Y2314000I-25360J24440D01*
G02Y2384440I0J35220D01*
G02X14526760Y2373660I0J-35220D01*
G03X14541390I7315J7051D01*
G02X14566750Y2384440I25360J-24440D01*
G02Y2314000I0J-35220D01*
G02X14541390Y2324780I0J35220D01*
G37*
G36*
G01X19539440Y2327840D02*
G03X19524760Y2327880I-7359J-7006D01*
G02X19499400Y2317100I-25360J24440D01*
G02Y2387540I0J35220D01*
G02X19524910Y2376600I0J-35212D01*
G03X19539590Y2376560I7359J7006D01*
G02X19564950Y2387340I25360J-24440D01*
G02Y2316900I0J-35220D01*
G02X19539440Y2327840I0J35212D01*
G37*
G36*
G01X12036260Y2338050D02*
G03X12021380Y2338110I-7468J-6889D01*
G02X11995700Y2327000I-25680J24124D01*
G02Y2397440I0J35220D01*
G02X12021590Y2386090I-6J-35217D01*
G03X12036470Y2386030I7468J6889D01*
G02X12062150Y2397140I25680J-24124D01*
G02Y2326700I0J-35220D01*
G02X12036260Y2338050I6J35217D01*
G37*
G36*
G01X14892270Y3346700D02*
G03X14878660Y3346590I-6744J-7600D01*
G02X14854850Y3337320I-23810J25943D01*
G02Y3407760I0J35220D01*
G02X14878230Y3398880I0J-35218D01*
G03X14891840Y3398990I6744J7600D01*
G02X14915650Y3408260I23810J-25943D01*
G02Y3337820I0J-35220D01*
G02X14892270Y3346700I0J35218D01*
G37*
G36*
G01X12378660Y3351970D02*
G03X12364940I-6860J-7495D01*
G02X12341150Y3342720I-23790J25968D01*
G02Y3413160I0J35220D01*
G02X12364940Y3403910I0J-35218D01*
G03X12378660I6860J7495D01*
G02X12402450Y3413160I23790J-25968D01*
G02Y3342720I0J-35220D01*
G02X12378660Y3351970I0J35218D01*
G37*
G36*
G01X16214060Y3352450D02*
G03X16200340I-6860J-7495D01*
G02X16176550Y3343200I-23790J25968D01*
G02Y3413640I0J35220D01*
G02X16200340Y3404390I0J-35218D01*
G03X16214060I6860J7495D01*
G02X16237850Y3413640I23790J-25968D01*
G02Y3343200I0J-35220D01*
G02X16214060Y3352450I0J35218D01*
G37*
G36*
G01X14034400Y3356090D02*
G03X14020300I-7050J-7316D01*
G02X13995850Y3346220I-24450J25349D01*
G02Y3416660I0J35220D01*
G02X14020300Y3406790I0J-35219D01*
G03X14034400I7050J7316D01*
G02X14058850Y3416660I24450J-25349D01*
G02Y3346220I0J-35220D01*
G02X14034400Y3356090I0J35219D01*
G37*
G36*
G01X13710330Y3355860D02*
G03X13696470I-6930J-7428D01*
G02X13672450Y3346400I-24020J25765D01*
G02Y3416840I0J35220D01*
G02X13696470Y3407380I0J-35225D01*
G03X13710330I6930J7428D01*
G02X13734350Y3416840I24020J-25765D01*
G02Y3346400I0J-35220D01*
G02X13710330Y3355860I0J35225D01*
G37*
G36*
G01X21534280Y3355850D02*
G03X21520550Y3355890I-6887J-7473D01*
G02X21496850Y3346720I-23700J26041D01*
G02Y3417160I0J35220D01*
G02X21520720Y3407830I-7J-35217D01*
G03X21534450Y3407790I6887J7473D01*
G02X21558150Y3416960I23700J-26041D01*
G02Y3346520I0J-35220D01*
G02X21534280Y3355850I7J35217D01*
G37*
G36*
G01X17393080Y3355620D02*
G03X17379360Y3355820I-6969J-7390D01*
G02X17355950Y3346920I-23404J26322D01*
G02Y3417360I0J35220D01*
G02X17380120Y3407760I0J-35227D01*
G03X17393840Y3407560I6969J7390D01*
G02X17417250Y3416460I23404J-26322D01*
G02Y3346020I0J-35220D01*
G02X17393080Y3355620I0J35227D01*
G37*
G36*
G01X16537490Y3357260D02*
G03X16523920Y3357280I-6796J-7552D01*
G02X16500450Y3348320I-23470J26259D01*
G02Y3418760I0J35220D01*
G02X16524010Y3409720I0J-35221D01*
G03X16537580Y3409700I6796J7552D01*
G02X16561050Y3418660I23470J-26259D01*
G02Y3348220I0J-35220D01*
G02X16537490Y3357260I0J35221D01*
G37*
G36*
G01X19881450Y3359560D02*
G03X19867550I-6950J-7414D01*
G02X19843450Y3350020I-24100J25671D01*
G02Y3420460I0J35220D01*
G02X19867550Y3410920I0J-35211D01*
G03X19881450I6950J7414D01*
G02X19905550Y3420460I24100J-25671D01*
G02Y3350020I0J-35220D01*
G02X19881450Y3359560I0J35211D01*
G37*
G36*
G01X19031080Y3360110D02*
G03X19017200Y3360230I-7004J-7359D01*
G02X18993350Y3350920I-23855J25908D01*
G02Y3421360I0J35220D01*
G02X19017620Y3411670I6J-35223D01*
G03X19031500Y3411550I7004J7359D01*
G02X19055350Y3420860I23855J-25908D01*
G02Y3350420I0J-35220D01*
G02X19031080Y3360110I-6J35223D01*
G37*
G36*
G01X18713930Y3360870D02*
G03X18700120Y3360810I-6873J-7481D01*
G02X18676050Y3351300I-24070J25706D01*
G02Y3421740I0J35220D01*
G02X18699870Y3412470I6J-35222D01*
G03X18713680Y3412530I6873J7481D01*
G02X18737750Y3422040I24070J-25706D01*
G02Y3351600I0J-35220D01*
G02X18713930Y3360870I-6J35222D01*
G37*
G36*
G01X21211850Y3364840D02*
G03X21197950I-6950J-7414D01*
G02X21173850Y3355300I-24100J25671D01*
G02Y3425740I0J35220D01*
G02X21197950Y3416200I0J-35211D01*
G03X21211850I6950J7414D01*
G02X21235950Y3425740I24100J-25671D01*
G02Y3355300I0J-35220D01*
G02X21211850Y3364840I0J35211D01*
G37*
G36*
G01X15601170Y2397860D02*
G02X15570040Y2379110I-31130J16467D01*
G02Y2449550I0J35220D01*
G02X15601170Y2430800I0J-35217D01*
G03X15619140I8985J4746D01*
G02X15650270Y2449550I31130J-16467D01*
G02Y2379110I0J-35220D01*
G02X15619140Y2397860I0J35217D01*
G03X15601170I-8985J-4746D01*
G37*
G36*
G01X15901170D02*
G02X15870040Y2379110I-31130J16467D01*
G02Y2449550I0J35220D01*
G02X15901170Y2430800I0J-35217D01*
G03X15919140I8985J4746D01*
G02X15950270Y2449550I31130J-16467D01*
G02Y2379110I0J-35220D01*
G02X15919140Y2397860I0J35217D01*
G03X15901170I-8985J-4746D01*
G37*
G36*
G01X18101170D02*
G02X18070040Y2379110I-31130J16467D01*
G02Y2449550I0J35220D01*
G02X18101170Y2430800I0J-35217D01*
G03X18119140I8985J4746D01*
G02X18150270Y2449550I31130J-16467D01*
G02Y2379110I0J-35220D01*
G02X18119140Y2397860I0J35217D01*
G03X18101170I-8985J-4746D01*
G37*
G36*
G01X18401160D02*
G02X18370030Y2379110I-31130J16467D01*
G02Y2449550I0J35220D01*
G02X18401160Y2430800I0J-35217D01*
G03X18419130I8985J4746D01*
G02X18450260Y2449550I31130J-16467D01*
G02Y2379110I0J-35220D01*
G02X18419130Y2397860I0J35217D01*
G03X18401160I-8985J-4746D01*
G37*
G36*
G01X13192970Y2442860D02*
G02X13220040Y2455550I27070J-22528D01*
G02X13251170Y2436800I0J-35217D01*
G03X13269140I8985J4746D01*
G02X13300270Y2455550I31130J-16467D01*
G02Y2385110I0J-35220D01*
G02X13269140Y2403860I0J35217D01*
G03X13251170I-8985J-4746D01*
G02X13220040Y2385110I-31130J16467D01*
G02X13192970Y2397800I0J35218D01*
G03X13177340I-7815J-6493D01*
G02X13150270Y2385110I-27070J22528D01*
G02X13119140Y2403860I0J35217D01*
G03X13101170I-8985J-4746D01*
G02X13070040Y2385110I-31130J16467D01*
G02Y2455550I0J35220D01*
G02X13101170Y2436800I0J-35217D01*
G03X13119140I8985J4746D01*
G02X13150270Y2455550I31130J-16467D01*
G02X13177340Y2442860I0J-35218D01*
G03X13192970I7815J6493D01*
G37*
G36*
G01X20601170Y2403860D02*
G02X20570040Y2385110I-31130J16467D01*
G02Y2455550I0J35220D01*
G02X20601170Y2436800I0J-35217D01*
G03X20619140I8985J4746D01*
G02X20650270Y2455550I31130J-16467D01*
G02Y2385110I0J-35220D01*
G02X20619140Y2403860I0J35217D01*
G03X20601170I-8985J-4746D01*
G37*
G36*
G01X20901160Y2413870D02*
G02X20870030Y2395120I-31130J16467D01*
G02Y2465560I0J35220D01*
G02X20901160Y2446810I0J-35217D01*
G03X20919130I8985J4746D01*
G02X20950260Y2465560I31130J-16467D01*
G02Y2395120I0J-35220D01*
G02X20919130Y2413870I0J35217D01*
G03X20901160I-8985J-4746D01*
G37*
G36*
G01X4881090Y3848670D02*
G03X4889080Y3861990I-1622J10030D01*
G02X4887180Y3873400I33310J11410D01*
G02X4957620I35220J0D01*
G02X4928010Y3838630I-35220J0D01*
G03X4920020Y3825310I1622J-10030D01*
G02X4921920Y3813900I-33310J-11410D01*
G02X4851480I-35220J0D01*
G02X4881090Y3848670I35220J0D01*
G37*
G36*
G01X10311960Y3935700D02*
G03X10325750Y3935730I6879J7477D01*
G02X10349700Y3945120I23944J-25832D01*
G02X10374070Y3935330I0J-35227D01*
G03X10388170Y3935370I7029J7336D01*
G02X10412700Y3945320I24530J-25262D01*
G02Y3874880I0J-35220D01*
G02X10388330Y3884670I0J35227D01*
G03X10374230Y3884630I-7029J-7336D01*
G02X10349700Y3874680I-24530J25262D01*
G02X10325840Y3884000I6J35218D01*
G03X10312050Y3883970I-6879J-7477D01*
G02X10288100Y3874580I-23944J25832D01*
G02Y3945020I0J35220D01*
G02X10311960Y3935700I-6J-35218D01*
G37*
G36*
G01X6469130Y5923130D02*
G02X6479820Y5897860I-24523J-25270D01*
G02X6409380I-35220J0D01*
G02X6415970Y5918370I35212J0D01*
G02X6405280Y5943640I24523J25270D01*
G02X6475720I35220J0D01*
G02X6469130Y5923130I-35212J0D01*
G37*
G36*
G01X9512050Y6492420D02*
G03X9522310Y6502960I106J10160D01*
G02X9522280Y6504300I35187J1458D01*
G02X9557500Y6469080I35220J0D01*
G01X9557150D01*
G03X9546890Y6458540I-106J-10160D01*
G02X9546920Y6457200I-35187J-1458D01*
G02X9511700Y6492420I-35220J0D01*
G01X9512050D01*
G37*
G36*
G01X9458710Y7257400D02*
G03X9473460Y7257620I7271J7096D01*
G02X9499400Y7269020I25940J-23812D01*
G02X9524570Y7258440I0J-35230D01*
G03X9539100I7265J7102D01*
G02X9564280Y7269040I25180J-24607D01*
G02X9589900Y7257990I0J-35226D01*
G03X9604460Y7257760I7392J6972D01*
G02X9629310Y7268030I24857J-24947D01*
G02Y7197590I0J-35220D01*
G02X9603690Y7208640I0J35226D01*
G03X9589130Y7208870I-7392J-6972D01*
G02X9564280Y7198600I-24857J24947D01*
G02X9539110Y7209180I0J35230D01*
G03X9524580I-7265J-7102D01*
G02X9499400Y7198580I-25180J24607D01*
G02X9474190Y7209200I0J35232D01*
G03X9459440Y7208980I-7271J-7096D01*
G02X9433500Y7197580I-25940J23812D01*
G02X9409190Y7207310I0J35234D01*
G03X9394920Y7207070I-7013J-7351D01*
G02X9369750Y7196480I-25170J24617D01*
G02Y7266920I0J35220D01*
G02X9394060Y7257190I0J-35234D01*
G03X9408330Y7257430I7013J7351D01*
G02X9433500Y7268020I25170J-24617D01*
G02X9458710Y7257400I0J-35232D01*
G37*
G36*
G01X9830830Y7278050D02*
G03X9830740Y7284880I-3804J3365D01*
G02X9821280Y7308900I25765J24020D01*
G02X9891720I35220J0D01*
G02X9882870Y7285550I-35229J0D01*
G03X9882960Y7278720I3804J-3365D01*
G02X9892420Y7254700I-25765J-24020D01*
G02X9821980I-35220J0D01*
G02X9830830Y7278050I35229J0D01*
G37*
G36*
G01X10344770Y7855480D02*
G03X10345290Y7869920I-6878J7477D01*
G02X10335730Y7894050I25673J24130D01*
G02X10406170I35220J0D01*
G02X10394780Y7868120I-35211J0D01*
G03X10394260Y7853680I6878J-7477D01*
G02X10403820Y7829550I-25673J-24130D01*
G02X10394080Y7805230I-35233J0D01*
G03X10394720Y7790580I7345J-7018D01*
G02X10406720Y7764100I-23216J-26480D01*
G02X10396760Y7739560I-35212J0D01*
G03X10397160Y7725000I7285J-7085D01*
G02X10408520Y7699100I-23858J-25905D01*
G02X10338080I-35220J0D01*
G02X10348040Y7723640I35212J0D01*
G03X10347640Y7738200I-7285J7085D01*
G02X10336280Y7764100I23858J25905D01*
G02X10346020Y7788420I35233J0D01*
G03X10345380Y7803070I-7345J7018D01*
G02X10333380Y7829550I23216J26480D01*
G02X10344770Y7855480I35211J0D01*
G37*
G36*
G01X11422960Y7985570D02*
G03X11422940Y7999140I-7572J6774D01*
G02X11413900Y8022700I26181J23560D01*
G02X11484340I35220J0D01*
G02X11475380Y7999230I-35219J0D01*
G03X11475400Y7985660I7572J-6774D01*
G02X11476180Y7984770I-26095J-23656D01*
G03X11484490Y7985550I3885J3269D01*
G02X11515200Y8003520I30710J-17256D01*
G02Y7933080I0J-35220D01*
G02X11491850Y7941940I7J35217D01*
G03X11477080Y7940550I-6734J-7609D01*
G02X11449220Y7926880I-27860J21555D01*
G02X11414000Y7962100I0J35220D01*
G02X11422960Y7985570I35219J0D01*
G37*
G36*
G01X10143800Y7993470D02*
G03Y8007130I-7522J6830D01*
G02X10134660Y8030800I26079J23670D01*
G02X10205100I35220J0D01*
G02X10195960Y8007130I-35219J0D01*
G03Y7993470I7522J-6830D01*
G02X10205100Y7969800I-26079J-23670D01*
G02X10134660I-35220J0D01*
G02X10143800Y7993470I35219J0D01*
G37*
G36*
G01X9396740Y8104890D02*
G03X9411300Y8104280I7577J6773D01*
G02X9435500Y8113920I24208J-25577D01*
G02X9458900Y8105030I7J-35223D01*
G03X9473230Y8105850I6754J7590D01*
G02X9499500Y8117620I26277J-23447D01*
G02X9526160Y8105420I0J-35229D01*
G03X9540710Y8104570I7688J6641D01*
G02X9564500Y8113820I23790J-25968D01*
G02X9590330Y8102540I0J-35214D01*
G03X9604880Y8102190I7445J6912D01*
G02X9629500Y8112220I24620J-25202D01*
G02Y8041780I0J-35220D01*
G02X9603670Y8053060I0J35214D01*
G03X9589120Y8053410I-7445J-6912D01*
G02X9564500Y8043380I-24620J25202D01*
G02X9537840Y8055580I0J35229D01*
G03X9523290Y8056430I-7688J-6641D01*
G02X9499500Y8047180I-23790J25968D01*
G02X9476100Y8056070I-7J35223D01*
G03X9461770Y8055250I-6754J-7590D01*
G02X9435500Y8043480I-26277J23447D01*
G02X9409260Y8055210I0J35214D01*
G03X9394700Y8055820I-7577J-6773D01*
G02X9370500Y8046180I-24208J25577D01*
G02Y8116620I0J35220D01*
G02X9396740Y8104890I0J-35214D01*
G37*
G36*
G01X6278440Y9021030D02*
G03X6277410Y9035040I-7831J6467D01*
G02X6265780Y9061200I23593J26154D01*
G02X6336220I35220J0D01*
G02X6328160Y9038770I-35222J-6D01*
G03X6329190Y9024760I7831J-6467D01*
G02X6340820Y8998600I-23593J-26154D01*
G02X6270380I-35220J0D01*
G02X6278440Y9021030I35222J6D01*
G37*
G36*
G01X10803390Y6113940D02*
G02X10831100Y6127420I27710J-21741D01*
G02X10859980Y6112350I0J-35208D01*
G03X10876660Y6112380I8330J5818D01*
G02X10905600Y6127520I28940J-20089D01*
G02Y6057080I0J-35220D01*
G02X10876720Y6072150I0J35208D01*
G03X10860040Y6072120I-8330J-5818D01*
G02X10831100Y6056980I-28940J20089D01*
G02X10803390Y6070460I0J35221D01*
G03X10787410I-7990J-6275D01*
G02X10759700Y6056980I-27710J21741D01*
G02Y6127420I0J35220D01*
G02X10787410Y6113940I0J-35221D01*
G03X10803390I7990J6275D01*
G37*
G36*
G01X10561100Y3933260D02*
G03X10576280Y3933460I7501J6852D01*
G02X10602900Y3945620I26620J-23058D01*
G02X10633570Y3927720I0J-35225D01*
G03X10651140Y3927520I8843J5001D01*
G02X10681400Y3944720I30260J-18018D01*
G02Y3874280I0J-35220D01*
G02X10650730Y3892180I0J35225D01*
G03X10633160Y3892380I-8843J-5001D01*
G02X10602900Y3875180I-30260J18018D01*
G02X10576900Y3886640I0J35224D01*
G03X10561720Y3886440I-7501J-6852D01*
G02X10535100Y3874280I-26620J23058D01*
G02Y3944720I0J35220D01*
G02X10561100Y3933260I0J-35224D01*
G37*
G36*
G01X6038880Y6712370D02*
X6050730Y6724220D01*
X6914870D01*
X7874870Y5764220D01*
X9026430D01*
X9066810Y5804600D01*
G03X9060160Y5821930I-7184J7184D01*
G02X9026780Y5857100I1838J35170D01*
G02X9062000Y5892320I35220J0D01*
G02X9097170Y5858940I0J-35218D01*
G03X9114500Y5852290I10146J534D01*
G01X9227730Y5965520D01*
X10936770D01*
X10944320Y5957970D01*
Y4040180D01*
X10047320D01*
Y3338130D01*
X10026170Y3316980D01*
X8005930D01*
X6967730Y4355180D01*
X6125530D01*
X6038880Y4441830D01*
Y5800170D01*
X6046430Y5807720D01*
X6530560D01*
X6531450Y5811680D01*
G02X6600150I34350J-7806D01*
G01X6601040Y5807720D01*
X6631040D01*
X6631930Y5811690D01*
G02X6700670I34370J-7715D01*
G01X6701560Y5807720D01*
X6977360D01*
G03X6984550Y5825060I3J10159D01*
G01X6706230Y6103380D01*
X6103830D01*
X6038880Y6168330D01*
Y6712370D01*
G37*
G54D21*
X12860150Y3383500D03*
X15360150Y3377500D03*
X17860150D03*
X20360150Y3383500D03*
G54D17*
X12769590Y1791870D03*
X12851420D03*
X15268750Y1787900D03*
X15350580D03*
X17769240Y1783420D03*
X17851070D03*
X20270190Y1803690D03*
X20352020D03*
X1531400Y2033000D03*
X13035150Y2121500D03*
X13185150D03*
X13335150D03*
X13485150D03*
X13635150D03*
X13785150D03*
X13935150D03*
X15535150Y2115500D03*
X15685150D03*
X15835150D03*
X15985150D03*
X16135150D03*
X16285150D03*
X16435150D03*
X18035150D03*
X18185150D03*
X18335150D03*
X18485150D03*
X18635150D03*
X18785150D03*
X18935150D03*
X20535150Y2121500D03*
X20685150D03*
X20835150D03*
X20985150D03*
X21135150D03*
X21285150D03*
X21435150D03*
X1531400Y2193000D03*
X12649400Y2233500D03*
X15154100Y2227500D03*
X17662800D03*
X20163800Y2233500D03*
X1532400Y2353000D03*
X6448900Y2355280D03*
X6554900D03*
X6667900Y2355380D03*
X12271900Y2366900D03*
X17885150Y2367450D03*
X20385150Y2355650D03*
X4970000Y2395100D03*
X5131000D03*
X6359800Y2379700D03*
X12840100Y2395900D03*
X14151700Y2397600D03*
X14770300Y2390800D03*
X15317200Y2433500D03*
X1532400Y2513000D03*
X16750150Y2494150D03*
X17170150Y2488650D03*
X19250150Y2478650D03*
X19670150Y2497050D03*
X21750150Y2485350D03*
X2917200Y2590000D03*
X4062200Y2663100D03*
X4224900D03*
X2917200Y2750000D03*
X14371750Y2805900D03*
X16871750Y2801200D03*
X19371850Y2804000D03*
X21873150Y2804800D03*
X13910150Y2850350D03*
X14458350D03*
X16410150Y2844350D03*
X16957500Y2847080D03*
X18910150Y2844350D03*
X19457500Y2847680D03*
X21410150Y2850350D03*
X2917200Y2910000D03*
X1530400Y3071000D03*
X1792700Y3066700D03*
X2916200Y3070000D03*
X803900Y3254500D03*
X17909600Y3316200D03*
X20409000Y3323900D03*
X2489740Y3400680D03*
X12159150Y3438240D03*
X12259850D03*
X13589550Y3443280D03*
X14142050Y3440940D03*
X14243750Y3441240D03*
X14671450Y3433440D03*
X14772550D03*
X16094050Y3439580D03*
X16641550Y3442040D03*
X16743250Y3441840D03*
X17171950Y3442440D03*
X17274150D03*
X18593850Y3447880D03*
X19136850Y3446740D03*
X19238450Y3446540D03*
X19660150Y3446240D03*
X19760950Y3446440D03*
X21092050Y3449580D03*
X21640650Y3442040D03*
X21741850Y3441240D03*
X1890100Y3536700D03*
X2172000Y3526400D03*
X12905900Y3510200D03*
X15408600D03*
X766400Y3624500D03*
X6531600Y3135100D03*
X6325600Y3190600D03*
X6566600Y3238620D03*
X6667400D03*
X6768100Y3238820D03*
X4981500Y3347900D03*
X4984100Y3448300D03*
Y3529400D03*
X5290200Y3553600D03*
X5451200D03*
X4984900Y3618300D03*
X4794310Y3923600D03*
X3764100Y4326300D03*
X4180000Y4541000D03*
Y4701000D03*
Y4861000D03*
Y5021000D03*
X5441700Y5096500D03*
X5441400Y5260700D03*
X5440400Y5420700D03*
X4055700Y5578000D03*
X4319300Y5574600D03*
X5440400Y5580700D03*
X3330000Y5772800D03*
X5019940Y5916380D03*
X4421900Y6048000D03*
X4696200Y6040200D03*
X6561200Y6037420D03*
X6661500Y6037220D03*
X3296800Y6144200D03*
X10244400Y6094100D03*
X10631700Y6091800D03*
X3296800Y6304200D03*
X8816020Y6735200D03*
X6560800Y6790280D03*
X6661400Y6790380D03*
X6440400Y6884260D03*
X8816020Y6836200D03*
Y6937800D03*
X8815920Y7039000D03*
X8815520Y7140500D03*
X9174400Y7228300D03*
X10407630Y7308770D03*
X11218770D03*
X8991580Y7362080D03*
X10675600Y7439200D03*
X10741500Y7503300D03*
X6648500Y7606800D03*
X8684300Y7564800D03*
X10823900Y7568300D03*
X10895900Y7633200D03*
X6296000Y7766700D03*
X9173700Y8081000D03*
X10121720Y8111000D03*
X11497280Y8103100D03*
X8824560Y8219200D03*
X8824220Y8381700D03*
X8823720Y8484200D03*
X8823120Y8585800D03*
X4748800Y8636760D03*
X6019100Y8655360D03*
X6239900Y8652620D03*
X7000500Y8668920D03*
X10514650Y8638250D03*
X4829900Y8679360D03*
X6100200Y8698160D03*
X6919100Y8729080D03*
X8823120Y8687400D03*
X10349800Y8736800D03*
X10790400Y8738500D03*
X8822620Y8789600D03*
X10695390Y8777910D03*
X5535800Y8850500D03*
X6678350Y8868780D03*
X4811500Y8976700D03*
X5537200Y8978300D03*
X4809100Y9103600D03*
X5427450Y9299050D03*
X6565900Y3993280D03*
X6666500D03*
X6767600Y3993480D03*
X6444900Y4087560D03*
X6415700Y4289020D03*
G54D18*
X6497200Y1910600D03*
X6597200D03*
X6697200D03*
X6797200D03*
X6897200D03*
X6497200Y2010600D03*
X6597200D03*
X6697200D03*
X6797200D03*
X6897200D03*
X11046100Y8158700D03*
X11146100D03*
X9196200Y8613300D03*
X9293700Y8614900D03*
X9196200Y8713300D03*
X9293700Y8714900D03*
X5957300Y8971400D03*
X6057300D03*
X5957300Y9071400D03*
X6057300D03*
X10320600Y9127600D03*
X10420600D03*
X10320600Y9227600D03*
X10420600D03*
X6569000Y3560600D03*
X6669000D03*
X6769000D03*
X6869000D03*
X6569000Y3660600D03*
X6669000D03*
X6769000D03*
X6869000D03*
G54D19*
X12210150Y2761000D03*
X14710150Y2755000D03*
X17210150D03*
X19710150Y2761000D03*
G54D20*
X14210150Y2766000D03*
X16710150Y2760000D03*
X19210150D03*
X21710150Y2766000D03*
%LPD*%
G75*
G36*
G01X6068940Y5009260D02*
X6069200Y5009000D01*
X7090200D01*
X7723050Y4376150D01*
X9018800D01*
Y4052000D01*
X9018500Y4051700D01*
X9825600D01*
X9826700Y4052800D01*
Y4513100D01*
X9858660D01*
X9858970Y4508350D01*
G03X9919290I30160J1975D01*
G01X9919600Y4513100D01*
X10034600D01*
Y3343400D01*
X10020900Y3329700D01*
X8011200D01*
X6973000Y4367900D01*
X6130800D01*
X6051600Y4447100D01*
Y5002070D01*
G02X6068940Y5009260I10160J2D01*
G37*
G36*
G01X6700540Y5795000D02*
X7016900D01*
X7562100Y5249800D01*
X9337700D01*
X9369010Y5218490D01*
X9366010Y5214920D01*
G03X9358910Y5195460I23118J-19460D01*
G03X9389130Y5165240I30220J0D01*
G03X9408590Y5172340I0J30218D01*
G01X9412160Y5175340D01*
X9469010Y5118490D01*
X9466010Y5114920D01*
G03X9458910Y5095460I23118J-19460D01*
G03X9489130Y5065240I30220J0D01*
G03X9508590Y5072340I0J30218D01*
G01X9512160Y5075340D01*
X9541000Y5046500D01*
X9624700D01*
X9629400Y5051200D01*
X10732200D01*
X10734100Y5049300D01*
Y4843600D01*
X9019200D01*
Y4394590D01*
X9013480Y4388870D01*
X7728320D01*
X7273590Y4843600D01*
X7095470Y5021720D01*
X6074470D01*
X6051600Y5044590D01*
Y5794900D01*
X6051700Y5795000D01*
X6531530D01*
X6532760Y5791680D01*
G03X6598840I33040J12201D01*
G01X6600070Y5795000D01*
X6632060D01*
X6633290Y5791690D01*
G03X6699310I33010J12296D01*
G01X6700540Y5795000D01*
G37*
G36*
G01X6056000Y6711500D02*
X6909600D01*
X7869600Y5751500D01*
X9031700D01*
X9233000Y5952800D01*
X10055470D01*
G02X10062730Y5935530I0J-10161D01*
G03X10052680Y5910900I25156J-24630D01*
G03X10123120I35220J0D01*
G03X10113070Y5935530I-35206J0D01*
G02X10120330Y5952800I7260J7109D01*
G01X10188520D01*
G02X10197960Y5938890I-1J-10159D01*
G03X10195480Y5925900I32741J-12983D01*
G03X10265920I35220J0D01*
G03X10263440Y5938890I-35221J7D01*
G02X10272880Y5952800I9441J3751D01*
G01X10931500D01*
X10931600Y5952700D01*
Y4052900D01*
X10645270D01*
G02X10635790Y4066700I5J10159D01*
G03X10638120Y4079300I-32904J12600D01*
G03X10602900Y4114520I-35220J0D01*
G03X10578270Y4104480I0J-35231D01*
G02X10563090Y4105570I-7108J7260D01*
G03X10535100Y4119420I-27990J-21358D01*
G03X10509980Y4108880I6J-35218D01*
G02X10495090Y4109310I-7245J7124D01*
G03X10468600Y4121320I-26490J-23209D01*
G03X10433380Y4086100I0J-35220D01*
G03X10438260Y4068220I35218J6D01*
G02X10429500Y4052900I-8754J-5159D01*
G01X10047320D01*
Y4525820D01*
X9915070D01*
G03X9863190I-25940J-15496D01*
G01X9815070D01*
G03X9789130Y4540540I-25940J-15496D01*
G03Y4480100I0J-30220D01*
G03X9800120Y4482170I0J30209D01*
G02X9813980Y4472710I3700J-9462D01*
G01Y4247930D01*
G02X9800120Y4238470I-10160J2D01*
G03X9789130Y4240540I-10990J-28139D01*
G03Y4180100I0J-30220D01*
G03X9800120Y4182170I0J30209D01*
G02X9813980Y4172710I3700J-9462D01*
G01Y4064420D01*
X9031700D01*
Y4378110D01*
X9031920Y4378330D01*
Y4830880D01*
X9250110D01*
G02X9259930Y4818100I3J-10160D01*
G03X9258910Y4810320I29199J-7785D01*
G03X9319350I30220J0D01*
G03X9318330Y4818100I-30219J-5D01*
G02X9328150Y4830880I9817J2620D01*
G01X9350110D01*
G02X9359930Y4818100I3J-10160D01*
G03X9358910Y4810320I29199J-7785D01*
G03X9419350I30220J0D01*
G03X9418330Y4818100I-30219J-5D01*
G02X9428150Y4830880I9817J2620D01*
G01X9450110D01*
G02X9459930Y4818100I3J-10160D01*
G03X9458910Y4810320I29199J-7785D01*
G03X9519350I30220J0D01*
G03X9518330Y4818100I-30219J-5D01*
G02X9528150Y4830880I9817J2620D01*
G01X9550110D01*
G02X9559930Y4818100I3J-10160D01*
G03X9558910Y4810320I29199J-7785D01*
G03X9619350I30220J0D01*
G03X9618330Y4818100I-30219J-5D01*
G02X9628150Y4830880I9817J2620D01*
G01X9650110D01*
G02X9659930Y4818100I3J-10160D01*
G03X9658910Y4810320I29199J-7785D01*
G03X9719350I30220J0D01*
G03X9718330Y4818100I-30219J-5D01*
G02X9728150Y4830880I9817J2620D01*
G01X9750110D01*
G02X9759930Y4818100I3J-10160D01*
G03X9758910Y4810320I29199J-7785D01*
G03X9819350I30220J0D01*
G03X9818330Y4818100I-30219J-5D01*
G02X9828150Y4830880I9817J2620D01*
G01X9850110D01*
G02X9859930Y4818100I3J-10160D01*
G03X9858910Y4810320I29199J-7785D01*
G03X9919350I30220J0D01*
G03X9918330Y4818100I-30219J-5D01*
G02X9928150Y4830880I9817J2620D01*
G01X10035250D01*
G02X10045070Y4818100I3J-10160D01*
G03X10044050Y4810320I29199J-7785D01*
G03X10104490I30220J0D01*
G03X10103470Y4818100I-30219J-5D01*
G02X10113290Y4830880I9817J2620D01*
G01X10135250D01*
G02X10145070Y4818100I3J-10160D01*
G03X10144050Y4810320I29199J-7785D01*
G03X10204490I30220J0D01*
G03X10203470Y4818100I-30219J-5D01*
G02X10213290Y4830880I9817J2620D01*
G01X10335250D01*
G02X10345070Y4818100I3J-10160D01*
G03X10344050Y4810320I29199J-7785D01*
G03X10404490I30220J0D01*
G03X10403470Y4818100I-30219J-5D01*
G02X10413290Y4830880I9817J2620D01*
G01X10746820D01*
Y5054570D01*
X10737470Y5063920D01*
X10708520D01*
G02X10699910Y5079460I6J10159D01*
G03X10704490Y5095460I-25641J15995D01*
G03X10644050I-30220J0D01*
G03X10648630Y5079460I30221J-5D01*
G02X10640020Y5063920I-8616J-5381D01*
G01X10608520D01*
G02X10599910Y5079460I6J10159D01*
G03X10604490Y5095460I-25641J15995D01*
G03X10544050I-30220J0D01*
G03X10548630Y5079460I30221J-5D01*
G02X10540020Y5063920I-8616J-5381D01*
G01X10508520D01*
G02X10499910Y5079460I6J10159D01*
G03X10504490Y5095460I-25641J15995D01*
G03X10444050I-30220J0D01*
G03X10448630Y5079460I30221J-5D01*
G02X10440020Y5063920I-8616J-5381D01*
G01X10408520D01*
G02X10399910Y5079460I6J10159D01*
G03X10404490Y5095460I-25641J15995D01*
G03X10344050I-30220J0D01*
G03X10348630Y5079460I30221J-5D01*
G02X10340020Y5063920I-8616J-5381D01*
G01X10208520D01*
G02X10199910Y5079460I6J10159D01*
G03X10204490Y5095460I-25641J15995D01*
G03X10144050I-30220J0D01*
G03X10148630Y5079460I30221J-5D01*
G02X10140020Y5063920I-8616J-5381D01*
G01X10108520D01*
G02X10099910Y5079460I6J10159D01*
G03X10104490Y5095460I-25641J15995D01*
G03X10044050I-30220J0D01*
G03X10048630Y5079460I30221J-5D01*
G02X10040020Y5063920I-8616J-5381D01*
G01X9923380D01*
G02X9914770Y5079460I6J10159D01*
G03X9919350Y5095460I-25641J15995D01*
G03X9858910I-30220J0D01*
G03X9863490Y5079460I30221J-5D01*
G02X9854880Y5063920I-8616J-5381D01*
G01X9823380D01*
G02X9814770Y5079460I6J10159D01*
G03X9819350Y5095460I-25641J15995D01*
G03X9758910I-30220J0D01*
G03X9763490Y5079460I30221J-5D01*
G02X9754880Y5063920I-8616J-5381D01*
G01X9723380D01*
G02X9714770Y5079460I6J10159D01*
G03X9719350Y5095460I-25641J15995D01*
G03X9658910I-30220J0D01*
G03X9663490Y5079460I30221J-5D01*
G02X9654880Y5063920I-8616J-5381D01*
G01X9624130D01*
X9619430Y5059220D01*
X9600640D01*
Y5067350D01*
X9603330Y5068780D01*
G03X9619350Y5095460I-14207J26680D01*
G03X9558910I-30220J0D01*
G03X9566060Y5075940I30220J0D01*
G02X9558300Y5059220I-7758J-6560D01*
G01X9546270D01*
X9518320Y5087170D01*
X9518820Y5089810D01*
G03X9519350Y5095460I-29691J5635D01*
G03X9489130Y5125680I-30220J0D01*
G03X9483480Y5125150I-15J-30221D01*
G01X9480840Y5124650D01*
X9418320Y5187170D01*
X9418820Y5189810D01*
G03X9419350Y5195460I-29691J5635D01*
G03X9389130Y5225680I-30220J0D01*
G03X9383480Y5225150I-15J-30221D01*
G01X9380840Y5224650D01*
X9342970Y5262520D01*
X9322470D01*
G02X9314080Y5278410I0J10160D01*
G03X9319350Y5295460I-24946J17050D01*
G03X9258910I-30220J0D01*
G03X9264180Y5278410I30216J0D01*
G02X9255790Y5262520I-8390J-5730D01*
G01X7567370D01*
X7022170Y5807720D01*
X7019880D01*
X6711500Y6116100D01*
X6109100D01*
X6051600Y6173600D01*
Y6707100D01*
X6056000Y6711500D01*
G37*
%LPC*%
G75*
G36*
G01X8893430Y4699070D02*
G02X8874680Y4730200I16467J31130D01*
G02X8945120I35220J0D01*
G02X8926370Y4699070I-35217J0D01*
G03Y4681100I4746J-8985D01*
G02X8945120Y4649970I-16467J-31130D01*
G02X8874680I-35220J0D01*
G02X8893430Y4681100I35217J0D01*
G03Y4699070I-4746J8985D01*
G37*
G54D21*
X9389130Y4910320D03*
X9489130D03*
X9589130D03*
X9689130D03*
X9789130D03*
X9889130D03*
X10074270D03*
X10174270D03*
X10274270D03*
X10391700Y4903500D03*
X9389130Y5095460D03*
X9289130Y5195460D03*
Y4210320D03*
X9589130D03*
X10274270D03*
X10774270D03*
X9289130Y4310320D03*
X9589130D03*
X10390660D03*
X10674270D03*
X9289130Y4510320D03*
X9589130D03*
X9689130D03*
X10374270D03*
X10674270D03*
X9289130Y4610320D03*
X9389130D03*
X9489130D03*
X9689130D03*
X9789130D03*
X10074270D03*
X10374270D03*
X10674270D03*
X9089130Y4710320D03*
X9189130D03*
X9289130D03*
X9389130D03*
X9489130D03*
X9589130D03*
X9689130D03*
X9789130D03*
X9985700Y4711500D03*
X10074270Y4710320D03*
X10374270D03*
X10674270D03*
X9489130Y5195460D03*
X9589130D03*
X9689130D03*
X9789130D03*
X9889130D03*
X10074270D03*
X10174270D03*
X10374270D03*
X10474270D03*
X10574270D03*
X10674270D03*
X9389130Y5295460D03*
X9489130D03*
X9589130D03*
X9689130D03*
X9789130D03*
X9889130D03*
X10074270D03*
X10174270D03*
X10274270D03*
X10374270D03*
X10474270D03*
X10574270D03*
X10674270D03*
X9289130Y5395460D03*
X9389130D03*
X9489130D03*
X9589130D03*
X9689130D03*
X9789130D03*
X9889130D03*
X10074270D03*
X10274270D03*
X10374270D03*
X10474270D03*
X10574270D03*
X10674270D03*
X9289130Y5495460D03*
X9389130D03*
X9489130D03*
X9589130D03*
X9689130D03*
X9789130D03*
X9889130D03*
X10074270D03*
X10167900Y5504600D03*
X10274270Y5495460D03*
X10374270D03*
X10474270D03*
X10574270D03*
X10674270D03*
X9289130Y5595460D03*
X9389130D03*
X9489130D03*
X9689130D03*
X9789130D03*
X9889130D03*
X10074270D03*
X10174270D03*
X10474270D03*
X10574270D03*
X10674270D03*
X9289130Y5695460D03*
X9389130D03*
X9489130D03*
X9589130D03*
X9689130D03*
X9789130D03*
X9889130D03*
X10074270D03*
X10174270D03*
X10274270D03*
X10374270D03*
X10474270D03*
X10574270D03*
X10674270D03*
X9189130Y5795460D03*
X9489130D03*
X9589130D03*
X9689130D03*
X9889130D03*
X10074270D03*
X10274270D03*
X10374270D03*
X10474270D03*
X10574270D03*
X9589130Y5895460D03*
X9689130D03*
G54D17*
X8698350Y4779800D03*
X8780180D03*
X6415700Y5087880D03*
X10685700Y4099500D03*
%LPD*%
G75*
G54D10*
X803900Y3254500D03*
X766400Y3624500D03*
Y3784500D03*
X798800Y5736200D03*
X768400Y6108700D03*
Y6268700D03*
X909900Y5820900D03*
X1100200Y5774700D03*
X1165500Y5210500D03*
X1165000Y7692900D03*
X1531400Y2033000D03*
Y2193000D03*
X1532400Y2353000D03*
Y2513000D03*
X1530400Y3071000D03*
X1524300Y5546000D03*
X1688700Y4511400D03*
Y4672400D03*
Y4832400D03*
Y4993400D03*
X1792700Y3066700D03*
X1797800Y5532300D03*
X1890100Y3536700D03*
X1880700Y6012100D03*
X1977800Y8247500D03*
X1976300Y8411000D03*
X2172000Y3526400D03*
X2172100Y6002700D03*
X2202120Y7914100D03*
X2201520Y8015600D03*
Y8116500D03*
X2489740Y3400680D03*
X2492040Y5882080D03*
X2917200Y2590000D03*
Y2750000D03*
Y2910000D03*
X2916200Y3070000D03*
X2910500Y5055400D03*
X2911500Y5215400D03*
Y5375400D03*
Y5535400D03*
X3330000Y5772800D03*
X3328400Y5857900D03*
X3296800Y6144200D03*
Y6304200D03*
X3631200Y5808700D03*
X3692000Y7726700D03*
X3764100Y4326300D03*
X4062200Y2663100D03*
X4055700Y5578000D03*
X4180000Y4541000D03*
Y4701000D03*
Y4861000D03*
Y5021000D03*
X4211200Y9728700D03*
X4224900Y2663100D03*
X4319300Y5574600D03*
X4421900Y6048000D03*
X4564990Y582500D03*
X4650920Y2820160D03*
X4696200Y6040200D03*
X4794310Y3923600D03*
X4748800Y8636760D03*
X4811500Y8976700D03*
X4809100Y9103600D03*
X4864990Y582510D03*
X4886700Y3813900D03*
X4829900Y8679360D03*
X4842800Y10042000D03*
X4922400Y3873400D03*
X4970000Y2395100D03*
X4981500Y3347900D03*
X4984100Y3448300D03*
Y3529400D03*
X4984900Y3618300D03*
X5019940Y5916380D03*
X5131000Y2395100D03*
X5215700Y598100D03*
X5311100Y562800D03*
X5290200Y3553600D03*
X5451200D03*
X5441700Y5096500D03*
X5441400Y5260700D03*
X5440400Y5420700D03*
Y5580700D03*
X5427450Y9299050D03*
X5535800Y8850500D03*
X5537200Y8978300D03*
X5564990Y570400D03*
X5912900Y558800D03*
X5974290Y964610D03*
X6056120D03*
X6019100Y8655360D03*
X6100200Y8698160D03*
X6088160Y10130880D03*
X6213300Y559300D03*
X6296000Y7766700D03*
X6239900Y8652620D03*
X6359800Y2379700D03*
X6325600Y3190600D03*
X6305600Y8998600D03*
X6301000Y9061200D03*
X6411900Y574200D03*
X6444900Y4087560D03*
X6415700Y4289020D03*
Y5087880D03*
X6444600Y5897860D03*
X6440500Y5943640D03*
X6440400Y6884260D03*
X6448300Y1552720D03*
X6448900Y2355280D03*
X6549300Y1552520D03*
X6554900Y2355280D03*
X6531600Y3135100D03*
X6566600Y3238620D03*
X6565900Y3993280D03*
X6565800Y5803880D03*
X6561200Y6037420D03*
X6560800Y6790280D03*
X6650200Y1552620D03*
X6667900Y2355380D03*
X6667400Y3238620D03*
X6666500Y3993280D03*
X6666300Y5803980D03*
X6661500Y6037220D03*
X6661400Y6790380D03*
X6648500Y7606800D03*
X6723000Y556300D03*
X6678350Y8868780D03*
X6768100Y3238820D03*
X6767600Y3993480D03*
X6912600Y574200D03*
X6919100Y8729080D03*
X7000500Y8668920D03*
X7116000Y581000D03*
X7309100D03*
X7515900Y582800D03*
X7765010Y582500D03*
X7865010Y582510D03*
X8114000Y582700D03*
X8303700Y584500D03*
X8505400Y587900D03*
X8708700Y582700D03*
X8698350Y4779800D03*
X8684300Y7564800D03*
X8780180Y4779800D03*
X8816020Y6735200D03*
Y6836200D03*
Y6937800D03*
X8815920Y7039000D03*
X8815520Y7140500D03*
X8865010Y582510D03*
X8891400Y5928700D03*
X8890800Y5857100D03*
X8824560Y8219200D03*
X8824220Y8381700D03*
X8823720Y8484200D03*
X8823120Y8585800D03*
Y8687400D03*
X8822620Y8789600D03*
X8909900Y4649970D03*
Y4730200D03*
X8991580Y7362080D03*
X9103500Y577600D03*
X9062000Y5857100D03*
X9174400Y7228300D03*
X9173700Y8081000D03*
X9305100Y581000D03*
X9369750Y7231700D03*
X9370500Y8081400D03*
X9433500Y7232800D03*
X9435500Y8078700D03*
X9515300Y593000D03*
X9511700Y6457200D03*
X9557500Y6504300D03*
X9499400Y7233800D03*
X9499500Y8082400D03*
X9629310Y7232810D03*
X9564280Y7233820D03*
X9629500Y8077000D03*
X9564500Y8078600D03*
X9809300Y582700D03*
X9857200Y7254700D03*
X9856500Y7308900D03*
X10014400Y591300D03*
X10042300Y9433640D03*
X10087900Y5910900D03*
X10088600Y6095400D03*
X10121720Y8111000D03*
X10205800Y593000D03*
X10169880Y7969800D03*
Y8030800D03*
X10163000Y9530260D03*
X10288100Y3909800D03*
X10230700Y5925900D03*
X10244400Y6094100D03*
X10349700Y3909900D03*
X10373300Y7699100D03*
X10371500Y7764100D03*
X10368600Y7829550D03*
X10370950Y7894050D03*
X10349800Y8736800D03*
X10335350Y9455250D03*
X10412500Y589600D03*
X10412700Y3910100D03*
X10407630Y7308770D03*
X10410600Y10240100D03*
X10469800Y3872200D03*
X10468600Y4086100D03*
X10514650Y8638250D03*
X10535100Y3909500D03*
Y4084200D03*
X10615650Y585950D03*
X10602900Y3910400D03*
Y4079300D03*
X10631700Y6091800D03*
X10681400Y3909500D03*
X10685700Y4099500D03*
X10694600Y6091200D03*
X10675600Y7439200D03*
X10741500Y7503300D03*
X10695390Y8777910D03*
Y9440970D03*
X10807300Y587900D03*
X10759700Y6092200D03*
X10790400Y8738500D03*
X10831100Y6092200D03*
X10823900Y7568300D03*
X10905600Y6092300D03*
X10895900Y7633200D03*
X11003800Y594700D03*
X11207200Y582700D03*
X11218770Y7308770D03*
X11414000Y591300D03*
X11362600Y10240100D03*
X11449220Y7962100D03*
X11449120Y8022700D03*
X11515200Y7968300D03*
X11497280Y8103100D03*
X11605400Y587900D03*
X11801900Y589600D03*
X12001800D03*
X11995700Y2130660D03*
Y2362220D03*
X12062150Y2130360D03*
Y2361920D03*
X12205200Y596400D03*
X12159150Y3438240D03*
X12285150Y2121500D03*
X12271900Y2366900D03*
X12259850Y3438240D03*
X12335150Y2092690D03*
X12341150Y3377940D03*
X12410300Y582700D03*
X12385150Y2121500D03*
X12402450Y3377940D03*
X12608500Y577600D03*
X12649400Y2233500D03*
X12801600Y584500D03*
X12769590Y1791870D03*
X12851420D03*
X12840100Y2395900D03*
X12864900Y4655100D03*
X12905900Y3510200D03*
X13035150Y2121500D03*
X13070040Y2420330D03*
X13105900Y9358200D03*
X13185150Y2121500D03*
X13150270Y2420330D03*
X13220040D03*
X13335150Y2121500D03*
X13300270Y2420330D03*
X13485150Y2121500D03*
X13635150D03*
X13589550Y3443280D03*
X13672450Y3381620D03*
X13785150Y2121500D03*
X13734350Y3381620D03*
X13910150Y2850350D03*
X13935150Y2121500D03*
X13995850Y3381440D03*
X14058850D03*
X14085150Y2121500D03*
X14135150Y2092690D03*
X14151700Y2397600D03*
X14142050Y3440940D03*
X14159000Y9603500D03*
X14243750Y3441240D03*
X14371750Y2805900D03*
X14501400Y2117660D03*
Y2349220D03*
X14458350Y2850350D03*
X14512300Y5637800D03*
X14566750Y2117660D03*
Y2349220D03*
X14671450Y3433440D03*
X14630700Y9603500D03*
X14785150Y2115500D03*
X14770300Y2390800D03*
X14772550Y3433440D03*
X14835150Y2086690D03*
X14885150Y2115500D03*
X14854850Y3372540D03*
X14915650Y3373040D03*
X15154100Y2227500D03*
X15268750Y1787900D03*
X15317200Y2433500D03*
X15350580Y1787900D03*
X15408600Y3510200D03*
X15535150Y2115500D03*
X15570040Y2414330D03*
X15636000Y9355400D03*
X15685150Y2115500D03*
X15650270Y2414330D03*
X15835150Y2115500D03*
X15870040Y2414330D03*
X15985150Y2115500D03*
X15950270Y2414330D03*
X16135150Y2115500D03*
X16094050Y3439580D03*
X16176550Y3378420D03*
X16285150Y2115500D03*
X16237850Y3378420D03*
X16435150Y2115500D03*
X16410150Y2844350D03*
X16500450Y3383540D03*
X16585150Y2115500D03*
X16561050Y3383440D03*
X16635150Y2086690D03*
X16641550Y3442040D03*
X16750150Y2494150D03*
X16743250Y3441840D03*
X16871750Y2801200D03*
X16957500Y2847080D03*
X17003100Y2116860D03*
Y2348420D03*
X17068650Y2117160D03*
Y2348720D03*
X17170150Y2488650D03*
X17171950Y3442440D03*
X17285150Y2115500D03*
X17335150Y2086690D03*
X17274150Y3442440D03*
X17385150Y2115500D03*
X17355950Y3382140D03*
X17417250Y3381240D03*
X17662800Y2227500D03*
X17769240Y1783420D03*
X17851070D03*
X17851500Y4720100D03*
X17885150Y2367450D03*
X17909600Y3316200D03*
X18035150Y2115500D03*
X18070040Y2414330D03*
X18150270D03*
X18136800Y9368100D03*
X18185150Y2115500D03*
X18335150D03*
X18370030Y2414330D03*
X18450260D03*
X18485150Y2115500D03*
X18593850Y3447880D03*
X18635150Y2115500D03*
X18676050Y3386520D03*
X18737750Y3386820D03*
X18785150Y2115500D03*
X18935150D03*
X18910150Y2844350D03*
X18993350Y3386140D03*
X19085150Y2115500D03*
X19055350Y3385640D03*
X19135150Y2086690D03*
X19136850Y3446740D03*
X19250150Y2478650D03*
X19238450Y3446540D03*
X19223900Y9598600D03*
X19371850Y2804000D03*
X19410100Y5232800D03*
X19457500Y2847680D03*
X19499400Y2120760D03*
X19564950Y2120560D03*
X19499400Y2352320D03*
X19564950Y2352120D03*
X19670150Y2497050D03*
X19660150Y3446240D03*
X19685600Y9598600D03*
X19785150Y2121500D03*
X19760950Y3446440D03*
X19835150Y2092690D03*
X19843450Y3385240D03*
X19885150Y2121500D03*
X19905550Y3385240D03*
X20163800Y2233500D03*
X20270190Y1803690D03*
X20352020D03*
X20385150Y2355650D03*
X20409000Y3323900D03*
X20535150Y2121500D03*
X20570040Y2420330D03*
X20650270D03*
X20645300Y9358400D03*
X20685150Y2121500D03*
X20835150D03*
X20870030Y2430340D03*
X20950260D03*
X20985150Y2121500D03*
X21092050Y3449580D03*
X21135150Y2121500D03*
X21173850Y3390520D03*
X21235950D03*
X21285150Y2121500D03*
X21410150Y2850350D03*
X21435150Y2121500D03*
X21496850Y3381940D03*
X21558150Y3381740D03*
X21585150Y2121500D03*
X21635150Y2092690D03*
X21640650Y3442040D03*
X21750150Y2485350D03*
X21741850Y3441240D03*
X21873150Y2804800D03*
X21998900Y2121460D03*
Y2353020D03*
X21958900Y2848780D03*
X22065250Y2121260D03*
Y2352820D03*
X22170150Y2486350D03*
Y3447040D03*
X22285150Y2121500D03*
X22271050Y3446640D03*
X22335150Y2092690D03*
X22385150Y2121500D03*
X22351750Y3385740D03*
X22412750Y3385540D03*
X22665700Y2233500D03*
X22765490Y1797630D03*
X22847320D03*
X22885150Y2348950D03*
X22860400Y6415400D03*
X22913400Y3378600D03*
X23035150Y2121500D03*
X23070040Y2420330D03*
X23185150Y2121500D03*
X23150270Y2420330D03*
X23134600Y9356600D03*
X23335150Y2121500D03*
X23370030Y2420330D03*
X23485150Y2121500D03*
X23450260Y2420330D03*
X23635150Y2121500D03*
X23591250Y3447780D03*
X23672850Y3386820D03*
X23785150Y2121500D03*
X23734350Y3385720D03*
X23935150Y2121500D03*
X23910150Y2850350D03*
X24002550Y3381640D03*
X24085150Y2121500D03*
X24063350Y3381940D03*
X24135150Y2092690D03*
X24144250Y3442140D03*
X24213500Y9592700D03*
X24250150Y2495450D03*
X24245950Y3441440D03*
X24372750Y2806700D03*
X24459000Y2849680D03*
X24495200Y2123160D03*
Y2354720D03*
X24561550Y2122560D03*
Y2354120D03*
X24665850Y3439640D03*
X24674900Y9592700D03*
X24785150Y2121500D03*
X24767600Y2385700D03*
X24767050Y3439940D03*
X24835150Y2092690D03*
X24885150Y2121500D03*
X24848550Y3384740D03*
X24910550Y3383540D03*
X25150400Y2233500D03*
X25267790Y1815770D03*
X25261500Y4665400D03*
X25349620Y1815770D03*
X25385150Y2361150D03*
X25408400Y4268900D03*
X25535150Y2121500D03*
X25570040Y2420330D03*
X25685150Y2121500D03*
X25650270Y2420330D03*
X25685200Y9363500D03*
X25835150Y2121500D03*
X25870040Y2420330D03*
X25985150Y2121500D03*
X25950270Y2420330D03*
X26135150Y2121500D03*
X26097350Y3444680D03*
X26178550Y3382920D03*
X26240050Y3382320D03*
X26285150Y2121500D03*
X26435150D03*
X26410150Y2850350D03*
X26491250Y3383740D03*
X26585150Y2121500D03*
X26552750Y3383240D03*
X26635150Y2092690D03*
X26621800Y2394200D03*
X26634550Y3443440D03*
X26736350Y3444040D03*
X26872850Y2807600D03*
X26958800Y2851580D03*
X26996100Y2122060D03*
X27002200Y2354320D03*
X27068000Y2122360D03*
Y2353920D03*
X27174700Y3439540D03*
X27263500Y2379700D03*
X27275700Y3439340D03*
X27285100Y2121700D03*
X27335100Y2092890D03*
X27385100Y2121700D03*
X27357400Y3378040D03*
X27419500Y3378640D03*
X27657500Y2233700D03*
X27768290Y1808520D03*
X27850120D03*
X27831500Y2392500D03*
X27910800Y3366300D03*
X28035100Y2121700D03*
X28069990Y2420530D03*
X28150220D03*
X28185100Y2121700D03*
X28171500Y9359400D03*
X28335100Y2121700D03*
X28369990Y2420530D03*
X28450220D03*
X28485100Y2121700D03*
X28591100Y3453380D03*
X28635100Y2121700D03*
X28672300Y3387620D03*
X28733200Y3388020D03*
X28785100Y2121700D03*
X28935100D03*
X28910100Y2850550D03*
X29001600Y3386740D03*
X29085100Y2121700D03*
X29062200Y3386440D03*
X29135100Y2092890D03*
X29142500Y2411300D03*
X29143400Y3446140D03*
X29245500Y3445540D03*
X29370700Y2807600D03*
X29456600Y2850300D03*
G54D11*
X799200Y3339400D03*
X1113500Y3290000D03*
X2207600Y1858900D03*
Y1958900D03*
Y2058900D03*
Y2158900D03*
Y2258900D03*
Y2358900D03*
X2307600Y1858900D03*
Y1958900D03*
Y2058900D03*
Y2158900D03*
Y2258900D03*
Y2358900D03*
X2369500Y4299200D03*
Y4399200D03*
Y4499200D03*
Y4599200D03*
Y4699200D03*
Y4799200D03*
X2407600Y1858900D03*
Y1958900D03*
Y2058900D03*
Y2158900D03*
Y2258900D03*
Y2358900D03*
X2469500Y4299200D03*
Y4399200D03*
Y4499200D03*
Y4599200D03*
Y4699200D03*
Y4799200D03*
X2569500Y4299200D03*
Y4399200D03*
Y4499200D03*
Y4599200D03*
Y4699200D03*
Y4799200D03*
X4865200Y4461100D03*
Y4561100D03*
Y4661100D03*
Y4761100D03*
Y4861100D03*
X4965200Y4461100D03*
Y4561100D03*
Y4661100D03*
Y4761100D03*
Y4861100D03*
X5065200Y4461100D03*
Y4561100D03*
Y4661100D03*
Y4761100D03*
Y4861100D03*
X5090100Y8762900D03*
Y8862900D03*
X5165200Y4461100D03*
Y4561100D03*
Y4661100D03*
Y4761100D03*
Y4861100D03*
X5190100Y8762900D03*
Y8862900D03*
X5265200Y4461100D03*
Y4561100D03*
Y4661100D03*
Y4761100D03*
Y4861100D03*
X5311000Y2710500D03*
Y2810500D03*
Y2910500D03*
X5411000Y2710500D03*
Y2810500D03*
Y2910500D03*
X5365200Y4461100D03*
Y4561100D03*
Y4661100D03*
Y4761100D03*
Y4861100D03*
X5464990Y575390D03*
X5511000Y2710500D03*
Y2810500D03*
Y2910500D03*
X5957300Y8971400D03*
Y9071400D03*
X6057300Y8971400D03*
Y9071400D03*
X6418700Y5226800D03*
Y5326800D03*
Y5426800D03*
X6497200Y1910600D03*
Y2010600D03*
X6485300Y2706200D03*
Y2806200D03*
X6518700Y4578200D03*
Y4678200D03*
Y4778200D03*
Y5226800D03*
Y5326800D03*
Y5426800D03*
X6597200Y1910600D03*
Y2010600D03*
X6585300Y2706200D03*
Y2806200D03*
X6569000Y3560600D03*
Y3660600D03*
X6537500Y6366600D03*
Y6466600D03*
X6669000Y3560600D03*
Y3660600D03*
X6618700Y4578200D03*
Y4678200D03*
Y4778200D03*
Y5226800D03*
Y5326800D03*
Y5426800D03*
X6637500Y6366600D03*
Y6466600D03*
X6697200Y1910600D03*
Y2010600D03*
X6685300Y2706200D03*
Y2806200D03*
X6718700Y4578200D03*
Y4678200D03*
Y4778200D03*
Y5226800D03*
Y5326800D03*
Y5426800D03*
X6737500Y6366600D03*
Y6466600D03*
X6797200Y1910600D03*
Y2010600D03*
X6785300Y2706200D03*
Y2806200D03*
X6769000Y3560600D03*
Y3660600D03*
X6818700Y5226800D03*
Y5326800D03*
Y5426800D03*
X6897200Y1910600D03*
Y2010600D03*
X6869000Y3560600D03*
Y3660600D03*
X6837500Y6366600D03*
Y6466600D03*
X6937500Y6366600D03*
Y6466600D03*
X7122900Y8983300D03*
Y9083300D03*
X9156500Y6766000D03*
Y6866000D03*
Y6966000D03*
X9196200Y8613300D03*
Y8713300D03*
X9293700Y8614900D03*
Y8714900D03*
X10320600Y9127600D03*
Y9227600D03*
X10416000Y8207400D03*
X10420600Y9127600D03*
Y9227600D03*
X10516000Y8207400D03*
X11046100Y8158700D03*
X11146100D03*
X11951400Y3286300D03*
Y3386300D03*
X12051400Y3286300D03*
Y3386300D03*
X13815100Y3310200D03*
Y3410200D03*
X13915100Y3310200D03*
Y3410200D03*
X14435300Y3288000D03*
Y3388000D03*
X14535300Y3288000D03*
Y3388000D03*
X16316900Y3308500D03*
Y3408500D03*
X16416900Y3308500D03*
Y3408500D03*
X16957800Y3288000D03*
Y3388000D03*
X17057800Y3288000D03*
Y3388000D03*
X18817100Y3305100D03*
Y3405100D03*
X18917100Y3305100D03*
Y3405100D03*
X19440900Y3282800D03*
Y3382800D03*
X19540900Y3282800D03*
Y3382800D03*
X21313800Y3296500D03*
Y3396500D03*
X21413800Y3296500D03*
Y3396500D03*
X21942700Y3281200D03*
Y3381200D03*
X22042700Y3281200D03*
Y3381200D03*
X23812300Y3315300D03*
Y3415300D03*
X23912300Y3315300D03*
Y3415300D03*
X24454800Y3284500D03*
Y3384500D03*
X24554800Y3284500D03*
Y3384500D03*
X26321000Y3324700D03*
X26319300Y3408500D03*
X26407300Y3323000D03*
X26409000Y3411900D03*
X26929400Y3276100D03*
Y3376100D03*
X27029400Y3276100D03*
Y3376100D03*
X28812700Y3308500D03*
Y3408500D03*
X28912700Y3308500D03*
Y3408500D03*
G54D12*
X2682200Y9439410D03*
Y9859410D03*
X3102200Y9439410D03*
Y9859410D03*
X3522200Y9439410D03*
Y9859410D03*
G54D13*
X4664990Y555210D03*
G54D14*
X5077200Y10107900D03*
X5331200D03*
X6340900Y10024200D03*
X6594900D03*
X6848900D03*
X8085800Y10091200D03*
X8339800D03*
X8593800D03*
X8847800D03*
X9101800D03*
G54D15*
X9089130Y4710320D03*
X9189130D03*
Y5795460D03*
X9289130Y4210320D03*
Y4310320D03*
Y4510320D03*
Y4610320D03*
Y4710320D03*
Y4810320D03*
Y4910320D03*
Y5095460D03*
Y5195460D03*
Y5295460D03*
Y5395460D03*
Y5495460D03*
Y5595460D03*
Y5695460D03*
X9389130Y4610320D03*
Y4710320D03*
Y4810320D03*
Y4910320D03*
Y5095460D03*
Y5195460D03*
Y5295460D03*
Y5395460D03*
Y5495460D03*
Y5595460D03*
Y5695460D03*
X9489130Y4610320D03*
Y4710320D03*
Y4810320D03*
Y4910320D03*
Y5095460D03*
Y5195460D03*
Y5295460D03*
Y5395460D03*
Y5495460D03*
Y5595460D03*
Y5695460D03*
Y5795460D03*
X9589130Y4210320D03*
Y4310320D03*
Y4410320D03*
Y4510320D03*
Y4710320D03*
Y4810320D03*
Y4910320D03*
Y5095460D03*
Y5195460D03*
Y5295460D03*
Y5395460D03*
Y5495460D03*
Y5595460D03*
Y5695460D03*
Y5795460D03*
Y5895460D03*
X9689130Y4510320D03*
Y4610320D03*
Y4710320D03*
Y4810320D03*
Y4910320D03*
Y5095460D03*
Y5195460D03*
Y5295460D03*
Y5395460D03*
Y5495460D03*
Y5595460D03*
Y5695460D03*
Y5795460D03*
Y5895460D03*
X9789130Y4210320D03*
Y4510320D03*
Y4610320D03*
Y4710320D03*
Y4810320D03*
Y4910320D03*
Y5095460D03*
Y5195460D03*
Y5295460D03*
Y5395460D03*
Y5495460D03*
Y5595460D03*
Y5695460D03*
X9889130Y4410320D03*
Y4510320D03*
Y4810320D03*
Y4910320D03*
Y5095460D03*
Y5195460D03*
Y5295460D03*
Y5395460D03*
Y5495460D03*
Y5595460D03*
Y5695460D03*
Y5795460D03*
X9985700Y4711500D03*
X10074270Y4610320D03*
Y4710320D03*
Y4810320D03*
Y4910320D03*
Y5095460D03*
Y5195460D03*
Y5295460D03*
Y5395460D03*
Y5495460D03*
Y5595460D03*
Y5695460D03*
Y5795460D03*
X10174270Y4810320D03*
Y4910320D03*
Y5095460D03*
Y5195460D03*
Y5295460D03*
X10167900Y5504600D03*
X10174270Y5595460D03*
Y5695460D03*
X10274270Y4210320D03*
Y4910320D03*
Y5295460D03*
Y5395460D03*
Y5495460D03*
Y5695460D03*
Y5795460D03*
X10390660Y4310320D03*
X10374270Y4410320D03*
Y4510320D03*
Y4610320D03*
Y4710320D03*
Y4810320D03*
X10391700Y4903500D03*
X10374270Y5095460D03*
Y5195460D03*
Y5295460D03*
Y5395460D03*
Y5495460D03*
Y5595460D03*
Y5695460D03*
Y5795460D03*
X10474270Y5095460D03*
Y5195460D03*
Y5295460D03*
Y5395460D03*
Y5495460D03*
Y5595460D03*
Y5695460D03*
Y5795460D03*
X10574270Y5095460D03*
Y5195460D03*
Y5295460D03*
Y5395460D03*
Y5495460D03*
Y5595460D03*
Y5695460D03*
Y5795460D03*
X10674270Y4310320D03*
Y4510320D03*
Y4610320D03*
Y4710320D03*
Y4910320D03*
Y5095460D03*
Y5195460D03*
Y5295460D03*
Y5395460D03*
Y5495460D03*
Y5595460D03*
Y5695460D03*
X10774270Y4210320D03*
X12860150Y3383500D03*
X15360150Y3377500D03*
X17860150D03*
X20360150Y3383500D03*
X22860150D03*
X25360150Y3544100D03*
X27860100Y3482800D03*
G54D16*
X13210150Y5611000D03*
Y6811000D03*
Y8611000D03*
X15710150Y5605000D03*
Y6805000D03*
Y8605000D03*
X18210150Y5605000D03*
Y6805000D03*
Y8605000D03*
X20710150Y5611000D03*
Y6811000D03*
Y8611000D03*
X23210150Y5611000D03*
Y6811000D03*
Y8611000D03*
X25710150Y5611000D03*
Y6811000D03*
Y8611000D03*
X28210100Y5611200D03*
Y6811200D03*
Y8611200D03*
M02*
