G04 ================== begin FILE IDENTIFICATION RECORD ==================*
G04 Layout Name:  pcie-nvme_rework2.brd*
G04 Film Name:    SILKB*
G04 File Format:  Gerber RS274X*
G04 File Origin:  Cadence Allegro 25.1-S010*
G04 Origin Date:  Tue May 12 01:05:28 2026*
G04 *
G04 Layer:  REF DES/SILKSCREEN_BOTTOM*
G04 Layer:  PACKAGE GEOMETRY/SILKSCREEN_BOTTOM*
G04 Layer:  BOARD GEOMETRY/SILKSCREEN_BOTTOM*
G04 *
G04 Offset:    (0.0000 0.0000)*
G04 Mirror:    No*
G04 Mode:      Positive*
G04 Rotation:  0*
G04 FullContactRelief:  No*
G04 UndefLineWidth:     0.1000*
G04 ================== end FILE IDENTIFICATION RECORD ====================*
%FSLAX25Y25*MOMM*%
%IR0*IPPOS*OFA0.00000B0.00000*MIA0B0*SFA1.00000B1.00000*%
%ADD10C,.127*%
%ADD11C,.508*%
%ADD12C,.1*%
G75*
%LPD*%
G75*
G36*
G01X6244700Y818800D02*
X6314700D01*
Y648800D01*
X6244700D01*
Y818800D01*
G37*
G36*
G01X6314900Y818700D02*
X6384900D01*
Y648700D01*
X6314900D01*
Y818700D01*
G37*
G36*
G01X6745300Y803100D02*
X6815300D01*
Y633100D01*
X6745300D01*
Y803100D01*
G37*
G36*
G01X6815600Y803000D02*
X6885600D01*
Y633000D01*
X6815600D01*
Y803000D01*
G37*
G36*
G01X9027300Y4851100D02*
Y4781100D01*
X8857300D01*
Y4851100D01*
X9027300D01*
G37*
G36*
G01X9027600Y4922200D02*
Y4852200D01*
X8857600D01*
Y4922200D01*
X9027600D01*
G37*
G36*
G01Y4993500D02*
Y4923500D01*
X8857600D01*
Y4993500D01*
X9027600D01*
G37*
G36*
G01X9027400Y5064400D02*
Y4994400D01*
X8857400D01*
Y5064400D01*
X9027400D01*
G37*
G36*
G01X9027300Y5135400D02*
Y5065400D01*
X8857300D01*
Y5135400D01*
X9027300D01*
G37*
G36*
G01Y5206600D02*
Y5136600D01*
X8857300D01*
Y5206600D01*
X9027300D01*
G37*
G36*
G01X9027400Y5277900D02*
Y5207900D01*
X8857400D01*
Y5277900D01*
X9027400D01*
G37*
G36*
G01X9027600Y5349100D02*
Y5279100D01*
X8857600D01*
Y5349100D01*
X9027600D01*
G37*
G36*
G01X9027700Y5420900D02*
Y5350900D01*
X8857700D01*
Y5420900D01*
X9027700D01*
G37*
G36*
G01X9028800Y5494500D02*
Y5424500D01*
X8858800D01*
Y5494500D01*
X9028800D01*
G37*
G36*
G01X9028900Y5565700D02*
Y5495700D01*
X8858900D01*
Y5565700D01*
X9028900D01*
G37*
G36*
G01Y5636800D02*
Y5566800D01*
X8858900D01*
Y5636800D01*
X9028900D01*
G37*
G36*
G01X9199800Y4821600D02*
Y4891600D01*
X9369800D01*
Y4821600D01*
X9199800D01*
G37*
G36*
G01X9201400Y5111500D02*
Y5181500D01*
X9371400D01*
Y5111500D01*
X9201400D01*
G37*
G36*
G01X9667500Y4422600D02*
X9597500D01*
Y4592600D01*
X9667500D01*
Y4422600D01*
G37*
G36*
G01X9595500Y4782700D02*
X9665500D01*
Y4612700D01*
X9595500D01*
Y4782700D01*
G37*
G36*
G01X9598100Y4988400D02*
X9668100D01*
Y4818400D01*
X9598100D01*
Y4988400D01*
G37*
G36*
G01X9595500Y5183100D02*
X9665500D01*
Y5013100D01*
X9595500D01*
Y5183100D01*
G37*
G36*
G01X9598100Y5386200D02*
X9668100D01*
Y5216200D01*
X9598100D01*
Y5386200D01*
G37*
G36*
G01X9667600Y5520300D02*
X9597600D01*
Y5690300D01*
X9667600D01*
Y5520300D01*
G37*
G36*
G01X9695400Y5014700D02*
Y5084700D01*
X9865400D01*
Y5014700D01*
X9695400D01*
G37*
G36*
G01X9796200Y4982200D02*
X9866200D01*
Y4812200D01*
X9796200D01*
Y4982200D01*
G37*
G36*
G01X9800700Y5118800D02*
Y5188800D01*
X9970700D01*
Y5118800D01*
X9800700D01*
G37*
G36*
G01X9967800Y4422300D02*
X9897800D01*
Y4592300D01*
X9967800D01*
Y4422300D01*
G37*
G36*
G01X9897500Y4882000D02*
X9967500D01*
Y4712000D01*
X9897500D01*
Y4882000D01*
G37*
G36*
G01X9897800Y5081800D02*
X9967800D01*
Y4911800D01*
X9897800D01*
Y5081800D01*
G37*
G36*
G01X9996700Y4981600D02*
X10066700D01*
Y4811600D01*
X9996700D01*
Y4981600D01*
G37*
G36*
G01X9997000Y5182000D02*
X10067000D01*
Y5012000D01*
X9997000D01*
Y5182000D01*
G37*
G36*
G01X10096900Y4882000D02*
X10166900D01*
Y4712000D01*
X10096900D01*
Y4882000D01*
G37*
G36*
G01X10271700Y4994200D02*
Y4924200D01*
X10101700D01*
Y4994200D01*
X10271700D01*
G37*
G36*
G01X10102800Y5018000D02*
Y5088000D01*
X10272800D01*
Y5018000D01*
X10102800D01*
G37*
G36*
G01X10096900Y5288300D02*
X10166900D01*
Y5118300D01*
X10096900D01*
Y5288300D01*
G37*
G36*
G01X10298400Y4482200D02*
X10368400D01*
Y4312200D01*
X10298400D01*
Y4482200D01*
G37*
G36*
G01X10297700Y4681200D02*
X10367700D01*
Y4511200D01*
X10297700D01*
Y4681200D01*
G37*
G36*
G01X10298400Y4882400D02*
X10368400D01*
Y4712400D01*
X10298400D01*
Y4882400D01*
G37*
G36*
G01X10297700Y5082100D02*
X10367700D01*
Y4912100D01*
X10297700D01*
Y5082100D01*
G37*
G36*
G01X10295800Y5286200D02*
X10365800D01*
Y5116200D01*
X10295800D01*
Y5286200D01*
G37*
G36*
G01X10365800Y5519800D02*
X10295800D01*
Y5689800D01*
X10365800D01*
Y5519800D01*
G37*
G36*
G01X10602600Y4892600D02*
X10672600D01*
Y4722600D01*
X10602600D01*
Y4892600D01*
G37*
G36*
G01X10934000Y4820500D02*
Y4890500D01*
X11104000D01*
Y4820500D01*
X10934000D01*
G37*
G36*
G01X10933900Y4890900D02*
Y4960900D01*
X11103900D01*
Y4890900D01*
X10933900D01*
G37*
G36*
G01X10934100Y4961500D02*
Y5031500D01*
X11104100D01*
Y4961500D01*
X10934100D01*
G37*
G36*
G01Y5032000D02*
Y5102000D01*
X11104100D01*
Y5032000D01*
X10934100D01*
G37*
G36*
G01Y5102500D02*
Y5172500D01*
X11104100D01*
Y5102500D01*
X10934100D01*
G37*
G36*
G01Y5173000D02*
Y5243000D01*
X11104100D01*
Y5173000D01*
X10934100D01*
G37*
G36*
G01Y5243500D02*
Y5313500D01*
X11104100D01*
Y5243500D01*
X10934100D01*
G37*
G36*
G01X10934000Y5314100D02*
Y5384100D01*
X11104000D01*
Y5314100D01*
X10934000D01*
G37*
G36*
G01X10934100Y5384600D02*
Y5454600D01*
X11104100D01*
Y5384600D01*
X10934100D01*
G37*
G36*
G01X10934400Y5455100D02*
Y5525100D01*
X11104400D01*
Y5455100D01*
X10934400D01*
G37*
G36*
G01X10934100Y5525100D02*
Y5595100D01*
X11104100D01*
Y5525100D01*
X10934100D01*
G37*
G36*
G01Y5595600D02*
Y5665600D01*
X11104100D01*
Y5595600D01*
X10934100D01*
G37*
G36*
G01Y5666100D02*
Y5736100D01*
X11104100D01*
Y5666100D01*
X10934100D01*
G37*
G36*
G01Y5736900D02*
Y5806900D01*
X11104100D01*
Y5736900D01*
X10934100D01*
G37*
G36*
G01Y5807600D02*
Y5877600D01*
X11104100D01*
Y5807600D01*
X10934100D01*
G37*
G36*
G01Y5878700D02*
Y5948700D01*
X11104100D01*
Y5878700D01*
X10934100D01*
G37*
G54D10*
G01X893060Y863600D02*
X864620D01*
G01X878840D02*
Y762000D01*
G01X893060D02*
X864620D01*
G01X833800D02*
Y863600D01*
X810090D01*
X800610Y858520D01*
X793500Y851750D01*
X787570Y841590D01*
X782830Y829730D01*
X781640Y812800D01*
X782830Y795870D01*
X787570Y784010D01*
X793500Y773850D01*
X800610Y767080D01*
X810090Y762000D01*
X833800D01*
G01X752010Y795870D02*
X721190D01*
G01X656000Y816190D02*
X651260Y821270D01*
X647700Y829730D01*
X645330Y841590D01*
X647700Y851750D01*
X652440Y858520D01*
X660740Y863600D01*
X692740D01*
Y762000D01*
X653630D01*
X645330Y768770D01*
X640590Y778930D01*
X638220Y790790D01*
X640590Y802640D01*
X647700Y812800D01*
X656000Y816190D01*
X692740D01*
G01X594360Y762000D02*
X603840Y763690D01*
X612140Y770460D01*
X619250Y780630D01*
X623990Y792480D01*
X626360Y806030D01*
Y819570D01*
X623990Y833120D01*
X619250Y844970D01*
X612140Y855130D01*
X603840Y861910D01*
X594360Y863600D01*
X584880Y861910D01*
X576580Y855130D01*
X569470Y844970D01*
X564730Y833120D01*
X562360Y819570D01*
Y806030D01*
X564730Y792480D01*
X569470Y780630D01*
X576580Y770460D01*
X584880Y763690D01*
X594360Y762000D01*
G01X552870D02*
X523240Y863600D01*
X493610Y762000D01*
G01X504280Y797560D02*
X542210D01*
G01X475830Y762000D02*
Y863600D01*
X446190D01*
X436710Y858520D01*
X430780Y851750D01*
X428410Y838200D01*
X430780Y824650D01*
X437900Y816190D01*
X446190Y811110D01*
X475830D01*
G01X446190D02*
X428410Y762000D01*
G01X407080D02*
Y863600D01*
X383370D01*
X373890Y858520D01*
X366780Y851750D01*
X360850Y841590D01*
X356110Y829730D01*
X354920Y812800D01*
X356110Y795870D01*
X360850Y784010D01*
X366780Y773850D01*
X373890Y767080D01*
X383370Y762000D01*
X407080D01*
G01X893060Y9402600D02*
X864620D01*
G01X878840D02*
Y9301000D01*
G01X893060D02*
X864620D01*
G01X833800D02*
Y9402600D01*
X810090D01*
X800610Y9397520D01*
X793500Y9390750D01*
X787570Y9380590D01*
X782830Y9368730D01*
X781640Y9351800D01*
X782830Y9334870D01*
X787570Y9323010D01*
X793500Y9312850D01*
X800610Y9306080D01*
X810090Y9301000D01*
X833800D01*
G01X752010Y9334870D02*
X721190D01*
G01X656000Y9355190D02*
X651260Y9360270D01*
X647700Y9368730D01*
X645330Y9380590D01*
X647700Y9390750D01*
X652440Y9397520D01*
X660740Y9402600D01*
X692740D01*
Y9301000D01*
X653630D01*
X645330Y9307770D01*
X640590Y9317930D01*
X638220Y9329790D01*
X640590Y9341640D01*
X647700Y9351800D01*
X656000Y9355190D01*
X692740D01*
G01X594360Y9301000D02*
X603840Y9302690D01*
X612140Y9309460D01*
X619250Y9319630D01*
X623990Y9331480D01*
X626360Y9345030D01*
Y9358570D01*
X623990Y9372120D01*
X619250Y9383970D01*
X612140Y9394130D01*
X603840Y9400910D01*
X594360Y9402600D01*
X584880Y9400910D01*
X576580Y9394130D01*
X569470Y9383970D01*
X564730Y9372120D01*
X562360Y9358570D01*
Y9345030D01*
X564730Y9331480D01*
X569470Y9319630D01*
X576580Y9309460D01*
X584880Y9302690D01*
X594360Y9301000D01*
G01X552870D02*
X523240Y9402600D01*
X493610Y9301000D01*
G01X504280Y9336560D02*
X542210D01*
G01X475830Y9301000D02*
Y9402600D01*
X446190D01*
X436710Y9397520D01*
X430780Y9390750D01*
X428410Y9377200D01*
X430780Y9363650D01*
X437900Y9355190D01*
X446190Y9350110D01*
X475830D01*
G01X446190D02*
X428410Y9301000D01*
G01X407080D02*
Y9402600D01*
X383370D01*
X373890Y9397520D01*
X366780Y9390750D01*
X360850Y9380590D01*
X356110Y9368730D01*
X354920Y9351800D01*
X356110Y9334870D01*
X360850Y9323010D01*
X366780Y9312850D01*
X373890Y9306080D01*
X383370Y9301000D01*
X407080D01*
G01X31077060Y1688600D02*
X31048620D01*
G01X31062840D02*
Y1587000D01*
G01X31077060D02*
X31048620D01*
G01X31017800D02*
Y1688600D01*
X30994090D01*
X30984610Y1683520D01*
X30977500Y1676750D01*
X30971570Y1666590D01*
X30966830Y1654730D01*
X30965640Y1637800D01*
X30966830Y1620870D01*
X30971570Y1609010D01*
X30977500Y1598850D01*
X30984610Y1592080D01*
X30994090Y1587000D01*
X31017800D01*
G01X30936010Y1620870D02*
X30905190D01*
G01X30840000Y1641190D02*
X30835260Y1646270D01*
X30831700Y1654730D01*
X30829330Y1666590D01*
X30831700Y1676750D01*
X30836440Y1683520D01*
X30844740Y1688600D01*
X30876740D01*
Y1587000D01*
X30837630D01*
X30829330Y1593770D01*
X30824590Y1603930D01*
X30822220Y1615790D01*
X30824590Y1627640D01*
X30831700Y1637800D01*
X30840000Y1641190D01*
X30876740D01*
G01X30778360Y1587000D02*
X30787840Y1588690D01*
X30796140Y1595460D01*
X30803250Y1605630D01*
X30807990Y1617480D01*
X30810360Y1631030D01*
Y1644570D01*
X30807990Y1658120D01*
X30803250Y1669970D01*
X30796140Y1680130D01*
X30787840Y1686910D01*
X30778360Y1688600D01*
X30768880Y1686910D01*
X30760580Y1680130D01*
X30753470Y1669970D01*
X30748730Y1658120D01*
X30746360Y1644570D01*
Y1631030D01*
X30748730Y1617480D01*
X30753470Y1605630D01*
X30760580Y1595460D01*
X30768880Y1588690D01*
X30778360Y1587000D01*
G01X30736870D02*
X30707240Y1688600D01*
X30677610Y1587000D01*
G01X30688280Y1622560D02*
X30726210D01*
G01X30659830Y1587000D02*
Y1688600D01*
X30630190D01*
X30620710Y1683520D01*
X30614780Y1676750D01*
X30612410Y1663200D01*
X30614780Y1649650D01*
X30621900Y1641190D01*
X30630190Y1636110D01*
X30659830D01*
G01X30630190D02*
X30612410Y1587000D01*
G01X30591080D02*
Y1688600D01*
X30567370D01*
X30557890Y1683520D01*
X30550780Y1676750D01*
X30544850Y1666590D01*
X30540110Y1654730D01*
X30538920Y1637800D01*
X30540110Y1620870D01*
X30544850Y1609010D01*
X30550780Y1598850D01*
X30557890Y1592080D01*
X30567370Y1587000D01*
X30591080D01*
G01X31077060Y10227600D02*
X31048620D01*
G01X31062840D02*
Y10126000D01*
G01X31077060D02*
X31048620D01*
G01X31017800D02*
Y10227600D01*
X30994090D01*
X30984610Y10222520D01*
X30977500Y10215750D01*
X30971570Y10205590D01*
X30966830Y10193730D01*
X30965640Y10176800D01*
X30966830Y10159870D01*
X30971570Y10148010D01*
X30977500Y10137850D01*
X30984610Y10131080D01*
X30994090Y10126000D01*
X31017800D01*
G01X30936010Y10159870D02*
X30905190D01*
G01X30840000Y10180190D02*
X30835260Y10185270D01*
X30831700Y10193730D01*
X30829330Y10205590D01*
X30831700Y10215750D01*
X30836440Y10222520D01*
X30844740Y10227600D01*
X30876740D01*
Y10126000D01*
X30837630D01*
X30829330Y10132770D01*
X30824590Y10142930D01*
X30822220Y10154790D01*
X30824590Y10166640D01*
X30831700Y10176800D01*
X30840000Y10180190D01*
X30876740D01*
G01X30778360Y10126000D02*
X30787840Y10127690D01*
X30796140Y10134460D01*
X30803250Y10144630D01*
X30807990Y10156480D01*
X30810360Y10170030D01*
Y10183570D01*
X30807990Y10197120D01*
X30803250Y10208970D01*
X30796140Y10219130D01*
X30787840Y10225910D01*
X30778360Y10227600D01*
X30768880Y10225910D01*
X30760580Y10219130D01*
X30753470Y10208970D01*
X30748730Y10197120D01*
X30746360Y10183570D01*
Y10170030D01*
X30748730Y10156480D01*
X30753470Y10144630D01*
X30760580Y10134460D01*
X30768880Y10127690D01*
X30778360Y10126000D01*
G01X30736870D02*
X30707240Y10227600D01*
X30677610Y10126000D01*
G01X30688280Y10161560D02*
X30726210D01*
G01X30659830Y10126000D02*
Y10227600D01*
X30630190D01*
X30620710Y10222520D01*
X30614780Y10215750D01*
X30612410Y10202200D01*
X30614780Y10188650D01*
X30621900Y10180190D01*
X30630190Y10175110D01*
X30659830D01*
G01X30630190D02*
X30612410Y10126000D01*
G01X30591080D02*
Y10227600D01*
X30567370D01*
X30557890Y10222520D01*
X30550780Y10215750D01*
X30544850Y10205590D01*
X30540110Y10193730D01*
X30538920Y10176800D01*
X30540110Y10159870D01*
X30544850Y10148010D01*
X30550780Y10137850D01*
X30557890Y10131080D01*
X30567370Y10126000D01*
X30591080D01*
G54D11*
G01X3971830Y9439410D02*
G02I-38100J0D01*
G54D12*
G01X5690520Y636030D02*
X5881020D01*
Y695290D01*
X5871490Y714260D01*
X5858790Y726110D01*
X5833390Y730850D01*
X5807990Y726110D01*
X5792120Y711890D01*
X5782590Y695290D01*
Y636030D01*
G01Y695290D02*
X5690520Y730850D01*
G01X5712740Y833640D02*
X5696870Y850230D01*
X5690520Y869200D01*
X5696870Y888160D01*
X5715910Y904760D01*
X5744500Y916610D01*
X5773070Y921350D01*
X5807990D01*
X5836570Y916610D01*
X5861970Y904760D01*
X5874670Y890530D01*
X5881020Y873940D01*
X5874670Y854970D01*
X5861970Y840750D01*
X5842920Y831270D01*
X5817520Y826530D01*
X5795300Y831270D01*
X5773070Y843120D01*
X5760370Y857350D01*
X5757190Y873940D01*
X5763540Y892900D01*
X5779420Y907130D01*
X5807990Y921350D01*
G01X5690520Y1059700D02*
X5731790Y1064440D01*
X5766720Y1071550D01*
X5798470Y1081030D01*
X5833390Y1092890D01*
X5881020Y1111850D01*
Y1017030D01*
G01X5770920Y636030D02*
X5961420D01*
Y695290D01*
X5951890Y714260D01*
X5939190Y726110D01*
X5913790Y730850D01*
X5888390Y726110D01*
X5872520Y711890D01*
X5862990Y695290D01*
Y636030D01*
G01Y695290D02*
X5770920Y730850D01*
G01X5793140Y833640D02*
X5777270Y850230D01*
X5770920Y869200D01*
X5777270Y888160D01*
X5796310Y904760D01*
X5824900Y916610D01*
X5853470Y921350D01*
X5888390D01*
X5916970Y916610D01*
X5942370Y904760D01*
X5955070Y890530D01*
X5961420Y873940D01*
X5955070Y854970D01*
X5942370Y840750D01*
X5923320Y831270D01*
X5897920Y826530D01*
X5875700Y831270D01*
X5853470Y843120D01*
X5840770Y857350D01*
X5837590Y873940D01*
X5843940Y892900D01*
X5859820Y907130D01*
X5888390Y921350D01*
G01X5770920Y1064440D02*
X5774090Y1081030D01*
X5783620Y1100000D01*
X5799490Y1111850D01*
X5821720Y1116590D01*
X5843940Y1111850D01*
X5862990Y1097630D01*
X5872520Y1076290D01*
Y1052590D01*
X5878870Y1038360D01*
X5894740Y1026510D01*
X5916970Y1021770D01*
X5939190Y1028880D01*
X5955070Y1045470D01*
X5961420Y1064440D01*
X5955070Y1083400D01*
X5939190Y1100000D01*
X5916970Y1107110D01*
X5894740Y1102370D01*
X5878870Y1090520D01*
X5872520Y1076290D01*
Y1052590D01*
X5862990Y1031250D01*
X5843940Y1017030D01*
X5821720Y1012290D01*
X5799490Y1017030D01*
X5783620Y1028880D01*
X5774090Y1047850D01*
X5770920Y1064440D01*
G01X6015000Y645900D02*
X5935000D01*
Y820900D01*
X6015000D01*
Y645900D01*
G01X6095400D02*
X6015400D01*
Y820900D01*
X6095400D01*
Y645900D01*
G01X6389560Y734110D02*
X6380030Y748330D01*
X6373680Y764920D01*
Y783890D01*
X6383210Y805230D01*
X6399080Y821820D01*
X6418130Y833670D01*
X6449880Y843160D01*
X6478460Y845530D01*
X6507030Y840780D01*
X6526080Y833670D01*
X6545130Y819450D01*
X6557830Y802850D01*
X6564180Y786260D01*
Y769670D01*
X6557830Y753070D01*
X6548310Y738850D01*
X6535610Y726990D01*
G01X6564180Y595760D02*
X6373680D01*
X6411780Y624210D01*
G01X6564180D02*
Y567320D01*
G01Y405260D02*
X6373680D01*
X6411780Y433710D01*
G01X6564180D02*
Y376820D01*
G01X6373680Y214760D02*
X6380030Y233730D01*
X6395910Y247950D01*
X6414950Y257430D01*
X6440360Y264540D01*
X6468930Y266910D01*
X6497510Y264540D01*
X6522910Y257430D01*
X6541960Y247950D01*
X6557830Y233730D01*
X6564180Y214760D01*
X6557830Y195800D01*
X6541960Y181570D01*
X6522910Y172090D01*
X6497510Y164980D01*
X6468930Y162610D01*
X6440360Y164980D01*
X6414950Y172090D01*
X6395910Y181570D01*
X6380030Y195800D01*
X6373680Y214760D01*
G01X6459760Y734010D02*
X6450230Y748230D01*
X6443880Y764820D01*
Y783790D01*
X6453410Y805130D01*
X6469280Y821720D01*
X6488330Y833570D01*
X6520080Y843060D01*
X6548660Y845430D01*
X6577230Y840680D01*
X6596280Y833570D01*
X6615330Y819350D01*
X6628030Y802750D01*
X6634380Y786160D01*
Y769570D01*
X6628030Y752970D01*
X6618510Y738750D01*
X6605810Y726890D01*
G01X6634380Y595660D02*
X6443880D01*
X6481980Y624110D01*
G01X6634380D02*
Y567220D01*
G01Y405160D02*
X6443880D01*
X6481980Y433610D01*
G01X6634380D02*
Y376720D01*
G01Y214660D02*
X6443880D01*
X6481980Y243110D01*
G01X6634380D02*
Y186220D01*
G01X6890160Y718410D02*
X6880630Y732630D01*
X6874280Y749220D01*
Y768190D01*
X6883810Y789530D01*
X6899680Y806120D01*
X6918730Y817970D01*
X6950480Y827460D01*
X6979060Y829830D01*
X7007630Y825080D01*
X7026680Y817970D01*
X7045730Y803750D01*
X7058430Y787150D01*
X7064780Y770560D01*
Y753970D01*
X7058430Y737370D01*
X7048910Y723150D01*
X7036210Y711290D01*
G01X7064780Y580060D02*
X6874280D01*
X6912380Y608510D01*
G01X7064780D02*
Y551620D01*
G01Y389560D02*
X6874280D01*
X6912380Y418010D01*
G01X7064780D02*
Y361120D01*
G01X6906030Y244100D02*
X6886980Y229880D01*
X6877450Y213280D01*
X6874280Y194320D01*
X6880630Y170610D01*
X6896510Y154020D01*
X6915550Y149280D01*
X6934610Y151650D01*
X6950480Y161130D01*
X6982230Y208540D01*
X7004460Y229880D01*
X7036210Y244100D01*
X7064780Y248840D01*
Y149280D01*
G01X6960460Y718310D02*
X6950930Y732530D01*
X6944580Y749120D01*
Y768090D01*
X6954110Y789430D01*
X6969980Y806020D01*
X6989030Y817870D01*
X7020780Y827360D01*
X7049360Y829730D01*
X7077930Y824980D01*
X7096980Y817870D01*
X7116030Y803650D01*
X7128730Y787050D01*
X7135080Y770460D01*
Y753870D01*
X7128730Y737270D01*
X7119210Y723050D01*
X7106510Y711190D01*
G01X7135080Y579960D02*
X6944580D01*
X6982680Y608410D01*
G01X7135080D02*
Y551520D01*
G01Y389460D02*
X6944580D01*
X6982680Y417910D01*
G01X7135080D02*
Y361020D01*
G01X7096980Y251110D02*
X7119210Y236890D01*
X7131910Y217930D01*
X7135080Y196590D01*
X7131910Y177620D01*
X7116030Y158660D01*
X7096980Y146810D01*
X7077930Y144440D01*
X7055710Y149180D01*
X7039830Y165770D01*
X7033480Y182370D01*
Y203700D01*
G01Y182370D02*
X7023960Y168140D01*
X7008080Y156290D01*
X6989030Y151550D01*
X6969980Y156290D01*
X6954110Y168140D01*
X6944580Y189480D01*
X6947750Y210810D01*
X6960460Y232150D01*
G01X8942610Y4706240D02*
X8956830Y4715770D01*
X8973420Y4722120D01*
X8992390D01*
X9013730Y4712590D01*
X9030320Y4696720D01*
X9042170Y4677670D01*
X9051660Y4645920D01*
X9054030Y4617340D01*
X9049280Y4588770D01*
X9042170Y4569720D01*
X9027950Y4550670D01*
X9011350Y4537970D01*
X8994760Y4531620D01*
X8978170D01*
X8961570Y4537970D01*
X8947350Y4547490D01*
X8935490Y4560190D01*
G01X8804260Y4531620D02*
Y4722120D01*
X8832710Y4684020D01*
G01Y4531620D02*
X8775820D01*
G01X8658800Y4690370D02*
X8644580Y4709420D01*
X8627980Y4718950D01*
X8609020Y4722120D01*
X8585310Y4715770D01*
X8568720Y4699890D01*
X8563980Y4680850D01*
X8566350Y4661790D01*
X8575830Y4645920D01*
X8623240Y4614170D01*
X8644580Y4591940D01*
X8658800Y4560190D01*
X8663540Y4531620D01*
X8563980D01*
G01X8475410Y4560190D02*
X8461190Y4544320D01*
X8444600Y4534790D01*
X8423260Y4531620D01*
X8401920Y4537970D01*
X8385330Y4550670D01*
X8373480Y4572890D01*
X8371110Y4598290D01*
X8375850Y4623690D01*
X8387700Y4639570D01*
X8404300Y4652270D01*
X8420890Y4655440D01*
X8437480Y4652270D01*
X8458820Y4639570D01*
X8451710Y4722120D01*
X8387700D01*
G01X8942910Y4777340D02*
X8957130Y4786870D01*
X8973720Y4793220D01*
X8992690D01*
X9014030Y4783690D01*
X9030620Y4767820D01*
X9042470Y4748770D01*
X9051960Y4717020D01*
X9054330Y4688440D01*
X9049580Y4659870D01*
X9042470Y4640820D01*
X9028250Y4621770D01*
X9011650Y4609070D01*
X8995060Y4602720D01*
X8978470D01*
X8961870Y4609070D01*
X8947650Y4618590D01*
X8935790Y4631290D01*
G01X8804560Y4602720D02*
Y4793220D01*
X8833010Y4755120D01*
G01Y4602720D02*
X8776120D01*
G01X8659100Y4761470D02*
X8644880Y4780520D01*
X8628280Y4790050D01*
X8609320Y4793220D01*
X8585610Y4786870D01*
X8569020Y4770990D01*
X8564280Y4751950D01*
X8566650Y4732890D01*
X8576130Y4717020D01*
X8623540Y4685270D01*
X8644880Y4663040D01*
X8659100Y4631290D01*
X8663840Y4602720D01*
X8564280D01*
G01X8395110D02*
Y4793220D01*
X8482830Y4656700D01*
X8364290D01*
G01X8942910Y4848640D02*
X8957130Y4858170D01*
X8973720Y4864520D01*
X8992690D01*
X9014030Y4854990D01*
X9030620Y4839120D01*
X9042470Y4820070D01*
X9051960Y4788320D01*
X9054330Y4759740D01*
X9049580Y4731170D01*
X9042470Y4712120D01*
X9028250Y4693070D01*
X9011650Y4680370D01*
X8995060Y4674020D01*
X8978470D01*
X8961870Y4680370D01*
X8947650Y4689890D01*
X8935790Y4702590D01*
G01X8804560Y4674020D02*
Y4864520D01*
X8833010Y4826420D01*
G01Y4674020D02*
X8776120D01*
G01X8659100Y4832770D02*
X8644880Y4851820D01*
X8628280Y4861350D01*
X8609320Y4864520D01*
X8585610Y4858170D01*
X8569020Y4842290D01*
X8564280Y4823250D01*
X8566650Y4804190D01*
X8576130Y4788320D01*
X8623540Y4756570D01*
X8644880Y4734340D01*
X8659100Y4702590D01*
X8663840Y4674020D01*
X8564280D01*
G01X8468600Y4832770D02*
X8454380Y4851820D01*
X8437780Y4861350D01*
X8418820Y4864520D01*
X8395110Y4858170D01*
X8378520Y4842290D01*
X8373780Y4823250D01*
X8376150Y4804190D01*
X8385630Y4788320D01*
X8433040Y4756570D01*
X8454380Y4734340D01*
X8468600Y4702590D01*
X8473340Y4674020D01*
X8373780D01*
G01X8942710Y4919540D02*
X8956930Y4929070D01*
X8973520Y4935420D01*
X8992490D01*
X9013830Y4925890D01*
X9030420Y4910020D01*
X9042270Y4890970D01*
X9051760Y4859220D01*
X9054130Y4830640D01*
X9049380Y4802070D01*
X9042270Y4783020D01*
X9028050Y4763970D01*
X9011450Y4751270D01*
X8994860Y4744920D01*
X8978270D01*
X8961670Y4751270D01*
X8947450Y4760790D01*
X8935590Y4773490D01*
G01X8804360Y4744920D02*
Y4935420D01*
X8832810Y4897320D01*
G01Y4744920D02*
X8775920D01*
G01X8658900Y4903670D02*
X8644680Y4922720D01*
X8628080Y4932250D01*
X8609120Y4935420D01*
X8585410Y4929070D01*
X8568820Y4913190D01*
X8564080Y4894150D01*
X8566450Y4875090D01*
X8575930Y4859220D01*
X8623340Y4827470D01*
X8644680Y4805240D01*
X8658900Y4773490D01*
X8663640Y4744920D01*
X8564080D01*
G01X8475510Y4783020D02*
X8461290Y4760790D01*
X8442330Y4748090D01*
X8420990Y4744920D01*
X8402020Y4748090D01*
X8383060Y4763970D01*
X8371210Y4783020D01*
X8368840Y4802070D01*
X8373580Y4824290D01*
X8390170Y4840170D01*
X8406770Y4846520D01*
X8428100D01*
G01X8406770D02*
X8392540Y4856040D01*
X8380690Y4871920D01*
X8375950Y4890970D01*
X8380690Y4910020D01*
X8392540Y4925890D01*
X8413880Y4935420D01*
X8435210Y4932250D01*
X8456550Y4919540D01*
G01X8942610Y4990540D02*
X8956830Y5000070D01*
X8973420Y5006420D01*
X8992390D01*
X9013730Y4996890D01*
X9030320Y4981020D01*
X9042170Y4961970D01*
X9051660Y4930220D01*
X9054030Y4901640D01*
X9049280Y4873070D01*
X9042170Y4854020D01*
X9027950Y4834970D01*
X9011350Y4822270D01*
X8994760Y4815920D01*
X8978170D01*
X8961570Y4822270D01*
X8947350Y4831790D01*
X8935490Y4844490D01*
G01X8804260Y4815920D02*
Y5006420D01*
X8832710Y4968320D01*
G01Y4815920D02*
X8775820D01*
G01X8658800Y4974670D02*
X8644580Y4993720D01*
X8627980Y5003250D01*
X8609020Y5006420D01*
X8585310Y5000070D01*
X8568720Y4984190D01*
X8563980Y4965150D01*
X8566350Y4946090D01*
X8575830Y4930220D01*
X8623240Y4898470D01*
X8644580Y4876240D01*
X8658800Y4844490D01*
X8663540Y4815920D01*
X8563980D01*
G01X8423260D02*
Y5006420D01*
X8451710Y4968320D01*
G01Y4815920D02*
X8394820D01*
G01X8942610Y5061740D02*
X8956830Y5071270D01*
X8973420Y5077620D01*
X8992390D01*
X9013730Y5068090D01*
X9030320Y5052220D01*
X9042170Y5033170D01*
X9051660Y5001420D01*
X9054030Y4972840D01*
X9049280Y4944270D01*
X9042170Y4925220D01*
X9027950Y4906170D01*
X9011350Y4893470D01*
X8994760Y4887120D01*
X8978170D01*
X8961570Y4893470D01*
X8947350Y4902990D01*
X8935490Y4915690D01*
G01X8804260Y4887120D02*
Y5077620D01*
X8832710Y5039520D01*
G01Y4887120D02*
X8775820D01*
G01X8658800Y5045870D02*
X8644580Y5064920D01*
X8627980Y5074450D01*
X8609020Y5077620D01*
X8585310Y5071270D01*
X8568720Y5055390D01*
X8563980Y5036350D01*
X8566350Y5017290D01*
X8575830Y5001420D01*
X8623240Y4969670D01*
X8644580Y4947440D01*
X8658800Y4915690D01*
X8663540Y4887120D01*
X8563980D01*
G01X8423260Y5077620D02*
X8442230Y5071270D01*
X8456450Y5055390D01*
X8465930Y5036350D01*
X8473040Y5010940D01*
X8475410Y4982370D01*
X8473040Y4953790D01*
X8465930Y4928390D01*
X8456450Y4909340D01*
X8442230Y4893470D01*
X8423260Y4887120D01*
X8404300Y4893470D01*
X8390070Y4909340D01*
X8380590Y4928390D01*
X8373480Y4953790D01*
X8371110Y4982370D01*
X8373480Y5010940D01*
X8380590Y5036350D01*
X8390070Y5055390D01*
X8404300Y5071270D01*
X8423260Y5077620D01*
G01X8942710Y5133040D02*
X8956930Y5142570D01*
X8973520Y5148920D01*
X8992490D01*
X9013830Y5139390D01*
X9030420Y5123520D01*
X9042270Y5104470D01*
X9051760Y5072720D01*
X9054130Y5044140D01*
X9049380Y5015570D01*
X9042270Y4996520D01*
X9028050Y4977470D01*
X9011450Y4964770D01*
X8994860Y4958420D01*
X8978270D01*
X8961670Y4964770D01*
X8947450Y4974290D01*
X8935590Y4986990D01*
G01X8804360Y4958420D02*
Y5148920D01*
X8832810Y5110820D01*
G01Y4958420D02*
X8775920D01*
G01X8613860D02*
Y5148920D01*
X8642310Y5110820D01*
G01Y4958420D02*
X8585420D01*
G01X8463660Y4980640D02*
X8447070Y4964770D01*
X8428100Y4958420D01*
X8409140Y4964770D01*
X8392540Y4983810D01*
X8380690Y5012400D01*
X8375950Y5040970D01*
Y5075890D01*
X8380690Y5104470D01*
X8392540Y5129870D01*
X8406770Y5142570D01*
X8423360Y5148920D01*
X8442330Y5142570D01*
X8456550Y5129870D01*
X8466030Y5110820D01*
X8470770Y5085420D01*
X8466030Y5063200D01*
X8454180Y5040970D01*
X8439950Y5028270D01*
X8423360Y5025090D01*
X8404400Y5031440D01*
X8390170Y5047320D01*
X8375950Y5075890D01*
G01X8942910Y5204240D02*
X8957130Y5213770D01*
X8973720Y5220120D01*
X8992690D01*
X9014030Y5210590D01*
X9030620Y5194720D01*
X9042470Y5175670D01*
X9051960Y5143920D01*
X9054330Y5115340D01*
X9049580Y5086770D01*
X9042470Y5067720D01*
X9028250Y5048670D01*
X9011650Y5035970D01*
X8995060Y5029620D01*
X8978470D01*
X8961870Y5035970D01*
X8947650Y5045490D01*
X8935790Y5058190D01*
G01X8804560Y5029620D02*
Y5220120D01*
X8833010Y5182020D01*
G01Y5029620D02*
X8776120D01*
G01X8614060D02*
Y5220120D01*
X8642510Y5182020D01*
G01Y5029620D02*
X8585620D01*
G01X8423560D02*
X8406970Y5032790D01*
X8388000Y5042320D01*
X8376150Y5058190D01*
X8371410Y5080420D01*
X8376150Y5102640D01*
X8390370Y5121690D01*
X8411710Y5131220D01*
X8435410D01*
X8449640Y5137570D01*
X8461490Y5153440D01*
X8466230Y5175670D01*
X8459120Y5197890D01*
X8442530Y5213770D01*
X8423560Y5220120D01*
X8404600Y5213770D01*
X8388000Y5197890D01*
X8380890Y5175670D01*
X8385630Y5153440D01*
X8397480Y5137570D01*
X8411710Y5131220D01*
X8435410D01*
X8456750Y5121690D01*
X8470970Y5102640D01*
X8475710Y5080420D01*
X8470970Y5058190D01*
X8459120Y5042320D01*
X8440150Y5032790D01*
X8423560Y5029620D01*
G01X8943010Y5276040D02*
X8957230Y5285570D01*
X8973820Y5291920D01*
X8992790D01*
X9014130Y5282390D01*
X9030720Y5266520D01*
X9042570Y5247470D01*
X9052060Y5215720D01*
X9054430Y5187140D01*
X9049680Y5158570D01*
X9042570Y5139520D01*
X9028350Y5120470D01*
X9011750Y5107770D01*
X8995160Y5101420D01*
X8978570D01*
X8961970Y5107770D01*
X8947750Y5117290D01*
X8935890Y5129990D01*
G01X8804660Y5101420D02*
Y5291920D01*
X8833110Y5253820D01*
G01Y5101420D02*
X8776220D01*
G01X8614160D02*
Y5291920D01*
X8642610Y5253820D01*
G01Y5101420D02*
X8585720D01*
G01X8428400D02*
X8423660Y5142690D01*
X8416550Y5177620D01*
X8407070Y5209370D01*
X8395210Y5244290D01*
X8376250Y5291920D01*
X8471070D01*
G01X8944110Y5349640D02*
X8958330Y5359170D01*
X8974920Y5365520D01*
X8993890D01*
X9015230Y5355990D01*
X9031820Y5340120D01*
X9043670Y5321070D01*
X9053160Y5289320D01*
X9055530Y5260740D01*
X9050780Y5232170D01*
X9043670Y5213120D01*
X9029450Y5194070D01*
X9012850Y5181370D01*
X8996260Y5175020D01*
X8979670D01*
X8963070Y5181370D01*
X8948850Y5190890D01*
X8936990Y5203590D01*
G01X8805760Y5175020D02*
Y5365520D01*
X8834210Y5327420D01*
G01Y5175020D02*
X8777320D01*
G01X8615260D02*
Y5365520D01*
X8643710Y5327420D01*
G01Y5175020D02*
X8586820D01*
G01X8469800Y5254390D02*
X8453210Y5276620D01*
X8438980Y5289320D01*
X8420020Y5295670D01*
X8403420Y5289320D01*
X8391570Y5276620D01*
X8382090Y5257570D01*
X8379720Y5235340D01*
X8382090Y5216290D01*
X8391570Y5197240D01*
X8405800Y5181370D01*
X8422390Y5175020D01*
X8441350Y5181370D01*
X8457950Y5200410D01*
X8467430Y5229000D01*
X8469800Y5260740D01*
X8465060Y5302020D01*
X8457950Y5324250D01*
X8446100Y5346470D01*
X8429500Y5362350D01*
X8412910Y5365520D01*
X8396310Y5359170D01*
X8384460Y5343290D01*
G01X8944210Y5420840D02*
X8958430Y5430370D01*
X8975020Y5436720D01*
X8993990D01*
X9015330Y5427190D01*
X9031920Y5411320D01*
X9043770Y5392270D01*
X9053260Y5360520D01*
X9055630Y5331940D01*
X9050880Y5303370D01*
X9043770Y5284320D01*
X9029550Y5265270D01*
X9012950Y5252570D01*
X8996360Y5246220D01*
X8979770D01*
X8963170Y5252570D01*
X8948950Y5262090D01*
X8937090Y5274790D01*
G01X8805860Y5246220D02*
Y5436720D01*
X8834310Y5398620D01*
G01Y5246220D02*
X8777420D01*
G01X8615360D02*
Y5436720D01*
X8643810Y5398620D01*
G01Y5246220D02*
X8586920D01*
G01X8477010Y5274790D02*
X8462790Y5258920D01*
X8446200Y5249390D01*
X8424860Y5246220D01*
X8403520Y5252570D01*
X8386930Y5265270D01*
X8375080Y5287490D01*
X8372710Y5312890D01*
X8377450Y5338290D01*
X8389300Y5354170D01*
X8405900Y5366870D01*
X8422490Y5370040D01*
X8439080Y5366870D01*
X8460420Y5354170D01*
X8453310Y5436720D01*
X8389300D01*
G01X8944210Y5491940D02*
X8958430Y5501470D01*
X8975020Y5507820D01*
X8993990D01*
X9015330Y5498290D01*
X9031920Y5482420D01*
X9043770Y5463370D01*
X9053260Y5431620D01*
X9055630Y5403040D01*
X9050880Y5374470D01*
X9043770Y5355420D01*
X9029550Y5336370D01*
X9012950Y5323670D01*
X8996360Y5317320D01*
X8979770D01*
X8963170Y5323670D01*
X8948950Y5333190D01*
X8937090Y5345890D01*
G01X8805860Y5317320D02*
Y5507820D01*
X8834310Y5469720D01*
G01Y5317320D02*
X8777420D01*
G01X8615360D02*
Y5507820D01*
X8643810Y5469720D01*
G01Y5317320D02*
X8586920D01*
G01X8396410D02*
Y5507820D01*
X8484130Y5371300D01*
X8365590D01*
G01X8853300Y4444600D02*
Y4524600D01*
X9028300D01*
Y4444600D01*
X8853300D01*
G01Y4524900D02*
Y4604900D01*
X9028300D01*
Y4524900D01*
X8853300D01*
G01X8843430Y4769080D02*
Y4578580D01*
X8902690D01*
X8921660Y4588110D01*
X8933510Y4600810D01*
X8938250Y4626210D01*
X8933510Y4651610D01*
X8919290Y4667480D01*
X8902690Y4677010D01*
X8843430D01*
G01X8902690D02*
X8938250Y4769080D01*
G01X9081340D02*
Y4578580D01*
X9052890Y4616680D01*
G01Y4769080D02*
X9109780D01*
G01X9271840Y4578580D02*
X9252870Y4584930D01*
X9238650Y4600810D01*
X9229170Y4619850D01*
X9222060Y4645260D01*
X9219690Y4673830D01*
X9222060Y4702410D01*
X9229170Y4727810D01*
X9238650Y4746860D01*
X9252870Y4762730D01*
X9271840Y4769080D01*
X9290800Y4762730D01*
X9305030Y4746860D01*
X9314510Y4727810D01*
X9321620Y4702410D01*
X9323990Y4673830D01*
X9321620Y4645260D01*
X9314510Y4619850D01*
X9305030Y4600810D01*
X9290800Y4584930D01*
X9271840Y4578580D01*
G01X9462340D02*
X9443370Y4584930D01*
X9429150Y4600810D01*
X9419670Y4619850D01*
X9412560Y4645260D01*
X9410190Y4673830D01*
X9412560Y4702410D01*
X9419670Y4727810D01*
X9429150Y4746860D01*
X9443370Y4762730D01*
X9462340Y4769080D01*
X9481300Y4762730D01*
X9495530Y4746860D01*
X9505010Y4727810D01*
X9512120Y4702410D01*
X9514490Y4673830D01*
X9512120Y4645260D01*
X9505010Y4619850D01*
X9495530Y4600810D01*
X9481300Y4584930D01*
X9462340Y4578580D01*
G01X8843430Y4849380D02*
Y4658880D01*
X8902690D01*
X8921660Y4668410D01*
X8933510Y4681110D01*
X8938250Y4706510D01*
X8933510Y4731910D01*
X8919290Y4747780D01*
X8902690Y4757310D01*
X8843430D01*
G01X8902690D02*
X8938250Y4849380D01*
G01X9041040Y4827160D02*
X9057630Y4843030D01*
X9076600Y4849380D01*
X9095560Y4843030D01*
X9112160Y4823990D01*
X9124010Y4795400D01*
X9128750Y4766830D01*
Y4731910D01*
X9124010Y4703330D01*
X9112160Y4677930D01*
X9097930Y4665230D01*
X9081340Y4658880D01*
X9062370Y4665230D01*
X9048150Y4677930D01*
X9038670Y4696980D01*
X9033930Y4722380D01*
X9038670Y4744600D01*
X9050520Y4766830D01*
X9064750Y4779530D01*
X9081340Y4782710D01*
X9100300Y4776360D01*
X9114530Y4760480D01*
X9128750Y4731910D01*
G01X9231540Y4827160D02*
X9248130Y4843030D01*
X9267100Y4849380D01*
X9286060Y4843030D01*
X9302660Y4823990D01*
X9314510Y4795400D01*
X9319250Y4766830D01*
Y4731910D01*
X9314510Y4703330D01*
X9302660Y4677930D01*
X9288430Y4665230D01*
X9271840Y4658880D01*
X9252870Y4665230D01*
X9238650Y4677930D01*
X9229170Y4696980D01*
X9224430Y4722380D01*
X9229170Y4744600D01*
X9241020Y4766830D01*
X9255250Y4779530D01*
X9271840Y4782710D01*
X9290800Y4776360D01*
X9305030Y4760480D01*
X9319250Y4731910D01*
G01X9284490Y4966460D02*
X9270270Y4956930D01*
X9253680Y4950580D01*
X9234710D01*
X9213370Y4960110D01*
X9196780Y4975980D01*
X9184930Y4995030D01*
X9175440Y5026780D01*
X9173070Y5055360D01*
X9177820Y5083930D01*
X9184930Y5102980D01*
X9199150Y5122030D01*
X9215750Y5134730D01*
X9232340Y5141080D01*
X9248930D01*
X9265530Y5134730D01*
X9279750Y5125210D01*
X9291610Y5112510D01*
G01X9422840Y5141080D02*
Y4950580D01*
X9394390Y4988680D01*
G01Y5141080D02*
X9451280D01*
G01X9613340Y4950580D02*
X9594370Y4956930D01*
X9580150Y4972810D01*
X9570670Y4991850D01*
X9563560Y5017260D01*
X9561190Y5045830D01*
X9563560Y5074410D01*
X9570670Y5099810D01*
X9580150Y5118860D01*
X9594370Y5134730D01*
X9613340Y5141080D01*
X9632300Y5134730D01*
X9646530Y5118860D01*
X9656010Y5099810D01*
X9663120Y5074410D01*
X9665490Y5045830D01*
X9663120Y5017260D01*
X9656010Y4991850D01*
X9646530Y4972810D01*
X9632300Y4956930D01*
X9613340Y4950580D01*
G01X9803840Y5141080D02*
X9820430Y5137910D01*
X9839400Y5128380D01*
X9851250Y5112510D01*
X9855990Y5090280D01*
X9851250Y5068060D01*
X9837030Y5049010D01*
X9815690Y5039480D01*
X9791990D01*
X9777760Y5033130D01*
X9765910Y5017260D01*
X9761170Y4995030D01*
X9768280Y4972810D01*
X9784870Y4956930D01*
X9803840Y4950580D01*
X9822800Y4956930D01*
X9839400Y4972810D01*
X9846510Y4995030D01*
X9841770Y5017260D01*
X9829920Y5033130D01*
X9815690Y5039480D01*
X9791990D01*
X9770650Y5049010D01*
X9756430Y5068060D01*
X9751690Y5090280D01*
X9756430Y5112510D01*
X9768280Y5128380D01*
X9787250Y5137910D01*
X9803840Y5141080D01*
G01X9286090Y5256360D02*
X9271870Y5246830D01*
X9255280Y5240480D01*
X9236310D01*
X9214970Y5250010D01*
X9198380Y5265880D01*
X9186530Y5284930D01*
X9177040Y5316680D01*
X9174670Y5345260D01*
X9179420Y5373830D01*
X9186530Y5392880D01*
X9200750Y5411930D01*
X9217350Y5424630D01*
X9233940Y5430980D01*
X9250530D01*
X9267130Y5424630D01*
X9281350Y5415110D01*
X9293210Y5402410D01*
G01X9424440Y5430980D02*
Y5240480D01*
X9395990Y5278580D01*
G01Y5430980D02*
X9452880D01*
G01X9614940Y5240480D02*
X9595970Y5246830D01*
X9581750Y5262710D01*
X9572270Y5281750D01*
X9565160Y5307160D01*
X9562790Y5335730D01*
X9565160Y5364310D01*
X9572270Y5389710D01*
X9581750Y5408760D01*
X9595970Y5424630D01*
X9614940Y5430980D01*
X9633900Y5424630D01*
X9648130Y5408760D01*
X9657610Y5389710D01*
X9664720Y5364310D01*
X9667090Y5335730D01*
X9664720Y5307160D01*
X9657610Y5281750D01*
X9648130Y5262710D01*
X9633900Y5246830D01*
X9614940Y5240480D01*
G01X9760400Y5351610D02*
X9776990Y5329380D01*
X9791220Y5316680D01*
X9810180Y5310330D01*
X9826780Y5316680D01*
X9838630Y5329380D01*
X9848110Y5348430D01*
X9850480Y5370660D01*
X9848110Y5389710D01*
X9838630Y5408760D01*
X9824400Y5424630D01*
X9807810Y5430980D01*
X9788850Y5424630D01*
X9772250Y5405590D01*
X9762770Y5377000D01*
X9760400Y5345260D01*
X9765140Y5303980D01*
X9772250Y5281750D01*
X9784100Y5259530D01*
X9800700Y5243650D01*
X9817290Y5240480D01*
X9833890Y5246830D01*
X9845740Y5262710D01*
G01X9522640Y4507290D02*
X9532170Y4493070D01*
X9538520Y4476480D01*
Y4457510D01*
X9528990Y4436170D01*
X9513120Y4419580D01*
X9494070Y4407730D01*
X9462320Y4398240D01*
X9433740Y4395870D01*
X9405170Y4400620D01*
X9386120Y4407730D01*
X9367070Y4421950D01*
X9354370Y4438550D01*
X9348020Y4455140D01*
Y4471730D01*
X9354370Y4488330D01*
X9363890Y4502550D01*
X9376590Y4514410D01*
G01X9348020Y4645640D02*
X9351190Y4662230D01*
X9360720Y4681200D01*
X9376590Y4693050D01*
X9398820Y4697790D01*
X9421040Y4693050D01*
X9440090Y4678830D01*
X9449620Y4657490D01*
Y4633790D01*
X9455970Y4619560D01*
X9471840Y4607710D01*
X9494070Y4602970D01*
X9516290Y4610080D01*
X9532170Y4626670D01*
X9538520Y4645640D01*
X9532170Y4664600D01*
X9516290Y4681200D01*
X9494070Y4688310D01*
X9471840Y4683570D01*
X9455970Y4671720D01*
X9449620Y4657490D01*
Y4633790D01*
X9440090Y4612450D01*
X9421040Y4598230D01*
X9398820Y4593490D01*
X9376590Y4598230D01*
X9360720Y4610080D01*
X9351190Y4629050D01*
X9348020Y4645640D01*
G01X9386120Y4783990D02*
X9363890Y4798210D01*
X9351190Y4817170D01*
X9348020Y4838510D01*
X9351190Y4857480D01*
X9367070Y4876440D01*
X9386120Y4888290D01*
X9405170Y4890660D01*
X9427390Y4885920D01*
X9443270Y4869330D01*
X9449620Y4852730D01*
Y4831400D01*
G01Y4852730D02*
X9459140Y4866960D01*
X9475020Y4878810D01*
X9494070Y4883550D01*
X9513120Y4878810D01*
X9528990Y4866960D01*
X9538520Y4845620D01*
X9535350Y4824290D01*
X9522640Y4802950D01*
G01X9522740Y5604990D02*
X9532270Y5590770D01*
X9538620Y5574180D01*
Y5555210D01*
X9529090Y5533870D01*
X9513220Y5517280D01*
X9494170Y5505430D01*
X9462420Y5495940D01*
X9433840Y5493570D01*
X9405270Y5498320D01*
X9386220Y5505430D01*
X9367170Y5519650D01*
X9354470Y5536250D01*
X9348120Y5552840D01*
Y5569430D01*
X9354470Y5586030D01*
X9363990Y5600250D01*
X9376690Y5612110D01*
G01X9348120Y5743340D02*
X9538620D01*
X9500520Y5714890D01*
G01X9348120D02*
Y5771780D01*
G01X9538620Y5933840D02*
X9532270Y5914870D01*
X9516390Y5900650D01*
X9497350Y5891170D01*
X9471940Y5884060D01*
X9443370Y5881690D01*
X9414790Y5884060D01*
X9389390Y5891170D01*
X9370340Y5900650D01*
X9354470Y5914870D01*
X9348120Y5933840D01*
X9354470Y5952800D01*
X9370340Y5967030D01*
X9389390Y5976510D01*
X9414790Y5983620D01*
X9443370Y5985990D01*
X9471940Y5983620D01*
X9497350Y5976510D01*
X9516390Y5967030D01*
X9532270Y5952800D01*
X9538620Y5933840D01*
G01Y6124340D02*
X9532270Y6105370D01*
X9516390Y6091150D01*
X9497350Y6081670D01*
X9471940Y6074560D01*
X9443370Y6072190D01*
X9414790Y6074560D01*
X9389390Y6081670D01*
X9370340Y6091150D01*
X9354470Y6105370D01*
X9348120Y6124340D01*
X9354470Y6143300D01*
X9370340Y6157530D01*
X9389390Y6167010D01*
X9414790Y6174120D01*
X9443370Y6176490D01*
X9471940Y6174120D01*
X9497350Y6167010D01*
X9516390Y6157530D01*
X9532270Y6143300D01*
X9538620Y6124340D01*
G01X9454580Y5667900D02*
Y5540900D01*
X9494790D01*
X9507660Y5547250D01*
X9515700Y5555720D01*
X9518920Y5572650D01*
X9515700Y5589580D01*
X9506050Y5600170D01*
X9494790Y5606520D01*
X9454580D01*
G01X9494790D02*
X9518920Y5667900D01*
G01X9616250D02*
X9627510Y5665780D01*
X9640370Y5659440D01*
X9648420Y5648850D01*
X9651630Y5634030D01*
X9648420Y5619220D01*
X9638770Y5606520D01*
X9624290Y5600170D01*
X9608210D01*
X9598560Y5595930D01*
X9590510Y5585350D01*
X9587300Y5570530D01*
X9592130Y5555720D01*
X9603380Y5545130D01*
X9616250Y5540900D01*
X9629120Y5545130D01*
X9640370Y5555720D01*
X9645200Y5570530D01*
X9641980Y5585350D01*
X9633940Y5595930D01*
X9624290Y5600170D01*
X9608210D01*
X9593730Y5606520D01*
X9584080Y5619220D01*
X9580870Y5634030D01*
X9584080Y5648850D01*
X9592130Y5659440D01*
X9604990Y5665780D01*
X9616250Y5667900D01*
G01X9745750D02*
X9757010Y5665780D01*
X9769870Y5659440D01*
X9777920Y5648850D01*
X9781130Y5634030D01*
X9777920Y5619220D01*
X9768270Y5606520D01*
X9753790Y5600170D01*
X9737710D01*
X9728060Y5595930D01*
X9720010Y5585350D01*
X9716800Y5570530D01*
X9721630Y5555720D01*
X9732880Y5545130D01*
X9745750Y5540900D01*
X9758620Y5545130D01*
X9769870Y5555720D01*
X9774700Y5570530D01*
X9771480Y5585350D01*
X9763440Y5595930D01*
X9753790Y5600170D01*
X9737710D01*
X9723230Y5606520D01*
X9713580Y5619220D01*
X9710370Y5634030D01*
X9713580Y5648850D01*
X9721630Y5659440D01*
X9734490Y5665780D01*
X9745750Y5667900D01*
G01X9476500Y5802600D02*
X9626500D01*
Y5702600D01*
X9476500D01*
Y5802600D01*
G01X9822940Y4506990D02*
X9832470Y4492770D01*
X9838820Y4476180D01*
Y4457210D01*
X9829290Y4435870D01*
X9813420Y4419280D01*
X9794370Y4407430D01*
X9762620Y4397940D01*
X9734040Y4395570D01*
X9705470Y4400320D01*
X9686420Y4407430D01*
X9667370Y4421650D01*
X9654670Y4438250D01*
X9648320Y4454840D01*
Y4471430D01*
X9654670Y4488030D01*
X9664190Y4502250D01*
X9676890Y4514110D01*
G01X9648320Y4645340D02*
X9651490Y4661930D01*
X9661020Y4680900D01*
X9676890Y4692750D01*
X9699120Y4697490D01*
X9721340Y4692750D01*
X9740390Y4678530D01*
X9749920Y4657190D01*
Y4633490D01*
X9756270Y4619260D01*
X9772140Y4607410D01*
X9794370Y4602670D01*
X9816590Y4609780D01*
X9832470Y4626370D01*
X9838820Y4645340D01*
X9832470Y4664300D01*
X9816590Y4680900D01*
X9794370Y4688010D01*
X9772140Y4683270D01*
X9756270Y4671420D01*
X9749920Y4657190D01*
Y4633490D01*
X9740390Y4612150D01*
X9721340Y4597930D01*
X9699120Y4593190D01*
X9676890Y4597930D01*
X9661020Y4609780D01*
X9651490Y4628750D01*
X9648320Y4645340D01*
G01X9727690Y4790800D02*
X9749920Y4807390D01*
X9762620Y4821620D01*
X9768970Y4840580D01*
X9762620Y4857180D01*
X9749920Y4869030D01*
X9730870Y4878510D01*
X9708640Y4880880D01*
X9689590Y4878510D01*
X9670540Y4869030D01*
X9654670Y4854800D01*
X9648320Y4838210D01*
X9654670Y4819250D01*
X9673710Y4802650D01*
X9702300Y4793170D01*
X9734040Y4790800D01*
X9775320Y4795540D01*
X9797550Y4802650D01*
X9819770Y4814500D01*
X9835650Y4831100D01*
X9838820Y4847690D01*
X9832470Y4864290D01*
X9816590Y4876140D01*
G01X9780090Y5159560D02*
X9765870Y5150030D01*
X9749280Y5143680D01*
X9730310D01*
X9708970Y5153210D01*
X9692380Y5169080D01*
X9680530Y5188130D01*
X9671040Y5219880D01*
X9668670Y5248460D01*
X9673420Y5277030D01*
X9680530Y5296080D01*
X9694750Y5315130D01*
X9711350Y5327830D01*
X9727940Y5334180D01*
X9744530D01*
X9761130Y5327830D01*
X9775350Y5318310D01*
X9787210Y5305610D01*
G01X9913700Y5334180D02*
X9918440Y5292910D01*
X9925550Y5257980D01*
X9935030Y5226230D01*
X9946890Y5191310D01*
X9965850Y5143680D01*
X9871030D01*
G01X10063900Y5254810D02*
X10080490Y5232580D01*
X10094720Y5219880D01*
X10113680Y5213530D01*
X10130280Y5219880D01*
X10142130Y5232580D01*
X10151610Y5251630D01*
X10153980Y5273860D01*
X10151610Y5292910D01*
X10142130Y5311960D01*
X10127900Y5327830D01*
X10111310Y5334180D01*
X10092350Y5327830D01*
X10075750Y5308790D01*
X10066270Y5280200D01*
X10063900Y5248460D01*
X10068640Y5207180D01*
X10075750Y5184950D01*
X10087600Y5162730D01*
X10104200Y5146850D01*
X10120790Y5143680D01*
X10137390Y5150030D01*
X10149240Y5165910D01*
G01X9740360Y4698010D02*
X9730830Y4712230D01*
X9724480Y4728820D01*
Y4747790D01*
X9734010Y4769130D01*
X9749880Y4785720D01*
X9768930Y4797570D01*
X9800680Y4807060D01*
X9829260Y4809430D01*
X9857830Y4804680D01*
X9876880Y4797570D01*
X9895930Y4783350D01*
X9908630Y4766750D01*
X9914980Y4750160D01*
Y4733570D01*
X9908630Y4716970D01*
X9899110Y4702750D01*
X9886410Y4690890D01*
G01X9892760Y4599960D02*
X9908630Y4583370D01*
X9914980Y4564400D01*
X9908630Y4545440D01*
X9889590Y4528840D01*
X9861000Y4516990D01*
X9832430Y4512250D01*
X9797510D01*
X9768930Y4516990D01*
X9743530Y4528840D01*
X9730830Y4543070D01*
X9724480Y4559660D01*
X9730830Y4578630D01*
X9743530Y4592850D01*
X9762580Y4602330D01*
X9787980Y4607070D01*
X9810200Y4602330D01*
X9832430Y4590480D01*
X9845130Y4576250D01*
X9848310Y4559660D01*
X9841960Y4540700D01*
X9826080Y4526470D01*
X9797510Y4512250D01*
G01X9876880Y4421310D02*
X9899110Y4407090D01*
X9911810Y4388130D01*
X9914980Y4366790D01*
X9911810Y4347820D01*
X9895930Y4328860D01*
X9876880Y4317010D01*
X9857830Y4314640D01*
X9835610Y4319380D01*
X9819730Y4335970D01*
X9813380Y4352570D01*
Y4373900D01*
G01Y4352570D02*
X9803860Y4338340D01*
X9787980Y4326490D01*
X9768930Y4321750D01*
X9749880Y4326490D01*
X9734010Y4338340D01*
X9724480Y4359680D01*
X9727650Y4381010D01*
X9740360Y4402350D01*
G01X9742960Y4903710D02*
X9733430Y4917930D01*
X9727080Y4934520D01*
Y4953490D01*
X9736610Y4974830D01*
X9752480Y4991420D01*
X9771530Y5003270D01*
X9803280Y5012760D01*
X9831860Y5015130D01*
X9860430Y5010380D01*
X9879480Y5003270D01*
X9898530Y4989050D01*
X9911230Y4972450D01*
X9917580Y4955860D01*
Y4939270D01*
X9911230Y4922670D01*
X9901710Y4908450D01*
X9889010Y4896590D01*
G01X9895360Y4805660D02*
X9911230Y4789070D01*
X9917580Y4770100D01*
X9911230Y4751140D01*
X9892190Y4734540D01*
X9863600Y4722690D01*
X9835030Y4717950D01*
X9800110D01*
X9771530Y4722690D01*
X9746130Y4734540D01*
X9733430Y4748770D01*
X9727080Y4765360D01*
X9733430Y4784330D01*
X9746130Y4798550D01*
X9765180Y4808030D01*
X9790580Y4812770D01*
X9812800Y4808030D01*
X9835030Y4796180D01*
X9847730Y4781950D01*
X9850910Y4765360D01*
X9844560Y4746400D01*
X9828680Y4732170D01*
X9800110Y4717950D01*
G01X9727080Y4574860D02*
X9733430Y4593830D01*
X9749310Y4608050D01*
X9768350Y4617530D01*
X9793760Y4624640D01*
X9822330Y4627010D01*
X9850910Y4624640D01*
X9876310Y4617530D01*
X9895360Y4608050D01*
X9911230Y4593830D01*
X9917580Y4574860D01*
X9911230Y4555900D01*
X9895360Y4541670D01*
X9876310Y4532190D01*
X9850910Y4525080D01*
X9822330Y4522710D01*
X9793760Y4525080D01*
X9768350Y4532190D01*
X9749310Y4541670D01*
X9733430Y4555900D01*
X9727080Y4574860D01*
G01X9740360Y5098410D02*
X9730830Y5112630D01*
X9724480Y5129220D01*
Y5148190D01*
X9734010Y5169530D01*
X9749880Y5186120D01*
X9768930Y5197970D01*
X9800680Y5207460D01*
X9829260Y5209830D01*
X9857830Y5205080D01*
X9876880Y5197970D01*
X9895930Y5183750D01*
X9908630Y5167150D01*
X9914980Y5150560D01*
Y5133970D01*
X9908630Y5117370D01*
X9899110Y5103150D01*
X9886410Y5091290D01*
G01X9892760Y5000360D02*
X9908630Y4983770D01*
X9914980Y4964800D01*
X9908630Y4945840D01*
X9889590Y4929240D01*
X9861000Y4917390D01*
X9832430Y4912650D01*
X9797510D01*
X9768930Y4917390D01*
X9743530Y4929240D01*
X9730830Y4943470D01*
X9724480Y4960060D01*
X9730830Y4979030D01*
X9743530Y4993250D01*
X9762580Y5002730D01*
X9787980Y5007470D01*
X9810200Y5002730D01*
X9832430Y4990880D01*
X9845130Y4976650D01*
X9848310Y4960060D01*
X9841960Y4941100D01*
X9826080Y4926870D01*
X9797510Y4912650D01*
G01X9756230Y4814600D02*
X9737180Y4800380D01*
X9727650Y4783780D01*
X9724480Y4764820D01*
X9730830Y4741110D01*
X9746710Y4724520D01*
X9765750Y4719780D01*
X9784810Y4722150D01*
X9800680Y4731630D01*
X9832430Y4779040D01*
X9854660Y4800380D01*
X9886410Y4814600D01*
X9914980Y4819340D01*
Y4719780D01*
G01X9742960Y5301510D02*
X9733430Y5315730D01*
X9727080Y5332320D01*
Y5351290D01*
X9736610Y5372630D01*
X9752480Y5389220D01*
X9771530Y5401070D01*
X9803280Y5410560D01*
X9831860Y5412930D01*
X9860430Y5408180D01*
X9879480Y5401070D01*
X9898530Y5386850D01*
X9911230Y5370250D01*
X9917580Y5353660D01*
Y5337070D01*
X9911230Y5320470D01*
X9901710Y5306250D01*
X9889010Y5294390D01*
G01X9895360Y5203460D02*
X9911230Y5186870D01*
X9917580Y5167900D01*
X9911230Y5148940D01*
X9892190Y5132340D01*
X9863600Y5120490D01*
X9835030Y5115750D01*
X9800110D01*
X9771530Y5120490D01*
X9746130Y5132340D01*
X9733430Y5146570D01*
X9727080Y5163160D01*
X9733430Y5182130D01*
X9746130Y5196350D01*
X9765180Y5205830D01*
X9790580Y5210570D01*
X9812800Y5205830D01*
X9835030Y5193980D01*
X9847730Y5179750D01*
X9850910Y5163160D01*
X9844560Y5144200D01*
X9828680Y5129970D01*
X9800110Y5115750D01*
G01X9917580Y4944210D02*
X9727080D01*
X9863600Y5031930D01*
Y4913390D01*
G01X10187010Y4849340D02*
X10201230Y4858870D01*
X10217820Y4865220D01*
X10236790D01*
X10258130Y4855690D01*
X10274720Y4839820D01*
X10286570Y4820770D01*
X10296060Y4789020D01*
X10298430Y4760440D01*
X10293680Y4731870D01*
X10286570Y4712820D01*
X10272350Y4693770D01*
X10255750Y4681070D01*
X10239160Y4674720D01*
X10222570D01*
X10205970Y4681070D01*
X10191750Y4690590D01*
X10179890Y4703290D01*
G01X10053400Y4674720D02*
X10048660Y4715990D01*
X10041550Y4750920D01*
X10032070Y4782670D01*
X10020210Y4817590D01*
X10001250Y4865220D01*
X10096070D01*
G01X9903200Y4833470D02*
X9888980Y4852520D01*
X9872380Y4862050D01*
X9853420Y4865220D01*
X9829710Y4858870D01*
X9813120Y4842990D01*
X9808380Y4823950D01*
X9810750Y4804890D01*
X9820230Y4789020D01*
X9867640Y4757270D01*
X9888980Y4735040D01*
X9903200Y4703290D01*
X9907940Y4674720D01*
X9808380D01*
G01X9885390Y5263660D02*
X9871170Y5254130D01*
X9854580Y5247780D01*
X9835610D01*
X9814270Y5257310D01*
X9797680Y5273180D01*
X9785830Y5292230D01*
X9776340Y5323980D01*
X9773970Y5352560D01*
X9778720Y5381130D01*
X9785830Y5400180D01*
X9800050Y5419230D01*
X9816650Y5431930D01*
X9833240Y5438280D01*
X9849830D01*
X9866430Y5431930D01*
X9880650Y5422410D01*
X9892510Y5409710D01*
G01X9971590D02*
X9985810Y5425580D01*
X10002400Y5435110D01*
X10023740Y5438280D01*
X10045080Y5431930D01*
X10061670Y5419230D01*
X10073520Y5397010D01*
X10075890Y5371610D01*
X10071150Y5346210D01*
X10059300Y5330330D01*
X10042700Y5317630D01*
X10026110Y5314460D01*
X10009520Y5317630D01*
X9988180Y5330330D01*
X9995290Y5247780D01*
X10059300D01*
G01X10162090Y5400180D02*
X10176310Y5422410D01*
X10195270Y5435110D01*
X10216610Y5438280D01*
X10235580Y5435110D01*
X10254540Y5419230D01*
X10266390Y5400180D01*
X10268760Y5381130D01*
X10264020Y5358910D01*
X10247430Y5343030D01*
X10230830Y5336680D01*
X10209500D01*
G01X10230830D02*
X10245060Y5327160D01*
X10256910Y5311280D01*
X10261650Y5292230D01*
X10256910Y5273180D01*
X10245060Y5257310D01*
X10223720Y5247780D01*
X10202390Y5250950D01*
X10181050Y5263660D01*
G01X10376170Y5174020D02*
Y5364520D01*
X10316910D01*
X10297940Y5354990D01*
X10286090Y5342290D01*
X10281350Y5316890D01*
X10286090Y5291490D01*
X10300310Y5275620D01*
X10316910Y5266090D01*
X10376170D01*
G01X10316910D02*
X10281350Y5174020D01*
G01X10178560Y5196240D02*
X10161970Y5180370D01*
X10143000Y5174020D01*
X10124040Y5180370D01*
X10107440Y5199410D01*
X10095590Y5228000D01*
X10090850Y5256570D01*
Y5291490D01*
X10095590Y5320070D01*
X10107440Y5345470D01*
X10121670Y5358170D01*
X10138260Y5364520D01*
X10157230Y5358170D01*
X10171450Y5345470D01*
X10180930Y5326420D01*
X10185670Y5301020D01*
X10180930Y5278800D01*
X10169080Y5256570D01*
X10154850Y5243870D01*
X10138260Y5240690D01*
X10119300Y5247040D01*
X10105070Y5262920D01*
X10090850Y5291490D01*
G01X9999910Y5212120D02*
X9985690Y5189890D01*
X9966730Y5177190D01*
X9945390Y5174020D01*
X9926420Y5177190D01*
X9907460Y5193070D01*
X9895610Y5212120D01*
X9893240Y5231170D01*
X9897980Y5253390D01*
X9914570Y5269270D01*
X9931170Y5275620D01*
X9952500D01*
G01X9931170D02*
X9916940Y5285140D01*
X9905090Y5301020D01*
X9900350Y5320070D01*
X9905090Y5339120D01*
X9916940Y5354990D01*
X9938280Y5364520D01*
X9959610Y5361350D01*
X9980950Y5348640D01*
G01X10378870Y5464320D02*
Y5654820D01*
X10319610D01*
X10300640Y5645290D01*
X10288790Y5632590D01*
X10284050Y5607190D01*
X10288790Y5581790D01*
X10303010Y5565920D01*
X10319610Y5556390D01*
X10378870D01*
G01X10319610D02*
X10284050Y5464320D01*
G01X10181260Y5486540D02*
X10164670Y5470670D01*
X10145700Y5464320D01*
X10126740Y5470670D01*
X10110140Y5489710D01*
X10098290Y5518300D01*
X10093550Y5546870D01*
Y5581790D01*
X10098290Y5610370D01*
X10110140Y5635770D01*
X10124370Y5648470D01*
X10140960Y5654820D01*
X10159930Y5648470D01*
X10174150Y5635770D01*
X10183630Y5616720D01*
X10188370Y5591320D01*
X10183630Y5569100D01*
X10171780Y5546870D01*
X10157550Y5534170D01*
X10140960Y5530990D01*
X10122000Y5537340D01*
X10107770Y5553220D01*
X10093550Y5581790D01*
G01X10002610Y5492890D02*
X9988390Y5477020D01*
X9971800Y5467490D01*
X9950460Y5464320D01*
X9929120Y5470670D01*
X9912530Y5483370D01*
X9900680Y5505590D01*
X9898310Y5530990D01*
X9903050Y5556390D01*
X9914900Y5572270D01*
X9931500Y5584970D01*
X9948090Y5588140D01*
X9964680Y5584970D01*
X9986020Y5572270D01*
X9978910Y5654820D01*
X9914900D01*
G01X9946920Y5506530D02*
X10137420D01*
Y5565790D01*
X10127890Y5584760D01*
X10115190Y5596610D01*
X10089790Y5601350D01*
X10064390Y5596610D01*
X10048520Y5582390D01*
X10038990Y5565790D01*
Y5506530D01*
G01Y5565790D02*
X9946920Y5601350D01*
G01X9969140Y5704140D02*
X9953270Y5720730D01*
X9946920Y5739700D01*
X9953270Y5758660D01*
X9972310Y5775260D01*
X10000900Y5787110D01*
X10029470Y5791850D01*
X10064390D01*
X10092970Y5787110D01*
X10118370Y5775260D01*
X10131070Y5761030D01*
X10137420Y5744440D01*
X10131070Y5725470D01*
X10118370Y5711250D01*
X10099320Y5701770D01*
X10073920Y5697030D01*
X10051700Y5701770D01*
X10029470Y5713620D01*
X10016770Y5727850D01*
X10013590Y5744440D01*
X10019940Y5763400D01*
X10035820Y5777630D01*
X10064390Y5791850D01*
G01X10026290Y5889900D02*
X10048520Y5906490D01*
X10061220Y5920720D01*
X10067570Y5939680D01*
X10061220Y5956280D01*
X10048520Y5968130D01*
X10029470Y5977610D01*
X10007240Y5979980D01*
X9988190Y5977610D01*
X9969140Y5968130D01*
X9953270Y5953900D01*
X9946920Y5937310D01*
X9953270Y5918350D01*
X9972310Y5901750D01*
X10000900Y5892270D01*
X10032640Y5889900D01*
X10073920Y5894640D01*
X10096150Y5901750D01*
X10118370Y5913600D01*
X10134250Y5930200D01*
X10137420Y5946790D01*
X10131070Y5963390D01*
X10115190Y5975240D01*
G01X9941060Y4897510D02*
X9931530Y4911730D01*
X9925180Y4928320D01*
Y4947290D01*
X9934710Y4968630D01*
X9950580Y4985220D01*
X9969630Y4997070D01*
X10001380Y5006560D01*
X10029960Y5008930D01*
X10058530Y5004180D01*
X10077580Y4997070D01*
X10096630Y4982850D01*
X10109330Y4966250D01*
X10115680Y4949660D01*
Y4933070D01*
X10109330Y4916470D01*
X10099810Y4902250D01*
X10087110Y4890390D01*
G01Y4811310D02*
X10102980Y4797090D01*
X10112510Y4780500D01*
X10115680Y4759160D01*
X10109330Y4737820D01*
X10096630Y4721230D01*
X10074410Y4709380D01*
X10049010Y4707010D01*
X10023610Y4711750D01*
X10007730Y4723600D01*
X9995030Y4740200D01*
X9991860Y4756790D01*
X9995030Y4773380D01*
X10007730Y4794720D01*
X9925180Y4787610D01*
Y4723600D01*
G01X10093460Y4608960D02*
X10109330Y4592370D01*
X10115680Y4573400D01*
X10109330Y4554440D01*
X10090290Y4537840D01*
X10061700Y4525990D01*
X10033130Y4521250D01*
X9998210D01*
X9969630Y4525990D01*
X9944230Y4537840D01*
X9931530Y4552070D01*
X9925180Y4568660D01*
X9931530Y4587630D01*
X9944230Y4601850D01*
X9963280Y4611330D01*
X9988680Y4616070D01*
X10010900Y4611330D01*
X10033130Y4599480D01*
X10045830Y4585250D01*
X10049010Y4568660D01*
X10042660Y4549700D01*
X10026780Y4535470D01*
X9998210Y4521250D01*
G01X10030200Y5808020D02*
X9903200D01*
Y5767810D01*
X9909550Y5754940D01*
X9918020Y5746900D01*
X9934950Y5743680D01*
X9951880Y5746900D01*
X9962470Y5756550D01*
X9968820Y5767810D01*
Y5808020D01*
G01Y5767810D02*
X10030200Y5743680D01*
G01Y5646350D02*
X10028080Y5635090D01*
X10021740Y5622230D01*
X10011150Y5614180D01*
X9996330Y5610970D01*
X9981520Y5614180D01*
X9968820Y5623830D01*
X9962470Y5638310D01*
Y5654390D01*
X9958230Y5664040D01*
X9947650Y5672090D01*
X9932830Y5675300D01*
X9918020Y5670470D01*
X9907430Y5659220D01*
X9903200Y5646350D01*
X9907430Y5633480D01*
X9918020Y5622230D01*
X9932830Y5617400D01*
X9947650Y5620620D01*
X9958230Y5628660D01*
X9962470Y5638310D01*
Y5654390D01*
X9968820Y5668870D01*
X9981520Y5678520D01*
X9996330Y5681730D01*
X10011150Y5678520D01*
X10021740Y5670470D01*
X10028080Y5657610D01*
X10030200Y5646350D01*
G01X10015390Y5544190D02*
X10025970Y5532930D01*
X10030200Y5520070D01*
X10025970Y5507200D01*
X10013270Y5495940D01*
X9994220Y5487900D01*
X9975170Y5484680D01*
X9951880D01*
X9932830Y5487900D01*
X9915900Y5495940D01*
X9907430Y5505590D01*
X9903200Y5516850D01*
X9907430Y5529720D01*
X9915900Y5539370D01*
X9928600Y5545800D01*
X9945540Y5549020D01*
X9960350Y5545800D01*
X9975170Y5537760D01*
X9983640Y5528110D01*
X9985750Y5516850D01*
X9981520Y5503980D01*
X9970930Y5494330D01*
X9951880Y5484680D01*
G01X10042360Y4797310D02*
X10032830Y4811530D01*
X10026480Y4828120D01*
Y4847090D01*
X10036010Y4868430D01*
X10051880Y4885020D01*
X10070930Y4896870D01*
X10102680Y4906360D01*
X10131260Y4908730D01*
X10159830Y4903980D01*
X10178880Y4896870D01*
X10197930Y4882650D01*
X10210630Y4866050D01*
X10216980Y4849460D01*
Y4832870D01*
X10210630Y4816270D01*
X10201110Y4802050D01*
X10188410Y4790190D01*
G01X10137610Y4704000D02*
X10115380Y4687410D01*
X10102680Y4673180D01*
X10096330Y4654220D01*
X10102680Y4637620D01*
X10115380Y4625770D01*
X10134430Y4616290D01*
X10156660Y4613920D01*
X10175710Y4616290D01*
X10194760Y4625770D01*
X10210630Y4640000D01*
X10216980Y4656590D01*
X10210630Y4675550D01*
X10191590Y4692150D01*
X10163000Y4701630D01*
X10131260Y4704000D01*
X10089980Y4699260D01*
X10067750Y4692150D01*
X10045530Y4680300D01*
X10029650Y4663700D01*
X10026480Y4647110D01*
X10032830Y4630510D01*
X10048710Y4618660D01*
G01X10178880Y4520610D02*
X10201110Y4506390D01*
X10213810Y4487430D01*
X10216980Y4466090D01*
X10213810Y4447120D01*
X10197930Y4428160D01*
X10178880Y4416310D01*
X10159830Y4413940D01*
X10137610Y4418680D01*
X10121730Y4435270D01*
X10115380Y4451870D01*
Y4473200D01*
G01Y4451870D02*
X10105860Y4437640D01*
X10089980Y4425790D01*
X10070930Y4421050D01*
X10051880Y4425790D01*
X10036010Y4437640D01*
X10026480Y4458980D01*
X10029650Y4480310D01*
X10042360Y4501650D01*
G01X10042660Y4997110D02*
X10033130Y5011330D01*
X10026780Y5027920D01*
Y5046890D01*
X10036310Y5068230D01*
X10052180Y5084820D01*
X10071230Y5096670D01*
X10102980Y5106160D01*
X10131560Y5108530D01*
X10160130Y5103780D01*
X10179180Y5096670D01*
X10198230Y5082450D01*
X10210930Y5065850D01*
X10217280Y5049260D01*
Y5032670D01*
X10210930Y5016070D01*
X10201410Y5001850D01*
X10188710Y4989990D01*
G01Y4910910D02*
X10204580Y4896690D01*
X10214110Y4880100D01*
X10217280Y4858760D01*
X10210930Y4837420D01*
X10198230Y4820830D01*
X10176010Y4808980D01*
X10150610Y4806610D01*
X10125210Y4811350D01*
X10109330Y4823200D01*
X10096630Y4839800D01*
X10093460Y4856390D01*
X10096630Y4872980D01*
X10109330Y4894320D01*
X10026780Y4887210D01*
Y4823200D01*
G01X10217280Y4668260D02*
X10214110Y4651670D01*
X10204580Y4632700D01*
X10188710Y4620850D01*
X10166480Y4616110D01*
X10144260Y4620850D01*
X10125210Y4635070D01*
X10115680Y4656410D01*
Y4680110D01*
X10109330Y4694340D01*
X10093460Y4706190D01*
X10071230Y4710930D01*
X10049010Y4703820D01*
X10033130Y4687230D01*
X10026780Y4668260D01*
X10033130Y4649300D01*
X10049010Y4632700D01*
X10071230Y4625590D01*
X10093460Y4630330D01*
X10109330Y4642180D01*
X10115680Y4656410D01*
Y4680110D01*
X10125210Y4701450D01*
X10144260Y4715670D01*
X10166480Y4720410D01*
X10188710Y4715670D01*
X10204580Y4703820D01*
X10214110Y4684850D01*
X10217280Y4668260D01*
G01X9983400Y5427400D02*
Y5577400D01*
X10083400D01*
Y5427400D01*
X9983400D01*
G01X10220940Y5604490D02*
X10230470Y5590270D01*
X10236820Y5573680D01*
Y5554710D01*
X10227290Y5533370D01*
X10211420Y5516780D01*
X10192370Y5504930D01*
X10160620Y5495440D01*
X10132040Y5493070D01*
X10103470Y5497820D01*
X10084420Y5504930D01*
X10065370Y5519150D01*
X10052670Y5535750D01*
X10046320Y5552340D01*
Y5568930D01*
X10052670Y5585530D01*
X10062190Y5599750D01*
X10074890Y5611610D01*
G01X10068540Y5702540D02*
X10052670Y5719130D01*
X10046320Y5738100D01*
X10052670Y5757060D01*
X10071710Y5773660D01*
X10100300Y5785510D01*
X10128870Y5790250D01*
X10163790D01*
X10192370Y5785510D01*
X10217770Y5773660D01*
X10230470Y5759430D01*
X10236820Y5742840D01*
X10230470Y5723870D01*
X10217770Y5709650D01*
X10198720Y5700170D01*
X10173320Y5695430D01*
X10151100Y5700170D01*
X10128870Y5712020D01*
X10116170Y5726250D01*
X10112990Y5742840D01*
X10119340Y5761800D01*
X10135220Y5776030D01*
X10163790Y5790250D01*
G01X10068540Y5893040D02*
X10052670Y5909630D01*
X10046320Y5928600D01*
X10052670Y5947560D01*
X10071710Y5964160D01*
X10100300Y5976010D01*
X10128870Y5980750D01*
X10163790D01*
X10192370Y5976010D01*
X10217770Y5964160D01*
X10230470Y5949930D01*
X10236820Y5933340D01*
X10230470Y5914370D01*
X10217770Y5900150D01*
X10198720Y5890670D01*
X10173320Y5885930D01*
X10151100Y5890670D01*
X10128870Y5902520D01*
X10116170Y5916750D01*
X10112990Y5933340D01*
X10119340Y5952300D01*
X10135220Y5966530D01*
X10163790Y5980750D01*
G01X10187490Y5162860D02*
X10173270Y5153330D01*
X10156680Y5146980D01*
X10137710D01*
X10116370Y5156510D01*
X10099780Y5172380D01*
X10087930Y5191430D01*
X10078440Y5223180D01*
X10076070Y5251760D01*
X10080820Y5280330D01*
X10087930Y5299380D01*
X10102150Y5318430D01*
X10118750Y5331130D01*
X10135340Y5337480D01*
X10151930D01*
X10168530Y5331130D01*
X10182750Y5321610D01*
X10194610Y5308910D01*
G01X10280800Y5258110D02*
X10297390Y5235880D01*
X10311620Y5223180D01*
X10330580Y5216830D01*
X10347180Y5223180D01*
X10359030Y5235880D01*
X10368510Y5254930D01*
X10370880Y5277160D01*
X10368510Y5296210D01*
X10359030Y5315260D01*
X10344800Y5331130D01*
X10328210Y5337480D01*
X10309250Y5331130D01*
X10292650Y5312090D01*
X10283170Y5283500D01*
X10280800Y5251760D01*
X10285540Y5210480D01*
X10292650Y5188250D01*
X10304500Y5166030D01*
X10321100Y5150150D01*
X10337690Y5146980D01*
X10354290Y5153330D01*
X10366140Y5169210D01*
G01X10471300Y5178730D02*
X10485520Y5159680D01*
X10502120Y5150150D01*
X10521080Y5146980D01*
X10544790Y5153330D01*
X10561380Y5169210D01*
X10566120Y5188250D01*
X10563750Y5207310D01*
X10554270Y5223180D01*
X10506860Y5254930D01*
X10485520Y5277160D01*
X10471300Y5308910D01*
X10466560Y5337480D01*
X10566120D01*
G01X10094800Y5312700D02*
Y5392700D01*
X10269800D01*
Y5312700D01*
X10094800D01*
G01X10118100Y5405480D02*
X10245100D01*
Y5445690D01*
X10238750Y5458560D01*
X10230280Y5466600D01*
X10213350Y5469820D01*
X10196420Y5466600D01*
X10185830Y5456950D01*
X10179480Y5445690D01*
Y5405480D01*
G01Y5445690D02*
X10118100Y5469820D01*
G01X10132910Y5539810D02*
X10122330Y5551070D01*
X10118100Y5563930D01*
X10122330Y5576800D01*
X10135030Y5588060D01*
X10154080Y5596100D01*
X10173130Y5599320D01*
X10196420D01*
X10215470Y5596100D01*
X10232400Y5588060D01*
X10240870Y5578410D01*
X10245100Y5567150D01*
X10240870Y5554280D01*
X10232400Y5544630D01*
X10219700Y5538200D01*
X10202760Y5534980D01*
X10187950Y5538200D01*
X10173130Y5546240D01*
X10164660Y5555890D01*
X10162550Y5567150D01*
X10166780Y5580020D01*
X10177370Y5589670D01*
X10196420Y5599320D01*
G01X10118100Y5696650D02*
X10245100D01*
X10219700Y5677350D01*
G01X10118100D02*
Y5715950D01*
G01X10084930Y5637180D02*
Y5446680D01*
X10144190D01*
X10163160Y5456210D01*
X10175010Y5468910D01*
X10179750Y5494310D01*
X10175010Y5519710D01*
X10160790Y5535580D01*
X10144190Y5545110D01*
X10084930D01*
G01X10144190D02*
X10179750Y5637180D01*
G01X10282540Y5614960D02*
X10299130Y5630830D01*
X10318100Y5637180D01*
X10337060Y5630830D01*
X10353660Y5611790D01*
X10365510Y5583200D01*
X10370250Y5554630D01*
Y5519710D01*
X10365510Y5491130D01*
X10353660Y5465730D01*
X10339430Y5453030D01*
X10322840Y5446680D01*
X10303870Y5453030D01*
X10289650Y5465730D01*
X10280170Y5484780D01*
X10275430Y5510180D01*
X10280170Y5532400D01*
X10292020Y5554630D01*
X10306250Y5567330D01*
X10322840Y5570510D01*
X10341800Y5564160D01*
X10356030Y5548280D01*
X10370250Y5519710D01*
G01X10541790Y5637180D02*
Y5446680D01*
X10454070Y5583200D01*
X10572610D01*
G01X10164900Y5786100D02*
Y5636100D01*
X10064900D01*
Y5786100D01*
X10164900D01*
G01X10141560Y4896910D02*
X10132030Y4911130D01*
X10125680Y4927720D01*
Y4946690D01*
X10135210Y4968030D01*
X10151080Y4984620D01*
X10170130Y4996470D01*
X10201880Y5005960D01*
X10230460Y5008330D01*
X10259030Y5003580D01*
X10278080Y4996470D01*
X10297130Y4982250D01*
X10309830Y4965650D01*
X10316180Y4949060D01*
Y4932470D01*
X10309830Y4915870D01*
X10300310Y4901650D01*
X10287610Y4889790D01*
G01X10236810Y4803600D02*
X10214580Y4787010D01*
X10201880Y4772780D01*
X10195530Y4753820D01*
X10201880Y4737220D01*
X10214580Y4725370D01*
X10233630Y4715890D01*
X10255860Y4713520D01*
X10274910Y4715890D01*
X10293960Y4725370D01*
X10309830Y4739600D01*
X10316180Y4756190D01*
X10309830Y4775150D01*
X10290790Y4791750D01*
X10262200Y4801230D01*
X10230460Y4803600D01*
X10189180Y4798860D01*
X10166950Y4791750D01*
X10144730Y4779900D01*
X10128850Y4763300D01*
X10125680Y4746710D01*
X10132030Y4730110D01*
X10147910Y4718260D01*
G01X10316180Y4539610D02*
X10125680D01*
X10262200Y4627330D01*
Y4508790D01*
G01X10141860Y5097310D02*
X10132330Y5111530D01*
X10125980Y5128120D01*
Y5147090D01*
X10135510Y5168430D01*
X10151380Y5185020D01*
X10170430Y5196870D01*
X10202180Y5206360D01*
X10230760Y5208730D01*
X10259330Y5203980D01*
X10278380Y5196870D01*
X10297430Y5182650D01*
X10310130Y5166050D01*
X10316480Y5149460D01*
Y5132870D01*
X10310130Y5116270D01*
X10300610Y5102050D01*
X10287910Y5090190D01*
G01Y5011110D02*
X10303780Y4996890D01*
X10313310Y4980300D01*
X10316480Y4958960D01*
X10310130Y4937620D01*
X10297430Y4921030D01*
X10275210Y4909180D01*
X10249810Y4906810D01*
X10224410Y4911550D01*
X10208530Y4923400D01*
X10195830Y4940000D01*
X10192660Y4956590D01*
X10195830Y4973180D01*
X10208530Y4994520D01*
X10125980Y4987410D01*
Y4923400D01*
G01X10316480Y4773200D02*
X10275210Y4768460D01*
X10240280Y4761350D01*
X10208530Y4751870D01*
X10173610Y4740010D01*
X10125980Y4721050D01*
Y4815870D01*
G01X10366300Y5498500D02*
Y5418500D01*
X10191300D01*
Y5498500D01*
X10366300D01*
G01X10271400Y5516400D02*
X10191400D01*
Y5691400D01*
X10271400D01*
Y5516400D01*
G01X10241760Y4797310D02*
X10232230Y4811530D01*
X10225880Y4828120D01*
Y4847090D01*
X10235410Y4868430D01*
X10251280Y4885020D01*
X10270330Y4896870D01*
X10302080Y4906360D01*
X10330660Y4908730D01*
X10359230Y4903980D01*
X10378280Y4896870D01*
X10397330Y4882650D01*
X10410030Y4866050D01*
X10416380Y4849460D01*
Y4832870D01*
X10410030Y4816270D01*
X10400510Y4802050D01*
X10387810Y4790190D01*
G01Y4711110D02*
X10403680Y4696890D01*
X10413210Y4680300D01*
X10416380Y4658960D01*
X10410030Y4637620D01*
X10397330Y4621030D01*
X10375110Y4609180D01*
X10349710Y4606810D01*
X10324310Y4611550D01*
X10308430Y4623400D01*
X10295730Y4640000D01*
X10292560Y4656590D01*
X10295730Y4673180D01*
X10308430Y4694520D01*
X10225880Y4687410D01*
Y4623400D01*
G01X10416380Y4440010D02*
X10225880D01*
X10362400Y4527730D01*
Y4409190D01*
G01X10241760Y5203610D02*
X10232230Y5217830D01*
X10225880Y5234420D01*
Y5253390D01*
X10235410Y5274730D01*
X10251280Y5291320D01*
X10270330Y5303170D01*
X10302080Y5312660D01*
X10330660Y5315030D01*
X10359230Y5310280D01*
X10378280Y5303170D01*
X10397330Y5288950D01*
X10410030Y5272350D01*
X10416380Y5255760D01*
Y5239170D01*
X10410030Y5222570D01*
X10400510Y5208350D01*
X10387810Y5196490D01*
G01Y5117410D02*
X10403680Y5103190D01*
X10413210Y5086600D01*
X10416380Y5065260D01*
X10410030Y5043920D01*
X10397330Y5027330D01*
X10375110Y5015480D01*
X10349710Y5013110D01*
X10324310Y5017850D01*
X10308430Y5029700D01*
X10295730Y5046300D01*
X10292560Y5062890D01*
X10295730Y5079480D01*
X10308430Y5100820D01*
X10225880Y5093710D01*
Y5029700D01*
G01X10257630Y4919800D02*
X10238580Y4905580D01*
X10229050Y4888980D01*
X10225880Y4870020D01*
X10232230Y4846310D01*
X10248110Y4829720D01*
X10267150Y4824980D01*
X10286210Y4827350D01*
X10302080Y4836830D01*
X10333830Y4884240D01*
X10356060Y4905580D01*
X10387810Y4919800D01*
X10416380Y4924540D01*
Y4824980D01*
G01X10369000Y5788800D02*
Y5708800D01*
X10194000D01*
Y5788800D01*
X10369000D01*
G01X10443260Y4397510D02*
X10433730Y4411730D01*
X10427380Y4428320D01*
Y4447290D01*
X10436910Y4468630D01*
X10452780Y4485220D01*
X10471830Y4497070D01*
X10503580Y4506560D01*
X10532160Y4508930D01*
X10560730Y4504180D01*
X10579780Y4497070D01*
X10598830Y4482850D01*
X10611530Y4466250D01*
X10617880Y4449660D01*
Y4433070D01*
X10611530Y4416470D01*
X10602010Y4402250D01*
X10589310Y4390390D01*
G01X10617880Y4259160D02*
X10614710Y4242570D01*
X10605180Y4223600D01*
X10589310Y4211750D01*
X10567080Y4207010D01*
X10544860Y4211750D01*
X10525810Y4225970D01*
X10516280Y4247310D01*
Y4271010D01*
X10509930Y4285240D01*
X10494060Y4297090D01*
X10471830Y4301830D01*
X10449610Y4294720D01*
X10433730Y4278130D01*
X10427380Y4259160D01*
X10433730Y4240200D01*
X10449610Y4223600D01*
X10471830Y4216490D01*
X10494060Y4221230D01*
X10509930Y4233080D01*
X10516280Y4247310D01*
Y4271010D01*
X10525810Y4292350D01*
X10544860Y4306570D01*
X10567080Y4311310D01*
X10589310Y4306570D01*
X10605180Y4294720D01*
X10614710Y4275750D01*
X10617880Y4259160D01*
G01X10459130Y4113700D02*
X10440080Y4099480D01*
X10430550Y4082880D01*
X10427380Y4063920D01*
X10433730Y4040210D01*
X10449610Y4023620D01*
X10468650Y4018880D01*
X10487710Y4021250D01*
X10503580Y4030730D01*
X10535330Y4078140D01*
X10557560Y4099480D01*
X10589310Y4113700D01*
X10617880Y4118440D01*
Y4018880D01*
G01X10442560Y4596510D02*
X10433030Y4610730D01*
X10426680Y4627320D01*
Y4646290D01*
X10436210Y4667630D01*
X10452080Y4684220D01*
X10471130Y4696070D01*
X10502880Y4705560D01*
X10531460Y4707930D01*
X10560030Y4703180D01*
X10579080Y4696070D01*
X10598130Y4681850D01*
X10610830Y4665250D01*
X10617180Y4648660D01*
Y4632070D01*
X10610830Y4615470D01*
X10601310Y4601250D01*
X10588610Y4589390D01*
G01X10617180Y4462900D02*
X10575910Y4458160D01*
X10540980Y4451050D01*
X10509230Y4441570D01*
X10474310Y4429710D01*
X10426680Y4410750D01*
Y4505570D01*
G01X10579080Y4319810D02*
X10601310Y4305590D01*
X10614010Y4286630D01*
X10617180Y4265290D01*
X10614010Y4246320D01*
X10598130Y4227360D01*
X10579080Y4215510D01*
X10560030Y4213140D01*
X10537810Y4217880D01*
X10521930Y4234470D01*
X10515580Y4251070D01*
Y4272400D01*
G01Y4251070D02*
X10506060Y4236840D01*
X10490180Y4224990D01*
X10471130Y4220250D01*
X10452080Y4224990D01*
X10436210Y4236840D01*
X10426680Y4258180D01*
X10429850Y4279510D01*
X10442560Y4300850D01*
G01X10443260Y4797710D02*
X10433730Y4811930D01*
X10427380Y4828520D01*
Y4847490D01*
X10436910Y4868830D01*
X10452780Y4885420D01*
X10471830Y4897270D01*
X10503580Y4906760D01*
X10532160Y4909130D01*
X10560730Y4904380D01*
X10579780Y4897270D01*
X10598830Y4883050D01*
X10611530Y4866450D01*
X10617880Y4849860D01*
Y4833270D01*
X10611530Y4816670D01*
X10602010Y4802450D01*
X10589310Y4790590D01*
G01X10617880Y4664100D02*
X10576610Y4659360D01*
X10541680Y4652250D01*
X10509930Y4642770D01*
X10475010Y4630910D01*
X10427380Y4611950D01*
Y4706770D01*
G01X10617880Y4468860D02*
X10427380D01*
X10465480Y4497310D01*
G01X10617880D02*
Y4440420D01*
G01X10442560Y4997410D02*
X10433030Y5011630D01*
X10426680Y5028220D01*
Y5047190D01*
X10436210Y5068530D01*
X10452080Y5085120D01*
X10471130Y5096970D01*
X10502880Y5106460D01*
X10531460Y5108830D01*
X10560030Y5104080D01*
X10579080Y5096970D01*
X10598130Y5082750D01*
X10610830Y5066150D01*
X10617180Y5049560D01*
Y5032970D01*
X10610830Y5016370D01*
X10601310Y5002150D01*
X10588610Y4990290D01*
G01X10617180Y4863800D02*
X10575910Y4859060D01*
X10540980Y4851950D01*
X10509230Y4842470D01*
X10474310Y4830610D01*
X10426680Y4811650D01*
Y4906470D01*
G01X10617180Y4668560D02*
X10614010Y4651970D01*
X10604480Y4633000D01*
X10588610Y4621150D01*
X10566380Y4616410D01*
X10544160Y4621150D01*
X10525110Y4635370D01*
X10515580Y4656710D01*
Y4680410D01*
X10509230Y4694640D01*
X10493360Y4706490D01*
X10471130Y4711230D01*
X10448910Y4704120D01*
X10433030Y4687530D01*
X10426680Y4668560D01*
X10433030Y4649600D01*
X10448910Y4633000D01*
X10471130Y4625890D01*
X10493360Y4630630D01*
X10509230Y4642480D01*
X10515580Y4656710D01*
Y4680410D01*
X10525110Y4701750D01*
X10544160Y4715970D01*
X10566380Y4720710D01*
X10588610Y4715970D01*
X10604480Y4704120D01*
X10614010Y4685150D01*
X10617180Y4668560D01*
G01X10440660Y5201510D02*
X10431130Y5215730D01*
X10424780Y5232320D01*
Y5251290D01*
X10434310Y5272630D01*
X10450180Y5289220D01*
X10469230Y5301070D01*
X10500980Y5310560D01*
X10529560Y5312930D01*
X10558130Y5308180D01*
X10577180Y5301070D01*
X10596230Y5286850D01*
X10608930Y5270250D01*
X10615280Y5253660D01*
Y5237070D01*
X10608930Y5220470D01*
X10599410Y5206250D01*
X10586710Y5194390D01*
G01X10615280Y5067900D02*
X10574010Y5063160D01*
X10539080Y5056050D01*
X10507330Y5046570D01*
X10472410Y5034710D01*
X10424780Y5015750D01*
Y5110570D01*
G01X10615280Y4877400D02*
X10574010Y4872660D01*
X10539080Y4865550D01*
X10507330Y4856070D01*
X10472410Y4844210D01*
X10424780Y4825250D01*
Y4920070D01*
G01X10747460Y4807910D02*
X10737930Y4822130D01*
X10731580Y4838720D01*
Y4857690D01*
X10741110Y4879030D01*
X10756980Y4895620D01*
X10776030Y4907470D01*
X10807780Y4916960D01*
X10836360Y4919330D01*
X10864930Y4914580D01*
X10883980Y4907470D01*
X10903030Y4893250D01*
X10915730Y4876650D01*
X10922080Y4860060D01*
Y4843470D01*
X10915730Y4826870D01*
X10906210Y4812650D01*
X10893510Y4800790D01*
G01X10922080Y4669560D02*
X10731580D01*
X10769680Y4698010D01*
G01X10922080D02*
Y4641120D01*
G01X10731580Y4479060D02*
X10737930Y4498030D01*
X10753810Y4512250D01*
X10772850Y4521730D01*
X10798260Y4528840D01*
X10826830Y4531210D01*
X10855410Y4528840D01*
X10880810Y4521730D01*
X10899860Y4512250D01*
X10915730Y4498030D01*
X10922080Y4479060D01*
X10915730Y4460100D01*
X10899860Y4445870D01*
X10880810Y4436390D01*
X10855410Y4429280D01*
X10826830Y4426910D01*
X10798260Y4429280D01*
X10772850Y4436390D01*
X10753810Y4445870D01*
X10737930Y4460100D01*
X10731580Y4479060D01*
G01X10922080Y4260110D02*
X10731580D01*
X10868100Y4347830D01*
Y4229290D01*
G01X11018690Y4965360D02*
X11004470Y4955830D01*
X10987880Y4949480D01*
X10968910D01*
X10947570Y4959010D01*
X10930980Y4974880D01*
X10919130Y4993930D01*
X10909640Y5025680D01*
X10907270Y5054260D01*
X10912020Y5082830D01*
X10919130Y5101880D01*
X10933350Y5120930D01*
X10949950Y5133630D01*
X10966540Y5139980D01*
X10983130D01*
X10999730Y5133630D01*
X11013950Y5124110D01*
X11025810Y5111410D01*
G01X11157040Y5139980D02*
Y4949480D01*
X11128590Y4987580D01*
G01Y5139980D02*
X11185480D01*
G01X11302500Y4981230D02*
X11316720Y4962180D01*
X11333320Y4952650D01*
X11352280Y4949480D01*
X11375990Y4955830D01*
X11392580Y4971710D01*
X11397320Y4990750D01*
X11394950Y5009810D01*
X11385470Y5025680D01*
X11338060Y5057430D01*
X11316720Y5079660D01*
X11302500Y5111410D01*
X11297760Y5139980D01*
X11397320D01*
G01X11493000Y5060610D02*
X11509590Y5038380D01*
X11523820Y5025680D01*
X11542780Y5019330D01*
X11559380Y5025680D01*
X11571230Y5038380D01*
X11580710Y5057430D01*
X11583080Y5079660D01*
X11580710Y5098710D01*
X11571230Y5117760D01*
X11557000Y5133630D01*
X11540410Y5139980D01*
X11521450Y5133630D01*
X11504850Y5114590D01*
X11495370Y5086000D01*
X11493000Y5054260D01*
X11497740Y5012980D01*
X11504850Y4990750D01*
X11516700Y4968530D01*
X11533300Y4952650D01*
X11549890Y4949480D01*
X11566490Y4955830D01*
X11578340Y4971710D01*
G01X11018590Y5035760D02*
X11004370Y5026230D01*
X10987780Y5019880D01*
X10968810D01*
X10947470Y5029410D01*
X10930880Y5045280D01*
X10919030Y5064330D01*
X10909540Y5096080D01*
X10907170Y5124660D01*
X10911920Y5153230D01*
X10919030Y5172280D01*
X10933250Y5191330D01*
X10949850Y5204030D01*
X10966440Y5210380D01*
X10983030D01*
X10999630Y5204030D01*
X11013850Y5194510D01*
X11025710Y5181810D01*
G01X11156940Y5210380D02*
Y5019880D01*
X11128490Y5057980D01*
G01Y5210380D02*
X11185380D01*
G01X11302400Y5051630D02*
X11316620Y5032580D01*
X11333220Y5023050D01*
X11352180Y5019880D01*
X11375890Y5026230D01*
X11392480Y5042110D01*
X11397220Y5061150D01*
X11394850Y5080210D01*
X11385370Y5096080D01*
X11337960Y5127830D01*
X11316620Y5150060D01*
X11302400Y5181810D01*
X11297660Y5210380D01*
X11397220D01*
G01X11533200D02*
X11537940Y5169110D01*
X11545050Y5134180D01*
X11554530Y5102430D01*
X11566390Y5067510D01*
X11585350Y5019880D01*
X11490530D01*
G01X11018790Y5106360D02*
X11004570Y5096830D01*
X10987980Y5090480D01*
X10969010D01*
X10947670Y5100010D01*
X10931080Y5115880D01*
X10919230Y5134930D01*
X10909740Y5166680D01*
X10907370Y5195260D01*
X10912120Y5223830D01*
X10919230Y5242880D01*
X10933450Y5261930D01*
X10950050Y5274630D01*
X10966640Y5280980D01*
X10983230D01*
X10999830Y5274630D01*
X11014050Y5265110D01*
X11025910Y5252410D01*
G01X11157140Y5280980D02*
Y5090480D01*
X11128690Y5128580D01*
G01Y5280980D02*
X11185580D01*
G01X11302600Y5122230D02*
X11316820Y5103180D01*
X11333420Y5093650D01*
X11352380Y5090480D01*
X11376090Y5096830D01*
X11392680Y5112710D01*
X11397420Y5131750D01*
X11395050Y5150810D01*
X11385570Y5166680D01*
X11338160Y5198430D01*
X11316820Y5220660D01*
X11302600Y5252410D01*
X11297860Y5280980D01*
X11397420D01*
G01X11538140D02*
X11554730Y5277810D01*
X11573700Y5268280D01*
X11585550Y5252410D01*
X11590290Y5230180D01*
X11585550Y5207960D01*
X11571330Y5188910D01*
X11549990Y5179380D01*
X11526290D01*
X11512060Y5173030D01*
X11500210Y5157160D01*
X11495470Y5134930D01*
X11502580Y5112710D01*
X11519170Y5096830D01*
X11538140Y5090480D01*
X11557100Y5096830D01*
X11573700Y5112710D01*
X11580810Y5134930D01*
X11576070Y5157160D01*
X11564220Y5173030D01*
X11549990Y5179380D01*
X11526290D01*
X11504950Y5188910D01*
X11490730Y5207960D01*
X11485990Y5230180D01*
X11490730Y5252410D01*
X11502580Y5268280D01*
X11521550Y5277810D01*
X11538140Y5280980D01*
G01X11018790Y5176860D02*
X11004570Y5167330D01*
X10987980Y5160980D01*
X10969010D01*
X10947670Y5170510D01*
X10931080Y5186380D01*
X10919230Y5205430D01*
X10909740Y5237180D01*
X10907370Y5265760D01*
X10912120Y5294330D01*
X10919230Y5313380D01*
X10933450Y5332430D01*
X10950050Y5345130D01*
X10966640Y5351480D01*
X10983230D01*
X10999830Y5345130D01*
X11014050Y5335610D01*
X11025910Y5322910D01*
G01X11157140Y5351480D02*
Y5160980D01*
X11128690Y5199080D01*
G01Y5351480D02*
X11185580D01*
G01X11302600Y5192730D02*
X11316820Y5173680D01*
X11333420Y5164150D01*
X11352380Y5160980D01*
X11376090Y5167330D01*
X11392680Y5183210D01*
X11397420Y5202250D01*
X11395050Y5221310D01*
X11385570Y5237180D01*
X11338160Y5268930D01*
X11316820Y5291160D01*
X11302600Y5322910D01*
X11297860Y5351480D01*
X11397420D01*
G01X11497840Y5329260D02*
X11514430Y5345130D01*
X11533400Y5351480D01*
X11552360Y5345130D01*
X11568960Y5326090D01*
X11580810Y5297500D01*
X11585550Y5268930D01*
Y5234010D01*
X11580810Y5205430D01*
X11568960Y5180030D01*
X11554730Y5167330D01*
X11538140Y5160980D01*
X11519170Y5167330D01*
X11504950Y5180030D01*
X11495470Y5199080D01*
X11490730Y5224480D01*
X11495470Y5246700D01*
X11507320Y5268930D01*
X11521550Y5281630D01*
X11538140Y5284810D01*
X11557100Y5278460D01*
X11571330Y5262580D01*
X11585550Y5234010D01*
G01X11018790Y5247360D02*
X11004570Y5237830D01*
X10987980Y5231480D01*
X10969010D01*
X10947670Y5241010D01*
X10931080Y5256880D01*
X10919230Y5275930D01*
X10909740Y5307680D01*
X10907370Y5336260D01*
X10912120Y5364830D01*
X10919230Y5383880D01*
X10933450Y5402930D01*
X10950050Y5415630D01*
X10966640Y5421980D01*
X10983230D01*
X10999830Y5415630D01*
X11014050Y5406110D01*
X11025910Y5393410D01*
G01X11157140Y5421980D02*
Y5231480D01*
X11128690Y5269580D01*
G01Y5421980D02*
X11185580D01*
G01X11295490Y5383880D02*
X11309710Y5406110D01*
X11328670Y5418810D01*
X11350010Y5421980D01*
X11368980Y5418810D01*
X11387940Y5402930D01*
X11399790Y5383880D01*
X11402160Y5364830D01*
X11397420Y5342610D01*
X11380830Y5326730D01*
X11364230Y5320380D01*
X11342900D01*
G01X11364230D02*
X11378460Y5310860D01*
X11390310Y5294980D01*
X11395050Y5275930D01*
X11390310Y5256880D01*
X11378460Y5241010D01*
X11357120Y5231480D01*
X11335790Y5234650D01*
X11314450Y5247360D01*
G01X11538140Y5421980D02*
Y5231480D01*
X11509690Y5269580D01*
G01Y5421980D02*
X11566580D01*
G01X11018790Y5388360D02*
X11004570Y5378830D01*
X10987980Y5372480D01*
X10969010D01*
X10947670Y5382010D01*
X10931080Y5397880D01*
X10919230Y5416930D01*
X10909740Y5448680D01*
X10907370Y5477260D01*
X10912120Y5505830D01*
X10919230Y5524880D01*
X10933450Y5543930D01*
X10950050Y5556630D01*
X10966640Y5562980D01*
X10983230D01*
X10999830Y5556630D01*
X11014050Y5547110D01*
X11025910Y5534410D01*
G01X11157140Y5562980D02*
Y5372480D01*
X11128690Y5410580D01*
G01Y5562980D02*
X11185580D01*
G01X11295490Y5524880D02*
X11309710Y5547110D01*
X11328670Y5559810D01*
X11350010Y5562980D01*
X11368980Y5559810D01*
X11387940Y5543930D01*
X11399790Y5524880D01*
X11402160Y5505830D01*
X11397420Y5483610D01*
X11380830Y5467730D01*
X11364230Y5461380D01*
X11342900D01*
G01X11364230D02*
X11378460Y5451860D01*
X11390310Y5435980D01*
X11395050Y5416930D01*
X11390310Y5397880D01*
X11378460Y5382010D01*
X11357120Y5372480D01*
X11335790Y5375650D01*
X11314450Y5388360D01*
G01X11485990Y5524880D02*
X11500210Y5547110D01*
X11519170Y5559810D01*
X11540510Y5562980D01*
X11559480Y5559810D01*
X11578440Y5543930D01*
X11590290Y5524880D01*
X11592660Y5505830D01*
X11587920Y5483610D01*
X11571330Y5467730D01*
X11554730Y5461380D01*
X11533400D01*
G01X11554730D02*
X11568960Y5451860D01*
X11580810Y5435980D01*
X11585550Y5416930D01*
X11580810Y5397880D01*
X11568960Y5382010D01*
X11547620Y5372480D01*
X11526290Y5375650D01*
X11504950Y5388360D01*
G01X11018790Y5317860D02*
X11004570Y5308330D01*
X10987980Y5301980D01*
X10969010D01*
X10947670Y5311510D01*
X10931080Y5327380D01*
X10919230Y5346430D01*
X10909740Y5378180D01*
X10907370Y5406760D01*
X10912120Y5435330D01*
X10919230Y5454380D01*
X10933450Y5473430D01*
X10950050Y5486130D01*
X10966640Y5492480D01*
X10983230D01*
X10999830Y5486130D01*
X11014050Y5476610D01*
X11025910Y5463910D01*
G01X11157140Y5492480D02*
Y5301980D01*
X11128690Y5340080D01*
G01Y5492480D02*
X11185580D01*
G01X11295490Y5454380D02*
X11309710Y5476610D01*
X11328670Y5489310D01*
X11350010Y5492480D01*
X11368980Y5489310D01*
X11387940Y5473430D01*
X11399790Y5454380D01*
X11402160Y5435330D01*
X11397420Y5413110D01*
X11380830Y5397230D01*
X11364230Y5390880D01*
X11342900D01*
G01X11364230D02*
X11378460Y5381360D01*
X11390310Y5365480D01*
X11395050Y5346430D01*
X11390310Y5327380D01*
X11378460Y5311510D01*
X11357120Y5301980D01*
X11335790Y5305150D01*
X11314450Y5317860D01*
G01X11538140Y5301980D02*
X11519170Y5308330D01*
X11504950Y5324210D01*
X11495470Y5343250D01*
X11488360Y5368660D01*
X11485990Y5397230D01*
X11488360Y5425810D01*
X11495470Y5451210D01*
X11504950Y5470260D01*
X11519170Y5486130D01*
X11538140Y5492480D01*
X11557100Y5486130D01*
X11571330Y5470260D01*
X11580810Y5451210D01*
X11587920Y5425810D01*
X11590290Y5397230D01*
X11587920Y5368660D01*
X11580810Y5343250D01*
X11571330Y5324210D01*
X11557100Y5308330D01*
X11538140Y5301980D01*
G01X11018690Y5458960D02*
X11004470Y5449430D01*
X10987880Y5443080D01*
X10968910D01*
X10947570Y5452610D01*
X10930980Y5468480D01*
X10919130Y5487530D01*
X10909640Y5519280D01*
X10907270Y5547860D01*
X10912020Y5576430D01*
X10919130Y5595480D01*
X10933350Y5614530D01*
X10949950Y5627230D01*
X10966540Y5633580D01*
X10983130D01*
X10999730Y5627230D01*
X11013950Y5617710D01*
X11025810Y5605010D01*
G01X11157040Y5633580D02*
Y5443080D01*
X11128590Y5481180D01*
G01Y5633580D02*
X11185480D01*
G01X11295390Y5595480D02*
X11309610Y5617710D01*
X11328570Y5630410D01*
X11349910Y5633580D01*
X11368880Y5630410D01*
X11387840Y5614530D01*
X11399690Y5595480D01*
X11402060Y5576430D01*
X11397320Y5554210D01*
X11380730Y5538330D01*
X11364130Y5531980D01*
X11342800D01*
G01X11364130D02*
X11378360Y5522460D01*
X11390210Y5506580D01*
X11394950Y5487530D01*
X11390210Y5468480D01*
X11378360Y5452610D01*
X11357020Y5443080D01*
X11335690Y5446250D01*
X11314350Y5458960D01*
G01X11493000Y5474830D02*
X11507220Y5455780D01*
X11523820Y5446250D01*
X11542780Y5443080D01*
X11566490Y5449430D01*
X11583080Y5465310D01*
X11587820Y5484350D01*
X11585450Y5503410D01*
X11575970Y5519280D01*
X11528560Y5551030D01*
X11507220Y5573260D01*
X11493000Y5605010D01*
X11488260Y5633580D01*
X11587820D01*
G01X11018790Y5529460D02*
X11004570Y5519930D01*
X10987980Y5513580D01*
X10969010D01*
X10947670Y5523110D01*
X10931080Y5538980D01*
X10919230Y5558030D01*
X10909740Y5589780D01*
X10907370Y5618360D01*
X10912120Y5646930D01*
X10919230Y5665980D01*
X10933450Y5685030D01*
X10950050Y5697730D01*
X10966640Y5704080D01*
X10983230D01*
X10999830Y5697730D01*
X11014050Y5688210D01*
X11025910Y5675510D01*
G01X11157140Y5704080D02*
Y5513580D01*
X11128690Y5551680D01*
G01Y5704080D02*
X11185580D01*
G01X11295490Y5665980D02*
X11309710Y5688210D01*
X11328670Y5700910D01*
X11350010Y5704080D01*
X11368980Y5700910D01*
X11387940Y5685030D01*
X11399790Y5665980D01*
X11402160Y5646930D01*
X11397420Y5624710D01*
X11380830Y5608830D01*
X11364230Y5602480D01*
X11342900D01*
G01X11364230D02*
X11378460Y5592960D01*
X11390310Y5577080D01*
X11395050Y5558030D01*
X11390310Y5538980D01*
X11378460Y5523110D01*
X11357120Y5513580D01*
X11335790Y5516750D01*
X11314450Y5529460D01*
G01X11485990Y5675510D02*
X11500210Y5691380D01*
X11516800Y5700910D01*
X11538140Y5704080D01*
X11559480Y5697730D01*
X11576070Y5685030D01*
X11587920Y5662810D01*
X11590290Y5637410D01*
X11585550Y5612010D01*
X11573700Y5596130D01*
X11557100Y5583430D01*
X11540510Y5580260D01*
X11523920Y5583430D01*
X11502580Y5596130D01*
X11509690Y5513580D01*
X11573700D01*
G01X11019090Y5599960D02*
X11004870Y5590430D01*
X10988280Y5584080D01*
X10969310D01*
X10947970Y5593610D01*
X10931380Y5609480D01*
X10919530Y5628530D01*
X10910040Y5660280D01*
X10907670Y5688860D01*
X10912420Y5717430D01*
X10919530Y5736480D01*
X10933750Y5755530D01*
X10950350Y5768230D01*
X10966940Y5774580D01*
X10983530D01*
X11000130Y5768230D01*
X11014350Y5758710D01*
X11026210Y5746010D01*
G01X11157440Y5774580D02*
Y5584080D01*
X11128990Y5622180D01*
G01Y5774580D02*
X11185880D01*
G01X11295790Y5736480D02*
X11310010Y5758710D01*
X11328970Y5771410D01*
X11350310Y5774580D01*
X11369280Y5771410D01*
X11388240Y5755530D01*
X11400090Y5736480D01*
X11402460Y5717430D01*
X11397720Y5695210D01*
X11381130Y5679330D01*
X11364530Y5672980D01*
X11343200D01*
G01X11364530D02*
X11378760Y5663460D01*
X11390610Y5647580D01*
X11395350Y5628530D01*
X11390610Y5609480D01*
X11378760Y5593610D01*
X11357420Y5584080D01*
X11336090Y5587250D01*
X11314750Y5599960D01*
G01X11566890Y5774580D02*
Y5584080D01*
X11479170Y5720600D01*
X11597710D01*
G01X11018790Y5669960D02*
X11004570Y5660430D01*
X10987980Y5654080D01*
X10969010D01*
X10947670Y5663610D01*
X10931080Y5679480D01*
X10919230Y5698530D01*
X10909740Y5730280D01*
X10907370Y5758860D01*
X10912120Y5787430D01*
X10919230Y5806480D01*
X10933450Y5825530D01*
X10950050Y5838230D01*
X10966640Y5844580D01*
X10983230D01*
X10999830Y5838230D01*
X11014050Y5828710D01*
X11025910Y5816010D01*
G01X11157140Y5844580D02*
Y5654080D01*
X11128690Y5692180D01*
G01Y5844580D02*
X11185580D01*
G01X11295490Y5806480D02*
X11309710Y5828710D01*
X11328670Y5841410D01*
X11350010Y5844580D01*
X11368980Y5841410D01*
X11387940Y5825530D01*
X11399790Y5806480D01*
X11402160Y5787430D01*
X11397420Y5765210D01*
X11380830Y5749330D01*
X11364230Y5742980D01*
X11342900D01*
G01X11364230D02*
X11378460Y5733460D01*
X11390310Y5717580D01*
X11395050Y5698530D01*
X11390310Y5679480D01*
X11378460Y5663610D01*
X11357120Y5654080D01*
X11335790Y5657250D01*
X11314450Y5669960D01*
G01X11533400Y5844580D02*
X11538140Y5803310D01*
X11545250Y5768380D01*
X11554730Y5736630D01*
X11566590Y5701710D01*
X11585550Y5654080D01*
X11490730D01*
G01X11018790Y5740460D02*
X11004570Y5730930D01*
X10987980Y5724580D01*
X10969010D01*
X10947670Y5734110D01*
X10931080Y5749980D01*
X10919230Y5769030D01*
X10909740Y5800780D01*
X10907370Y5829360D01*
X10912120Y5857930D01*
X10919230Y5876980D01*
X10933450Y5896030D01*
X10950050Y5908730D01*
X10966640Y5915080D01*
X10983230D01*
X10999830Y5908730D01*
X11014050Y5899210D01*
X11025910Y5886510D01*
G01X11157140Y5915080D02*
Y5724580D01*
X11128690Y5762680D01*
G01Y5915080D02*
X11185580D01*
G01X11295490Y5876980D02*
X11309710Y5899210D01*
X11328670Y5911910D01*
X11350010Y5915080D01*
X11368980Y5911910D01*
X11387940Y5896030D01*
X11399790Y5876980D01*
X11402160Y5857930D01*
X11397420Y5835710D01*
X11380830Y5819830D01*
X11364230Y5813480D01*
X11342900D01*
G01X11364230D02*
X11378460Y5803960D01*
X11390310Y5788080D01*
X11395050Y5769030D01*
X11390310Y5749980D01*
X11378460Y5734110D01*
X11357120Y5724580D01*
X11335790Y5727750D01*
X11314450Y5740460D01*
G01X11493100Y5835710D02*
X11509690Y5813480D01*
X11523920Y5800780D01*
X11542880Y5794430D01*
X11559480Y5800780D01*
X11571330Y5813480D01*
X11580810Y5832530D01*
X11583180Y5854760D01*
X11580810Y5873810D01*
X11571330Y5892860D01*
X11557100Y5908730D01*
X11540510Y5915080D01*
X11521550Y5908730D01*
X11504950Y5889690D01*
X11495470Y5861100D01*
X11493100Y5829360D01*
X11497840Y5788080D01*
X11504950Y5765850D01*
X11516800Y5743630D01*
X11533400Y5727750D01*
X11549990Y5724580D01*
X11566590Y5730930D01*
X11578440Y5746810D01*
G01X11018790Y5810960D02*
X11004570Y5801430D01*
X10987980Y5795080D01*
X10969010D01*
X10947670Y5804610D01*
X10931080Y5820480D01*
X10919230Y5839530D01*
X10909740Y5871280D01*
X10907370Y5899860D01*
X10912120Y5928430D01*
X10919230Y5947480D01*
X10933450Y5966530D01*
X10950050Y5979230D01*
X10966640Y5985580D01*
X10983230D01*
X10999830Y5979230D01*
X11014050Y5969710D01*
X11025910Y5957010D01*
G01X11157140Y5985580D02*
Y5795080D01*
X11128690Y5833180D01*
G01Y5985580D02*
X11185580D01*
G01X11295490Y5947480D02*
X11309710Y5969710D01*
X11328670Y5982410D01*
X11350010Y5985580D01*
X11368980Y5982410D01*
X11387940Y5966530D01*
X11399790Y5947480D01*
X11402160Y5928430D01*
X11397420Y5906210D01*
X11380830Y5890330D01*
X11364230Y5883980D01*
X11342900D01*
G01X11364230D02*
X11378460Y5874460D01*
X11390310Y5858580D01*
X11395050Y5839530D01*
X11390310Y5820480D01*
X11378460Y5804610D01*
X11357120Y5795080D01*
X11335790Y5798250D01*
X11314450Y5810960D01*
G01X11497840Y5963360D02*
X11514430Y5979230D01*
X11533400Y5985580D01*
X11552360Y5979230D01*
X11568960Y5960190D01*
X11580810Y5931600D01*
X11585550Y5903030D01*
Y5868110D01*
X11580810Y5839530D01*
X11568960Y5814130D01*
X11554730Y5801430D01*
X11538140Y5795080D01*
X11519170Y5801430D01*
X11504950Y5814130D01*
X11495470Y5833180D01*
X11490730Y5858580D01*
X11495470Y5880800D01*
X11507320Y5903030D01*
X11521550Y5915730D01*
X11538140Y5918910D01*
X11557100Y5912560D01*
X11571330Y5896680D01*
X11585550Y5868110D01*
G01X11018790Y5881760D02*
X11004570Y5872230D01*
X10987980Y5865880D01*
X10969010D01*
X10947670Y5875410D01*
X10931080Y5891280D01*
X10919230Y5910330D01*
X10909740Y5942080D01*
X10907370Y5970660D01*
X10912120Y5999230D01*
X10919230Y6018280D01*
X10933450Y6037330D01*
X10950050Y6050030D01*
X10966640Y6056380D01*
X10983230D01*
X10999830Y6050030D01*
X11014050Y6040510D01*
X11025910Y6027810D01*
G01X11157140Y6056380D02*
Y5865880D01*
X11128690Y5903980D01*
G01Y6056380D02*
X11185580D01*
G01X11295490Y6018280D02*
X11309710Y6040510D01*
X11328670Y6053210D01*
X11350010Y6056380D01*
X11368980Y6053210D01*
X11387940Y6037330D01*
X11399790Y6018280D01*
X11402160Y5999230D01*
X11397420Y5977010D01*
X11380830Y5961130D01*
X11364230Y5954780D01*
X11342900D01*
G01X11364230D02*
X11378460Y5945260D01*
X11390310Y5929380D01*
X11395050Y5910330D01*
X11390310Y5891280D01*
X11378460Y5875410D01*
X11357120Y5865880D01*
X11335790Y5869050D01*
X11314450Y5881760D01*
G01X11538140Y6056380D02*
X11554730Y6053210D01*
X11573700Y6043680D01*
X11585550Y6027810D01*
X11590290Y6005580D01*
X11585550Y5983360D01*
X11571330Y5964310D01*
X11549990Y5954780D01*
X11526290D01*
X11512060Y5948430D01*
X11500210Y5932560D01*
X11495470Y5910330D01*
X11502580Y5888110D01*
X11519170Y5872230D01*
X11538140Y5865880D01*
X11557100Y5872230D01*
X11573700Y5888110D01*
X11580810Y5910330D01*
X11576070Y5932560D01*
X11564220Y5948430D01*
X11549990Y5954780D01*
X11526290D01*
X11504950Y5964310D01*
X11490730Y5983360D01*
X11485990Y6005580D01*
X11490730Y6027810D01*
X11502580Y6043680D01*
X11521550Y6053210D01*
X11538140Y6056380D01*
G01X11018790Y5952460D02*
X11004570Y5942930D01*
X10987980Y5936580D01*
X10969010D01*
X10947670Y5946110D01*
X10931080Y5961980D01*
X10919230Y5981030D01*
X10909740Y6012780D01*
X10907370Y6041360D01*
X10912120Y6069930D01*
X10919230Y6088980D01*
X10933450Y6108030D01*
X10950050Y6120730D01*
X10966640Y6127080D01*
X10983230D01*
X10999830Y6120730D01*
X11014050Y6111210D01*
X11025910Y6098510D01*
G01X11157140Y6127080D02*
Y5936580D01*
X11128690Y5974680D01*
G01Y6127080D02*
X11185580D01*
G01X11376090D02*
Y5936580D01*
X11288370Y6073100D01*
X11406910D01*
G01X11538140Y6127080D02*
Y5936580D01*
X11509690Y5974680D01*
G01Y6127080D02*
X11566580D01*
G01X11018790Y6023560D02*
X11004570Y6014030D01*
X10987980Y6007680D01*
X10969010D01*
X10947670Y6017210D01*
X10931080Y6033080D01*
X10919230Y6052130D01*
X10909740Y6083880D01*
X10907370Y6112460D01*
X10912120Y6141030D01*
X10919230Y6160080D01*
X10933450Y6179130D01*
X10950050Y6191830D01*
X10966640Y6198180D01*
X10983230D01*
X10999830Y6191830D01*
X11014050Y6182310D01*
X11025910Y6169610D01*
G01X11157140Y6198180D02*
Y6007680D01*
X11128690Y6045780D01*
G01Y6198180D02*
X11185580D01*
G01X11376090D02*
Y6007680D01*
X11288370Y6144200D01*
X11406910D01*
G01X11538140Y6007680D02*
X11519170Y6014030D01*
X11504950Y6029910D01*
X11495470Y6048950D01*
X11488360Y6074360D01*
X11485990Y6102930D01*
X11488360Y6131510D01*
X11495470Y6156910D01*
X11504950Y6175960D01*
X11519170Y6191830D01*
X11538140Y6198180D01*
X11557100Y6191830D01*
X11571330Y6175960D01*
X11580810Y6156910D01*
X11587920Y6131510D01*
X11590290Y6102930D01*
X11587920Y6074360D01*
X11580810Y6048950D01*
X11571330Y6029910D01*
X11557100Y6014030D01*
X11538140Y6007680D01*
M02*
