G04 ================== begin FILE IDENTIFICATION RECORD ==================*
G04 Layout Name:  pcie-nvme_rework2.brd*
G04 Film Name:    SOLDERT*
G04 File Format:  Gerber RS274X*
G04 File Origin:  Cadence Allegro 25.1-S010*
G04 Origin Date:  Tue May 12 01:05:28 2026*
G04 *
G04 Layer:  VIA CLASS/SOLDERMASK_TOP*
G04 Layer:  PIN/SOLDERMASK_TOP*
G04 Layer:  DRC ERROR CLASS/SOLDERMASK_TOP*
G04 *
G04 Offset:    (0.0000 0.0000)*
G04 Mirror:    No*
G04 Mode:      Positive*
G04 Rotation:  0*
G04 FullContactRelief:  No*
G04 UndefLineWidth:     0.1000*
G04 ================== end FILE IDENTIFICATION RECORD ====================*
%FSLAX25Y25*MOMM*%
%IR0*IPPOS*OFA0.00000B0.00000*MIA0B0*SFA1.00000B1.00000*%
%AMMACRO26*
4,1,5,.38,-.43,
.38,.43,
-.38,.43,
-.38,-.02,
.03,-.43,
.38,-.43,
0.0*
%
%ADD26MACRO26*%
%ADD19R,1.13X.93*%
%ADD44R,.23X1.48*%
%ADD24R,1.33X.93*%
%AMMACRO20*
4,1,5,.615,-.515,
.615,.515,
-.615,.515,
-.615,.05,
-.05,-.515,
.615,-.515,
0.0*
%
%ADD20MACRO20*%
%ADD18R,1.13X.98*%
%ADD37C,.63*%
%ADD36R,.4572X1.905*%
%ADD40R,1.905X.4572*%
%ADD30R,1.397X.762*%
%ADD35R,1.3938X.6318*%
%ADD16R,.5588X.5588*%
%ADD17R,1.4X1.2*%
%ADD15R,2.2X4.3*%
%AMMACRO42*
4,1,40,-.335,.465,
-.335,-.465,
-.333177,-.485838,
-.327763,-.506042,
-.318923,-.525,
-.306925,-.542135,
-.292135,-.556925,
-.275,-.568923,
-.256042,-.577763,
-.235838,-.583177,
-.215,-.585,
.215,-.585,
.235838,-.583177,
.256042,-.577763,
.275,-.568923,
.292135,-.556925,
.306925,-.542135,
.318923,-.525,
.327763,-.506042,
.333177,-.485838,
.335,-.465,
.335,.465,
.333177,.485838,
.327763,.506042,
.318923,.525,
.306925,.542135,
.292135,.556925,
.275,.568923,
.256042,.577763,
.235838,.583177,
.215,.585,
-.215,.585,
-.235838,.583177,
-.256042,.577763,
-.275,.568923,
-.292135,.556925,
-.306925,.542135,
-.318923,.525,
-.327763,.506042,
-.333177,.485838,
-.335,.465,
0.0*
%
%ADD42MACRO42*%
%AMMACRO45*
4,1,40,.465,.335,
-.465,.335,
-.485838,.333177,
-.506042,.327763,
-.525,.318923,
-.542135,.306925,
-.556925,.292135,
-.568923,.275,
-.577763,.256042,
-.583177,.235838,
-.585,.215,
-.585,-.215,
-.583177,-.235838,
-.577763,-.256042,
-.568923,-.275,
-.556925,-.292135,
-.542135,-.306925,
-.525,-.318923,
-.506042,-.327763,
-.485838,-.333177,
-.465,-.335,
.465,-.335,
.485838,-.333177,
.506042,-.327763,
.525,-.318923,
.542135,-.306925,
.556925,-.292135,
.568923,-.275,
.577763,-.256042,
.583177,-.235838,
.585,-.215,
.585,.215,
.583177,.235838,
.577763,.256042,
.568923,.275,
.556925,.292135,
.542135,.306925,
.525,.318923,
.506042,.327763,
.485838,.333177,
.465,.335,
0.0*
%
%ADD45MACRO45*%
%ADD41R,1.8X1.6*%
%ADD23R,.8X.6*%
%ADD14R,.6X.8*%
%ADD43R,1.13X2.68*%
%ADD10C,2.032*%
%ADD12R,.47X.42*%
%ADD28R,.42X.47*%
%ADD32C,1.57*%
%ADD25R,.83X.93*%
%ADD22C,2.3622*%
%ADD34R,1.27X1.27*%
%ADD33R,1.865X4.42*%
%ADD13R,1.524X1.524*%
%ADD39R,1.3208X1.6256*%
%ADD31R,1.57X1.57*%
%ADD38R,2.3368X1.6256*%
%ADD29R,.5588X.635*%
%ADD21R,.8128X.9652*%
%ADD11R,.635X.5588*%
%ADD27R,.9652X.8128*%
%LPD*%
G75*
G54D10*
X508000Y533400D03*
Y9072400D03*
X30692000Y1358400D03*
Y9897400D03*
G54D11*
X865300Y3254500D03*
X860200Y5736200D03*
X1043100Y3160520D03*
Y3351020D03*
X1038000Y5642220D03*
Y5832720D03*
X3391400Y5772800D03*
X3569200Y5678820D03*
Y5869320D03*
G54D20*
X1615800Y3164000D03*
X1617100Y5645400D03*
X4145000Y5678700D03*
G54D21*
X2278760Y7914100D03*
X2278160Y8015600D03*
Y8116500D03*
X2421000Y7914100D03*
X2420400Y8015600D03*
Y8116500D03*
X8892660Y6735200D03*
Y6836200D03*
Y6937800D03*
X8892560Y7039000D03*
X8892160Y7140500D03*
X8899760Y8585800D03*
Y8687400D03*
X8899260Y8789600D03*
X8901200Y8219200D03*
X8900860Y8381700D03*
X8900360Y8484200D03*
X9034900Y6735200D03*
Y6836200D03*
Y6937800D03*
X9034800Y7039000D03*
X9034400Y7140500D03*
X9043440Y8219200D03*
X9043100Y8381700D03*
X9042600Y8484200D03*
X9042000Y8585800D03*
Y8687400D03*
X9041500Y8789600D03*
X10198360Y8111000D03*
X10340600D03*
X11278400Y8103100D03*
X11420640D03*
G54D12*
X860100Y3339400D03*
Y3404400D03*
X853900Y5820900D03*
Y5885900D03*
X1049300Y3225000D03*
Y3290000D03*
X1044200Y5709700D03*
Y5774700D03*
X3384400Y5857900D03*
Y5922900D03*
X3575200Y5743700D03*
Y5808700D03*
X4210900Y9439100D03*
Y9504100D03*
X4898800Y10042000D03*
Y10107000D03*
X6162300Y8804000D03*
Y8869000D03*
X8805300Y7887100D03*
Y7952100D03*
X8930100Y8064300D03*
Y8129300D03*
X9174600Y7104300D03*
Y7169300D03*
X9173700Y8154800D03*
Y8219800D03*
X9303200Y7105200D03*
Y7170200D03*
X9369700Y7104400D03*
Y7169400D03*
X9369000Y8154900D03*
Y8219900D03*
X9434400Y7103900D03*
Y7168900D03*
X9435400Y8154900D03*
Y8219900D03*
X9498800Y7103900D03*
Y7168900D03*
X9500100Y8155000D03*
Y8220000D03*
X9563700Y7104600D03*
Y7169600D03*
X9565000Y8154500D03*
Y8219500D03*
X9629700Y7104700D03*
Y7169700D03*
X9629500Y8153500D03*
Y8218500D03*
X10088600Y5976900D03*
Y6041900D03*
X10288100Y3963300D03*
Y4028300D03*
X10244400Y5975600D03*
Y6040600D03*
X10349700Y3963400D03*
Y4028400D03*
X10412700Y3963600D03*
Y4028600D03*
X10469800Y3964000D03*
Y4029000D03*
X10535100Y3963000D03*
Y4028000D03*
X10602900Y3963900D03*
Y4028900D03*
X10631700Y5973300D03*
Y6038300D03*
X10599100Y8492400D03*
Y8557400D03*
X10681400Y3963000D03*
Y4028000D03*
X10694600Y5972700D03*
Y6037700D03*
X10695400Y8492400D03*
Y8557400D03*
X10759700Y5973700D03*
Y6038700D03*
X10831100Y5973700D03*
Y6038700D03*
X10905600Y5973800D03*
Y6038800D03*
X13105900Y9239700D03*
Y9304700D03*
X14457400Y2898550D03*
Y2963550D03*
X14510100Y9667000D03*
Y9732000D03*
X15636000Y9236900D03*
Y9301900D03*
X16957500Y2893900D03*
Y2958900D03*
X18136800Y9249600D03*
Y9314600D03*
X19457500Y2894500D03*
Y2959500D03*
X19575600Y9663200D03*
Y9728200D03*
X20645300Y9239900D03*
Y9304900D03*
X21958900Y2895600D03*
Y2960600D03*
X23134600Y9238100D03*
Y9303100D03*
X24459000Y2896500D03*
Y2961500D03*
X24563800Y9657200D03*
Y9722200D03*
X25685200Y9245000D03*
Y9310000D03*
X26958800Y2898400D03*
Y2963400D03*
X28171500Y9240900D03*
Y9305900D03*
X29456600Y2898400D03*
Y2963400D03*
G54D30*
X4932150Y8850300D03*
Y8977300D03*
Y9104300D03*
Y9231300D03*
X5427450Y8850300D03*
Y8977300D03*
Y9104300D03*
Y9231300D03*
G54D31*
X5077200Y10107900D03*
X6848900Y10024200D03*
X8085800Y10091200D03*
G54D13*
X878600Y3624500D03*
Y3784500D03*
X880600Y6108700D03*
Y6268700D03*
X1208800Y3624500D03*
Y3784500D03*
X1210800Y6108700D03*
Y6268700D03*
X1643600Y2033000D03*
Y2193000D03*
X1644600Y2353000D03*
Y2513000D03*
X1800900Y4511400D03*
Y4672400D03*
Y4832400D03*
Y4993400D03*
X1973800Y2033000D03*
Y2193000D03*
X1974800Y2353000D03*
Y2513000D03*
X2090000Y8247500D03*
X2088500Y8411000D03*
X2131100Y4511400D03*
Y4672400D03*
Y4832400D03*
Y4993400D03*
X2474800Y2590000D03*
Y2750000D03*
Y2910000D03*
X2473800Y3070000D03*
X2468100Y5055400D03*
X2469100Y5215400D03*
Y5375400D03*
Y5535400D03*
X2420200Y8247500D03*
X2418700Y8411000D03*
X2805000Y2590000D03*
Y2750000D03*
Y2910000D03*
X2804000Y3070000D03*
X2798300Y5055400D03*
X2799300Y5215400D03*
Y5375400D03*
Y5535400D03*
X3409000Y6144200D03*
Y6304200D03*
X3739200Y6144200D03*
Y6304200D03*
X4062200Y2775300D03*
Y3105500D03*
X4224900Y2775300D03*
Y3105500D03*
X4292200Y4541000D03*
Y4701000D03*
Y4861000D03*
Y5021000D03*
X4622400Y4541000D03*
Y4701000D03*
Y4861000D03*
Y5021000D03*
X4970000Y2507300D03*
Y2837500D03*
X4999300Y5096500D03*
X4999000Y5260700D03*
X4998000Y5420700D03*
Y5580700D03*
X5131000Y2507300D03*
Y2837500D03*
X5290200Y3111200D03*
Y3441400D03*
X5329500Y5096500D03*
X5329200Y5260700D03*
X5328200Y5420700D03*
Y5580700D03*
X5451200Y3111200D03*
Y3441400D03*
G54D22*
X2682200Y9439410D03*
Y9859410D03*
X3102200Y9439410D03*
Y9859410D03*
X3522200Y9439410D03*
Y9859410D03*
G54D40*
X10526180Y7308770D03*
Y7373790D03*
Y7438820D03*
Y7503840D03*
Y7568860D03*
Y7633890D03*
Y7698910D03*
Y7763940D03*
Y7828960D03*
Y7893980D03*
Y7959010D03*
Y8024030D03*
X11100220Y7308770D03*
Y7373790D03*
Y7438820D03*
Y7503840D03*
Y7568860D03*
Y7633890D03*
Y7763940D03*
Y7698910D03*
Y7828960D03*
Y7893980D03*
Y7959010D03*
Y8024030D03*
G54D32*
X5331200Y10107900D03*
X6340900Y10024200D03*
X6594900D03*
X8339800Y10091200D03*
X8593800D03*
X8847800D03*
X9101800D03*
G54D14*
X935700Y3467800D03*
X930100Y5950700D03*
X1030100D03*
X1035700Y3467800D03*
X3460800Y5986500D03*
X3560800D03*
X11480400Y7830200D03*
X11580400D03*
G54D23*
X4211200Y9572700D03*
Y9672700D03*
X5064900Y3753100D03*
Y3853100D03*
X8891500Y7851900D03*
Y7951900D03*
X13191700Y9139900D03*
Y9239900D03*
X14371750Y2863400D03*
Y2963400D03*
X15724800Y9138000D03*
Y9238000D03*
X16871750Y2858700D03*
Y2958700D03*
X18224100Y9149900D03*
Y9249900D03*
X19371850Y2859500D03*
Y2959500D03*
X20731500Y9139400D03*
Y9239400D03*
X21873150Y2860300D03*
Y2960300D03*
X23221100Y9137600D03*
Y9237600D03*
X24372750Y2862200D03*
Y2962200D03*
X25771300Y9144900D03*
Y9244900D03*
X26872850Y2863100D03*
Y2963100D03*
X28257200Y9140800D03*
Y9240800D03*
X29370700Y2863100D03*
Y2963100D03*
G54D41*
X10526600Y9940100D03*
Y10240100D03*
X11246600Y9940100D03*
Y10240100D03*
G54D33*
X5832900Y4688200D03*
X5837400Y6413700D03*
X5865600Y1953000D03*
X5862800Y2759500D03*
X5841700Y3615500D03*
X5840100Y5559200D03*
X6265300Y3615500D03*
X6256500Y4688200D03*
X6263700Y5559200D03*
X6261000Y6413700D03*
X6289200Y1953000D03*
X6286400Y2759500D03*
G54D42*
X10600400Y8647500D03*
Y8907500D03*
X10695400Y8647500D03*
X10790400D03*
Y8907500D03*
G54D15*
X1165500Y4099500D03*
Y4969500D03*
X1165000Y6581900D03*
Y7451900D03*
X3692000Y6615700D03*
Y7485700D03*
X3764100Y3215300D03*
Y4085300D03*
G54D24*
X4402100Y3020100D03*
Y3175100D03*
Y3415100D03*
Y3570100D03*
X5112100Y3020100D03*
Y3175100D03*
Y3415100D03*
Y3570100D03*
G54D34*
X6445000Y3243940D03*
Y3457300D03*
X6444900Y3774700D03*
Y3988060D03*
X6444600Y5585000D03*
Y5798360D03*
X6440500Y6043140D03*
Y6256500D03*
X6440400Y6571400D03*
Y6784760D03*
X10042300Y9533140D03*
Y9746500D03*
G54D25*
X4637100Y3020100D03*
Y3295100D03*
Y3415100D03*
Y3570100D03*
X4757100Y3020100D03*
Y3175100D03*
Y3295100D03*
Y3415100D03*
Y3570100D03*
X4877100Y3020100D03*
Y3175100D03*
Y3295100D03*
Y3415100D03*
Y3570100D03*
G54D43*
X12170150Y2311000D03*
X14250150D03*
X14670150Y2305000D03*
X16750150D03*
X17170150D03*
X19250150D03*
X19670150Y2311000D03*
X21750150D03*
X22170150D03*
X24250150D03*
X24670150D03*
X26750150D03*
X27170100Y2311200D03*
X29250100D03*
G54D16*
X1254700Y3410900D03*
Y3517580D03*
X1257100Y5893800D03*
Y6000480D03*
X2425800Y3294000D03*
Y3400680D03*
X2428100Y5775400D03*
Y5882080D03*
X3782700Y5928800D03*
Y6035480D03*
X4531420Y3705100D03*
X4650920Y2884100D03*
X4638100Y3705100D03*
X4629820Y9103600D03*
X4757600Y2884100D03*
X4736500Y9103600D03*
X4829900Y8743300D03*
Y8849980D03*
X4956000Y5809700D03*
Y5916380D03*
X6100200Y8762100D03*
Y8868780D03*
X6152100Y10024200D03*
Y10130880D03*
X6919100Y8793020D03*
Y8899700D03*
X8816120Y7565000D03*
X8922800D03*
X10233820Y7969800D03*
Y8030800D03*
X10340500Y7969800D03*
Y8030800D03*
X10512200Y8736700D03*
Y8843380D03*
X10604920Y8162200D03*
X10711600D03*
X10886720Y8907600D03*
X10993400D03*
X11278600Y7962100D03*
X11278500Y8022700D03*
X11385280Y7962100D03*
X11385180Y8022700D03*
X11995700Y2193100D03*
Y2299780D03*
X12062150Y2192800D03*
Y2299480D03*
X12072950Y2928420D03*
Y3035100D03*
X12341150Y3207320D03*
Y3314000D03*
X12402450Y3207320D03*
Y3314000D03*
X12775250Y1982320D03*
Y2089000D03*
X12845750Y1982320D03*
Y2089000D03*
X12909350Y3106100D03*
Y3212780D03*
X13672450Y3211000D03*
Y3317680D03*
X13734350Y3211000D03*
Y3317680D03*
X13995850Y3210820D03*
Y3317500D03*
X14058850Y3210820D03*
Y3317500D03*
X14501400Y2180100D03*
Y2286780D03*
X14566750Y2180100D03*
Y2286780D03*
X14572750Y2927520D03*
Y3034200D03*
X14854850Y3201920D03*
Y3308600D03*
X14915650Y3202420D03*
Y3309100D03*
X15274750Y1978620D03*
Y2085300D03*
X15345650Y1978420D03*
Y2085100D03*
X15410150Y3121400D03*
Y3228080D03*
X16176550Y3207800D03*
Y3314480D03*
X16237850Y3207800D03*
Y3314480D03*
X16500450Y3212920D03*
Y3319600D03*
X16561050Y3212820D03*
Y3319500D03*
X17003100Y2179300D03*
Y2285980D03*
X17068650Y2179600D03*
Y2286280D03*
X17072650Y2924120D03*
Y3030800D03*
X17355950Y3211520D03*
Y3318200D03*
X17417250Y3210620D03*
Y3317300D03*
X17775050Y1973720D03*
Y2080400D03*
X17845250Y1973720D03*
Y2080400D03*
X17910750Y3107600D03*
Y3214280D03*
X18737750Y3216200D03*
X18676050Y3215900D03*
X18737750Y3322880D03*
X18676050Y3322580D03*
X18993350Y3215520D03*
Y3322200D03*
X19055350Y3215020D03*
Y3321700D03*
X19499400Y2183200D03*
Y2289880D03*
X19564950Y2183000D03*
Y2289680D03*
X19572050Y2929920D03*
Y3036600D03*
X19843450Y3214620D03*
Y3321300D03*
X19905550Y3214620D03*
Y3321300D03*
X20276050Y1977820D03*
Y2084500D03*
X20346150Y1977820D03*
Y2084500D03*
X20409450Y3111900D03*
Y3218580D03*
X21173850Y3219900D03*
Y3326580D03*
X21235950Y3219900D03*
Y3326580D03*
X21496850Y3211320D03*
X21558150Y3211120D03*
X21496850Y3318000D03*
X21558150Y3317800D03*
X21998900Y2183900D03*
Y2290580D03*
X22065250Y2183700D03*
Y2290380D03*
X22071050Y2931920D03*
Y3038600D03*
X22351750Y3215120D03*
Y3321800D03*
X22412750Y3214920D03*
Y3321600D03*
X22771450Y1988120D03*
Y2094800D03*
X22841950Y1988020D03*
Y2094700D03*
X22910850Y3110500D03*
Y3217180D03*
X23672850Y3216200D03*
Y3322880D03*
X23734350Y3215100D03*
Y3321780D03*
X24002550Y3211020D03*
Y3317700D03*
X24063350Y3211320D03*
Y3318000D03*
X24495200Y2185600D03*
Y2292280D03*
X24561550Y2185000D03*
Y2291680D03*
X24570850Y2931920D03*
Y3038600D03*
X24848550Y3214120D03*
Y3320800D03*
X24910550Y3212920D03*
Y3319600D03*
X25343850Y2006120D03*
X25273550D03*
X25343850Y2112800D03*
X25273550D03*
X25410750Y3111500D03*
Y3218180D03*
X26178550Y3212300D03*
Y3318980D03*
X26240050Y3211700D03*
Y3318380D03*
X26491250Y3213120D03*
Y3319800D03*
X26552750Y3212620D03*
Y3319300D03*
X27002200Y2185200D03*
Y2291880D03*
X27068000Y2184800D03*
Y2291480D03*
X27072100Y2931720D03*
Y3038400D03*
X27419500Y3208020D03*
X27357400Y3207420D03*
X27419500Y3314700D03*
X27357400Y3314100D03*
X27773900Y1999020D03*
Y2105700D03*
X27844500Y1999020D03*
Y2105700D03*
X27911000Y3112600D03*
Y3219280D03*
X28672300Y3217000D03*
Y3323680D03*
X28733200Y3217400D03*
Y3324080D03*
X29001600Y3216120D03*
Y3322800D03*
X29062200Y3215820D03*
Y3322500D03*
G54D17*
X1405800Y2699000D03*
Y2829000D03*
Y2959000D03*
Y3629000D03*
Y3759000D03*
Y3889000D03*
X1407100Y5180400D03*
Y5310400D03*
Y5440400D03*
Y6110400D03*
Y6240400D03*
Y6370400D03*
X1555800Y2699000D03*
Y2829000D03*
Y2959000D03*
Y3629000D03*
Y3759000D03*
Y3889000D03*
X1557100Y5180400D03*
Y5310400D03*
Y5440400D03*
Y6110400D03*
Y6240400D03*
Y6370400D03*
X1615800Y3294000D03*
Y3424000D03*
X1617100Y5775400D03*
Y5905400D03*
X1705800Y2699000D03*
Y2829000D03*
Y2959000D03*
Y3629000D03*
Y3759000D03*
Y3889000D03*
X1707100Y5180400D03*
Y5310400D03*
Y5440400D03*
Y6110400D03*
Y6240400D03*
Y6370400D03*
X1765800Y3164000D03*
Y3294000D03*
Y3424000D03*
X1767100Y5645400D03*
Y5775400D03*
Y5905400D03*
X1915800Y3164000D03*
Y3294000D03*
Y3424000D03*
X1917100Y5645400D03*
Y5775400D03*
Y5905400D03*
X1975800Y2699000D03*
Y2829000D03*
Y2959000D03*
Y3629000D03*
Y3759000D03*
Y3889000D03*
X1977100Y5180400D03*
Y5310400D03*
Y5440400D03*
Y6110400D03*
Y6240400D03*
Y6370400D03*
X2065800Y3164000D03*
Y3294000D03*
Y3424000D03*
X2067100Y5645400D03*
Y5775400D03*
Y5905400D03*
X2125800Y2699000D03*
Y2829000D03*
Y2959000D03*
Y3629000D03*
Y3759000D03*
Y3889000D03*
X2127100Y5180400D03*
Y5310400D03*
Y5440400D03*
Y6110400D03*
Y6240400D03*
Y6370400D03*
X2275800Y2699000D03*
Y2829000D03*
Y2959000D03*
Y3629000D03*
Y3759000D03*
Y3889000D03*
X2277100Y5180400D03*
Y5310400D03*
Y5440400D03*
Y6110400D03*
Y6240400D03*
Y6370400D03*
X3935000Y5213700D03*
Y5343700D03*
Y5473700D03*
Y6143700D03*
Y6273700D03*
Y6403700D03*
X4085000Y5213700D03*
Y5343700D03*
Y5473700D03*
Y6143700D03*
Y6273700D03*
Y6403700D03*
X4145000Y5808700D03*
Y5938700D03*
X4235000Y5213700D03*
Y5343700D03*
Y5473700D03*
Y6143700D03*
Y6273700D03*
Y6403700D03*
X4295000Y5678700D03*
Y5808700D03*
Y5938700D03*
X4445000Y5678700D03*
Y5808700D03*
Y5938700D03*
X4505000Y5213700D03*
Y5343700D03*
Y5473700D03*
Y6143700D03*
Y6273700D03*
Y6403700D03*
X4595000Y5678700D03*
Y5808700D03*
Y5938700D03*
X4655000Y5213700D03*
Y5343700D03*
Y5473700D03*
Y6143700D03*
Y6273700D03*
Y6403700D03*
X4805000Y5213700D03*
Y5343700D03*
Y5473700D03*
Y6143700D03*
Y6273700D03*
Y6403700D03*
G54D35*
X6413360Y8868780D03*
Y8932280D03*
Y8998320D03*
Y9061820D03*
X6774040Y8868780D03*
Y8932280D03*
Y8998320D03*
Y9061820D03*
G54D44*
X12285150Y2233500D03*
X12335150D03*
X12310150Y2988500D03*
X12360150D03*
X12385150Y2233500D03*
X12435150D03*
X12410150Y2988500D03*
X12485150Y2233500D03*
X12460150Y2988500D03*
X12710150D03*
X12735150Y2233500D03*
X12785150D03*
X12760150Y2988500D03*
X12835150Y2233500D03*
X12810150Y2988500D03*
X12860150D03*
X12885150Y2233500D03*
X12935150D03*
X12910150Y2988500D03*
X12985150Y2233500D03*
X12960150Y2988500D03*
X13010150D03*
X13035150Y2233500D03*
X13085150D03*
X13060150Y2988500D03*
X13135150Y2233500D03*
X13110150Y2988500D03*
X13160150D03*
X13185150Y2233500D03*
X13235150D03*
X13210150Y2988500D03*
X13285150Y2233500D03*
X13260150Y2988500D03*
X13310150D03*
X13335150Y2233500D03*
X13385150D03*
X13360150Y2988500D03*
X13435150Y2233500D03*
X13410150Y2988500D03*
X13460150D03*
X13485150Y2233500D03*
X13535150D03*
X13510150Y2988500D03*
X13585150Y2233500D03*
X13560150Y2988500D03*
X13610150D03*
X13635150Y2233500D03*
X13685150D03*
X13660150Y2988500D03*
X13735150Y2233500D03*
X13710150Y2988500D03*
X13760150D03*
X13785150Y2233500D03*
X13835150D03*
X13810150Y2988500D03*
X13885150Y2233500D03*
X13860150Y2988500D03*
X13910150D03*
X13935150Y2233500D03*
X13985150D03*
X13960150Y2988500D03*
X14035150Y2233500D03*
X14010150Y2988500D03*
X14060150D03*
X14085150Y2233500D03*
X14135150D03*
X14110150Y2988500D03*
X14785150Y2227500D03*
X14835150D03*
X14810150Y2982500D03*
X14860150D03*
X14885150Y2227500D03*
X14935150D03*
X14910150Y2982500D03*
X14985150Y2227500D03*
X14960150Y2982500D03*
X15235150Y2227500D03*
X15210150Y2982500D03*
X15285150Y2227500D03*
X15260150Y2982500D03*
X15310150D03*
X15335150Y2227500D03*
X15385150D03*
X15360150Y2982500D03*
X15435150Y2227500D03*
X15410150Y2982500D03*
X15460150D03*
X15485150Y2227500D03*
X15535150D03*
X15510150Y2982500D03*
X15585150Y2227500D03*
X15560150Y2982500D03*
X15610150D03*
X15635150Y2227500D03*
X15685150D03*
X15660150Y2982500D03*
X15735150Y2227500D03*
X15710150Y2982500D03*
X15760150D03*
X15785150Y2227500D03*
X15835150D03*
X15810150Y2982500D03*
X15885150Y2227500D03*
X15860150Y2982500D03*
X15910150D03*
X15935150Y2227500D03*
X15985150D03*
X15960150Y2982500D03*
X16035150Y2227500D03*
X16010150Y2982500D03*
X16060150D03*
X16085150Y2227500D03*
X16135150D03*
X16110150Y2982500D03*
X16185150Y2227500D03*
X16160150Y2982500D03*
X16210150D03*
X16235150Y2227500D03*
X16285150D03*
X16260150Y2982500D03*
X16335150Y2227500D03*
X16310150Y2982500D03*
X16360150D03*
X16385150Y2227500D03*
X16435150D03*
X16410150Y2982500D03*
X16485150Y2227500D03*
X16460150Y2982500D03*
X16510150D03*
X16535150Y2227500D03*
X16585150D03*
X16560150Y2982500D03*
X16635150Y2227500D03*
X16610150Y2982500D03*
X17285150Y2227500D03*
X17310150Y2982500D03*
X17335150Y2227500D03*
X17385150D03*
X17360150Y2982500D03*
X17435150Y2227500D03*
X17410150Y2982500D03*
X17460150D03*
X17485150Y2227500D03*
X17735150D03*
X17710150Y2982500D03*
X17760150D03*
X17785150Y2227500D03*
X17835150D03*
X17810150Y2982500D03*
X17885150Y2227500D03*
X17860150Y2982500D03*
X17910150D03*
X17935150Y2227500D03*
X17985150D03*
X17960150Y2982500D03*
X18035150Y2227500D03*
X18010150Y2982500D03*
X18060150D03*
X18085150Y2227500D03*
X18135150D03*
X18110150Y2982500D03*
X18185150Y2227500D03*
X18160150Y2982500D03*
X18210150D03*
X18235150Y2227500D03*
X18285150D03*
X18260150Y2982500D03*
X18335150Y2227500D03*
X18310150Y2982500D03*
X18360150D03*
X18385150Y2227500D03*
X18435150D03*
X18410150Y2982500D03*
X18485150Y2227500D03*
X18460150Y2982500D03*
X18510150D03*
X18535150Y2227500D03*
X18585150D03*
X18560150Y2982500D03*
X18635150Y2227500D03*
X18610150Y2982500D03*
X18660150D03*
X18685150Y2227500D03*
X18735150D03*
X18710150Y2982500D03*
X18785150Y2227500D03*
X18760150Y2982500D03*
X18810150D03*
X18835150Y2227500D03*
X18885150D03*
X18860150Y2982500D03*
X18935150Y2227500D03*
X18910150Y2982500D03*
X18985150Y2227500D03*
X18960150Y2982500D03*
X19010150D03*
X19035150Y2227500D03*
X19085150D03*
X19060150Y2982500D03*
X19135150Y2227500D03*
X19110150Y2982500D03*
X19785150Y2233500D03*
X19835150D03*
X19810150Y2988500D03*
X19885150Y2233500D03*
X19860150Y2988500D03*
X19910150D03*
X19935150Y2233500D03*
X19985150D03*
X19960150Y2988500D03*
X20210150D03*
X20235150Y2233500D03*
X20285150D03*
X20260150Y2988500D03*
X20335150Y2233500D03*
X20310150Y2988500D03*
X20360150D03*
X20385150Y2233500D03*
X20435150D03*
X20410150Y2988500D03*
X20485150Y2233500D03*
X20460150Y2988500D03*
X20510150D03*
X20535150Y2233500D03*
X20585150D03*
X20560150Y2988500D03*
X20635150Y2233500D03*
X20610150Y2988500D03*
X20660150D03*
X20685150Y2233500D03*
X20735150D03*
X20710150Y2988500D03*
X20785150Y2233500D03*
X20760150Y2988500D03*
X20810150D03*
X20835150Y2233500D03*
X20885150D03*
X20860150Y2988500D03*
X20935150Y2233500D03*
X20910150Y2988500D03*
X20960150D03*
X20985150Y2233500D03*
X21010150Y2988500D03*
X21035150Y2233500D03*
X21085150D03*
X21060150Y2988500D03*
X21135150Y2233500D03*
X21110150Y2988500D03*
X21160150D03*
X21185150Y2233500D03*
X21235150D03*
X21210150Y2988500D03*
X21285150Y2233500D03*
X21260150Y2988500D03*
X21310150D03*
X21335150Y2233500D03*
X21385150D03*
X21360150Y2988500D03*
X21435150Y2233500D03*
X21410150Y2988500D03*
X21460150D03*
X21485150Y2233500D03*
X21535150D03*
X21510150Y2988500D03*
X21585150Y2233500D03*
X21560150Y2988500D03*
X21610150D03*
X21635150Y2233500D03*
X22285150D03*
X22335150D03*
X22310150Y2988500D03*
X22360150D03*
X22385150Y2233500D03*
X22435150D03*
X22410150Y2988500D03*
X22485150Y2233500D03*
X22460150Y2988500D03*
X22735150Y2233500D03*
X22710150Y2988500D03*
X22785150Y2233500D03*
X22760150Y2988500D03*
X22810150D03*
X22835150Y2233500D03*
X22885150D03*
X22860150Y2988500D03*
X22935150Y2233500D03*
X22910150Y2988500D03*
X22960150D03*
X22985150Y2233500D03*
X23035150D03*
X23010150Y2988500D03*
X23085150Y2233500D03*
X23060150Y2988500D03*
X23110150D03*
X23135150Y2233500D03*
X23160150Y2988500D03*
X23185150Y2233500D03*
X23235150D03*
X23210150Y2988500D03*
X23285150Y2233500D03*
X23260150Y2988500D03*
X23310150D03*
X23335150Y2233500D03*
X23385150D03*
X23360150Y2988500D03*
X23435150Y2233500D03*
X23410150Y2988500D03*
X23460150D03*
X23485150Y2233500D03*
X23535150D03*
X23510150Y2988500D03*
X23585150Y2233500D03*
X23560150Y2988500D03*
X23610150D03*
X23635150Y2233500D03*
X23685150D03*
X23660150Y2988500D03*
X23735150Y2233500D03*
X23710150Y2988500D03*
X23760150D03*
X23785150Y2233500D03*
X23835150D03*
X23810150Y2988500D03*
X23885150Y2233500D03*
X23860150Y2988500D03*
X23910150D03*
X23935150Y2233500D03*
X23985150D03*
X23960150Y2988500D03*
X24035150Y2233500D03*
X24010150Y2988500D03*
X24060150D03*
X24085150Y2233500D03*
X24135150D03*
X24110150Y2988500D03*
X24785150Y2233500D03*
X24810150Y2988500D03*
X24835150Y2233500D03*
X24885150D03*
X24860150Y2988500D03*
X24935150Y2233500D03*
X24910150Y2988500D03*
X24960150D03*
X24985150Y2233500D03*
X25235150D03*
X25210150Y2988500D03*
X25260150D03*
X25285150Y2233500D03*
X25310150Y2988500D03*
X25335150Y2233500D03*
X25385150D03*
X25360150Y2988500D03*
X25435150Y2233500D03*
X25410150Y2988500D03*
X25460150D03*
X25485150Y2233500D03*
X25535150D03*
X25510150Y2988500D03*
X25585150Y2233500D03*
X25560150Y2988500D03*
X25610150D03*
X25635150Y2233500D03*
X25685150D03*
X25660150Y2988500D03*
X25735150Y2233500D03*
X25710150Y2988500D03*
X25760150D03*
X25785150Y2233500D03*
X25835150D03*
X25810150Y2988500D03*
X25885150Y2233500D03*
X25860150Y2988500D03*
X25910150D03*
X25935150Y2233500D03*
X25985150D03*
X25960150Y2988500D03*
X26035150Y2233500D03*
X26010150Y2988500D03*
X26060150D03*
X26085150Y2233500D03*
X26135150D03*
X26110150Y2988500D03*
X26185150Y2233500D03*
X26160150Y2988500D03*
X26210150D03*
X26235150Y2233500D03*
X26285150D03*
X26260150Y2988500D03*
X26335150Y2233500D03*
X26310150Y2988500D03*
X26360150D03*
X26385150Y2233500D03*
X26435150D03*
X26410150Y2988500D03*
X26485150Y2233500D03*
X26460150Y2988500D03*
X26510150D03*
X26535150Y2233500D03*
X26585150D03*
X26560150Y2988500D03*
X26635150Y2233500D03*
X26610150Y2988500D03*
X27285100Y2233700D03*
X27335100D03*
X27310100Y2988700D03*
X27385100Y2233700D03*
X27360100Y2988700D03*
X27410100D03*
X27435100Y2233700D03*
X27460100Y2988700D03*
X27485100Y2233700D03*
X27735100D03*
X27710100Y2988700D03*
X27760100D03*
X27785100Y2233700D03*
X27835100D03*
X27810100Y2988700D03*
X27885100Y2233700D03*
X27860100Y2988700D03*
X27910100D03*
X27935100Y2233700D03*
X27985100D03*
X27960100Y2988700D03*
X28035100Y2233700D03*
X28010100Y2988700D03*
X28060100D03*
X28085100Y2233700D03*
X28135100D03*
X28110100Y2988700D03*
X28185100Y2233700D03*
X28160100Y2988700D03*
X28210100D03*
X28235100Y2233700D03*
X28285100D03*
X28260100Y2988700D03*
X28335100Y2233700D03*
X28310100Y2988700D03*
X28360100D03*
X28385100Y2233700D03*
X28435100D03*
X28410100Y2988700D03*
X28485100Y2233700D03*
X28460100Y2988700D03*
X28510100D03*
X28535100Y2233700D03*
X28585100D03*
X28560100Y2988700D03*
X28635100Y2233700D03*
X28610100Y2988700D03*
X28660100D03*
X28685100Y2233700D03*
X28735100D03*
X28710100Y2988700D03*
X28785100Y2233700D03*
X28760100Y2988700D03*
X28810100D03*
X28835100Y2233700D03*
X28885100D03*
X28860100Y2988700D03*
X28935100Y2233700D03*
X28910100Y2988700D03*
X28960100D03*
X28985100Y2233700D03*
X29035100D03*
X29010100Y2988700D03*
X29085100Y2233700D03*
X29060100Y2988700D03*
X29110100D03*
X29135100Y2233700D03*
G54D26*
X4637100Y3175100D03*
G54D27*
X4748800Y8713400D03*
Y8855640D03*
X6019100Y8732000D03*
Y8874240D03*
X6239900Y8729260D03*
Y8871500D03*
X6448300Y1629360D03*
Y1771600D03*
X6448900Y2136400D03*
Y2278640D03*
X6446000Y2437560D03*
Y2579800D03*
Y2941600D03*
Y3083840D03*
X6415700Y4365660D03*
Y4507900D03*
Y4869000D03*
Y5011240D03*
X6549300Y1629160D03*
Y1771400D03*
X6554900Y2136400D03*
Y2278640D03*
X6566600Y3315260D03*
Y3457500D03*
X6565900Y3774400D03*
Y3916640D03*
X6565800Y5585000D03*
Y5727240D03*
X6561200Y6114060D03*
Y6256300D03*
X6560800Y6571400D03*
Y6713640D03*
X6650200Y1629260D03*
Y1771500D03*
X6667900Y2136500D03*
Y2278740D03*
X6667400Y3315260D03*
Y3457500D03*
X6666500Y3774400D03*
Y3916640D03*
X6666300Y5585100D03*
Y5727340D03*
X6661500Y6113860D03*
Y6256100D03*
X6661400Y6571500D03*
Y6713740D03*
X6768100Y3315460D03*
Y3457700D03*
X6767600Y3774600D03*
Y3916840D03*
X7000500Y8745560D03*
Y8887800D03*
X10163000Y9606900D03*
Y9749140D03*
X12159150Y3219360D03*
Y3361600D03*
X12259850Y3219360D03*
Y3361600D03*
X13589550Y3224400D03*
Y3366640D03*
X14142050Y3222060D03*
Y3364300D03*
X14243750Y3222360D03*
Y3364600D03*
X14671450Y3214560D03*
Y3356800D03*
X14772550Y3214560D03*
Y3356800D03*
X16094050Y3220700D03*
Y3362940D03*
X16641550Y3223160D03*
Y3365400D03*
X16743250Y3222960D03*
Y3365200D03*
X17171950Y3223560D03*
Y3365800D03*
X17274150Y3223560D03*
Y3365800D03*
X18593850Y3229000D03*
Y3371240D03*
X19136850Y3227860D03*
Y3370100D03*
X19238450Y3227660D03*
Y3369900D03*
X19660150Y3227360D03*
Y3369600D03*
X19760950Y3227560D03*
Y3369800D03*
X21092050Y3230700D03*
Y3372940D03*
X21640650Y3223160D03*
Y3365400D03*
X21741850Y3222360D03*
Y3364600D03*
X22170150Y3228160D03*
Y3370400D03*
X22271050Y3227760D03*
Y3370000D03*
X23591250Y3228900D03*
Y3371140D03*
X24144250Y3223260D03*
Y3365500D03*
X24245950Y3222560D03*
Y3364800D03*
X24665850Y3220760D03*
Y3363000D03*
X24767050Y3221060D03*
Y3363300D03*
X26097350Y3225800D03*
Y3368040D03*
X26634550Y3224560D03*
Y3366800D03*
X26736350Y3225160D03*
Y3367400D03*
X27174700Y3220660D03*
Y3362900D03*
X27275700Y3220460D03*
Y3362700D03*
X28591100Y3234500D03*
Y3376740D03*
X29143400Y3227260D03*
Y3369500D03*
X29245500Y3226660D03*
Y3368900D03*
G54D45*
X14250000Y9603500D03*
Y9698500D03*
Y9793500D03*
X14510000Y9603500D03*
Y9793500D03*
X19314900Y9598600D03*
Y9693600D03*
Y9788600D03*
X19574900Y9598600D03*
Y9788600D03*
X24304500Y9592700D03*
Y9687700D03*
Y9782700D03*
X24564500Y9592700D03*
Y9782700D03*
G54D36*
X9044090Y7362080D03*
Y7936120D03*
X9174140Y7362080D03*
X9109120D03*
Y7936120D03*
X9174140D03*
X9239160Y7362080D03*
Y7936120D03*
X9304190Y7362080D03*
Y7936120D03*
X9369210Y7362080D03*
Y7936120D03*
X9434240Y7362080D03*
Y7936120D03*
X9499260Y7362080D03*
Y7936120D03*
X9564280Y7362080D03*
Y7936120D03*
X9629310Y7362080D03*
Y7936120D03*
G54D18*
X1400800Y3161500D03*
Y3426500D03*
X1402100Y5642900D03*
Y5907900D03*
X2280800Y3161500D03*
Y3426500D03*
X2282100Y5642900D03*
Y5907900D03*
X3930000Y5676200D03*
Y5941200D03*
X4810000Y5676200D03*
Y5941200D03*
G54D28*
X4685900Y8976700D03*
X4750900D03*
X4821700Y3739800D03*
X4886700D03*
X4922400Y3928600D03*
X4987400D03*
X5597600Y8850200D03*
X5597100Y8978300D03*
X5597300Y9104100D03*
X5662600Y8850200D03*
X5662100Y8978300D03*
X5662300Y9104100D03*
X6182800Y8998600D03*
X6183800Y9061200D03*
X6247800Y8998600D03*
X6248800Y9061200D03*
X6911000Y8997500D03*
X6911600Y9061100D03*
X6976000Y8997500D03*
X6976600Y9061100D03*
X8944300Y5857100D03*
X8944900Y5928700D03*
X9009300Y5857100D03*
X9009900Y5928700D03*
X8978400Y8299300D03*
X9043400D03*
X9738700Y7254700D03*
X9738000Y7308900D03*
X9803700Y7254700D03*
X9803000Y7308900D03*
X11515200Y7916100D03*
X11580200D03*
X14044900Y9793200D03*
X14109900D03*
X19101700Y9788300D03*
X19166700D03*
X24142500Y9782500D03*
X24207500D03*
G54D37*
X9131700Y4152890D03*
Y4252890D03*
Y4352890D03*
Y4452890D03*
Y4552890D03*
Y4652890D03*
Y4752890D03*
Y4852890D03*
Y4952890D03*
Y5052890D03*
Y5152890D03*
Y5252890D03*
Y5352890D03*
Y5452890D03*
Y5552890D03*
Y5652890D03*
Y5752890D03*
Y5852890D03*
X9231700Y4152890D03*
Y4252890D03*
Y4352890D03*
Y4452890D03*
Y4552890D03*
Y4652890D03*
Y4752890D03*
Y4852890D03*
Y4952890D03*
Y5052890D03*
Y5152890D03*
Y5252890D03*
Y5352890D03*
Y5452890D03*
Y5552890D03*
Y5652890D03*
Y5752890D03*
Y5852890D03*
X9331700Y4152890D03*
Y4252890D03*
Y4352890D03*
Y4452890D03*
Y4552890D03*
Y4652890D03*
Y4752890D03*
Y4852890D03*
Y4952890D03*
Y5052890D03*
Y5152890D03*
Y5252890D03*
Y5352890D03*
Y5452890D03*
Y5552890D03*
Y5652890D03*
Y5752890D03*
Y5852890D03*
X9431700Y4152890D03*
Y4252890D03*
Y4352890D03*
Y4452890D03*
Y4552890D03*
Y4652890D03*
Y4752890D03*
Y4852890D03*
Y4952890D03*
Y5052890D03*
Y5152890D03*
Y5252890D03*
Y5352890D03*
Y5452890D03*
Y5552890D03*
Y5652890D03*
Y5752890D03*
Y5852890D03*
X9531700Y4152890D03*
Y4252890D03*
Y4352890D03*
Y4452890D03*
Y4552890D03*
Y4652890D03*
Y4752890D03*
Y4852890D03*
Y4952890D03*
Y5052890D03*
Y5152890D03*
Y5252890D03*
Y5352890D03*
Y5452890D03*
Y5552890D03*
Y5652890D03*
Y5752890D03*
Y5852890D03*
X9631700Y4152890D03*
Y4252890D03*
Y4352890D03*
Y4452890D03*
Y4552890D03*
Y4652890D03*
Y4752890D03*
Y4852890D03*
Y4952890D03*
Y5052890D03*
Y5152890D03*
Y5252890D03*
Y5352890D03*
Y5452890D03*
Y5552890D03*
Y5652890D03*
Y5752890D03*
Y5852890D03*
X9731700Y4152890D03*
Y4252890D03*
Y4352890D03*
Y4452890D03*
Y4552890D03*
Y4652890D03*
Y4752890D03*
Y4852890D03*
Y4952890D03*
Y5052890D03*
Y5152890D03*
Y5252890D03*
Y5352890D03*
Y5452890D03*
Y5552890D03*
Y5652890D03*
Y5752890D03*
Y5852890D03*
X9831700Y4152890D03*
Y4252890D03*
Y4352890D03*
Y4452890D03*
Y4552890D03*
Y4652890D03*
Y4752890D03*
Y4852890D03*
Y4952890D03*
Y5052890D03*
Y5152890D03*
Y5252890D03*
Y5352890D03*
Y5452890D03*
Y5552890D03*
Y5652890D03*
Y5752890D03*
Y5852890D03*
X9931700Y4152890D03*
Y4252890D03*
Y4352890D03*
Y4452890D03*
Y4552890D03*
Y4652890D03*
Y4752890D03*
Y4852890D03*
Y4952890D03*
Y5052890D03*
Y5152890D03*
Y5252890D03*
Y5352890D03*
Y5452890D03*
Y5552890D03*
Y5652890D03*
Y5752890D03*
Y5852890D03*
X10031700Y4152890D03*
Y4252890D03*
Y4352890D03*
Y4452890D03*
Y4552890D03*
Y4652890D03*
Y4752890D03*
Y4852890D03*
Y4952890D03*
Y5052890D03*
Y5152890D03*
Y5252890D03*
Y5352890D03*
Y5452890D03*
Y5552890D03*
Y5652890D03*
Y5752890D03*
Y5852890D03*
X10131700Y4152890D03*
Y4252890D03*
Y4352890D03*
Y4452890D03*
Y4552890D03*
Y4652890D03*
Y4752890D03*
Y4852890D03*
Y4952890D03*
Y5052890D03*
Y5152890D03*
Y5252890D03*
Y5352890D03*
Y5452890D03*
Y5552890D03*
Y5652890D03*
Y5752890D03*
Y5852890D03*
X10231700Y4152890D03*
Y4252890D03*
Y4352890D03*
Y4452890D03*
Y4552890D03*
Y4652890D03*
Y4752890D03*
Y4852890D03*
Y4952890D03*
Y5052890D03*
Y5152890D03*
Y5252890D03*
Y5352890D03*
Y5452890D03*
Y5552890D03*
Y5652890D03*
Y5752890D03*
Y5852890D03*
X10331700Y4152890D03*
Y4252890D03*
Y4352890D03*
Y4452890D03*
Y4552890D03*
Y4652890D03*
Y4752890D03*
Y4852890D03*
Y4952890D03*
Y5052890D03*
Y5152890D03*
Y5252890D03*
Y5352890D03*
Y5452890D03*
Y5552890D03*
Y5652890D03*
Y5752890D03*
Y5852890D03*
X10431700Y4152890D03*
Y4252890D03*
Y4352890D03*
Y4452890D03*
Y4552890D03*
Y4652890D03*
Y4752890D03*
Y4852890D03*
Y4952890D03*
Y5052890D03*
Y5152890D03*
Y5252890D03*
Y5352890D03*
Y5452890D03*
Y5552890D03*
Y5652890D03*
Y5752890D03*
Y5852890D03*
X10531700Y4152890D03*
Y4252890D03*
Y4352890D03*
Y4452890D03*
Y4552890D03*
Y4652890D03*
Y4752890D03*
Y4852890D03*
Y4952890D03*
Y5052890D03*
Y5152890D03*
Y5252890D03*
Y5352890D03*
Y5452890D03*
Y5552890D03*
Y5652890D03*
Y5752890D03*
Y5852890D03*
X10631700Y4152890D03*
Y4252890D03*
Y4352890D03*
Y4452890D03*
Y4552890D03*
Y4652890D03*
Y4752890D03*
Y4852890D03*
Y4952890D03*
Y5052890D03*
Y5152890D03*
Y5252890D03*
Y5352890D03*
Y5452890D03*
Y5552890D03*
Y5652890D03*
Y5752890D03*
Y5852890D03*
X10731700Y4152890D03*
Y4252890D03*
Y4352890D03*
Y4452890D03*
Y4552890D03*
Y4652890D03*
Y4752890D03*
Y4852890D03*
Y4952890D03*
Y5052890D03*
Y5152890D03*
Y5252890D03*
Y5352890D03*
Y5452890D03*
Y5552890D03*
Y5652890D03*
Y5752890D03*
Y5852890D03*
X10831700Y4152890D03*
Y4252890D03*
Y4352890D03*
Y4452890D03*
Y4552890D03*
Y4652890D03*
Y4752890D03*
Y4852890D03*
Y4952890D03*
Y5052890D03*
Y5152890D03*
Y5252890D03*
Y5352890D03*
Y5452890D03*
Y5552890D03*
Y5652890D03*
Y5752890D03*
Y5852890D03*
G54D19*
X1400800Y3294000D03*
X1402100Y5775400D03*
X2280800Y3294000D03*
X2282100Y5775400D03*
X3930000Y5808700D03*
X4810000D03*
G54D29*
X4757920Y3745800D03*
X4851900Y3923600D03*
X4948420Y3745800D03*
G54D38*
X10335350Y9547130D03*
G54D39*
Y9750330D03*
X10528390Y9547130D03*
Y9750330D03*
M02*
